M48
; DRILL file {KiCad (5.1.5)-3} date 2/27/2020 5:40:09 PM
; FORMAT={-:-/ absolute / inch / decimal}
; #@! TF.CreationDate,2020-02-27T17:40:09-08:00
; #@! TF.GenerationSoftware,Kicad,Pcbnew,(5.1.5)-3
; #@! TF.FileFunction,Plated,1,2,PTH
FMAT,2
INCH
T1C0.0315
T2C0.0354
T3C0.0394
T4C0.0433
T5C0.0591
T6C0.1000
%
G90
G05
T1
X3.575Y-4.525
X3.575Y-4.6037
X2.8213Y-2.325
X2.9Y-2.325
X2.825Y-1.075
X2.825Y-1.1537
X3.575Y-3.45
X3.575Y-3.5287
X2.275Y-4.5213
X2.275Y-4.6
X2.375Y-3.2
X2.5719Y-3.2
X2.525Y-3.05
X2.925Y-3.05
X3.05Y-1.55
X3.1287Y-1.55
X3.2075Y-1.55
X3.2862Y-1.55
X3.365Y-1.55
X3.4437Y-1.55
X3.5224Y-1.55
X3.6012Y-1.55
X3.6799Y-1.55
X3.7587Y-1.55
X3.6213Y-2.325
X3.7Y-2.325
X3.0531Y-1.75
X3.25Y-1.75
X3.9Y-1.775
X3.9Y-2.175
X1.95Y-0.95
X1.95Y-1.35
X3.05Y-0.675
X3.1287Y-0.675
X3.2075Y-0.675
X3.2862Y-0.675
X3.365Y-0.675
X3.4437Y-0.675
X3.5224Y-0.675
X3.6012Y-0.675
X3.6799Y-0.675
X3.7587Y-0.675
X2.1781Y-0.75
X2.375Y-0.75
X3.2Y-1.95
X3.3921Y-1.95
X3.3531Y-1.75
X3.55Y-1.75
X2.55Y-1.5
X2.7469Y-1.5
X2.625Y-0.85
X2.625Y-1.25
X2.275Y-3.45
X2.275Y-3.5287
X2.6Y-2.475
X2.6Y-2.775
X2.7Y-2.475
X2.7Y-2.775
X2.8Y-2.475
X2.8Y-2.775
X2.9Y-2.475
X2.9Y-2.775
X3.0Y-2.475
X3.0Y-2.775
X3.1Y-2.475
X3.1Y-2.775
X3.2Y-2.475
X3.2Y-2.775
X3.3Y-2.475
X3.3Y-2.775
X3.4Y-2.475
X3.4Y-2.775
X3.5Y-2.475
X3.5Y-2.775
X3.6Y-2.475
X3.6Y-2.775
X3.7Y-2.475
X3.7Y-2.775
X3.8Y-2.475
X3.8Y-2.775
X3.9Y-2.475
X3.9Y-2.775
X2.0Y-2.125
X2.1969Y-2.125
X3.1Y-2.15
X3.5Y-2.15
X3.55Y-2.95
X3.55Y-3.0287
X3.3713Y-2.325
X3.45Y-2.325
X3.2531Y-2.95
X3.45Y-2.95
X2.0Y-1.825
X2.1969Y-1.825
T2
X2.4Y-1.075
X2.5Y-1.075
X1.975Y-0.775
X2.075Y-0.775
X3.35Y-3.3
X3.45Y-3.3
T3
X2.5Y-3.7
X2.5Y-3.8
X2.5Y-3.9
X2.5Y-4.0
X2.5Y-4.1
X2.5Y-4.2
X2.5Y-4.3
X2.5Y-4.4
X2.7Y-3.75
X2.7Y-3.85
X2.7Y-3.95
X2.7Y-4.05
X2.7Y-4.15
X2.7Y-4.25
X2.7Y-4.35
X3.2Y-3.75
X3.2Y-3.85
X3.2Y-3.95
X3.2Y-4.05
X3.2Y-4.15
X3.2Y-4.25
X3.2Y-4.35
X3.4Y-3.7
X3.4Y-3.8
X3.4Y-3.9
X3.4Y-4.0
X3.4Y-4.1
X3.4Y-4.2
X3.4Y-4.3
X3.4Y-4.4
T4
X3.88Y-3.525
X3.88Y-3.925
X3.73Y-4.62
X3.73Y-5.02
X2.1Y-3.025
X2.1Y-3.425
X1.95Y-4.125
X1.95Y-4.525
X3.88Y-4.12
X3.88Y-4.52
X3.73Y-3.525
X3.73Y-3.925
X2.1Y-4.625
X2.1Y-5.025
X3.73Y-3.025
X3.73Y-3.425
X3.88Y-3.025
X3.88Y-3.425
X3.73Y-4.12
X3.73Y-4.52
X1.95Y-3.525
X1.95Y-3.925
X2.1Y-4.125
X2.1Y-4.525
X1.95Y-3.025
X1.95Y-3.425
X3.88Y-4.62
X3.88Y-5.02
X2.1Y-3.525
X2.1Y-3.925
X1.95Y-4.625
X1.95Y-5.025
T5
X1.975Y-1.625
X2.175Y-1.625
X2.175Y-1.375
X2.375Y-1.375
T6
X2.95Y-3.3512
X2.95Y-4.75
T0
M30
