G04 #@! TF.GenerationSoftware,KiCad,Pcbnew,(5.1.5)-3*
G04 #@! TF.CreationDate,2020-02-27T17:39:30-08:00*
G04 #@! TF.ProjectId,MobileCloud,4d6f6269-6c65-4436-9c6f-75642e6b6963,C*
G04 #@! TF.SameCoordinates,Original*
G04 #@! TF.FileFunction,Paste,Top*
G04 #@! TF.FilePolarity,Positive*
%FSLAX46Y46*%
G04 Gerber Fmt 4.6, Leading zero omitted, Abs format (unit mm)*
G04 Created by KiCad (PCBNEW (5.1.5)-3) date 2020-02-27 17:39:30*
%MOMM*%
%LPD*%
G04 APERTURE LIST*
%ADD10R,1.060000X1.060000*%
%ADD11R,1.400000X1.060000*%
%ADD12R,3.800000X2.000000*%
%ADD13R,1.500000X2.000000*%
G04 APERTURE END LIST*
D10*
X59825000Y-60190000D03*
X57535000Y-60190000D03*
X55245000Y-60190000D03*
X52955000Y-60190000D03*
X50665000Y-60190000D03*
X59825000Y-62480000D03*
X57535000Y-62480000D03*
X55245000Y-62480000D03*
X52955000Y-62480000D03*
X50665000Y-62480000D03*
X59825000Y-64770000D03*
X57535000Y-64770000D03*
X55245000Y-64770000D03*
X52955000Y-64770000D03*
X50665000Y-64770000D03*
X59825000Y-67060000D03*
X57535000Y-67060000D03*
X55245000Y-67060000D03*
X52955000Y-67060000D03*
X50665000Y-67060000D03*
X59825000Y-69350000D03*
X57535000Y-69350000D03*
X55245000Y-69350000D03*
X52955000Y-69350000D03*
X50665000Y-69350000D03*
D11*
X50800000Y-50996000D03*
X50800000Y-49334000D03*
X60325000Y-77031000D03*
X60325000Y-75369000D03*
X61595000Y-40201000D03*
X61595000Y-38539000D03*
D10*
X71255000Y-44315000D03*
X68965000Y-44315000D03*
X66675000Y-44315000D03*
X64385000Y-44315000D03*
X62095000Y-44315000D03*
X71255000Y-46605000D03*
X68965000Y-46605000D03*
X66675000Y-46605000D03*
X64385000Y-46605000D03*
X62095000Y-46605000D03*
X71255000Y-48895000D03*
X68965000Y-48895000D03*
X66675000Y-48895000D03*
X64385000Y-48895000D03*
X62095000Y-48895000D03*
X71255000Y-51185000D03*
X68965000Y-51185000D03*
X66675000Y-51185000D03*
X64385000Y-51185000D03*
X62095000Y-51185000D03*
X71255000Y-53475000D03*
X68965000Y-53475000D03*
X66675000Y-53475000D03*
X64385000Y-53475000D03*
X62095000Y-53475000D03*
D12*
X55245000Y-23495000D03*
D13*
X55245000Y-29795000D03*
X57545000Y-29795000D03*
X52945000Y-29795000D03*
M02*
