G04 #@! TF.GenerationSoftware,KiCad,Pcbnew,(5.1.5)-3*
G04 #@! TF.CreationDate,2020-02-27T17:39:30-08:00*
G04 #@! TF.ProjectId,MobileCloud,4d6f6269-6c65-4436-9c6f-75642e6b6963,C*
G04 #@! TF.SameCoordinates,Original*
G04 #@! TF.FileFunction,Legend,Top*
G04 #@! TF.FilePolarity,Positive*
%FSLAX46Y46*%
G04 Gerber Fmt 4.6, Leading zero omitted, Abs format (unit mm)*
G04 Created by KiCad (PCBNEW (5.1.5)-3) date 2020-02-27 17:39:30*
%MOMM*%
%LPD*%
G04 APERTURE LIST*
%ADD10C,0.150000*%
%ADD11C,0.120000*%
%ADD12C,0.015000*%
G04 APERTURE END LIST*
D10*
X68667380Y-30551190D02*
X68667380Y-29979761D01*
X69667380Y-30265476D02*
X68667380Y-30265476D01*
X69667380Y-29741666D02*
X69000714Y-29217857D01*
X69000714Y-29741666D02*
X69667380Y-29217857D01*
X69667380Y-27503571D02*
X69191190Y-27836904D01*
X69667380Y-28075000D02*
X68667380Y-28075000D01*
X68667380Y-27694047D01*
X68715000Y-27598809D01*
X68762619Y-27551190D01*
X68857857Y-27503571D01*
X69000714Y-27503571D01*
X69095952Y-27551190D01*
X69143571Y-27598809D01*
X69191190Y-27694047D01*
X69191190Y-28075000D01*
X69667380Y-27170238D02*
X69000714Y-26646428D01*
X69000714Y-27170238D02*
X69667380Y-26646428D01*
X91368809Y-55967380D02*
X91940238Y-55967380D01*
X91654523Y-56967380D02*
X91654523Y-55967380D01*
X92178333Y-56967380D02*
X92702142Y-56300714D01*
X92178333Y-56300714D02*
X92702142Y-56967380D01*
X94416428Y-56967380D02*
X94083095Y-56491190D01*
X93845000Y-56967380D02*
X93845000Y-55967380D01*
X94225952Y-55967380D01*
X94321190Y-56015000D01*
X94368809Y-56062619D01*
X94416428Y-56157857D01*
X94416428Y-56300714D01*
X94368809Y-56395952D01*
X94321190Y-56443571D01*
X94225952Y-56491190D01*
X93845000Y-56491190D01*
X94749761Y-56967380D02*
X95273571Y-56300714D01*
X94749761Y-56300714D02*
X95273571Y-56967380D01*
X100147380Y-22407380D02*
X99671190Y-22740714D01*
X100147380Y-22978809D02*
X99147380Y-22978809D01*
X99147380Y-22597857D01*
X99195000Y-22502619D01*
X99242619Y-22455000D01*
X99337857Y-22407380D01*
X99480714Y-22407380D01*
X99575952Y-22455000D01*
X99623571Y-22502619D01*
X99671190Y-22597857D01*
X99671190Y-22978809D01*
X99623571Y-21978809D02*
X99623571Y-21645476D01*
X100147380Y-21502619D02*
X100147380Y-21978809D01*
X99147380Y-21978809D01*
X99147380Y-21502619D01*
X99147380Y-21216904D02*
X100147380Y-20883571D01*
X99147380Y-20550238D01*
X100052142Y-18883571D02*
X100099761Y-18931190D01*
X100147380Y-19074047D01*
X100147380Y-19169285D01*
X100099761Y-19312142D01*
X100004523Y-19407380D01*
X99909285Y-19455000D01*
X99718809Y-19502619D01*
X99575952Y-19502619D01*
X99385476Y-19455000D01*
X99290238Y-19407380D01*
X99195000Y-19312142D01*
X99147380Y-19169285D01*
X99147380Y-19074047D01*
X99195000Y-18931190D01*
X99242619Y-18883571D01*
X102004761Y-35257380D02*
X102052380Y-35114523D01*
X102052380Y-34876428D01*
X102004761Y-34781190D01*
X101957142Y-34733571D01*
X101861904Y-34685952D01*
X101766666Y-34685952D01*
X101671428Y-34733571D01*
X101623809Y-34781190D01*
X101576190Y-34876428D01*
X101528571Y-35066904D01*
X101480952Y-35162142D01*
X101433333Y-35209761D01*
X101338095Y-35257380D01*
X101242857Y-35257380D01*
X101147619Y-35209761D01*
X101100000Y-35162142D01*
X101052380Y-35066904D01*
X101052380Y-34828809D01*
X101100000Y-34685952D01*
X102052380Y-34257380D02*
X101052380Y-34257380D01*
X101052380Y-34019285D01*
X101100000Y-33876428D01*
X101195238Y-33781190D01*
X101290476Y-33733571D01*
X101480952Y-33685952D01*
X101623809Y-33685952D01*
X101814285Y-33733571D01*
X101909523Y-33781190D01*
X102004761Y-33876428D01*
X102052380Y-34019285D01*
X102052380Y-34257380D01*
X102004761Y-33305000D02*
X102052380Y-33162142D01*
X102052380Y-32924047D01*
X102004761Y-32828809D01*
X101957142Y-32781190D01*
X101861904Y-32733571D01*
X101766666Y-32733571D01*
X101671428Y-32781190D01*
X101623809Y-32828809D01*
X101576190Y-32924047D01*
X101528571Y-33114523D01*
X101480952Y-33209761D01*
X101433333Y-33257380D01*
X101338095Y-33305000D01*
X101242857Y-33305000D01*
X101147619Y-33257380D01*
X101100000Y-33209761D01*
X101052380Y-33114523D01*
X101052380Y-32876428D01*
X101100000Y-32733571D01*
X101052380Y-32305000D02*
X101861904Y-32305000D01*
X101957142Y-32257380D01*
X102004761Y-32209761D01*
X102052380Y-32114523D01*
X102052380Y-31924047D01*
X102004761Y-31828809D01*
X101957142Y-31781190D01*
X101861904Y-31733571D01*
X101052380Y-31733571D01*
X102004761Y-30543095D02*
X102052380Y-30400238D01*
X102052380Y-30162142D01*
X102004761Y-30066904D01*
X101957142Y-30019285D01*
X101861904Y-29971666D01*
X101766666Y-29971666D01*
X101671428Y-30019285D01*
X101623809Y-30066904D01*
X101576190Y-30162142D01*
X101528571Y-30352619D01*
X101480952Y-30447857D01*
X101433333Y-30495476D01*
X101338095Y-30543095D01*
X101242857Y-30543095D01*
X101147619Y-30495476D01*
X101100000Y-30447857D01*
X101052380Y-30352619D01*
X101052380Y-30114523D01*
X101100000Y-29971666D01*
X101528571Y-29543095D02*
X101528571Y-29209761D01*
X102052380Y-29066904D02*
X102052380Y-29543095D01*
X101052380Y-29543095D01*
X101052380Y-29066904D01*
X102052380Y-28638333D02*
X101052380Y-28638333D01*
X102052380Y-28066904D01*
X101052380Y-28066904D01*
X102052380Y-27590714D02*
X101052380Y-27590714D01*
X101052380Y-26924047D02*
X101052380Y-26733571D01*
X101100000Y-26638333D01*
X101195238Y-26543095D01*
X101385714Y-26495476D01*
X101719047Y-26495476D01*
X101909523Y-26543095D01*
X102004761Y-26638333D01*
X102052380Y-26733571D01*
X102052380Y-26924047D01*
X102004761Y-27019285D01*
X101909523Y-27114523D01*
X101719047Y-27162142D01*
X101385714Y-27162142D01*
X101195238Y-27114523D01*
X101100000Y-27019285D01*
X101052380Y-26924047D01*
X102052380Y-25495476D02*
X101576190Y-25828809D01*
X102052380Y-26066904D02*
X101052380Y-26066904D01*
X101052380Y-25685952D01*
X101100000Y-25590714D01*
X101147619Y-25543095D01*
X101242857Y-25495476D01*
X101385714Y-25495476D01*
X101480952Y-25543095D01*
X101528571Y-25590714D01*
X101576190Y-25685952D01*
X101576190Y-26066904D01*
X102052380Y-24305000D02*
X101052380Y-24305000D01*
X101052380Y-24066904D01*
X101100000Y-23924047D01*
X101195238Y-23828809D01*
X101290476Y-23781190D01*
X101480952Y-23733571D01*
X101623809Y-23733571D01*
X101814285Y-23781190D01*
X101909523Y-23828809D01*
X102004761Y-23924047D01*
X102052380Y-24066904D01*
X102052380Y-24305000D01*
X101528571Y-23305000D02*
X101528571Y-22971666D01*
X102052380Y-22828809D02*
X102052380Y-23305000D01*
X101052380Y-23305000D01*
X101052380Y-22828809D01*
X102004761Y-22447857D02*
X102052380Y-22305000D01*
X102052380Y-22066904D01*
X102004761Y-21971666D01*
X101957142Y-21924047D01*
X101861904Y-21876428D01*
X101766666Y-21876428D01*
X101671428Y-21924047D01*
X101623809Y-21971666D01*
X101576190Y-22066904D01*
X101528571Y-22257380D01*
X101480952Y-22352619D01*
X101433333Y-22400238D01*
X101338095Y-22447857D01*
X101242857Y-22447857D01*
X101147619Y-22400238D01*
X101100000Y-22352619D01*
X101052380Y-22257380D01*
X101052380Y-22019285D01*
X101100000Y-21876428D01*
X102052380Y-21447857D02*
X101052380Y-21447857D01*
X101100000Y-20447857D02*
X101052380Y-20543095D01*
X101052380Y-20685952D01*
X101100000Y-20828809D01*
X101195238Y-20924047D01*
X101290476Y-20971666D01*
X101480952Y-21019285D01*
X101623809Y-21019285D01*
X101814285Y-20971666D01*
X101909523Y-20924047D01*
X102004761Y-20828809D01*
X102052380Y-20685952D01*
X102052380Y-20590714D01*
X102004761Y-20447857D01*
X101957142Y-20400238D01*
X101623809Y-20400238D01*
X101623809Y-20590714D01*
X102052380Y-19971666D02*
X101052380Y-19971666D01*
X102052380Y-19400238D01*
X101052380Y-19400238D01*
X100099761Y-35741904D02*
X100147380Y-35599047D01*
X100147380Y-35360952D01*
X100099761Y-35265714D01*
X100052142Y-35218095D01*
X99956904Y-35170476D01*
X99861666Y-35170476D01*
X99766428Y-35218095D01*
X99718809Y-35265714D01*
X99671190Y-35360952D01*
X99623571Y-35551428D01*
X99575952Y-35646666D01*
X99528333Y-35694285D01*
X99433095Y-35741904D01*
X99337857Y-35741904D01*
X99242619Y-35694285D01*
X99195000Y-35646666D01*
X99147380Y-35551428D01*
X99147380Y-35313333D01*
X99195000Y-35170476D01*
X100147380Y-34741904D02*
X99147380Y-34741904D01*
X99861666Y-34408571D01*
X99147380Y-34075238D01*
X100147380Y-34075238D01*
X100147380Y-33599047D02*
X99147380Y-33599047D01*
X100147380Y-32646666D02*
X100147380Y-33122857D01*
X99147380Y-33122857D01*
X99623571Y-32313333D02*
X99623571Y-31980000D01*
X100147380Y-31837142D02*
X100147380Y-32313333D01*
X99147380Y-32313333D01*
X99147380Y-31837142D01*
X100052142Y-30075238D02*
X100099761Y-30122857D01*
X100147380Y-30265714D01*
X100147380Y-30360952D01*
X100099761Y-30503809D01*
X100004523Y-30599047D01*
X99909285Y-30646666D01*
X99718809Y-30694285D01*
X99575952Y-30694285D01*
X99385476Y-30646666D01*
X99290238Y-30599047D01*
X99195000Y-30503809D01*
X99147380Y-30360952D01*
X99147380Y-30265714D01*
X99195000Y-30122857D01*
X99242619Y-30075238D01*
X100147380Y-29170476D02*
X100147380Y-29646666D01*
X99147380Y-29646666D01*
X99147380Y-28646666D02*
X99147380Y-28456190D01*
X99195000Y-28360952D01*
X99290238Y-28265714D01*
X99480714Y-28218095D01*
X99814047Y-28218095D01*
X100004523Y-28265714D01*
X100099761Y-28360952D01*
X100147380Y-28456190D01*
X100147380Y-28646666D01*
X100099761Y-28741904D01*
X100004523Y-28837142D01*
X99814047Y-28884761D01*
X99480714Y-28884761D01*
X99290238Y-28837142D01*
X99195000Y-28741904D01*
X99147380Y-28646666D01*
X99147380Y-27789523D02*
X99956904Y-27789523D01*
X100052142Y-27741904D01*
X100099761Y-27694285D01*
X100147380Y-27599047D01*
X100147380Y-27408571D01*
X100099761Y-27313333D01*
X100052142Y-27265714D01*
X99956904Y-27218095D01*
X99147380Y-27218095D01*
X100147380Y-26741904D02*
X99147380Y-26741904D01*
X99147380Y-26503809D01*
X99195000Y-26360952D01*
X99290238Y-26265714D01*
X99385476Y-26218095D01*
X99575952Y-26170476D01*
X99718809Y-26170476D01*
X99909285Y-26218095D01*
X100004523Y-26265714D01*
X100099761Y-26360952D01*
X100147380Y-26503809D01*
X100147380Y-26741904D01*
X100147380Y-25694285D02*
X100147380Y-25503809D01*
X100099761Y-25408571D01*
X100052142Y-25360952D01*
X99909285Y-25265714D01*
X99718809Y-25218095D01*
X99337857Y-25218095D01*
X99242619Y-25265714D01*
X99195000Y-25313333D01*
X99147380Y-25408571D01*
X99147380Y-25599047D01*
X99195000Y-25694285D01*
X99242619Y-25741904D01*
X99337857Y-25789523D01*
X99575952Y-25789523D01*
X99671190Y-25741904D01*
X99718809Y-25694285D01*
X99766428Y-25599047D01*
X99766428Y-25408571D01*
X99718809Y-25313333D01*
X99671190Y-25265714D01*
X99575952Y-25218095D01*
D11*
X100022000Y-79195000D02*
X97082000Y-79195000D01*
X97082000Y-79195000D02*
X97082000Y-84635000D01*
X97082000Y-84635000D02*
X100022000Y-84635000D01*
X100022000Y-84635000D02*
X100022000Y-79195000D01*
X98552000Y-78175000D02*
X98552000Y-79195000D01*
X98552000Y-85655000D02*
X98552000Y-84635000D01*
X100022000Y-80095000D02*
X97082000Y-80095000D01*
X100022000Y-80215000D02*
X97082000Y-80215000D01*
X100022000Y-79975000D02*
X97082000Y-79975000D01*
X100390000Y-67675000D02*
G75*
G02X100390000Y-65675000I0J1000000D01*
G01*
X100390000Y-65675000D02*
X100390000Y-64025000D01*
X100390000Y-64025000D02*
X64710000Y-64025000D01*
X64710000Y-64025000D02*
X64710000Y-69325000D01*
X64710000Y-69325000D02*
X100390000Y-69325000D01*
X100390000Y-69325000D02*
X100390000Y-67675000D01*
X61545000Y-58470000D02*
X61545000Y-71070000D01*
X48945000Y-58470000D02*
X61545000Y-58470000D01*
X48945000Y-71070000D02*
X48945000Y-58470000D01*
X61545000Y-71070000D02*
X48945000Y-71070000D01*
X61745000Y-58270000D02*
X60945000Y-58270000D01*
X61745000Y-59070000D02*
X61745000Y-58270000D01*
X50680000Y-44985000D02*
X55920000Y-44985000D01*
X50680000Y-47725000D02*
X55920000Y-47725000D01*
X50680000Y-44985000D02*
X50680000Y-45300000D01*
X50680000Y-47410000D02*
X50680000Y-47725000D01*
X55920000Y-44985000D02*
X55920000Y-45300000D01*
X55920000Y-47410000D02*
X55920000Y-47725000D01*
X55920000Y-55030000D02*
X55920000Y-55345000D01*
X55920000Y-52605000D02*
X55920000Y-52920000D01*
X50680000Y-55030000D02*
X50680000Y-55345000D01*
X50680000Y-52605000D02*
X50680000Y-52920000D01*
X50680000Y-55345000D02*
X55920000Y-55345000D01*
X50680000Y-52605000D02*
X55920000Y-52605000D01*
X65445000Y-82335000D02*
X65445000Y-82650000D01*
X65445000Y-79910000D02*
X65445000Y-80225000D01*
X60205000Y-82335000D02*
X60205000Y-82650000D01*
X60205000Y-79910000D02*
X60205000Y-80225000D01*
X60205000Y-82650000D02*
X65445000Y-82650000D01*
X60205000Y-79910000D02*
X65445000Y-79910000D01*
X69890000Y-39155000D02*
X69890000Y-39470000D01*
X69890000Y-36730000D02*
X69890000Y-37045000D01*
X64650000Y-39155000D02*
X64650000Y-39470000D01*
X64650000Y-36730000D02*
X64650000Y-37045000D01*
X64650000Y-39470000D02*
X69890000Y-39470000D01*
X64650000Y-36730000D02*
X69890000Y-36730000D01*
X60445000Y-20420000D02*
X55205000Y-20420000D01*
X60445000Y-17680000D02*
X55205000Y-17680000D01*
X60445000Y-20420000D02*
X60445000Y-20105000D01*
X60445000Y-17995000D02*
X60445000Y-17680000D01*
X55205000Y-20420000D02*
X55205000Y-20105000D01*
X55205000Y-17995000D02*
X55205000Y-17680000D01*
X77430000Y-43080000D02*
X82670000Y-43080000D01*
X77430000Y-45820000D02*
X82670000Y-45820000D01*
X77430000Y-43080000D02*
X77430000Y-43395000D01*
X77430000Y-45505000D02*
X77430000Y-45820000D01*
X82670000Y-43080000D02*
X82670000Y-43395000D01*
X82670000Y-45505000D02*
X82670000Y-45820000D01*
X85050000Y-43395000D02*
X85050000Y-43080000D01*
X85050000Y-45820000D02*
X85050000Y-45505000D01*
X90290000Y-43395000D02*
X90290000Y-43080000D01*
X90290000Y-45820000D02*
X90290000Y-45505000D01*
X90290000Y-43080000D02*
X85050000Y-43080000D01*
X90290000Y-45820000D02*
X85050000Y-45820000D01*
X82510000Y-73560000D02*
X87750000Y-73560000D01*
X82510000Y-76300000D02*
X87750000Y-76300000D01*
X82510000Y-73560000D02*
X82510000Y-73875000D01*
X82510000Y-75985000D02*
X82510000Y-76300000D01*
X87750000Y-73560000D02*
X87750000Y-73875000D01*
X87750000Y-75985000D02*
X87750000Y-76300000D01*
X51000000Y-107135000D02*
X48060000Y-107135000D01*
X48060000Y-107135000D02*
X48060000Y-112575000D01*
X48060000Y-112575000D02*
X51000000Y-112575000D01*
X51000000Y-112575000D02*
X51000000Y-107135000D01*
X49530000Y-106115000D02*
X49530000Y-107135000D01*
X49530000Y-113595000D02*
X49530000Y-112575000D01*
X51000000Y-108035000D02*
X48060000Y-108035000D01*
X51000000Y-108155000D02*
X48060000Y-108155000D01*
X51000000Y-107915000D02*
X48060000Y-107915000D01*
X51000000Y-120615000D02*
X48060000Y-120615000D01*
X51000000Y-120855000D02*
X48060000Y-120855000D01*
X51000000Y-120735000D02*
X48060000Y-120735000D01*
X49530000Y-126295000D02*
X49530000Y-125275000D01*
X49530000Y-118815000D02*
X49530000Y-119835000D01*
X51000000Y-125275000D02*
X51000000Y-119835000D01*
X48060000Y-125275000D02*
X51000000Y-125275000D01*
X48060000Y-119835000D02*
X48060000Y-125275000D01*
X51000000Y-119835000D02*
X48060000Y-119835000D01*
X54810000Y-107915000D02*
X51870000Y-107915000D01*
X54810000Y-108155000D02*
X51870000Y-108155000D01*
X54810000Y-108035000D02*
X51870000Y-108035000D01*
X53340000Y-113595000D02*
X53340000Y-112575000D01*
X53340000Y-106115000D02*
X53340000Y-107135000D01*
X54810000Y-112575000D02*
X54810000Y-107135000D01*
X51870000Y-112575000D02*
X54810000Y-112575000D01*
X51870000Y-107135000D02*
X51870000Y-112575000D01*
X54810000Y-107135000D02*
X51870000Y-107135000D01*
X54810000Y-119835000D02*
X51870000Y-119835000D01*
X51870000Y-119835000D02*
X51870000Y-125275000D01*
X51870000Y-125275000D02*
X54810000Y-125275000D01*
X54810000Y-125275000D02*
X54810000Y-119835000D01*
X53340000Y-118815000D02*
X53340000Y-119835000D01*
X53340000Y-126295000D02*
X53340000Y-125275000D01*
X54810000Y-120735000D02*
X51870000Y-120735000D01*
X54810000Y-120855000D02*
X51870000Y-120855000D01*
X54810000Y-120615000D02*
X51870000Y-120615000D01*
X96212000Y-107788000D02*
X93272000Y-107788000D01*
X96212000Y-108028000D02*
X93272000Y-108028000D01*
X96212000Y-107908000D02*
X93272000Y-107908000D01*
X94742000Y-113468000D02*
X94742000Y-112448000D01*
X94742000Y-105988000D02*
X94742000Y-107008000D01*
X96212000Y-112448000D02*
X96212000Y-107008000D01*
X93272000Y-112448000D02*
X96212000Y-112448000D01*
X93272000Y-107008000D02*
X93272000Y-112448000D01*
X96212000Y-107008000D02*
X93272000Y-107008000D01*
X96212000Y-119708000D02*
X93272000Y-119708000D01*
X93272000Y-119708000D02*
X93272000Y-125148000D01*
X93272000Y-125148000D02*
X96212000Y-125148000D01*
X96212000Y-125148000D02*
X96212000Y-119708000D01*
X94742000Y-118688000D02*
X94742000Y-119708000D01*
X94742000Y-126168000D02*
X94742000Y-125148000D01*
X96212000Y-120608000D02*
X93272000Y-120608000D01*
X96212000Y-120728000D02*
X93272000Y-120728000D01*
X96212000Y-120488000D02*
X93272000Y-120488000D01*
X96212000Y-79195000D02*
X93272000Y-79195000D01*
X93272000Y-79195000D02*
X93272000Y-84635000D01*
X93272000Y-84635000D02*
X96212000Y-84635000D01*
X96212000Y-84635000D02*
X96212000Y-79195000D01*
X94742000Y-78175000D02*
X94742000Y-79195000D01*
X94742000Y-85655000D02*
X94742000Y-84635000D01*
X96212000Y-80095000D02*
X93272000Y-80095000D01*
X96212000Y-80215000D02*
X93272000Y-80215000D01*
X96212000Y-79975000D02*
X93272000Y-79975000D01*
X96212000Y-91895000D02*
X93272000Y-91895000D01*
X93272000Y-91895000D02*
X93272000Y-97335000D01*
X93272000Y-97335000D02*
X96212000Y-97335000D01*
X96212000Y-97335000D02*
X96212000Y-91895000D01*
X94742000Y-90875000D02*
X94742000Y-91895000D01*
X94742000Y-98355000D02*
X94742000Y-97335000D01*
X96212000Y-92795000D02*
X93272000Y-92795000D01*
X96212000Y-92915000D02*
X93272000Y-92915000D01*
X96212000Y-92675000D02*
X93272000Y-92675000D01*
X100022000Y-107788000D02*
X97082000Y-107788000D01*
X100022000Y-108028000D02*
X97082000Y-108028000D01*
X100022000Y-107908000D02*
X97082000Y-107908000D01*
X98552000Y-113468000D02*
X98552000Y-112448000D01*
X98552000Y-105988000D02*
X98552000Y-107008000D01*
X100022000Y-112448000D02*
X100022000Y-107008000D01*
X97082000Y-112448000D02*
X100022000Y-112448000D01*
X97082000Y-107008000D02*
X97082000Y-112448000D01*
X100022000Y-107008000D02*
X97082000Y-107008000D01*
X100022000Y-120488000D02*
X97082000Y-120488000D01*
X100022000Y-120728000D02*
X97082000Y-120728000D01*
X100022000Y-120608000D02*
X97082000Y-120608000D01*
X98552000Y-126168000D02*
X98552000Y-125148000D01*
X98552000Y-118688000D02*
X98552000Y-119708000D01*
X100022000Y-125148000D02*
X100022000Y-119708000D01*
X97082000Y-125148000D02*
X100022000Y-125148000D01*
X97082000Y-119708000D02*
X97082000Y-125148000D01*
X100022000Y-119708000D02*
X97082000Y-119708000D01*
X100022000Y-92675000D02*
X97082000Y-92675000D01*
X100022000Y-92915000D02*
X97082000Y-92915000D01*
X100022000Y-92795000D02*
X97082000Y-92795000D01*
X98552000Y-98355000D02*
X98552000Y-97335000D01*
X98552000Y-90875000D02*
X98552000Y-91895000D01*
X100022000Y-97335000D02*
X100022000Y-91895000D01*
X97082000Y-97335000D02*
X100022000Y-97335000D01*
X97082000Y-91895000D02*
X97082000Y-97335000D01*
X100022000Y-91895000D02*
X97082000Y-91895000D01*
X97690000Y-53435000D02*
X100430000Y-53435000D01*
X100430000Y-53435000D02*
X100430000Y-46895000D01*
X100430000Y-46895000D02*
X97690000Y-46895000D01*
X97690000Y-46895000D02*
X97690000Y-53435000D01*
X99060000Y-54205000D02*
X99060000Y-53435000D01*
X99060000Y-46125000D02*
X99060000Y-46895000D01*
X79780000Y-54610000D02*
X80550000Y-54610000D01*
X87860000Y-54610000D02*
X87090000Y-54610000D01*
X80550000Y-55980000D02*
X87090000Y-55980000D01*
X80550000Y-53240000D02*
X80550000Y-55980000D01*
X87090000Y-53240000D02*
X80550000Y-53240000D01*
X87090000Y-55980000D02*
X87090000Y-53240000D01*
X67959000Y-111760000D02*
X64565000Y-111760000D01*
X67959000Y-109220000D02*
X64565000Y-109220000D01*
X67959000Y-106680000D02*
X64565000Y-106680000D01*
X67959000Y-104140000D02*
X64565000Y-104140000D01*
X67959000Y-101600000D02*
X64565000Y-101600000D01*
X67959000Y-99060000D02*
X64565000Y-99060000D01*
X67959000Y-96520000D02*
X64565000Y-96520000D01*
X67959000Y-93980000D02*
X64550000Y-93980000D01*
X73200000Y-104720000D02*
X71360000Y-104720000D01*
X73200000Y-101021000D02*
X71360000Y-101021000D01*
X71360000Y-92650000D02*
X71360000Y-113090000D01*
X73200000Y-113090000D02*
X67959000Y-113090000D01*
X73200000Y-92650000D02*
X67959000Y-92650000D01*
X67959000Y-111415000D02*
X67959000Y-113090000D01*
X67959000Y-108875000D02*
X67959000Y-109566000D01*
X67959000Y-106335000D02*
X67959000Y-107026000D01*
X67959000Y-103795000D02*
X67959000Y-104486000D01*
X67959000Y-101255000D02*
X67959000Y-101946000D01*
X67959000Y-98715000D02*
X67959000Y-99406000D01*
X67959000Y-96175000D02*
X67959000Y-96866000D01*
X67959000Y-92650000D02*
X67959000Y-94326000D01*
X73200000Y-92650000D02*
X73200000Y-113090000D01*
X60175000Y-54595000D02*
X60175000Y-55395000D01*
X60175000Y-55395000D02*
X60975000Y-55395000D01*
X60375000Y-42595000D02*
X72975000Y-42595000D01*
X72975000Y-42595000D02*
X72975000Y-55195000D01*
X72975000Y-55195000D02*
X60375000Y-55195000D01*
X60375000Y-55195000D02*
X60375000Y-42595000D01*
X76660000Y-113090000D02*
X76660000Y-92650000D01*
X81901000Y-113090000D02*
X81901000Y-111414000D01*
X81901000Y-109565000D02*
X81901000Y-108874000D01*
X81901000Y-107025000D02*
X81901000Y-106334000D01*
X81901000Y-104485000D02*
X81901000Y-103794000D01*
X81901000Y-101945000D02*
X81901000Y-101254000D01*
X81901000Y-99405000D02*
X81901000Y-98714000D01*
X81901000Y-96865000D02*
X81901000Y-96174000D01*
X81901000Y-94325000D02*
X81901000Y-92650000D01*
X76660000Y-113090000D02*
X81901000Y-113090000D01*
X76660000Y-92650000D02*
X81901000Y-92650000D01*
X78500000Y-113090000D02*
X78500000Y-92650000D01*
X76660000Y-104719000D02*
X78500000Y-104719000D01*
X76660000Y-101020000D02*
X78500000Y-101020000D01*
X81901000Y-111760000D02*
X85310000Y-111760000D01*
X81901000Y-109220000D02*
X85295000Y-109220000D01*
X81901000Y-106680000D02*
X85295000Y-106680000D01*
X81901000Y-104140000D02*
X85295000Y-104140000D01*
X81901000Y-101600000D02*
X85295000Y-101600000D01*
X81901000Y-99060000D02*
X85295000Y-99060000D01*
X81901000Y-96520000D02*
X85295000Y-96520000D01*
X81901000Y-93980000D02*
X85295000Y-93980000D01*
X58655000Y-24735000D02*
X57395000Y-24735000D01*
X51835000Y-24735000D02*
X53095000Y-24735000D01*
X58655000Y-28495000D02*
X58655000Y-24735000D01*
X51835000Y-30745000D02*
X51835000Y-24735000D01*
X51000000Y-79975000D02*
X48060000Y-79975000D01*
X51000000Y-80215000D02*
X48060000Y-80215000D01*
X51000000Y-80095000D02*
X48060000Y-80095000D01*
X49530000Y-85655000D02*
X49530000Y-84635000D01*
X49530000Y-78175000D02*
X49530000Y-79195000D01*
X51000000Y-84635000D02*
X51000000Y-79195000D01*
X48060000Y-84635000D02*
X51000000Y-84635000D01*
X48060000Y-79195000D02*
X48060000Y-84635000D01*
X51000000Y-79195000D02*
X48060000Y-79195000D01*
X51000000Y-91895000D02*
X48060000Y-91895000D01*
X48060000Y-91895000D02*
X48060000Y-97335000D01*
X48060000Y-97335000D02*
X51000000Y-97335000D01*
X51000000Y-97335000D02*
X51000000Y-91895000D01*
X49530000Y-90875000D02*
X49530000Y-91895000D01*
X49530000Y-98355000D02*
X49530000Y-97335000D01*
X51000000Y-92795000D02*
X48060000Y-92795000D01*
X51000000Y-92915000D02*
X48060000Y-92915000D01*
X51000000Y-92675000D02*
X48060000Y-92675000D01*
X54810000Y-79975000D02*
X51870000Y-79975000D01*
X54810000Y-80215000D02*
X51870000Y-80215000D01*
X54810000Y-80095000D02*
X51870000Y-80095000D01*
X53340000Y-85655000D02*
X53340000Y-84635000D01*
X53340000Y-78175000D02*
X53340000Y-79195000D01*
X54810000Y-84635000D02*
X54810000Y-79195000D01*
X51870000Y-84635000D02*
X54810000Y-84635000D01*
X51870000Y-79195000D02*
X51870000Y-84635000D01*
X54810000Y-79195000D02*
X51870000Y-79195000D01*
X54810000Y-91895000D02*
X51870000Y-91895000D01*
X51870000Y-91895000D02*
X51870000Y-97335000D01*
X51870000Y-97335000D02*
X54810000Y-97335000D01*
X54810000Y-97335000D02*
X54810000Y-91895000D01*
X53340000Y-90875000D02*
X53340000Y-91895000D01*
X53340000Y-98355000D02*
X53340000Y-97335000D01*
X54810000Y-92795000D02*
X51870000Y-92795000D01*
X54810000Y-92915000D02*
X51870000Y-92915000D01*
X54810000Y-92675000D02*
X51870000Y-92675000D01*
X71755000Y-26245000D02*
X72815000Y-26245000D01*
X72815000Y-26245000D02*
X72815000Y-27305000D01*
X72815000Y-28305000D02*
X72815000Y-30365000D01*
X70695000Y-30365000D02*
X72815000Y-30365000D01*
X70695000Y-28305000D02*
X70695000Y-30365000D01*
X70695000Y-28305000D02*
X72815000Y-28305000D01*
X57785000Y-86570000D02*
X58845000Y-86570000D01*
X58845000Y-86570000D02*
X58845000Y-87630000D01*
X58845000Y-88630000D02*
X58845000Y-90690000D01*
X56725000Y-90690000D02*
X58845000Y-90690000D01*
X56725000Y-88630000D02*
X56725000Y-90690000D01*
X56725000Y-88630000D02*
X58845000Y-88630000D01*
X58845000Y-115840000D02*
X56725000Y-115840000D01*
X58845000Y-115840000D02*
X58845000Y-113780000D01*
X58845000Y-113780000D02*
X56725000Y-113780000D01*
X56725000Y-115840000D02*
X56725000Y-113780000D01*
X56725000Y-117900000D02*
X56725000Y-116840000D01*
X57785000Y-117900000D02*
X56725000Y-117900000D01*
X89745000Y-115935000D02*
X91865000Y-115935000D01*
X89745000Y-115935000D02*
X89745000Y-117995000D01*
X89745000Y-117995000D02*
X91865000Y-117995000D01*
X91865000Y-115935000D02*
X91865000Y-117995000D01*
X91865000Y-113875000D02*
X91865000Y-114935000D01*
X90805000Y-113875000D02*
X91865000Y-113875000D01*
X90805000Y-86570000D02*
X91865000Y-86570000D01*
X91865000Y-86570000D02*
X91865000Y-87630000D01*
X91865000Y-88630000D02*
X91865000Y-90690000D01*
X89745000Y-90690000D02*
X91865000Y-90690000D01*
X89745000Y-88630000D02*
X89745000Y-90690000D01*
X89745000Y-88630000D02*
X91865000Y-88630000D01*
X92980000Y-57995000D02*
X92980000Y-60115000D01*
X92980000Y-57995000D02*
X90920000Y-57995000D01*
X90920000Y-57995000D02*
X90920000Y-60115000D01*
X92980000Y-60115000D02*
X90920000Y-60115000D01*
X95040000Y-60115000D02*
X93980000Y-60115000D01*
X95040000Y-59055000D02*
X95040000Y-60115000D01*
X88690000Y-59055000D02*
X88690000Y-60115000D01*
X88690000Y-60115000D02*
X87630000Y-60115000D01*
X86630000Y-60115000D02*
X84570000Y-60115000D01*
X84570000Y-57995000D02*
X84570000Y-60115000D01*
X86630000Y-57995000D02*
X84570000Y-57995000D01*
X86630000Y-57995000D02*
X86630000Y-60115000D01*
X72660000Y-57995000D02*
X72660000Y-60115000D01*
X72660000Y-57995000D02*
X70600000Y-57995000D01*
X70600000Y-57995000D02*
X70600000Y-60115000D01*
X72660000Y-60115000D02*
X70600000Y-60115000D01*
X74720000Y-60115000D02*
X73660000Y-60115000D01*
X74720000Y-59055000D02*
X74720000Y-60115000D01*
X80595000Y-47005000D02*
X86845000Y-47005000D01*
X80595000Y-52055000D02*
X86845000Y-52055000D01*
X80595000Y-52055000D02*
G75*
G02X80595000Y-47005000I0J2525000D01*
G01*
X86845000Y-52055000D02*
G75*
G03X86845000Y-47005000I0J2525000D01*
G01*
X76410000Y-39370000D02*
X76410000Y-38310000D01*
X76410000Y-38310000D02*
X77470000Y-38310000D01*
X78470000Y-38310000D02*
X96530000Y-38310000D01*
X96530000Y-40430000D02*
X96530000Y-38310000D01*
X78470000Y-40430000D02*
X96530000Y-40430000D01*
X78470000Y-40430000D02*
X78470000Y-38310000D01*
X78470000Y-18205000D02*
X78470000Y-16085000D01*
X78470000Y-18205000D02*
X96530000Y-18205000D01*
X96530000Y-18205000D02*
X96530000Y-16085000D01*
X78470000Y-16085000D02*
X96530000Y-16085000D01*
X76410000Y-16085000D02*
X77470000Y-16085000D01*
X76410000Y-17145000D02*
X76410000Y-16085000D01*
X89110000Y-75930000D02*
X91230000Y-75930000D01*
X89110000Y-75930000D02*
X89110000Y-77990000D01*
X89110000Y-77990000D02*
X91230000Y-77990000D01*
X91230000Y-75930000D02*
X91230000Y-77990000D01*
X91230000Y-73870000D02*
X91230000Y-74930000D01*
X90170000Y-73870000D02*
X91230000Y-73870000D01*
X68580000Y-115970000D02*
X81280000Y-115970000D01*
X76430000Y-115970000D02*
X76430000Y-89770000D01*
X68580000Y-89770000D02*
X81280000Y-89770000D01*
X73430000Y-115970000D02*
X73430000Y-89770000D01*
X68580000Y-125370000D02*
X81280000Y-125370000D01*
X68580000Y-115970000D02*
X68580000Y-125370000D01*
X81280000Y-115970000D02*
X81280000Y-125370000D01*
X81280000Y-80370000D02*
X81280000Y-89770000D01*
X68580000Y-80370000D02*
X68580000Y-89770000D01*
X68580000Y-80370000D02*
X81280000Y-80370000D01*
X87920000Y-82740000D02*
X87920000Y-82584000D01*
X87920000Y-85056000D02*
X87920000Y-84900000D01*
X85318870Y-82740163D02*
G75*
G02X87400961Y-82740000I1041130J-1079837D01*
G01*
X85318870Y-84899837D02*
G75*
G03X87400961Y-84900000I1041130J1079837D01*
G01*
X84687665Y-82741392D02*
G75*
G02X87920000Y-82584484I1672335J-1078608D01*
G01*
X84687665Y-84898608D02*
G75*
G03X87920000Y-85055516I1672335J1078608D01*
G01*
X60557665Y-28383608D02*
G75*
G03X63790000Y-28540516I1672335J1078608D01*
G01*
X60557665Y-26226392D02*
G75*
G02X63790000Y-26069484I1672335J-1078608D01*
G01*
X61188870Y-28384837D02*
G75*
G03X63270961Y-28385000I1041130J1079837D01*
G01*
X61188870Y-26225163D02*
G75*
G02X63270961Y-26225000I1041130J-1079837D01*
G01*
X63790000Y-28541000D02*
X63790000Y-28385000D01*
X63790000Y-26225000D02*
X63790000Y-26069000D01*
X53107335Y-18606392D02*
G75*
G03X49875000Y-18449484I-1672335J-1078608D01*
G01*
X53107335Y-20763608D02*
G75*
G02X49875000Y-20920516I-1672335J1078608D01*
G01*
X52476130Y-18605163D02*
G75*
G03X50394039Y-18605000I-1041130J-1079837D01*
G01*
X52476130Y-20764837D02*
G75*
G02X50394039Y-20765000I-1041130J1079837D01*
G01*
X49875000Y-18449000D02*
X49875000Y-18605000D01*
X49875000Y-20765000D02*
X49875000Y-20921000D01*
X65945000Y-76100000D02*
X65945000Y-78840000D01*
X65945000Y-78840000D02*
X72485000Y-78840000D01*
X72485000Y-78840000D02*
X72485000Y-76100000D01*
X72485000Y-76100000D02*
X65945000Y-76100000D01*
X65175000Y-77470000D02*
X65945000Y-77470000D01*
X73255000Y-77470000D02*
X72485000Y-77470000D01*
X66675000Y-30710000D02*
X66675000Y-29940000D01*
X66675000Y-22630000D02*
X66675000Y-23400000D01*
X68045000Y-29940000D02*
X68045000Y-23400000D01*
X65305000Y-29940000D02*
X68045000Y-29940000D01*
X65305000Y-23400000D02*
X65305000Y-29940000D01*
X68045000Y-23400000D02*
X65305000Y-23400000D01*
X50900000Y-25940000D02*
X48160000Y-25940000D01*
X48160000Y-25940000D02*
X48160000Y-32480000D01*
X48160000Y-32480000D02*
X50900000Y-32480000D01*
X50900000Y-32480000D02*
X50900000Y-25940000D01*
X49530000Y-25170000D02*
X49530000Y-25940000D01*
X49530000Y-33250000D02*
X49530000Y-32480000D01*
D10*
X101474380Y-83129285D02*
X100474380Y-83129285D01*
X100474380Y-82891190D01*
X100522000Y-82748333D01*
X100617238Y-82653095D01*
X100712476Y-82605476D01*
X100902952Y-82557857D01*
X101045809Y-82557857D01*
X101236285Y-82605476D01*
X101331523Y-82653095D01*
X101426761Y-82748333D01*
X101474380Y-82891190D01*
X101474380Y-83129285D01*
X101474380Y-81605476D02*
X101474380Y-82176904D01*
X101474380Y-81891190D02*
X100474380Y-81891190D01*
X100617238Y-81986428D01*
X100712476Y-82081666D01*
X100760095Y-82176904D01*
X100474380Y-80700714D02*
X100474380Y-81176904D01*
X100950571Y-81224523D01*
X100902952Y-81176904D01*
X100855333Y-81081666D01*
X100855333Y-80843571D01*
X100902952Y-80748333D01*
X100950571Y-80700714D01*
X101045809Y-80653095D01*
X101283904Y-80653095D01*
X101379142Y-80700714D01*
X101426761Y-80748333D01*
X101474380Y-80843571D01*
X101474380Y-81081666D01*
X101426761Y-81176904D01*
X101379142Y-81224523D01*
X101104380Y-77096904D02*
X100104380Y-77096904D01*
X101104380Y-76525476D02*
X100532952Y-76954047D01*
X100104380Y-76525476D02*
X100675809Y-77096904D01*
X100842380Y-67436904D02*
X101651904Y-67436904D01*
X101747142Y-67389285D01*
X101794761Y-67341666D01*
X101842380Y-67246428D01*
X101842380Y-67055952D01*
X101794761Y-66960714D01*
X101747142Y-66913095D01*
X101651904Y-66865476D01*
X100842380Y-66865476D01*
X100842380Y-65960714D02*
X100842380Y-66151190D01*
X100890000Y-66246428D01*
X100937619Y-66294047D01*
X101080476Y-66389285D01*
X101270952Y-66436904D01*
X101651904Y-66436904D01*
X101747142Y-66389285D01*
X101794761Y-66341666D01*
X101842380Y-66246428D01*
X101842380Y-66055952D01*
X101794761Y-65960714D01*
X101747142Y-65913095D01*
X101651904Y-65865476D01*
X101413809Y-65865476D01*
X101318571Y-65913095D01*
X101270952Y-65960714D01*
X101223333Y-66055952D01*
X101223333Y-66246428D01*
X101270952Y-66341666D01*
X101318571Y-66389285D01*
X101413809Y-66436904D01*
X46442380Y-65531904D02*
X47251904Y-65531904D01*
X47347142Y-65484285D01*
X47394761Y-65436666D01*
X47442380Y-65341428D01*
X47442380Y-65150952D01*
X47394761Y-65055714D01*
X47347142Y-65008095D01*
X47251904Y-64960476D01*
X46442380Y-64960476D01*
X46537619Y-64531904D02*
X46490000Y-64484285D01*
X46442380Y-64389047D01*
X46442380Y-64150952D01*
X46490000Y-64055714D01*
X46537619Y-64008095D01*
X46632857Y-63960476D01*
X46728095Y-63960476D01*
X46870952Y-64008095D01*
X47442380Y-64579523D01*
X47442380Y-63960476D01*
X58142142Y-46521666D02*
X58189761Y-46569285D01*
X58237380Y-46712142D01*
X58237380Y-46807380D01*
X58189761Y-46950238D01*
X58094523Y-47045476D01*
X57999285Y-47093095D01*
X57808809Y-47140714D01*
X57665952Y-47140714D01*
X57475476Y-47093095D01*
X57380238Y-47045476D01*
X57285000Y-46950238D01*
X57237380Y-46807380D01*
X57237380Y-46712142D01*
X57285000Y-46569285D01*
X57332619Y-46521666D01*
X58237380Y-45569285D02*
X58237380Y-46140714D01*
X58237380Y-45855000D02*
X57237380Y-45855000D01*
X57380238Y-45950238D01*
X57475476Y-46045476D01*
X57523095Y-46140714D01*
X58142142Y-54141666D02*
X58189761Y-54189285D01*
X58237380Y-54332142D01*
X58237380Y-54427380D01*
X58189761Y-54570238D01*
X58094523Y-54665476D01*
X57999285Y-54713095D01*
X57808809Y-54760714D01*
X57665952Y-54760714D01*
X57475476Y-54713095D01*
X57380238Y-54665476D01*
X57285000Y-54570238D01*
X57237380Y-54427380D01*
X57237380Y-54332142D01*
X57285000Y-54189285D01*
X57332619Y-54141666D01*
X57332619Y-53760714D02*
X57285000Y-53713095D01*
X57237380Y-53617857D01*
X57237380Y-53379761D01*
X57285000Y-53284523D01*
X57332619Y-53236904D01*
X57427857Y-53189285D01*
X57523095Y-53189285D01*
X57665952Y-53236904D01*
X58237380Y-53808333D01*
X58237380Y-53189285D01*
X62698333Y-84177142D02*
X62650714Y-84224761D01*
X62507857Y-84272380D01*
X62412619Y-84272380D01*
X62269761Y-84224761D01*
X62174523Y-84129523D01*
X62126904Y-84034285D01*
X62079285Y-83843809D01*
X62079285Y-83700952D01*
X62126904Y-83510476D01*
X62174523Y-83415238D01*
X62269761Y-83320000D01*
X62412619Y-83272380D01*
X62507857Y-83272380D01*
X62650714Y-83320000D01*
X62698333Y-83367619D01*
X63031666Y-83272380D02*
X63650714Y-83272380D01*
X63317380Y-83653333D01*
X63460238Y-83653333D01*
X63555476Y-83700952D01*
X63603095Y-83748571D01*
X63650714Y-83843809D01*
X63650714Y-84081904D01*
X63603095Y-84177142D01*
X63555476Y-84224761D01*
X63460238Y-84272380D01*
X63174523Y-84272380D01*
X63079285Y-84224761D01*
X63031666Y-84177142D01*
X65873333Y-35957142D02*
X65825714Y-36004761D01*
X65682857Y-36052380D01*
X65587619Y-36052380D01*
X65444761Y-36004761D01*
X65349523Y-35909523D01*
X65301904Y-35814285D01*
X65254285Y-35623809D01*
X65254285Y-35480952D01*
X65301904Y-35290476D01*
X65349523Y-35195238D01*
X65444761Y-35100000D01*
X65587619Y-35052380D01*
X65682857Y-35052380D01*
X65825714Y-35100000D01*
X65873333Y-35147619D01*
X66730476Y-35385714D02*
X66730476Y-36052380D01*
X66492380Y-35004761D02*
X66254285Y-35719047D01*
X66873333Y-35719047D01*
X57618333Y-16867142D02*
X57570714Y-16914761D01*
X57427857Y-16962380D01*
X57332619Y-16962380D01*
X57189761Y-16914761D01*
X57094523Y-16819523D01*
X57046904Y-16724285D01*
X56999285Y-16533809D01*
X56999285Y-16390952D01*
X57046904Y-16200476D01*
X57094523Y-16105238D01*
X57189761Y-16010000D01*
X57332619Y-15962380D01*
X57427857Y-15962380D01*
X57570714Y-16010000D01*
X57618333Y-16057619D01*
X58523095Y-15962380D02*
X58046904Y-15962380D01*
X57999285Y-16438571D01*
X58046904Y-16390952D01*
X58142142Y-16343333D01*
X58380238Y-16343333D01*
X58475476Y-16390952D01*
X58523095Y-16438571D01*
X58570714Y-16533809D01*
X58570714Y-16771904D01*
X58523095Y-16867142D01*
X58475476Y-16914761D01*
X58380238Y-16962380D01*
X58142142Y-16962380D01*
X58046904Y-16914761D01*
X57999285Y-16867142D01*
X76002142Y-44616666D02*
X76049761Y-44664285D01*
X76097380Y-44807142D01*
X76097380Y-44902380D01*
X76049761Y-45045238D01*
X75954523Y-45140476D01*
X75859285Y-45188095D01*
X75668809Y-45235714D01*
X75525952Y-45235714D01*
X75335476Y-45188095D01*
X75240238Y-45140476D01*
X75145000Y-45045238D01*
X75097380Y-44902380D01*
X75097380Y-44807142D01*
X75145000Y-44664285D01*
X75192619Y-44616666D01*
X75097380Y-43759523D02*
X75097380Y-43950000D01*
X75145000Y-44045238D01*
X75192619Y-44092857D01*
X75335476Y-44188095D01*
X75525952Y-44235714D01*
X75906904Y-44235714D01*
X76002142Y-44188095D01*
X76049761Y-44140476D01*
X76097380Y-44045238D01*
X76097380Y-43854761D01*
X76049761Y-43759523D01*
X76002142Y-43711904D01*
X75906904Y-43664285D01*
X75668809Y-43664285D01*
X75573571Y-43711904D01*
X75525952Y-43759523D01*
X75478333Y-43854761D01*
X75478333Y-44045238D01*
X75525952Y-44140476D01*
X75573571Y-44188095D01*
X75668809Y-44235714D01*
X92432142Y-44616666D02*
X92479761Y-44664285D01*
X92527380Y-44807142D01*
X92527380Y-44902380D01*
X92479761Y-45045238D01*
X92384523Y-45140476D01*
X92289285Y-45188095D01*
X92098809Y-45235714D01*
X91955952Y-45235714D01*
X91765476Y-45188095D01*
X91670238Y-45140476D01*
X91575000Y-45045238D01*
X91527380Y-44902380D01*
X91527380Y-44807142D01*
X91575000Y-44664285D01*
X91622619Y-44616666D01*
X91527380Y-44283333D02*
X91527380Y-43616666D01*
X92527380Y-44045238D01*
X85003333Y-72747142D02*
X84955714Y-72794761D01*
X84812857Y-72842380D01*
X84717619Y-72842380D01*
X84574761Y-72794761D01*
X84479523Y-72699523D01*
X84431904Y-72604285D01*
X84384285Y-72413809D01*
X84384285Y-72270952D01*
X84431904Y-72080476D01*
X84479523Y-71985238D01*
X84574761Y-71890000D01*
X84717619Y-71842380D01*
X84812857Y-71842380D01*
X84955714Y-71890000D01*
X85003333Y-71937619D01*
X85574761Y-72270952D02*
X85479523Y-72223333D01*
X85431904Y-72175714D01*
X85384285Y-72080476D01*
X85384285Y-72032857D01*
X85431904Y-71937619D01*
X85479523Y-71890000D01*
X85574761Y-71842380D01*
X85765238Y-71842380D01*
X85860476Y-71890000D01*
X85908095Y-71937619D01*
X85955714Y-72032857D01*
X85955714Y-72080476D01*
X85908095Y-72175714D01*
X85860476Y-72223333D01*
X85765238Y-72270952D01*
X85574761Y-72270952D01*
X85479523Y-72318571D01*
X85431904Y-72366190D01*
X85384285Y-72461428D01*
X85384285Y-72651904D01*
X85431904Y-72747142D01*
X85479523Y-72794761D01*
X85574761Y-72842380D01*
X85765238Y-72842380D01*
X85860476Y-72794761D01*
X85908095Y-72747142D01*
X85955714Y-72651904D01*
X85955714Y-72461428D01*
X85908095Y-72366190D01*
X85860476Y-72318571D01*
X85765238Y-72270952D01*
X47442380Y-112498095D02*
X46442380Y-112498095D01*
X46442380Y-112260000D01*
X46490000Y-112117142D01*
X46585238Y-112021904D01*
X46680476Y-111974285D01*
X46870952Y-111926666D01*
X47013809Y-111926666D01*
X47204285Y-111974285D01*
X47299523Y-112021904D01*
X47394761Y-112117142D01*
X47442380Y-112260000D01*
X47442380Y-112498095D01*
X46442380Y-111593333D02*
X46442380Y-110974285D01*
X46823333Y-111307619D01*
X46823333Y-111164761D01*
X46870952Y-111069523D01*
X46918571Y-111021904D01*
X47013809Y-110974285D01*
X47251904Y-110974285D01*
X47347142Y-111021904D01*
X47394761Y-111069523D01*
X47442380Y-111164761D01*
X47442380Y-111450476D01*
X47394761Y-111545714D01*
X47347142Y-111593333D01*
X48077380Y-105036904D02*
X47077380Y-105036904D01*
X48077380Y-104465476D02*
X47505952Y-104894047D01*
X47077380Y-104465476D02*
X47648809Y-105036904D01*
X47442380Y-123928095D02*
X46442380Y-123928095D01*
X46442380Y-123690000D01*
X46490000Y-123547142D01*
X46585238Y-123451904D01*
X46680476Y-123404285D01*
X46870952Y-123356666D01*
X47013809Y-123356666D01*
X47204285Y-123404285D01*
X47299523Y-123451904D01*
X47394761Y-123547142D01*
X47442380Y-123690000D01*
X47442380Y-123928095D01*
X46775714Y-122499523D02*
X47442380Y-122499523D01*
X46394761Y-122737619D02*
X47109047Y-122975714D01*
X47109047Y-122356666D01*
X48077380Y-117736904D02*
X47077380Y-117736904D01*
X48077380Y-117165476D02*
X47505952Y-117594047D01*
X47077380Y-117165476D02*
X47648809Y-117736904D01*
X56332380Y-111863095D02*
X55332380Y-111863095D01*
X55332380Y-111625000D01*
X55380000Y-111482142D01*
X55475238Y-111386904D01*
X55570476Y-111339285D01*
X55760952Y-111291666D01*
X55903809Y-111291666D01*
X56094285Y-111339285D01*
X56189523Y-111386904D01*
X56284761Y-111482142D01*
X56332380Y-111625000D01*
X56332380Y-111863095D01*
X55332380Y-110958333D02*
X55332380Y-110291666D01*
X56332380Y-110720238D01*
X55892380Y-105036904D02*
X54892380Y-105036904D01*
X55892380Y-104465476D02*
X55320952Y-104894047D01*
X54892380Y-104465476D02*
X55463809Y-105036904D01*
X56262380Y-123293095D02*
X55262380Y-123293095D01*
X55262380Y-123055000D01*
X55310000Y-122912142D01*
X55405238Y-122816904D01*
X55500476Y-122769285D01*
X55690952Y-122721666D01*
X55833809Y-122721666D01*
X56024285Y-122769285D01*
X56119523Y-122816904D01*
X56214761Y-122912142D01*
X56262380Y-123055000D01*
X56262380Y-123293095D01*
X55690952Y-122150238D02*
X55643333Y-122245476D01*
X55595714Y-122293095D01*
X55500476Y-122340714D01*
X55452857Y-122340714D01*
X55357619Y-122293095D01*
X55310000Y-122245476D01*
X55262380Y-122150238D01*
X55262380Y-121959761D01*
X55310000Y-121864523D01*
X55357619Y-121816904D01*
X55452857Y-121769285D01*
X55500476Y-121769285D01*
X55595714Y-121816904D01*
X55643333Y-121864523D01*
X55690952Y-121959761D01*
X55690952Y-122150238D01*
X55738571Y-122245476D01*
X55786190Y-122293095D01*
X55881428Y-122340714D01*
X56071904Y-122340714D01*
X56167142Y-122293095D01*
X56214761Y-122245476D01*
X56262380Y-122150238D01*
X56262380Y-121959761D01*
X56214761Y-121864523D01*
X56167142Y-121816904D01*
X56071904Y-121769285D01*
X55881428Y-121769285D01*
X55786190Y-121816904D01*
X55738571Y-121864523D01*
X55690952Y-121959761D01*
X55892380Y-117736904D02*
X54892380Y-117736904D01*
X55892380Y-117165476D02*
X55320952Y-117594047D01*
X54892380Y-117165476D02*
X55463809Y-117736904D01*
X92654380Y-112371095D02*
X91654380Y-112371095D01*
X91654380Y-112133000D01*
X91702000Y-111990142D01*
X91797238Y-111894904D01*
X91892476Y-111847285D01*
X92082952Y-111799666D01*
X92225809Y-111799666D01*
X92416285Y-111847285D01*
X92511523Y-111894904D01*
X92606761Y-111990142D01*
X92654380Y-112133000D01*
X92654380Y-112371095D01*
X92654380Y-111323476D02*
X92654380Y-111133000D01*
X92606761Y-111037761D01*
X92559142Y-110990142D01*
X92416285Y-110894904D01*
X92225809Y-110847285D01*
X91844857Y-110847285D01*
X91749619Y-110894904D01*
X91702000Y-110942523D01*
X91654380Y-111037761D01*
X91654380Y-111228238D01*
X91702000Y-111323476D01*
X91749619Y-111371095D01*
X91844857Y-111418714D01*
X92082952Y-111418714D01*
X92178190Y-111371095D01*
X92225809Y-111323476D01*
X92273428Y-111228238D01*
X92273428Y-111037761D01*
X92225809Y-110942523D01*
X92178190Y-110894904D01*
X92082952Y-110847285D01*
X97294380Y-104909904D02*
X96294380Y-104909904D01*
X97294380Y-104338476D02*
X96722952Y-104767047D01*
X96294380Y-104338476D02*
X96865809Y-104909904D01*
X92654380Y-126182285D02*
X91654380Y-126182285D01*
X91654380Y-125944190D01*
X91702000Y-125801333D01*
X91797238Y-125706095D01*
X91892476Y-125658476D01*
X92082952Y-125610857D01*
X92225809Y-125610857D01*
X92416285Y-125658476D01*
X92511523Y-125706095D01*
X92606761Y-125801333D01*
X92654380Y-125944190D01*
X92654380Y-126182285D01*
X92654380Y-124658476D02*
X92654380Y-125229904D01*
X92654380Y-124944190D02*
X91654380Y-124944190D01*
X91797238Y-125039428D01*
X91892476Y-125134666D01*
X91940095Y-125229904D01*
X91654380Y-124039428D02*
X91654380Y-123944190D01*
X91702000Y-123848952D01*
X91749619Y-123801333D01*
X91844857Y-123753714D01*
X92035333Y-123706095D01*
X92273428Y-123706095D01*
X92463904Y-123753714D01*
X92559142Y-123801333D01*
X92606761Y-123848952D01*
X92654380Y-123944190D01*
X92654380Y-124039428D01*
X92606761Y-124134666D01*
X92559142Y-124182285D01*
X92463904Y-124229904D01*
X92273428Y-124277523D01*
X92035333Y-124277523D01*
X91844857Y-124229904D01*
X91749619Y-124182285D01*
X91702000Y-124134666D01*
X91654380Y-124039428D01*
X97294380Y-117609904D02*
X96294380Y-117609904D01*
X97294380Y-117038476D02*
X96722952Y-117467047D01*
X96294380Y-117038476D02*
X96865809Y-117609904D01*
X92654380Y-81859285D02*
X91654380Y-81859285D01*
X91654380Y-81621190D01*
X91702000Y-81478333D01*
X91797238Y-81383095D01*
X91892476Y-81335476D01*
X92082952Y-81287857D01*
X92225809Y-81287857D01*
X92416285Y-81335476D01*
X92511523Y-81383095D01*
X92606761Y-81478333D01*
X92654380Y-81621190D01*
X92654380Y-81859285D01*
X92654380Y-80335476D02*
X92654380Y-80906904D01*
X92654380Y-80621190D02*
X91654380Y-80621190D01*
X91797238Y-80716428D01*
X91892476Y-80811666D01*
X91940095Y-80906904D01*
X92654380Y-79383095D02*
X92654380Y-79954523D01*
X92654380Y-79668809D02*
X91654380Y-79668809D01*
X91797238Y-79764047D01*
X91892476Y-79859285D01*
X91940095Y-79954523D01*
X97294380Y-77096904D02*
X96294380Y-77096904D01*
X97294380Y-76525476D02*
X96722952Y-76954047D01*
X96294380Y-76525476D02*
X96865809Y-77096904D01*
X92654380Y-98369285D02*
X91654380Y-98369285D01*
X91654380Y-98131190D01*
X91702000Y-97988333D01*
X91797238Y-97893095D01*
X91892476Y-97845476D01*
X92082952Y-97797857D01*
X92225809Y-97797857D01*
X92416285Y-97845476D01*
X92511523Y-97893095D01*
X92606761Y-97988333D01*
X92654380Y-98131190D01*
X92654380Y-98369285D01*
X92654380Y-96845476D02*
X92654380Y-97416904D01*
X92654380Y-97131190D02*
X91654380Y-97131190D01*
X91797238Y-97226428D01*
X91892476Y-97321666D01*
X91940095Y-97416904D01*
X91749619Y-96464523D02*
X91702000Y-96416904D01*
X91654380Y-96321666D01*
X91654380Y-96083571D01*
X91702000Y-95988333D01*
X91749619Y-95940714D01*
X91844857Y-95893095D01*
X91940095Y-95893095D01*
X92082952Y-95940714D01*
X92654380Y-96512142D01*
X92654380Y-95893095D01*
X97294380Y-89796904D02*
X96294380Y-89796904D01*
X97294380Y-89225476D02*
X96722952Y-89654047D01*
X96294380Y-89225476D02*
X96865809Y-89796904D01*
X101474380Y-110942285D02*
X100474380Y-110942285D01*
X100474380Y-110704190D01*
X100522000Y-110561333D01*
X100617238Y-110466095D01*
X100712476Y-110418476D01*
X100902952Y-110370857D01*
X101045809Y-110370857D01*
X101236285Y-110418476D01*
X101331523Y-110466095D01*
X101426761Y-110561333D01*
X101474380Y-110704190D01*
X101474380Y-110942285D01*
X101474380Y-109418476D02*
X101474380Y-109989904D01*
X101474380Y-109704190D02*
X100474380Y-109704190D01*
X100617238Y-109799428D01*
X100712476Y-109894666D01*
X100760095Y-109989904D01*
X100474380Y-109085142D02*
X100474380Y-108466095D01*
X100855333Y-108799428D01*
X100855333Y-108656571D01*
X100902952Y-108561333D01*
X100950571Y-108513714D01*
X101045809Y-108466095D01*
X101283904Y-108466095D01*
X101379142Y-108513714D01*
X101426761Y-108561333D01*
X101474380Y-108656571D01*
X101474380Y-108942285D01*
X101426761Y-109037523D01*
X101379142Y-109085142D01*
X101104380Y-104909904D02*
X100104380Y-104909904D01*
X101104380Y-104338476D02*
X100532952Y-104767047D01*
X100104380Y-104338476D02*
X100675809Y-104909904D01*
X101474380Y-123642285D02*
X100474380Y-123642285D01*
X100474380Y-123404190D01*
X100522000Y-123261333D01*
X100617238Y-123166095D01*
X100712476Y-123118476D01*
X100902952Y-123070857D01*
X101045809Y-123070857D01*
X101236285Y-123118476D01*
X101331523Y-123166095D01*
X101426761Y-123261333D01*
X101474380Y-123404190D01*
X101474380Y-123642285D01*
X101474380Y-122118476D02*
X101474380Y-122689904D01*
X101474380Y-122404190D02*
X100474380Y-122404190D01*
X100617238Y-122499428D01*
X100712476Y-122594666D01*
X100760095Y-122689904D01*
X100807714Y-121261333D02*
X101474380Y-121261333D01*
X100426761Y-121499428D02*
X101141047Y-121737523D01*
X101141047Y-121118476D01*
X101104380Y-117609904D02*
X100104380Y-117609904D01*
X101104380Y-117038476D02*
X100532952Y-117467047D01*
X100104380Y-117038476D02*
X100675809Y-117609904D01*
X101474380Y-95829285D02*
X100474380Y-95829285D01*
X100474380Y-95591190D01*
X100522000Y-95448333D01*
X100617238Y-95353095D01*
X100712476Y-95305476D01*
X100902952Y-95257857D01*
X101045809Y-95257857D01*
X101236285Y-95305476D01*
X101331523Y-95353095D01*
X101426761Y-95448333D01*
X101474380Y-95591190D01*
X101474380Y-95829285D01*
X101474380Y-94305476D02*
X101474380Y-94876904D01*
X101474380Y-94591190D02*
X100474380Y-94591190D01*
X100617238Y-94686428D01*
X100712476Y-94781666D01*
X100760095Y-94876904D01*
X100474380Y-93448333D02*
X100474380Y-93638809D01*
X100522000Y-93734047D01*
X100569619Y-93781666D01*
X100712476Y-93876904D01*
X100902952Y-93924523D01*
X101283904Y-93924523D01*
X101379142Y-93876904D01*
X101426761Y-93829285D01*
X101474380Y-93734047D01*
X101474380Y-93543571D01*
X101426761Y-93448333D01*
X101379142Y-93400714D01*
X101283904Y-93353095D01*
X101045809Y-93353095D01*
X100950571Y-93400714D01*
X100902952Y-93448333D01*
X100855333Y-93543571D01*
X100855333Y-93734047D01*
X100902952Y-93829285D01*
X100950571Y-93876904D01*
X101045809Y-93924523D01*
X101104380Y-89796904D02*
X100104380Y-89796904D01*
X101104380Y-89225476D02*
X100532952Y-89654047D01*
X100104380Y-89225476D02*
X100675809Y-89796904D01*
D12*
X49481878Y-50853084D02*
X49481878Y-50984317D01*
X49688102Y-50984317D02*
X49294401Y-50984317D01*
X49294401Y-50796841D01*
X49481878Y-50515626D02*
X49500626Y-50459383D01*
X49519373Y-50440635D01*
X49556869Y-50421887D01*
X49613112Y-50421887D01*
X49650607Y-50440635D01*
X49669355Y-50459383D01*
X49688102Y-50496878D01*
X49688102Y-50646859D01*
X49294401Y-50646859D01*
X49294401Y-50515626D01*
X49313149Y-50478130D01*
X49331897Y-50459383D01*
X49369392Y-50440635D01*
X49406887Y-50440635D01*
X49444383Y-50459383D01*
X49463130Y-50478130D01*
X49481878Y-50515626D01*
X49481878Y-50646859D01*
X49688102Y-50046934D02*
X49688102Y-50271906D01*
X49688102Y-50159420D02*
X49294401Y-50159420D01*
X49350644Y-50196915D01*
X49388140Y-50234411D01*
X49406887Y-50271906D01*
X59006878Y-76888084D02*
X59006878Y-77019317D01*
X59213102Y-77019317D02*
X58819401Y-77019317D01*
X58819401Y-76831841D01*
X59006878Y-76550626D02*
X59025626Y-76494383D01*
X59044373Y-76475635D01*
X59081869Y-76456887D01*
X59138112Y-76456887D01*
X59175607Y-76475635D01*
X59194355Y-76494383D01*
X59213102Y-76531878D01*
X59213102Y-76681859D01*
X58819401Y-76681859D01*
X58819401Y-76550626D01*
X58838149Y-76513130D01*
X58856897Y-76494383D01*
X58894392Y-76475635D01*
X58931887Y-76475635D01*
X58969383Y-76494383D01*
X58988130Y-76513130D01*
X59006878Y-76550626D01*
X59006878Y-76681859D01*
X58856897Y-76306906D02*
X58838149Y-76288158D01*
X58819401Y-76250663D01*
X58819401Y-76156925D01*
X58838149Y-76119429D01*
X58856897Y-76100682D01*
X58894392Y-76081934D01*
X58931887Y-76081934D01*
X58988130Y-76100682D01*
X59213102Y-76325654D01*
X59213102Y-76081934D01*
X62856878Y-39338084D02*
X62856878Y-39469317D01*
X63063102Y-39469317D02*
X62669401Y-39469317D01*
X62669401Y-39281841D01*
X62856878Y-39000626D02*
X62875626Y-38944383D01*
X62894373Y-38925635D01*
X62931869Y-38906887D01*
X62988112Y-38906887D01*
X63025607Y-38925635D01*
X63044355Y-38944383D01*
X63063102Y-38981878D01*
X63063102Y-39131859D01*
X62669401Y-39131859D01*
X62669401Y-39000626D01*
X62688149Y-38963130D01*
X62706897Y-38944383D01*
X62744392Y-38925635D01*
X62781887Y-38925635D01*
X62819383Y-38944383D01*
X62838130Y-38963130D01*
X62856878Y-39000626D01*
X62856878Y-39131859D01*
X62669401Y-38775654D02*
X62669401Y-38531934D01*
X62819383Y-38663168D01*
X62819383Y-38606925D01*
X62838130Y-38569429D01*
X62856878Y-38550682D01*
X62894373Y-38531934D01*
X62988112Y-38531934D01*
X63025607Y-38550682D01*
X63044355Y-38569429D01*
X63063102Y-38606925D01*
X63063102Y-38719411D01*
X63044355Y-38756906D01*
X63025607Y-38775654D01*
D10*
X97142380Y-50331666D02*
X96666190Y-50665000D01*
X97142380Y-50903095D02*
X96142380Y-50903095D01*
X96142380Y-50522142D01*
X96190000Y-50426904D01*
X96237619Y-50379285D01*
X96332857Y-50331666D01*
X96475714Y-50331666D01*
X96570952Y-50379285D01*
X96618571Y-50426904D01*
X96666190Y-50522142D01*
X96666190Y-50903095D01*
X97142380Y-49379285D02*
X97142380Y-49950714D01*
X97142380Y-49665000D02*
X96142380Y-49665000D01*
X96285238Y-49760238D01*
X96380476Y-49855476D01*
X96428095Y-49950714D01*
X77287380Y-54776666D02*
X76811190Y-55110000D01*
X77287380Y-55348095D02*
X76287380Y-55348095D01*
X76287380Y-54967142D01*
X76335000Y-54871904D01*
X76382619Y-54824285D01*
X76477857Y-54776666D01*
X76620714Y-54776666D01*
X76715952Y-54824285D01*
X76763571Y-54871904D01*
X76811190Y-54967142D01*
X76811190Y-55348095D01*
X76382619Y-54395714D02*
X76335000Y-54348095D01*
X76287380Y-54252857D01*
X76287380Y-54014761D01*
X76335000Y-53919523D01*
X76382619Y-53871904D01*
X76477857Y-53824285D01*
X76573095Y-53824285D01*
X76715952Y-53871904D01*
X77287380Y-54443333D01*
X77287380Y-53824285D01*
X60412380Y-103631904D02*
X61221904Y-103631904D01*
X61317142Y-103584285D01*
X61364761Y-103536666D01*
X61412380Y-103441428D01*
X61412380Y-103250952D01*
X61364761Y-103155714D01*
X61317142Y-103108095D01*
X61221904Y-103060476D01*
X60412380Y-103060476D01*
X61412380Y-102060476D02*
X61412380Y-102631904D01*
X61412380Y-102346190D02*
X60412380Y-102346190D01*
X60555238Y-102441428D01*
X60650476Y-102536666D01*
X60698095Y-102631904D01*
X58127380Y-49656904D02*
X58936904Y-49656904D01*
X59032142Y-49609285D01*
X59079761Y-49561666D01*
X59127380Y-49466428D01*
X59127380Y-49275952D01*
X59079761Y-49180714D01*
X59032142Y-49133095D01*
X58936904Y-49085476D01*
X58127380Y-49085476D01*
X58127380Y-48704523D02*
X58127380Y-48085476D01*
X58508333Y-48418809D01*
X58508333Y-48275952D01*
X58555952Y-48180714D01*
X58603571Y-48133095D01*
X58698809Y-48085476D01*
X58936904Y-48085476D01*
X59032142Y-48133095D01*
X59079761Y-48180714D01*
X59127380Y-48275952D01*
X59127380Y-48561666D01*
X59079761Y-48656904D01*
X59032142Y-48704523D01*
X88352380Y-103631904D02*
X89161904Y-103631904D01*
X89257142Y-103584285D01*
X89304761Y-103536666D01*
X89352380Y-103441428D01*
X89352380Y-103250952D01*
X89304761Y-103155714D01*
X89257142Y-103108095D01*
X89161904Y-103060476D01*
X88352380Y-103060476D01*
X88685714Y-102155714D02*
X89352380Y-102155714D01*
X88304761Y-102393809D02*
X89019047Y-102631904D01*
X89019047Y-102012857D01*
X54483095Y-21017380D02*
X54483095Y-21826904D01*
X54530714Y-21922142D01*
X54578333Y-21969761D01*
X54673571Y-22017380D01*
X54864047Y-22017380D01*
X54959285Y-21969761D01*
X55006904Y-21922142D01*
X55054523Y-21826904D01*
X55054523Y-21017380D01*
X56006904Y-21017380D02*
X55530714Y-21017380D01*
X55483095Y-21493571D01*
X55530714Y-21445952D01*
X55625952Y-21398333D01*
X55864047Y-21398333D01*
X55959285Y-21445952D01*
X56006904Y-21493571D01*
X56054523Y-21588809D01*
X56054523Y-21826904D01*
X56006904Y-21922142D01*
X55959285Y-21969761D01*
X55864047Y-22017380D01*
X55625952Y-22017380D01*
X55530714Y-21969761D01*
X55483095Y-21922142D01*
X47442380Y-83288095D02*
X46442380Y-83288095D01*
X46442380Y-83050000D01*
X46490000Y-82907142D01*
X46585238Y-82811904D01*
X46680476Y-82764285D01*
X46870952Y-82716666D01*
X47013809Y-82716666D01*
X47204285Y-82764285D01*
X47299523Y-82811904D01*
X47394761Y-82907142D01*
X47442380Y-83050000D01*
X47442380Y-83288095D01*
X47442380Y-81764285D02*
X47442380Y-82335714D01*
X47442380Y-82050000D02*
X46442380Y-82050000D01*
X46585238Y-82145238D01*
X46680476Y-82240476D01*
X46728095Y-82335714D01*
X48077380Y-77096904D02*
X47077380Y-77096904D01*
X48077380Y-76525476D02*
X47505952Y-76954047D01*
X47077380Y-76525476D02*
X47648809Y-77096904D01*
X47442380Y-95988095D02*
X46442380Y-95988095D01*
X46442380Y-95750000D01*
X46490000Y-95607142D01*
X46585238Y-95511904D01*
X46680476Y-95464285D01*
X46870952Y-95416666D01*
X47013809Y-95416666D01*
X47204285Y-95464285D01*
X47299523Y-95511904D01*
X47394761Y-95607142D01*
X47442380Y-95750000D01*
X47442380Y-95988095D01*
X46537619Y-95035714D02*
X46490000Y-94988095D01*
X46442380Y-94892857D01*
X46442380Y-94654761D01*
X46490000Y-94559523D01*
X46537619Y-94511904D01*
X46632857Y-94464285D01*
X46728095Y-94464285D01*
X46870952Y-94511904D01*
X47442380Y-95083333D01*
X47442380Y-94464285D01*
X48077380Y-89796904D02*
X47077380Y-89796904D01*
X48077380Y-89225476D02*
X47505952Y-89654047D01*
X47077380Y-89225476D02*
X47648809Y-89796904D01*
X56262380Y-82653095D02*
X55262380Y-82653095D01*
X55262380Y-82415000D01*
X55310000Y-82272142D01*
X55405238Y-82176904D01*
X55500476Y-82129285D01*
X55690952Y-82081666D01*
X55833809Y-82081666D01*
X56024285Y-82129285D01*
X56119523Y-82176904D01*
X56214761Y-82272142D01*
X56262380Y-82415000D01*
X56262380Y-82653095D01*
X55262380Y-81176904D02*
X55262380Y-81653095D01*
X55738571Y-81700714D01*
X55690952Y-81653095D01*
X55643333Y-81557857D01*
X55643333Y-81319761D01*
X55690952Y-81224523D01*
X55738571Y-81176904D01*
X55833809Y-81129285D01*
X56071904Y-81129285D01*
X56167142Y-81176904D01*
X56214761Y-81224523D01*
X56262380Y-81319761D01*
X56262380Y-81557857D01*
X56214761Y-81653095D01*
X56167142Y-81700714D01*
X55697380Y-77096904D02*
X54697380Y-77096904D01*
X55697380Y-76525476D02*
X55125952Y-76954047D01*
X54697380Y-76525476D02*
X55268809Y-77096904D01*
X56262380Y-95353095D02*
X55262380Y-95353095D01*
X55262380Y-95115000D01*
X55310000Y-94972142D01*
X55405238Y-94876904D01*
X55500476Y-94829285D01*
X55690952Y-94781666D01*
X55833809Y-94781666D01*
X56024285Y-94829285D01*
X56119523Y-94876904D01*
X56214761Y-94972142D01*
X56262380Y-95115000D01*
X56262380Y-95353095D01*
X55262380Y-93924523D02*
X55262380Y-94115000D01*
X55310000Y-94210238D01*
X55357619Y-94257857D01*
X55500476Y-94353095D01*
X55690952Y-94400714D01*
X56071904Y-94400714D01*
X56167142Y-94353095D01*
X56214761Y-94305476D01*
X56262380Y-94210238D01*
X56262380Y-94019761D01*
X56214761Y-93924523D01*
X56167142Y-93876904D01*
X56071904Y-93829285D01*
X55833809Y-93829285D01*
X55738571Y-93876904D01*
X55690952Y-93924523D01*
X55643333Y-94019761D01*
X55643333Y-94210238D01*
X55690952Y-94305476D01*
X55738571Y-94353095D01*
X55833809Y-94400714D01*
X55697380Y-89796904D02*
X54697380Y-89796904D01*
X55697380Y-89225476D02*
X55125952Y-89654047D01*
X54697380Y-89225476D02*
X55268809Y-89796904D01*
X71421666Y-24257380D02*
X71421666Y-24971666D01*
X71374047Y-25114523D01*
X71278809Y-25209761D01*
X71135952Y-25257380D01*
X71040714Y-25257380D01*
X72326428Y-24257380D02*
X72135952Y-24257380D01*
X72040714Y-24305000D01*
X71993095Y-24352619D01*
X71897857Y-24495476D01*
X71850238Y-24685952D01*
X71850238Y-25066904D01*
X71897857Y-25162142D01*
X71945476Y-25209761D01*
X72040714Y-25257380D01*
X72231190Y-25257380D01*
X72326428Y-25209761D01*
X72374047Y-25162142D01*
X72421666Y-25066904D01*
X72421666Y-24828809D01*
X72374047Y-24733571D01*
X72326428Y-24685952D01*
X72231190Y-24638333D01*
X72040714Y-24638333D01*
X71945476Y-24685952D01*
X71897857Y-24733571D01*
X71850238Y-24828809D01*
X57451666Y-84582380D02*
X57451666Y-85296666D01*
X57404047Y-85439523D01*
X57308809Y-85534761D01*
X57165952Y-85582380D01*
X57070714Y-85582380D01*
X57880238Y-84677619D02*
X57927857Y-84630000D01*
X58023095Y-84582380D01*
X58261190Y-84582380D01*
X58356428Y-84630000D01*
X58404047Y-84677619D01*
X58451666Y-84772857D01*
X58451666Y-84868095D01*
X58404047Y-85010952D01*
X57832619Y-85582380D01*
X58451666Y-85582380D01*
X59777380Y-116538333D02*
X60491666Y-116538333D01*
X60634523Y-116585952D01*
X60729761Y-116681190D01*
X60777380Y-116824047D01*
X60777380Y-116919285D01*
X59777380Y-116157380D02*
X59777380Y-115538333D01*
X60158333Y-115871666D01*
X60158333Y-115728809D01*
X60205952Y-115633571D01*
X60253571Y-115585952D01*
X60348809Y-115538333D01*
X60586904Y-115538333D01*
X60682142Y-115585952D01*
X60729761Y-115633571D01*
X60777380Y-115728809D01*
X60777380Y-116014523D01*
X60729761Y-116109761D01*
X60682142Y-116157380D01*
X87717380Y-117173333D02*
X88431666Y-117173333D01*
X88574523Y-117220952D01*
X88669761Y-117316190D01*
X88717380Y-117459047D01*
X88717380Y-117554285D01*
X88050714Y-116268571D02*
X88717380Y-116268571D01*
X87669761Y-116506666D02*
X88384047Y-116744761D01*
X88384047Y-116125714D01*
X90471666Y-84582380D02*
X90471666Y-85296666D01*
X90424047Y-85439523D01*
X90328809Y-85534761D01*
X90185952Y-85582380D01*
X90090714Y-85582380D01*
X91424047Y-84582380D02*
X90947857Y-84582380D01*
X90900238Y-85058571D01*
X90947857Y-85010952D01*
X91043095Y-84963333D01*
X91281190Y-84963333D01*
X91376428Y-85010952D01*
X91424047Y-85058571D01*
X91471666Y-85153809D01*
X91471666Y-85391904D01*
X91424047Y-85487142D01*
X91376428Y-85534761D01*
X91281190Y-85582380D01*
X91043095Y-85582380D01*
X90947857Y-85534761D01*
X90900238Y-85487142D01*
X51522380Y-34623333D02*
X52236666Y-34623333D01*
X52379523Y-34670952D01*
X52474761Y-34766190D01*
X52522380Y-34909047D01*
X52522380Y-35004285D01*
X51522380Y-34242380D02*
X51522380Y-33575714D01*
X52522380Y-34004285D01*
X95972380Y-59864523D02*
X96686666Y-59864523D01*
X96829523Y-59912142D01*
X96924761Y-60007380D01*
X96972380Y-60150238D01*
X96972380Y-60245476D01*
X96972380Y-58864523D02*
X96972380Y-59435952D01*
X96972380Y-59150238D02*
X95972380Y-59150238D01*
X96115238Y-59245476D01*
X96210476Y-59340714D01*
X96258095Y-59435952D01*
X95972380Y-58245476D02*
X95972380Y-58150238D01*
X96020000Y-58055000D01*
X96067619Y-58007380D01*
X96162857Y-57959761D01*
X96353333Y-57912142D01*
X96591428Y-57912142D01*
X96781904Y-57959761D01*
X96877142Y-58007380D01*
X96924761Y-58055000D01*
X96972380Y-58150238D01*
X96972380Y-58245476D01*
X96924761Y-58340714D01*
X96877142Y-58388333D01*
X96781904Y-58435952D01*
X96591428Y-58483571D01*
X96353333Y-58483571D01*
X96162857Y-58435952D01*
X96067619Y-58388333D01*
X96020000Y-58340714D01*
X95972380Y-58245476D01*
X82637380Y-60499523D02*
X83351666Y-60499523D01*
X83494523Y-60547142D01*
X83589761Y-60642380D01*
X83637380Y-60785238D01*
X83637380Y-60880476D01*
X83637380Y-59499523D02*
X83637380Y-60070952D01*
X83637380Y-59785238D02*
X82637380Y-59785238D01*
X82780238Y-59880476D01*
X82875476Y-59975714D01*
X82923095Y-60070952D01*
X83637380Y-58547142D02*
X83637380Y-59118571D01*
X83637380Y-58832857D02*
X82637380Y-58832857D01*
X82780238Y-58928095D01*
X82875476Y-59023333D01*
X82923095Y-59118571D01*
X68667380Y-60499523D02*
X69381666Y-60499523D01*
X69524523Y-60547142D01*
X69619761Y-60642380D01*
X69667380Y-60785238D01*
X69667380Y-60880476D01*
X69667380Y-59499523D02*
X69667380Y-60070952D01*
X69667380Y-59785238D02*
X68667380Y-59785238D01*
X68810238Y-59880476D01*
X68905476Y-59975714D01*
X68953095Y-60070952D01*
X68762619Y-59118571D02*
X68715000Y-59070952D01*
X68667380Y-58975714D01*
X68667380Y-58737619D01*
X68715000Y-58642380D01*
X68762619Y-58594761D01*
X68857857Y-58547142D01*
X68953095Y-58547142D01*
X69095952Y-58594761D01*
X69667380Y-59166190D01*
X69667380Y-58547142D01*
X76104809Y-49506190D02*
X76104809Y-49982380D01*
X75771476Y-48982380D02*
X76104809Y-49506190D01*
X76438142Y-48982380D01*
X77295285Y-49982380D02*
X76723857Y-49982380D01*
X77009571Y-49982380D02*
X77009571Y-48982380D01*
X76914333Y-49125238D01*
X76819095Y-49220476D01*
X76723857Y-49268095D01*
X74422380Y-39703333D02*
X75136666Y-39703333D01*
X75279523Y-39750952D01*
X75374761Y-39846190D01*
X75422380Y-39989047D01*
X75422380Y-40084285D01*
X74850952Y-39084285D02*
X74803333Y-39179523D01*
X74755714Y-39227142D01*
X74660476Y-39274761D01*
X74612857Y-39274761D01*
X74517619Y-39227142D01*
X74470000Y-39179523D01*
X74422380Y-39084285D01*
X74422380Y-38893809D01*
X74470000Y-38798571D01*
X74517619Y-38750952D01*
X74612857Y-38703333D01*
X74660476Y-38703333D01*
X74755714Y-38750952D01*
X74803333Y-38798571D01*
X74850952Y-38893809D01*
X74850952Y-39084285D01*
X74898571Y-39179523D01*
X74946190Y-39227142D01*
X75041428Y-39274761D01*
X75231904Y-39274761D01*
X75327142Y-39227142D01*
X75374761Y-39179523D01*
X75422380Y-39084285D01*
X75422380Y-38893809D01*
X75374761Y-38798571D01*
X75327142Y-38750952D01*
X75231904Y-38703333D01*
X75041428Y-38703333D01*
X74946190Y-38750952D01*
X74898571Y-38798571D01*
X74850952Y-38893809D01*
X74422380Y-17478333D02*
X75136666Y-17478333D01*
X75279523Y-17525952D01*
X75374761Y-17621190D01*
X75422380Y-17764047D01*
X75422380Y-17859285D01*
X75422380Y-16954523D02*
X75422380Y-16764047D01*
X75374761Y-16668809D01*
X75327142Y-16621190D01*
X75184285Y-16525952D01*
X74993809Y-16478333D01*
X74612857Y-16478333D01*
X74517619Y-16525952D01*
X74470000Y-16573571D01*
X74422380Y-16668809D01*
X74422380Y-16859285D01*
X74470000Y-16954523D01*
X74517619Y-17002142D01*
X74612857Y-17049761D01*
X74850952Y-17049761D01*
X74946190Y-17002142D01*
X74993809Y-16954523D01*
X75041428Y-16859285D01*
X75041428Y-16668809D01*
X74993809Y-16573571D01*
X74946190Y-16525952D01*
X74850952Y-16478333D01*
X88725476Y-78827380D02*
X88725476Y-79541666D01*
X88677857Y-79684523D01*
X88582619Y-79779761D01*
X88439761Y-79827380D01*
X88344523Y-79827380D01*
X89725476Y-79827380D02*
X89154047Y-79827380D01*
X89439761Y-79827380D02*
X89439761Y-78827380D01*
X89344523Y-78970238D01*
X89249285Y-79065476D01*
X89154047Y-79113095D01*
X90058809Y-78827380D02*
X90677857Y-78827380D01*
X90344523Y-79208333D01*
X90487380Y-79208333D01*
X90582619Y-79255952D01*
X90630238Y-79303571D01*
X90677857Y-79398809D01*
X90677857Y-79636904D01*
X90630238Y-79732142D01*
X90582619Y-79779761D01*
X90487380Y-79827380D01*
X90201666Y-79827380D01*
X90106428Y-79779761D01*
X90058809Y-79732142D01*
X75382380Y-93948095D02*
X74382380Y-93948095D01*
X74858571Y-93948095D02*
X74858571Y-93376666D01*
X75382380Y-93376666D02*
X74382380Y-93376666D01*
X75334761Y-92948095D02*
X75382380Y-92805238D01*
X75382380Y-92567142D01*
X75334761Y-92471904D01*
X75287142Y-92424285D01*
X75191904Y-92376666D01*
X75096666Y-92376666D01*
X75001428Y-92424285D01*
X74953809Y-92471904D01*
X74906190Y-92567142D01*
X74858571Y-92757619D01*
X74810952Y-92852857D01*
X74763333Y-92900476D01*
X74668095Y-92948095D01*
X74572857Y-92948095D01*
X74477619Y-92900476D01*
X74430000Y-92852857D01*
X74382380Y-92757619D01*
X74382380Y-92519523D01*
X74430000Y-92376666D01*
X75382380Y-91424285D02*
X75382380Y-91995714D01*
X75382380Y-91710000D02*
X74382380Y-91710000D01*
X74525238Y-91805238D01*
X74620476Y-91900476D01*
X74668095Y-91995714D01*
X85145714Y-87232380D02*
X85145714Y-86232380D01*
X85383809Y-86232380D01*
X85526666Y-86280000D01*
X85621904Y-86375238D01*
X85669523Y-86470476D01*
X85717142Y-86660952D01*
X85717142Y-86803809D01*
X85669523Y-86994285D01*
X85621904Y-87089523D01*
X85526666Y-87184761D01*
X85383809Y-87232380D01*
X85145714Y-87232380D01*
X86669523Y-87232380D02*
X86098095Y-87232380D01*
X86383809Y-87232380D02*
X86383809Y-86232380D01*
X86288571Y-86375238D01*
X86193333Y-86470476D01*
X86098095Y-86518095D01*
X87002857Y-86232380D02*
X87669523Y-86232380D01*
X87240952Y-87232380D01*
X61015714Y-30717380D02*
X61015714Y-29717380D01*
X61253809Y-29717380D01*
X61396666Y-29765000D01*
X61491904Y-29860238D01*
X61539523Y-29955476D01*
X61587142Y-30145952D01*
X61587142Y-30288809D01*
X61539523Y-30479285D01*
X61491904Y-30574523D01*
X61396666Y-30669761D01*
X61253809Y-30717380D01*
X61015714Y-30717380D01*
X62539523Y-30717380D02*
X61968095Y-30717380D01*
X62253809Y-30717380D02*
X62253809Y-29717380D01*
X62158571Y-29860238D01*
X62063333Y-29955476D01*
X61968095Y-30003095D01*
X63110952Y-30145952D02*
X63015714Y-30098333D01*
X62968095Y-30050714D01*
X62920476Y-29955476D01*
X62920476Y-29907857D01*
X62968095Y-29812619D01*
X63015714Y-29765000D01*
X63110952Y-29717380D01*
X63301428Y-29717380D01*
X63396666Y-29765000D01*
X63444285Y-29812619D01*
X63491904Y-29907857D01*
X63491904Y-29955476D01*
X63444285Y-30050714D01*
X63396666Y-30098333D01*
X63301428Y-30145952D01*
X63110952Y-30145952D01*
X63015714Y-30193571D01*
X62968095Y-30241190D01*
X62920476Y-30336428D01*
X62920476Y-30526904D01*
X62968095Y-30622142D01*
X63015714Y-30669761D01*
X63110952Y-30717380D01*
X63301428Y-30717380D01*
X63396666Y-30669761D01*
X63444285Y-30622142D01*
X63491904Y-30526904D01*
X63491904Y-30336428D01*
X63444285Y-30241190D01*
X63396666Y-30193571D01*
X63301428Y-30145952D01*
X50220714Y-17177380D02*
X50220714Y-16177380D01*
X50458809Y-16177380D01*
X50601666Y-16225000D01*
X50696904Y-16320238D01*
X50744523Y-16415476D01*
X50792142Y-16605952D01*
X50792142Y-16748809D01*
X50744523Y-16939285D01*
X50696904Y-17034523D01*
X50601666Y-17129761D01*
X50458809Y-17177380D01*
X50220714Y-17177380D01*
X51744523Y-17177380D02*
X51173095Y-17177380D01*
X51458809Y-17177380D02*
X51458809Y-16177380D01*
X51363571Y-16320238D01*
X51268333Y-16415476D01*
X51173095Y-16463095D01*
X52220714Y-17177380D02*
X52411190Y-17177380D01*
X52506428Y-17129761D01*
X52554047Y-17082142D01*
X52649285Y-16939285D01*
X52696904Y-16748809D01*
X52696904Y-16367857D01*
X52649285Y-16272619D01*
X52601666Y-16225000D01*
X52506428Y-16177380D01*
X52315952Y-16177380D01*
X52220714Y-16225000D01*
X52173095Y-16272619D01*
X52125476Y-16367857D01*
X52125476Y-16605952D01*
X52173095Y-16701190D01*
X52220714Y-16748809D01*
X52315952Y-16796428D01*
X52506428Y-16796428D01*
X52601666Y-16748809D01*
X52649285Y-16701190D01*
X52696904Y-16605952D01*
X69048333Y-75382380D02*
X68715000Y-74906190D01*
X68476904Y-75382380D02*
X68476904Y-74382380D01*
X68857857Y-74382380D01*
X68953095Y-74430000D01*
X69000714Y-74477619D01*
X69048333Y-74572857D01*
X69048333Y-74715714D01*
X69000714Y-74810952D01*
X68953095Y-74858571D01*
X68857857Y-74906190D01*
X68476904Y-74906190D01*
X69381666Y-74382380D02*
X70000714Y-74382380D01*
X69667380Y-74763333D01*
X69810238Y-74763333D01*
X69905476Y-74810952D01*
X69953095Y-74858571D01*
X70000714Y-74953809D01*
X70000714Y-75191904D01*
X69953095Y-75287142D01*
X69905476Y-75334761D01*
X69810238Y-75382380D01*
X69524523Y-75382380D01*
X69429285Y-75334761D01*
X69381666Y-75287142D01*
X66508333Y-20137380D02*
X66175000Y-19661190D01*
X65936904Y-20137380D02*
X65936904Y-19137380D01*
X66317857Y-19137380D01*
X66413095Y-19185000D01*
X66460714Y-19232619D01*
X66508333Y-19327857D01*
X66508333Y-19470714D01*
X66460714Y-19565952D01*
X66413095Y-19613571D01*
X66317857Y-19661190D01*
X65936904Y-19661190D01*
X67365476Y-19470714D02*
X67365476Y-20137380D01*
X67127380Y-19089761D02*
X66889285Y-19804047D01*
X67508333Y-19804047D01*
X47442380Y-30011666D02*
X46966190Y-30345000D01*
X47442380Y-30583095D02*
X46442380Y-30583095D01*
X46442380Y-30202142D01*
X46490000Y-30106904D01*
X46537619Y-30059285D01*
X46632857Y-30011666D01*
X46775714Y-30011666D01*
X46870952Y-30059285D01*
X46918571Y-30106904D01*
X46966190Y-30202142D01*
X46966190Y-30583095D01*
X46442380Y-29106904D02*
X46442380Y-29583095D01*
X46918571Y-29630714D01*
X46870952Y-29583095D01*
X46823333Y-29487857D01*
X46823333Y-29249761D01*
X46870952Y-29154523D01*
X46918571Y-29106904D01*
X47013809Y-29059285D01*
X47251904Y-29059285D01*
X47347142Y-29106904D01*
X47394761Y-29154523D01*
X47442380Y-29249761D01*
X47442380Y-29487857D01*
X47394761Y-29583095D01*
X47347142Y-29630714D01*
X52371666Y-36917380D02*
X52371666Y-37631666D01*
X52324047Y-37774523D01*
X52228809Y-37869761D01*
X52085952Y-37917380D01*
X51990714Y-37917380D01*
X53371666Y-37917380D02*
X52800238Y-37917380D01*
X53085952Y-37917380D02*
X53085952Y-36917380D01*
X52990714Y-37060238D01*
X52895476Y-37155476D01*
X52800238Y-37203095D01*
M02*
