G04 #@! TF.GenerationSoftware,KiCad,Pcbnew,(5.1.5)-3*
G04 #@! TF.CreationDate,2020-02-27T17:39:30-08:00*
G04 #@! TF.ProjectId,MobileCloud,4d6f6269-6c65-4436-9c6f-75642e6b6963,C*
G04 #@! TF.SameCoordinates,Original*
G04 #@! TF.FileFunction,Copper,L2,Bot*
G04 #@! TF.FilePolarity,Positive*
%FSLAX46Y46*%
G04 Gerber Fmt 4.6, Leading zero omitted, Abs format (unit mm)*
G04 Created by KiCad (PCBNEW (5.1.5)-3) date 2020-02-27 17:39:30*
%MOMM*%
%LPD*%
G04 APERTURE LIST*
%ADD10R,2.200000X2.200000*%
%ADD11O,2.200000X2.200000*%
%ADD12R,1.600000X1.600000*%
%ADD13O,1.600000X1.600000*%
%ADD14C,1.600000*%
%ADD15O,1.800000X1.800000*%
%ADD16R,1.800000X1.800000*%
%ADD17O,1.350000X1.350000*%
%ADD18R,1.350000X1.350000*%
%ADD19R,3.500120X3.500120*%
%ADD20C,3.500120*%
%ADD21C,1.500000*%
%ADD22C,4.000000*%
%ADD23C,1.800000*%
%ADD24C,0.508000*%
%ADD25C,0.762000*%
G04 APERTURE END LIST*
D10*
X98552000Y-76835000D03*
D11*
X98552000Y-86995000D03*
D12*
X99060000Y-62865000D03*
D13*
X66040000Y-70485000D03*
X96520000Y-62865000D03*
X68580000Y-70485000D03*
X93980000Y-62865000D03*
X71120000Y-70485000D03*
X91440000Y-62865000D03*
X73660000Y-70485000D03*
X88900000Y-62865000D03*
X76200000Y-70485000D03*
X86360000Y-62865000D03*
X78740000Y-70485000D03*
X83820000Y-62865000D03*
X81280000Y-70485000D03*
X81280000Y-62865000D03*
X83820000Y-70485000D03*
X78740000Y-62865000D03*
X86360000Y-70485000D03*
X76200000Y-62865000D03*
X88900000Y-70485000D03*
X73660000Y-62865000D03*
X91440000Y-70485000D03*
X71120000Y-62865000D03*
X93980000Y-70485000D03*
X68580000Y-62865000D03*
X96520000Y-70485000D03*
X66040000Y-62865000D03*
X99060000Y-70485000D03*
D14*
X50800000Y-46355000D03*
X55800000Y-46355000D03*
X55800000Y-53975000D03*
X50800000Y-53975000D03*
X65325000Y-81280000D03*
X60325000Y-81280000D03*
X69770000Y-38100000D03*
X64770000Y-38100000D03*
X60325000Y-19050000D03*
X55325000Y-19050000D03*
X77550000Y-44450000D03*
X82550000Y-44450000D03*
X85170000Y-44450000D03*
X90170000Y-44450000D03*
X82630000Y-74930000D03*
X87630000Y-74930000D03*
D10*
X49530000Y-104775000D03*
D11*
X49530000Y-114935000D03*
X49530000Y-127635000D03*
D10*
X49530000Y-117475000D03*
D11*
X53340000Y-114935000D03*
D10*
X53340000Y-104775000D03*
X53340000Y-117475000D03*
D11*
X53340000Y-127635000D03*
X94742000Y-114808000D03*
D10*
X94742000Y-104648000D03*
X94742000Y-117348000D03*
D11*
X94742000Y-127508000D03*
D10*
X94742000Y-76835000D03*
D11*
X94742000Y-86995000D03*
D10*
X94742000Y-89535000D03*
D11*
X94742000Y-99695000D03*
X98552000Y-114808000D03*
D10*
X98552000Y-104648000D03*
D11*
X98552000Y-127508000D03*
D10*
X98552000Y-117348000D03*
D11*
X98552000Y-99695000D03*
D10*
X98552000Y-89535000D03*
D14*
X99060000Y-55245000D03*
D13*
X99060000Y-45085000D03*
X78740000Y-54610000D03*
D14*
X88900000Y-54610000D03*
D15*
X63500000Y-111760000D03*
X68580000Y-110490000D03*
X63500000Y-109220000D03*
X68580000Y-107950000D03*
X63500000Y-106680000D03*
X68580000Y-105410000D03*
X63500000Y-104140000D03*
X68580000Y-102870000D03*
X63500000Y-101600000D03*
X68580000Y-100330000D03*
X63500000Y-99060000D03*
X68580000Y-97790000D03*
X63500000Y-96520000D03*
X68580000Y-95250000D03*
D16*
X63500000Y-93980000D03*
X86360000Y-111760000D03*
D15*
X81280000Y-110490000D03*
X86360000Y-109220000D03*
X81280000Y-107950000D03*
X86360000Y-106680000D03*
X81280000Y-105410000D03*
X86360000Y-104140000D03*
X81280000Y-102870000D03*
X86360000Y-101600000D03*
X81280000Y-100330000D03*
X86360000Y-99060000D03*
X81280000Y-97790000D03*
X86360000Y-96520000D03*
X81280000Y-95250000D03*
X86360000Y-93980000D03*
D11*
X49530000Y-86995000D03*
D10*
X49530000Y-76835000D03*
X49530000Y-89535000D03*
D11*
X49530000Y-99695000D03*
X53340000Y-86995000D03*
D10*
X53340000Y-76835000D03*
X53340000Y-89535000D03*
D11*
X53340000Y-99695000D03*
D17*
X71755000Y-29305000D03*
D18*
X71755000Y-27305000D03*
D17*
X57785000Y-89630000D03*
D18*
X57785000Y-87630000D03*
X57785000Y-116840000D03*
D17*
X57785000Y-114840000D03*
D18*
X90805000Y-114935000D03*
D17*
X90805000Y-116935000D03*
X90805000Y-89630000D03*
D18*
X90805000Y-87630000D03*
D19*
X60325000Y-34925000D03*
D20*
X55245000Y-34925000D03*
D18*
X93980000Y-59055000D03*
D17*
X91980000Y-59055000D03*
X85630000Y-59055000D03*
D18*
X87630000Y-59055000D03*
X73660000Y-59055000D03*
D17*
X71660000Y-59055000D03*
D21*
X81280000Y-49530000D03*
X86160000Y-49530000D03*
D17*
X95470000Y-39370000D03*
X93470000Y-39370000D03*
X91470000Y-39370000D03*
X89470000Y-39370000D03*
X87470000Y-39370000D03*
X85470000Y-39370000D03*
X83470000Y-39370000D03*
X81470000Y-39370000D03*
X79470000Y-39370000D03*
D18*
X77470000Y-39370000D03*
X77470000Y-17145000D03*
D17*
X79470000Y-17145000D03*
X81470000Y-17145000D03*
X83470000Y-17145000D03*
X85470000Y-17145000D03*
X87470000Y-17145000D03*
X89470000Y-17145000D03*
X91470000Y-17145000D03*
X93470000Y-17145000D03*
X95470000Y-17145000D03*
D18*
X90170000Y-74930000D03*
D17*
X90170000Y-76930000D03*
D22*
X74930000Y-120650000D03*
X74930000Y-85120000D03*
D23*
X85090000Y-83820000D03*
D16*
X87630000Y-83820000D03*
X63500000Y-27305000D03*
D23*
X60960000Y-27305000D03*
D16*
X50165000Y-19685000D03*
D23*
X52705000Y-19685000D03*
D14*
X64135000Y-77470000D03*
D13*
X74295000Y-77470000D03*
X66675000Y-31750000D03*
D14*
X66675000Y-21590000D03*
X49530000Y-24130000D03*
D13*
X49530000Y-34290000D03*
D19*
X50165000Y-41275000D03*
D20*
X55245000Y-41275000D03*
D24*
X83820000Y-63996370D02*
X85228630Y-65405000D01*
X83820000Y-62865000D02*
X83820000Y-63996370D01*
X85228630Y-65405000D02*
X100965000Y-65405000D01*
X100965000Y-65405000D02*
X101600000Y-64770000D01*
X101600000Y-47625000D02*
X99060000Y-45085000D01*
X101600000Y-64770000D02*
X101600000Y-47625000D01*
X83820000Y-65405000D02*
X78740000Y-70485000D01*
X83820000Y-62865000D02*
X83820000Y-65405000D01*
X60325000Y-19050000D02*
X67945000Y-19050000D01*
X67945000Y-19050000D02*
X69215000Y-20320000D01*
X76287000Y-39370000D02*
X77470000Y-39370000D01*
X69215000Y-32298000D02*
X76287000Y-39370000D01*
X69215000Y-20320000D02*
X69215000Y-32298000D01*
X81353000Y-51997000D02*
X78740000Y-54610000D01*
X81353000Y-49276000D02*
X81353000Y-51997000D01*
X81280000Y-45720000D02*
X82550000Y-44450000D01*
X81280000Y-49530000D02*
X81280000Y-45720000D01*
X76200000Y-57150000D02*
X78740000Y-54610000D01*
X76200000Y-62865000D02*
X76200000Y-57150000D01*
X86233000Y-51943000D02*
X88900000Y-54610000D01*
X86233000Y-49276000D02*
X86233000Y-51943000D01*
X86160000Y-45440000D02*
X85170000Y-44450000D01*
X86160000Y-49530000D02*
X86160000Y-45440000D01*
X87768630Y-54610000D02*
X88900000Y-54610000D01*
X85863630Y-54610000D02*
X87768630Y-54610000D01*
X78740000Y-61733630D02*
X85863630Y-54610000D01*
X78740000Y-62865000D02*
X78740000Y-61733630D01*
X82630000Y-71835000D02*
X82630000Y-74930000D01*
X81280000Y-70485000D02*
X82630000Y-71835000D01*
D25*
X97155000Y-92710000D02*
X98552000Y-91313000D01*
X92075000Y-92710000D02*
X97155000Y-92710000D01*
X90805000Y-89630000D02*
X90805000Y-91440000D01*
X98552000Y-91313000D02*
X98552000Y-89535000D01*
X90805000Y-91440000D02*
X92075000Y-92710000D01*
D24*
X99060000Y-55245000D02*
X99060000Y-62865000D01*
X63500000Y-102235000D02*
X63500000Y-101600000D01*
X63500000Y-101600000D02*
X65405000Y-103505000D01*
X65405000Y-104775000D02*
X68580000Y-107950000D01*
X65405000Y-103505000D02*
X65405000Y-104775000D01*
X60325000Y-98425000D02*
X63500000Y-101600000D01*
X64908630Y-62865000D02*
X62145999Y-65627631D01*
X66040000Y-62865000D02*
X64908630Y-62865000D01*
X62145999Y-65627631D02*
X62145999Y-83904001D01*
X62145999Y-83904001D02*
X60325000Y-85725000D01*
X60325000Y-85725000D02*
X60325000Y-98425000D01*
X68580000Y-71616370D02*
X69850000Y-72886370D01*
X68580000Y-70485000D02*
X68580000Y-71616370D01*
X69850000Y-72886370D02*
X69850000Y-92075000D01*
X69934001Y-92159001D02*
X69934001Y-92794001D01*
X69850000Y-92075000D02*
X69934001Y-92159001D01*
X69934001Y-92794001D02*
X71120000Y-93980000D01*
X71120000Y-97790000D02*
X68580000Y-100330000D01*
X71120000Y-93980000D02*
X71120000Y-97790000D01*
X66675000Y-103505000D02*
X66675000Y-102235000D01*
X66675000Y-102235000D02*
X63500000Y-99060000D01*
X68580000Y-105410000D02*
X66675000Y-103505000D01*
X66040000Y-71616370D02*
X67945000Y-73521370D01*
X66040000Y-70485000D02*
X66040000Y-71616370D01*
X67945000Y-73521370D02*
X67945000Y-88900000D01*
X67945000Y-88900000D02*
X65405000Y-91440000D01*
X65405000Y-91440000D02*
X65405000Y-97155000D01*
X65405000Y-97155000D02*
X63500000Y-99060000D01*
X81280000Y-100330000D02*
X83185000Y-102235000D01*
X83185000Y-103505000D02*
X86360000Y-106680000D01*
X83185000Y-102235000D02*
X83185000Y-103505000D01*
X71120000Y-71616370D02*
X79375000Y-79871370D01*
X71120000Y-70485000D02*
X71120000Y-71616370D01*
X79375000Y-79871370D02*
X79375000Y-90170000D01*
X79375000Y-90170000D02*
X76835000Y-92710000D01*
X76835000Y-95885000D02*
X81280000Y-100330000D01*
X76835000Y-92710000D02*
X76835000Y-95885000D01*
X76200000Y-71616370D02*
X82936815Y-78353185D01*
X76200000Y-70485000D02*
X76200000Y-71616370D01*
X82936815Y-78353185D02*
X82936815Y-93096815D01*
X82936815Y-93096815D02*
X83820000Y-93980000D01*
X83820000Y-96520000D02*
X86360000Y-99060000D01*
X83820000Y-93980000D02*
X83820000Y-96520000D01*
X81280000Y-97790000D02*
X84455000Y-100965000D01*
X84455000Y-102235000D02*
X86360000Y-104140000D01*
X84455000Y-100965000D02*
X84455000Y-102235000D01*
X73660000Y-71755000D02*
X73660000Y-70485000D01*
X78740000Y-95250000D02*
X78740000Y-93345000D01*
X81280000Y-97790000D02*
X78740000Y-95250000D01*
X78740000Y-93345000D02*
X81280000Y-90805000D01*
X81280000Y-90805000D02*
X81280000Y-79375000D01*
X81280000Y-79375000D02*
X73660000Y-71755000D01*
X93980000Y-59055000D02*
X96520000Y-61595000D01*
X96520000Y-61595000D02*
X96520000Y-62865000D01*
X91980000Y-60865000D02*
X93980000Y-62865000D01*
X91980000Y-59055000D02*
X91980000Y-60865000D01*
X79470000Y-35655000D02*
X79470000Y-39370000D01*
X73120000Y-29305000D02*
X79470000Y-35655000D01*
X71755000Y-29305000D02*
X73120000Y-29305000D01*
X81470000Y-34480000D02*
X81470000Y-39370000D01*
X74295000Y-27305000D02*
X81470000Y-34480000D01*
X71755000Y-27305000D02*
X74295000Y-27305000D01*
X85630000Y-62135000D02*
X86360000Y-62865000D01*
X85630000Y-59055000D02*
X85630000Y-62135000D01*
X87630000Y-59055000D02*
X87630000Y-60325000D01*
X88900000Y-61595000D02*
X88900000Y-62865000D01*
X87630000Y-60325000D02*
X88900000Y-61595000D01*
X73660000Y-59690000D02*
X73660000Y-63500000D01*
X71660000Y-62960000D02*
X71120000Y-63500000D01*
X71660000Y-59690000D02*
X71660000Y-62960000D01*
X94615000Y-72390000D02*
X96520000Y-70485000D01*
X90892000Y-72390000D02*
X94615000Y-72390000D01*
X90170000Y-74930000D02*
X90170000Y-73112000D01*
X90170000Y-73112000D02*
X90892000Y-72390000D01*
X90170000Y-76930000D02*
X91345000Y-76930000D01*
X91345000Y-76930000D02*
X92075000Y-76200000D01*
X92075000Y-76200000D02*
X92075000Y-74930000D01*
X92075000Y-74930000D02*
X93345000Y-73660000D01*
X95885000Y-73660000D02*
X99060000Y-70485000D01*
X93345000Y-73660000D02*
X95885000Y-73660000D01*
G36*
X102616000Y-46861088D02*
G01*
X102502370Y-46722630D01*
X102453914Y-46682863D01*
X100876000Y-45104950D01*
X100876000Y-44906140D01*
X100806212Y-44555292D01*
X100669318Y-44224801D01*
X100470579Y-43927367D01*
X100217633Y-43674421D01*
X99920199Y-43475682D01*
X99589708Y-43338788D01*
X99238860Y-43269000D01*
X98881140Y-43269000D01*
X98530292Y-43338788D01*
X98199801Y-43475682D01*
X97902367Y-43674421D01*
X97649421Y-43927367D01*
X97450682Y-44224801D01*
X97313788Y-44555292D01*
X97244000Y-44906140D01*
X97244000Y-45263860D01*
X97313788Y-45614708D01*
X97450682Y-45945199D01*
X97649421Y-46242633D01*
X97902367Y-46495579D01*
X98199801Y-46694318D01*
X98530292Y-46831212D01*
X98881140Y-46901000D01*
X99079950Y-46901000D01*
X100330001Y-48151052D01*
X100330001Y-53946789D01*
X100217633Y-53834421D01*
X99920199Y-53635682D01*
X99589708Y-53498788D01*
X99238860Y-53429000D01*
X98881140Y-53429000D01*
X98530292Y-53498788D01*
X98199801Y-53635682D01*
X97902367Y-53834421D01*
X97649421Y-54087367D01*
X97450682Y-54384801D01*
X97313788Y-54715292D01*
X97244000Y-55066140D01*
X97244000Y-55423860D01*
X97313788Y-55774708D01*
X97450682Y-56105199D01*
X97649421Y-56402633D01*
X97790000Y-56543212D01*
X97790001Y-61164191D01*
X97726721Y-61198015D01*
X97720927Y-61178916D01*
X97699003Y-61106641D01*
X97581075Y-60886012D01*
X97422370Y-60692630D01*
X97373915Y-60652864D01*
X95675915Y-58954865D01*
X95675915Y-58380000D01*
X95656298Y-58180829D01*
X95598202Y-57989313D01*
X95503860Y-57812810D01*
X95376896Y-57658104D01*
X95222190Y-57531140D01*
X95045687Y-57436798D01*
X94854171Y-57378702D01*
X94655000Y-57359085D01*
X93305000Y-57359085D01*
X93105829Y-57378702D01*
X92914313Y-57436798D01*
X92737810Y-57531140D01*
X92731794Y-57536078D01*
X92473246Y-57428984D01*
X92146549Y-57364000D01*
X91813451Y-57364000D01*
X91486754Y-57428984D01*
X91179011Y-57556455D01*
X90902050Y-57741515D01*
X90666515Y-57977050D01*
X90481455Y-58254011D01*
X90353984Y-58561754D01*
X90289000Y-58888451D01*
X90289000Y-59221549D01*
X90353984Y-59548246D01*
X90481455Y-59855989D01*
X90666515Y-60132950D01*
X90710000Y-60176435D01*
X90710000Y-60802627D01*
X90703857Y-60865000D01*
X90710000Y-60927373D01*
X90710000Y-60927380D01*
X90712819Y-60955998D01*
X90728377Y-61113963D01*
X90749984Y-61185190D01*
X90579801Y-61255682D01*
X90282367Y-61454421D01*
X90173063Y-61563725D01*
X90170000Y-61532626D01*
X90170000Y-61532620D01*
X90151623Y-61346037D01*
X90150734Y-61343104D01*
X90100927Y-61178916D01*
X90079003Y-61106641D01*
X89961075Y-60886012D01*
X89802370Y-60692630D01*
X89753915Y-60652864D01*
X89238984Y-60137933D01*
X89248202Y-60120687D01*
X89306298Y-59929171D01*
X89325915Y-59730000D01*
X89325915Y-58380000D01*
X89306298Y-58180829D01*
X89248202Y-57989313D01*
X89153860Y-57812810D01*
X89026896Y-57658104D01*
X88872190Y-57531140D01*
X88695687Y-57436798D01*
X88504171Y-57378702D01*
X88305000Y-57359085D01*
X86955000Y-57359085D01*
X86755829Y-57378702D01*
X86564313Y-57436798D01*
X86387810Y-57531140D01*
X86381794Y-57536078D01*
X86123246Y-57428984D01*
X85796549Y-57364000D01*
X85463451Y-57364000D01*
X85136754Y-57428984D01*
X84829011Y-57556455D01*
X84552050Y-57741515D01*
X84316515Y-57977050D01*
X84131455Y-58254011D01*
X84003984Y-58561754D01*
X83939000Y-58888451D01*
X83939000Y-59221549D01*
X84003984Y-59548246D01*
X84131455Y-59855989D01*
X84316515Y-60132950D01*
X84360000Y-60176435D01*
X84360001Y-61123051D01*
X84349708Y-61118788D01*
X83998860Y-61049000D01*
X83641140Y-61049000D01*
X83290292Y-61118788D01*
X82959801Y-61255682D01*
X82662367Y-61454421D01*
X82409421Y-61707367D01*
X82374087Y-61760248D01*
X82239337Y-61632301D01*
X81980416Y-61468830D01*
X81771971Y-61382499D01*
X81534000Y-61517225D01*
X81534000Y-62611000D01*
X81554000Y-62611000D01*
X81554000Y-63119000D01*
X81534000Y-63119000D01*
X81534000Y-64212775D01*
X81771971Y-64347501D01*
X81980416Y-64261170D01*
X82239337Y-64097699D01*
X82374087Y-63969752D01*
X82409421Y-64022633D01*
X82550001Y-64163213D01*
X82550001Y-64878947D01*
X78759950Y-68669000D01*
X78561140Y-68669000D01*
X78210292Y-68738788D01*
X77879801Y-68875682D01*
X77582367Y-69074421D01*
X77470000Y-69186788D01*
X77357633Y-69074421D01*
X77060199Y-68875682D01*
X76729708Y-68738788D01*
X76378860Y-68669000D01*
X76021140Y-68669000D01*
X75670292Y-68738788D01*
X75339801Y-68875682D01*
X75042367Y-69074421D01*
X74930000Y-69186788D01*
X74817633Y-69074421D01*
X74520199Y-68875682D01*
X74189708Y-68738788D01*
X73838860Y-68669000D01*
X73481140Y-68669000D01*
X73130292Y-68738788D01*
X72799801Y-68875682D01*
X72502367Y-69074421D01*
X72390000Y-69186788D01*
X72277633Y-69074421D01*
X71980199Y-68875682D01*
X71649708Y-68738788D01*
X71298860Y-68669000D01*
X70941140Y-68669000D01*
X70590292Y-68738788D01*
X70259801Y-68875682D01*
X69962367Y-69074421D01*
X69850000Y-69186788D01*
X69737633Y-69074421D01*
X69440199Y-68875682D01*
X69109708Y-68738788D01*
X68758860Y-68669000D01*
X68401140Y-68669000D01*
X68050292Y-68738788D01*
X67719801Y-68875682D01*
X67422367Y-69074421D01*
X67310000Y-69186788D01*
X67197633Y-69074421D01*
X66900199Y-68875682D01*
X66569708Y-68738788D01*
X66218860Y-68669000D01*
X65861140Y-68669000D01*
X65510292Y-68738788D01*
X65179801Y-68875682D01*
X64882367Y-69074421D01*
X64629421Y-69327367D01*
X64430682Y-69624801D01*
X64293788Y-69955292D01*
X64224000Y-70306140D01*
X64224000Y-70663860D01*
X64293788Y-71014708D01*
X64430682Y-71345199D01*
X64629421Y-71642633D01*
X64781413Y-71794625D01*
X64788377Y-71865333D01*
X64860997Y-72104729D01*
X64978925Y-72325358D01*
X65137631Y-72518740D01*
X65186086Y-72558506D01*
X66675000Y-74047422D01*
X66675000Y-80560440D01*
X66463064Y-80501147D01*
X65684210Y-81280000D01*
X66463064Y-82058853D01*
X66675001Y-81999560D01*
X66675001Y-88373948D01*
X64551091Y-90497859D01*
X64502630Y-90537630D01*
X64343925Y-90731013D01*
X64225997Y-90951642D01*
X64153377Y-91191038D01*
X64135000Y-91377621D01*
X64135000Y-91377627D01*
X64128857Y-91440000D01*
X64135000Y-91502373D01*
X64135000Y-92059085D01*
X62600000Y-92059085D01*
X62400829Y-92078702D01*
X62209313Y-92136798D01*
X62032810Y-92231140D01*
X61878104Y-92358104D01*
X61751140Y-92512810D01*
X61656798Y-92689313D01*
X61598702Y-92880829D01*
X61595000Y-92918415D01*
X61595000Y-86251050D01*
X62999913Y-84846138D01*
X63048369Y-84806371D01*
X63207074Y-84612989D01*
X63325002Y-84392360D01*
X63397622Y-84152964D01*
X63415999Y-83966381D01*
X63415999Y-83966375D01*
X63422142Y-83904002D01*
X63415999Y-83841629D01*
X63415999Y-82418064D01*
X64546147Y-82418064D01*
X64620088Y-82682358D01*
X64907219Y-82792933D01*
X65210406Y-82845368D01*
X65517996Y-82837647D01*
X65818169Y-82770065D01*
X66029912Y-82682358D01*
X66103853Y-82418064D01*
X65325000Y-81639210D01*
X64546147Y-82418064D01*
X63415999Y-82418064D01*
X63415999Y-81165406D01*
X63759632Y-81165406D01*
X63767353Y-81472996D01*
X63834935Y-81773169D01*
X63922642Y-81984912D01*
X64186936Y-82058853D01*
X64965790Y-81280000D01*
X64186936Y-80501147D01*
X63922642Y-80575088D01*
X63812067Y-80862219D01*
X63759632Y-81165406D01*
X63415999Y-81165406D01*
X63415999Y-80141936D01*
X64546147Y-80141936D01*
X65325000Y-80920790D01*
X66103853Y-80141936D01*
X66029912Y-79877642D01*
X65742781Y-79767067D01*
X65439594Y-79714632D01*
X65132004Y-79722353D01*
X64831831Y-79789935D01*
X64620088Y-79877642D01*
X64546147Y-80141936D01*
X63415999Y-80141936D01*
X63415999Y-79137804D01*
X63605292Y-79216212D01*
X63956140Y-79286000D01*
X64313860Y-79286000D01*
X64664708Y-79216212D01*
X64995199Y-79079318D01*
X65292633Y-78880579D01*
X65545579Y-78627633D01*
X65744318Y-78330199D01*
X65881212Y-77999708D01*
X65951000Y-77648860D01*
X65951000Y-77291140D01*
X65881212Y-76940292D01*
X65744318Y-76609801D01*
X65545579Y-76312367D01*
X65292633Y-76059421D01*
X64995199Y-75860682D01*
X64664708Y-75723788D01*
X64313860Y-75654000D01*
X63956140Y-75654000D01*
X63605292Y-75723788D01*
X63415999Y-75802196D01*
X63415999Y-66153681D01*
X65129184Y-64440497D01*
X65179801Y-64474318D01*
X65510292Y-64611212D01*
X65861140Y-64681000D01*
X66218860Y-64681000D01*
X66569708Y-64611212D01*
X66900199Y-64474318D01*
X67197633Y-64275579D01*
X67310000Y-64163212D01*
X67422367Y-64275579D01*
X67719801Y-64474318D01*
X68050292Y-64611212D01*
X68401140Y-64681000D01*
X68758860Y-64681000D01*
X69109708Y-64611212D01*
X69440199Y-64474318D01*
X69737633Y-64275579D01*
X69850000Y-64163212D01*
X69962367Y-64275579D01*
X70259801Y-64474318D01*
X70351666Y-64512370D01*
X70411013Y-64561074D01*
X70631641Y-64679002D01*
X70871037Y-64751623D01*
X71120000Y-64776143D01*
X71368963Y-64751623D01*
X71608359Y-64679002D01*
X71828987Y-64561074D01*
X71888333Y-64512370D01*
X71980199Y-64474318D01*
X72277633Y-64275579D01*
X72390000Y-64163212D01*
X72502367Y-64275579D01*
X72799801Y-64474318D01*
X72891665Y-64512370D01*
X72951013Y-64561075D01*
X73171642Y-64679003D01*
X73411038Y-64751623D01*
X73660000Y-64776144D01*
X73908963Y-64751623D01*
X74148359Y-64679003D01*
X74368988Y-64561075D01*
X74428337Y-64512369D01*
X74520199Y-64474318D01*
X74817633Y-64275579D01*
X74930000Y-64163212D01*
X75042367Y-64275579D01*
X75339801Y-64474318D01*
X75670292Y-64611212D01*
X76021140Y-64681000D01*
X76378860Y-64681000D01*
X76729708Y-64611212D01*
X77060199Y-64474318D01*
X77357633Y-64275579D01*
X77470000Y-64163212D01*
X77582367Y-64275579D01*
X77879801Y-64474318D01*
X78210292Y-64611212D01*
X78561140Y-64681000D01*
X78918860Y-64681000D01*
X79269708Y-64611212D01*
X79600199Y-64474318D01*
X79897633Y-64275579D01*
X80150579Y-64022633D01*
X80185913Y-63969752D01*
X80320663Y-64097699D01*
X80579584Y-64261170D01*
X80788029Y-64347501D01*
X81026000Y-64212775D01*
X81026000Y-63119000D01*
X81006000Y-63119000D01*
X81006000Y-62611000D01*
X81026000Y-62611000D01*
X81026000Y-61517225D01*
X80851339Y-61418341D01*
X86389681Y-55880000D01*
X87601788Y-55880000D01*
X87742367Y-56020579D01*
X88039801Y-56219318D01*
X88370292Y-56356212D01*
X88721140Y-56426000D01*
X89078860Y-56426000D01*
X89429708Y-56356212D01*
X89760199Y-56219318D01*
X90057633Y-56020579D01*
X90310579Y-55767633D01*
X90509318Y-55470199D01*
X90646212Y-55139708D01*
X90716000Y-54788860D01*
X90716000Y-54431140D01*
X90646212Y-54080292D01*
X90509318Y-53749801D01*
X90310579Y-53452367D01*
X90057633Y-53199421D01*
X89760199Y-53000682D01*
X89429708Y-52863788D01*
X89078860Y-52794000D01*
X88880051Y-52794000D01*
X87503000Y-51416950D01*
X87503000Y-50684501D01*
X87531742Y-50655759D01*
X87725009Y-50366515D01*
X87858134Y-50045123D01*
X87926000Y-49703936D01*
X87926000Y-49356064D01*
X87858134Y-49014877D01*
X87725009Y-48693485D01*
X87531742Y-48404241D01*
X87430000Y-48302499D01*
X87430000Y-45588064D01*
X89391147Y-45588064D01*
X89465088Y-45852358D01*
X89752219Y-45962933D01*
X90055406Y-46015368D01*
X90362996Y-46007647D01*
X90663169Y-45940065D01*
X90874912Y-45852358D01*
X90948853Y-45588064D01*
X90170000Y-44809210D01*
X89391147Y-45588064D01*
X87430000Y-45588064D01*
X87430000Y-45502372D01*
X87436143Y-45439999D01*
X87430000Y-45377626D01*
X87430000Y-45377620D01*
X87414156Y-45216755D01*
X87411623Y-45191036D01*
X87357013Y-45011012D01*
X87339003Y-44951641D01*
X87221075Y-44731012D01*
X87062370Y-44537630D01*
X87013914Y-44497863D01*
X86986000Y-44469949D01*
X86986000Y-44335406D01*
X88604632Y-44335406D01*
X88612353Y-44642996D01*
X88679935Y-44943169D01*
X88767642Y-45154912D01*
X89031936Y-45228853D01*
X89810790Y-44450000D01*
X90529210Y-44450000D01*
X91308064Y-45228853D01*
X91572358Y-45154912D01*
X91682933Y-44867781D01*
X91735368Y-44564594D01*
X91727647Y-44257004D01*
X91660065Y-43956831D01*
X91572358Y-43745088D01*
X91308064Y-43671147D01*
X90529210Y-44450000D01*
X89810790Y-44450000D01*
X89031936Y-43671147D01*
X88767642Y-43745088D01*
X88657067Y-44032219D01*
X88604632Y-44335406D01*
X86986000Y-44335406D01*
X86986000Y-44271140D01*
X86916212Y-43920292D01*
X86779318Y-43589801D01*
X86593655Y-43311936D01*
X89391147Y-43311936D01*
X90170000Y-44090790D01*
X90948853Y-43311936D01*
X90874912Y-43047642D01*
X90587781Y-42937067D01*
X90284594Y-42884632D01*
X89977004Y-42892353D01*
X89676831Y-42959935D01*
X89465088Y-43047642D01*
X89391147Y-43311936D01*
X86593655Y-43311936D01*
X86580579Y-43292367D01*
X86327633Y-43039421D01*
X86030199Y-42840682D01*
X85699708Y-42703788D01*
X85348860Y-42634000D01*
X84991140Y-42634000D01*
X84640292Y-42703788D01*
X84309801Y-42840682D01*
X84012367Y-43039421D01*
X83860000Y-43191788D01*
X83707633Y-43039421D01*
X83410199Y-42840682D01*
X83079708Y-42703788D01*
X82728860Y-42634000D01*
X82371140Y-42634000D01*
X82020292Y-42703788D01*
X81689801Y-42840682D01*
X81392367Y-43039421D01*
X81139421Y-43292367D01*
X80940682Y-43589801D01*
X80803788Y-43920292D01*
X80734000Y-44271140D01*
X80734000Y-44469950D01*
X80426086Y-44777864D01*
X80377631Y-44817630D01*
X80218926Y-45011012D01*
X80179379Y-45085000D01*
X80100998Y-45231641D01*
X80028377Y-45471037D01*
X80003857Y-45720000D01*
X80010001Y-45782383D01*
X80010000Y-48302499D01*
X79908258Y-48404241D01*
X79714991Y-48693485D01*
X79581866Y-49014877D01*
X79514000Y-49356064D01*
X79514000Y-49703936D01*
X79581866Y-50045123D01*
X79714991Y-50366515D01*
X79908258Y-50655759D01*
X80083001Y-50830502D01*
X80083001Y-51470948D01*
X78759950Y-52794000D01*
X78561140Y-52794000D01*
X78210292Y-52863788D01*
X77879801Y-53000682D01*
X77582367Y-53199421D01*
X77329421Y-53452367D01*
X77130682Y-53749801D01*
X76993788Y-54080292D01*
X76924000Y-54431140D01*
X76924000Y-54629949D01*
X75346086Y-56207864D01*
X75297631Y-56247630D01*
X75138926Y-56441012D01*
X75024238Y-56655579D01*
X75020998Y-56661641D01*
X74948377Y-56901037D01*
X74923857Y-57150000D01*
X74930001Y-57212383D01*
X74930001Y-57553964D01*
X74902190Y-57531140D01*
X74725687Y-57436798D01*
X74534171Y-57378702D01*
X74335000Y-57359085D01*
X72985000Y-57359085D01*
X72785829Y-57378702D01*
X72594313Y-57436798D01*
X72417810Y-57531140D01*
X72411794Y-57536078D01*
X72153246Y-57428984D01*
X71826549Y-57364000D01*
X71493451Y-57364000D01*
X71166754Y-57428984D01*
X70859011Y-57556455D01*
X70582050Y-57741515D01*
X70346515Y-57977050D01*
X70161455Y-58254011D01*
X70033984Y-58561754D01*
X69969000Y-58888451D01*
X69969000Y-59221549D01*
X70033984Y-59548246D01*
X70161455Y-59855989D01*
X70346515Y-60132950D01*
X70390000Y-60176435D01*
X70390000Y-61201752D01*
X70259801Y-61255682D01*
X69962367Y-61454421D01*
X69850000Y-61566788D01*
X69737633Y-61454421D01*
X69440199Y-61255682D01*
X69109708Y-61118788D01*
X68758860Y-61049000D01*
X68401140Y-61049000D01*
X68050292Y-61118788D01*
X67719801Y-61255682D01*
X67422367Y-61454421D01*
X67310000Y-61566788D01*
X67197633Y-61454421D01*
X66900199Y-61255682D01*
X66569708Y-61118788D01*
X66218860Y-61049000D01*
X65861140Y-61049000D01*
X65510292Y-61118788D01*
X65179801Y-61255682D01*
X64882367Y-61454421D01*
X64730375Y-61606413D01*
X64685385Y-61610844D01*
X64659666Y-61613377D01*
X64597283Y-61632301D01*
X64420271Y-61685997D01*
X64199642Y-61803925D01*
X64006260Y-61962630D01*
X63966496Y-62011083D01*
X61292090Y-64685490D01*
X61243629Y-64725261D01*
X61084924Y-64918644D01*
X60966996Y-65139273D01*
X60894376Y-65378669D01*
X60875999Y-65565252D01*
X60875999Y-65565258D01*
X60869856Y-65627631D01*
X60875999Y-65690004D01*
X60876000Y-79542607D01*
X60854708Y-79533788D01*
X60503860Y-79464000D01*
X60146140Y-79464000D01*
X59795292Y-79533788D01*
X59464801Y-79670682D01*
X59167367Y-79869421D01*
X58914421Y-80122367D01*
X58715682Y-80419801D01*
X58578788Y-80750292D01*
X58509000Y-81101140D01*
X58509000Y-81458860D01*
X58578788Y-81809708D01*
X58715682Y-82140199D01*
X58914421Y-82437633D01*
X59167367Y-82690579D01*
X59464801Y-82889318D01*
X59795292Y-83026212D01*
X60146140Y-83096000D01*
X60503860Y-83096000D01*
X60854708Y-83026212D01*
X60876000Y-83017393D01*
X60876000Y-83377949D01*
X59471091Y-84782859D01*
X59422630Y-84822630D01*
X59263925Y-85016013D01*
X59145997Y-85236642D01*
X59095406Y-85403417D01*
X59073377Y-85476037D01*
X59072790Y-85482000D01*
X59055000Y-85662621D01*
X59055000Y-85662627D01*
X59048857Y-85725000D01*
X59055000Y-85787373D01*
X59055000Y-86128963D01*
X59027190Y-86106140D01*
X58850687Y-86011798D01*
X58659171Y-85953702D01*
X58460000Y-85934085D01*
X57110000Y-85934085D01*
X56910829Y-85953702D01*
X56719313Y-86011798D01*
X56542810Y-86106140D01*
X56388104Y-86233104D01*
X56261140Y-86387810D01*
X56166798Y-86564313D01*
X56108702Y-86755829D01*
X56089085Y-86955000D01*
X56089085Y-88305000D01*
X56108702Y-88504171D01*
X56166798Y-88695687D01*
X56261140Y-88872190D01*
X56266078Y-88878206D01*
X56158984Y-89136754D01*
X56094000Y-89463451D01*
X56094000Y-89796549D01*
X56158984Y-90123246D01*
X56286455Y-90430989D01*
X56471515Y-90707950D01*
X56707050Y-90943485D01*
X56984011Y-91128545D01*
X57291754Y-91256016D01*
X57618451Y-91321000D01*
X57951549Y-91321000D01*
X58278246Y-91256016D01*
X58585989Y-91128545D01*
X58862950Y-90943485D01*
X59055000Y-90751435D01*
X59055001Y-98362617D01*
X59048857Y-98425000D01*
X59073377Y-98673963D01*
X59145998Y-98913359D01*
X59263926Y-99133988D01*
X59422631Y-99327370D01*
X59471086Y-99367137D01*
X61584000Y-101480051D01*
X61584000Y-101788710D01*
X61657631Y-102158877D01*
X61802063Y-102507566D01*
X62011745Y-102821379D01*
X62060366Y-102870000D01*
X62011745Y-102918621D01*
X61802063Y-103232434D01*
X61657631Y-103581123D01*
X61584000Y-103951290D01*
X61584000Y-104328710D01*
X61657631Y-104698877D01*
X61802063Y-105047566D01*
X62011745Y-105361379D01*
X62060366Y-105410000D01*
X62011745Y-105458621D01*
X61802063Y-105772434D01*
X61657631Y-106121123D01*
X61584000Y-106491290D01*
X61584000Y-106868710D01*
X61657631Y-107238877D01*
X61802063Y-107587566D01*
X62011745Y-107901379D01*
X62060366Y-107950000D01*
X62011745Y-107998621D01*
X61802063Y-108312434D01*
X61657631Y-108661123D01*
X61584000Y-109031290D01*
X61584000Y-109408710D01*
X61657631Y-109778877D01*
X61802063Y-110127566D01*
X62011745Y-110441379D01*
X62060366Y-110490000D01*
X62011745Y-110538621D01*
X61802063Y-110852434D01*
X61657631Y-111201123D01*
X61584000Y-111571290D01*
X61584000Y-111948710D01*
X61657631Y-112318877D01*
X61802063Y-112667566D01*
X62011745Y-112981379D01*
X62278621Y-113248255D01*
X62592434Y-113457937D01*
X62941123Y-113602369D01*
X63311290Y-113676000D01*
X63688710Y-113676000D01*
X64058877Y-113602369D01*
X64407566Y-113457937D01*
X64721379Y-113248255D01*
X64988255Y-112981379D01*
X65197937Y-112667566D01*
X65342369Y-112318877D01*
X65416000Y-111948710D01*
X65416000Y-111571290D01*
X65342369Y-111201123D01*
X65197937Y-110852434D01*
X64988255Y-110538621D01*
X64939634Y-110490000D01*
X64988255Y-110441379D01*
X65197937Y-110127566D01*
X65342369Y-109778877D01*
X65416000Y-109408710D01*
X65416000Y-109031290D01*
X65342369Y-108661123D01*
X65197937Y-108312434D01*
X64988255Y-107998621D01*
X64939634Y-107950000D01*
X64988255Y-107901379D01*
X65197937Y-107587566D01*
X65342369Y-107238877D01*
X65416000Y-106868710D01*
X65416000Y-106582050D01*
X66664000Y-107830051D01*
X66664000Y-108138710D01*
X66737631Y-108508877D01*
X66882063Y-108857566D01*
X67091745Y-109171379D01*
X67140366Y-109220000D01*
X67091745Y-109268621D01*
X66882063Y-109582434D01*
X66737631Y-109931123D01*
X66664000Y-110301290D01*
X66664000Y-110678710D01*
X66737631Y-111048877D01*
X66882063Y-111397566D01*
X67091745Y-111711379D01*
X67358621Y-111978255D01*
X67672434Y-112187937D01*
X68021123Y-112332369D01*
X68391290Y-112406000D01*
X68768710Y-112406000D01*
X69138877Y-112332369D01*
X69487566Y-112187937D01*
X69801379Y-111978255D01*
X70068255Y-111711379D01*
X70277937Y-111397566D01*
X70422369Y-111048877D01*
X70496000Y-110678710D01*
X70496000Y-110301290D01*
X70422369Y-109931123D01*
X70277937Y-109582434D01*
X70068255Y-109268621D01*
X70019634Y-109220000D01*
X70068255Y-109171379D01*
X70277937Y-108857566D01*
X70422369Y-108508877D01*
X70496000Y-108138710D01*
X70496000Y-107761290D01*
X70422369Y-107391123D01*
X70277937Y-107042434D01*
X70068255Y-106728621D01*
X70019634Y-106680000D01*
X70068255Y-106631379D01*
X70277937Y-106317566D01*
X70422369Y-105968877D01*
X70496000Y-105598710D01*
X70496000Y-105221290D01*
X70422369Y-104851123D01*
X70277937Y-104502434D01*
X70068255Y-104188621D01*
X69835881Y-103956247D01*
X69847735Y-103944767D01*
X70033052Y-103676793D01*
X70162529Y-103377814D01*
X70031985Y-103124000D01*
X68834000Y-103124000D01*
X68834000Y-103144000D01*
X68326000Y-103144000D01*
X68326000Y-103124000D01*
X68306000Y-103124000D01*
X68306000Y-102616000D01*
X68326000Y-102616000D01*
X68326000Y-102596000D01*
X68834000Y-102596000D01*
X68834000Y-102616000D01*
X70031985Y-102616000D01*
X70162529Y-102362186D01*
X70033052Y-102063207D01*
X69847735Y-101795233D01*
X69835881Y-101783753D01*
X70068255Y-101551379D01*
X70277937Y-101237566D01*
X70422369Y-100888877D01*
X70496000Y-100518710D01*
X70496000Y-100210050D01*
X71973914Y-98732137D01*
X72022370Y-98692370D01*
X72181075Y-98498988D01*
X72299003Y-98278359D01*
X72349594Y-98111584D01*
X72371623Y-98038964D01*
X72374582Y-98008917D01*
X72390000Y-97852380D01*
X72390000Y-97852374D01*
X72396143Y-97790001D01*
X72390000Y-97727628D01*
X72390000Y-94042373D01*
X72396143Y-93980000D01*
X72390000Y-93917627D01*
X72390000Y-93917620D01*
X72371623Y-93731037D01*
X72299003Y-93491641D01*
X72181075Y-93271012D01*
X72070335Y-93136075D01*
X72062135Y-93126083D01*
X72062132Y-93126080D01*
X72022370Y-93077630D01*
X71973920Y-93037868D01*
X71204001Y-92267950D01*
X71204001Y-92221373D01*
X71210144Y-92159000D01*
X71204001Y-92096628D01*
X71204001Y-92096621D01*
X71185624Y-91910038D01*
X71120000Y-91693705D01*
X71120000Y-87118534D01*
X73290676Y-87118534D01*
X73511018Y-87505191D01*
X74003611Y-87736190D01*
X74531805Y-87866651D01*
X75075301Y-87891559D01*
X75613213Y-87809958D01*
X76124870Y-87624983D01*
X76348982Y-87505191D01*
X76569324Y-87118534D01*
X74930000Y-85479210D01*
X73290676Y-87118534D01*
X71120000Y-87118534D01*
X71120000Y-85265301D01*
X72158441Y-85265301D01*
X72240042Y-85803213D01*
X72425017Y-86314870D01*
X72544809Y-86538982D01*
X72931466Y-86759324D01*
X74570790Y-85120000D01*
X75289210Y-85120000D01*
X76928534Y-86759324D01*
X77315191Y-86538982D01*
X77546190Y-86046389D01*
X77676651Y-85518195D01*
X77701559Y-84974699D01*
X77619958Y-84436787D01*
X77434983Y-83925130D01*
X77315191Y-83701018D01*
X76928534Y-83480676D01*
X75289210Y-85120000D01*
X74570790Y-85120000D01*
X72931466Y-83480676D01*
X72544809Y-83701018D01*
X72313810Y-84193611D01*
X72183349Y-84721805D01*
X72158441Y-85265301D01*
X71120000Y-85265301D01*
X71120000Y-83121466D01*
X73290676Y-83121466D01*
X74930000Y-84760790D01*
X76569324Y-83121466D01*
X76348982Y-82734809D01*
X75856389Y-82503810D01*
X75328195Y-82373349D01*
X74784699Y-82348441D01*
X74246787Y-82430042D01*
X73735130Y-82615017D01*
X73511018Y-82734809D01*
X73290676Y-83121466D01*
X71120000Y-83121466D01*
X71120000Y-73412420D01*
X73529172Y-75821592D01*
X73434801Y-75860682D01*
X73137367Y-76059421D01*
X72884421Y-76312367D01*
X72685682Y-76609801D01*
X72548788Y-76940292D01*
X72479000Y-77291140D01*
X72479000Y-77648860D01*
X72548788Y-77999708D01*
X72685682Y-78330199D01*
X72884421Y-78627633D01*
X73137367Y-78880579D01*
X73434801Y-79079318D01*
X73765292Y-79216212D01*
X74116140Y-79286000D01*
X74473860Y-79286000D01*
X74824708Y-79216212D01*
X75155199Y-79079318D01*
X75452633Y-78880579D01*
X75705579Y-78627633D01*
X75904318Y-78330199D01*
X75943408Y-78235828D01*
X78105000Y-80397421D01*
X78105001Y-89643948D01*
X75981091Y-91767859D01*
X75932630Y-91807630D01*
X75773925Y-92001013D01*
X75655997Y-92221642D01*
X75583377Y-92461038D01*
X75565000Y-92647621D01*
X75565000Y-92647627D01*
X75558857Y-92710000D01*
X75565000Y-92772373D01*
X75565001Y-95822617D01*
X75558857Y-95885000D01*
X75583377Y-96133963D01*
X75655998Y-96373359D01*
X75773926Y-96593988D01*
X75932631Y-96787370D01*
X75981087Y-96827137D01*
X79364000Y-100210051D01*
X79364000Y-100518710D01*
X79437631Y-100888877D01*
X79582063Y-101237566D01*
X79791745Y-101551379D01*
X80024119Y-101783753D01*
X80012265Y-101795233D01*
X79826948Y-102063207D01*
X79697471Y-102362186D01*
X79828015Y-102616000D01*
X81026000Y-102616000D01*
X81026000Y-102596000D01*
X81534000Y-102596000D01*
X81534000Y-102616000D01*
X81554000Y-102616000D01*
X81554000Y-103124000D01*
X81534000Y-103124000D01*
X81534000Y-103144000D01*
X81026000Y-103144000D01*
X81026000Y-103124000D01*
X79828015Y-103124000D01*
X79697471Y-103377814D01*
X79826948Y-103676793D01*
X80012265Y-103944767D01*
X80024119Y-103956247D01*
X79791745Y-104188621D01*
X79582063Y-104502434D01*
X79437631Y-104851123D01*
X79364000Y-105221290D01*
X79364000Y-105598710D01*
X79437631Y-105968877D01*
X79582063Y-106317566D01*
X79791745Y-106631379D01*
X79840366Y-106680000D01*
X79791745Y-106728621D01*
X79582063Y-107042434D01*
X79437631Y-107391123D01*
X79364000Y-107761290D01*
X79364000Y-108138710D01*
X79437631Y-108508877D01*
X79582063Y-108857566D01*
X79791745Y-109171379D01*
X79840366Y-109220000D01*
X79791745Y-109268621D01*
X79582063Y-109582434D01*
X79437631Y-109931123D01*
X79364000Y-110301290D01*
X79364000Y-110678710D01*
X79437631Y-111048877D01*
X79582063Y-111397566D01*
X79791745Y-111711379D01*
X80058621Y-111978255D01*
X80372434Y-112187937D01*
X80721123Y-112332369D01*
X81091290Y-112406000D01*
X81468710Y-112406000D01*
X81838877Y-112332369D01*
X82187566Y-112187937D01*
X82501379Y-111978255D01*
X82768255Y-111711379D01*
X82977937Y-111397566D01*
X83122369Y-111048877D01*
X83196000Y-110678710D01*
X83196000Y-110301290D01*
X83122369Y-109931123D01*
X82977937Y-109582434D01*
X82768255Y-109268621D01*
X82719634Y-109220000D01*
X82768255Y-109171379D01*
X82977937Y-108857566D01*
X83122369Y-108508877D01*
X83196000Y-108138710D01*
X83196000Y-107761290D01*
X83122369Y-107391123D01*
X82977937Y-107042434D01*
X82768255Y-106728621D01*
X82719634Y-106680000D01*
X82768255Y-106631379D01*
X82977937Y-106317566D01*
X83122369Y-105968877D01*
X83196000Y-105598710D01*
X83196000Y-105312050D01*
X84444000Y-106560051D01*
X84444000Y-106868710D01*
X84517631Y-107238877D01*
X84662063Y-107587566D01*
X84871745Y-107901379D01*
X84920366Y-107950000D01*
X84871745Y-107998621D01*
X84662063Y-108312434D01*
X84517631Y-108661123D01*
X84444000Y-109031290D01*
X84444000Y-109408710D01*
X84517631Y-109778877D01*
X84662063Y-110127566D01*
X84700070Y-110184448D01*
X84611140Y-110292810D01*
X84516798Y-110469313D01*
X84458702Y-110660829D01*
X84439085Y-110860000D01*
X84439085Y-112660000D01*
X84458702Y-112859171D01*
X84516798Y-113050687D01*
X84611140Y-113227190D01*
X84738104Y-113381896D01*
X84892810Y-113508860D01*
X85069313Y-113603202D01*
X85260829Y-113661298D01*
X85460000Y-113680915D01*
X87260000Y-113680915D01*
X87459171Y-113661298D01*
X87650687Y-113603202D01*
X87827190Y-113508860D01*
X87981896Y-113381896D01*
X88108860Y-113227190D01*
X88203202Y-113050687D01*
X88261298Y-112859171D01*
X88280915Y-112660000D01*
X88280915Y-110860000D01*
X88261298Y-110660829D01*
X88203202Y-110469313D01*
X88108860Y-110292810D01*
X88019930Y-110184448D01*
X88057937Y-110127566D01*
X88202369Y-109778877D01*
X88276000Y-109408710D01*
X88276000Y-109031290D01*
X88202369Y-108661123D01*
X88057937Y-108312434D01*
X87848255Y-107998621D01*
X87799634Y-107950000D01*
X87848255Y-107901379D01*
X88057937Y-107587566D01*
X88202369Y-107238877D01*
X88276000Y-106868710D01*
X88276000Y-106491290D01*
X88202369Y-106121123D01*
X88057937Y-105772434D01*
X87848255Y-105458621D01*
X87799634Y-105410000D01*
X87848255Y-105361379D01*
X88057937Y-105047566D01*
X88202369Y-104698877D01*
X88276000Y-104328710D01*
X88276000Y-103951290D01*
X88202369Y-103581123D01*
X88188649Y-103548000D01*
X92621085Y-103548000D01*
X92621085Y-105748000D01*
X92640702Y-105947171D01*
X92698798Y-106138687D01*
X92793140Y-106315190D01*
X92920104Y-106469896D01*
X93074810Y-106596860D01*
X93251313Y-106691202D01*
X93442829Y-106749298D01*
X93642000Y-106768915D01*
X95842000Y-106768915D01*
X96041171Y-106749298D01*
X96232687Y-106691202D01*
X96409190Y-106596860D01*
X96563896Y-106469896D01*
X96647000Y-106368634D01*
X96730104Y-106469896D01*
X96884810Y-106596860D01*
X97061313Y-106691202D01*
X97252829Y-106749298D01*
X97452000Y-106768915D01*
X99652000Y-106768915D01*
X99851171Y-106749298D01*
X100042687Y-106691202D01*
X100219190Y-106596860D01*
X100373896Y-106469896D01*
X100500860Y-106315190D01*
X100595202Y-106138687D01*
X100653298Y-105947171D01*
X100672915Y-105748000D01*
X100672915Y-103548000D01*
X100653298Y-103348829D01*
X100595202Y-103157313D01*
X100500860Y-102980810D01*
X100373896Y-102826104D01*
X100219190Y-102699140D01*
X100042687Y-102604798D01*
X99851171Y-102546702D01*
X99652000Y-102527085D01*
X97452000Y-102527085D01*
X97252829Y-102546702D01*
X97061313Y-102604798D01*
X96884810Y-102699140D01*
X96730104Y-102826104D01*
X96647000Y-102927366D01*
X96563896Y-102826104D01*
X96409190Y-102699140D01*
X96232687Y-102604798D01*
X96041171Y-102546702D01*
X95842000Y-102527085D01*
X93642000Y-102527085D01*
X93442829Y-102546702D01*
X93251313Y-102604798D01*
X93074810Y-102699140D01*
X92920104Y-102826104D01*
X92793140Y-102980810D01*
X92698798Y-103157313D01*
X92640702Y-103348829D01*
X92621085Y-103548000D01*
X88188649Y-103548000D01*
X88057937Y-103232434D01*
X87848255Y-102918621D01*
X87799634Y-102870000D01*
X87848255Y-102821379D01*
X88057937Y-102507566D01*
X88202369Y-102158877D01*
X88276000Y-101788710D01*
X88276000Y-101411290D01*
X88202369Y-101041123D01*
X88057937Y-100692434D01*
X87848255Y-100378621D01*
X87799634Y-100330000D01*
X87848255Y-100281379D01*
X87879623Y-100234432D01*
X92959842Y-100234432D01*
X93099324Y-100571749D01*
X93301933Y-100875373D01*
X93559883Y-101133636D01*
X93863261Y-101336613D01*
X94200409Y-101476503D01*
X94202569Y-101477150D01*
X94488000Y-101347088D01*
X94488000Y-99949000D01*
X94996000Y-99949000D01*
X94996000Y-101347088D01*
X95281431Y-101477150D01*
X95283591Y-101476503D01*
X95620739Y-101336613D01*
X95924117Y-101133636D01*
X96182067Y-100875373D01*
X96384676Y-100571749D01*
X96524158Y-100234432D01*
X96769842Y-100234432D01*
X96909324Y-100571749D01*
X97111933Y-100875373D01*
X97369883Y-101133636D01*
X97673261Y-101336613D01*
X98010409Y-101476503D01*
X98012569Y-101477150D01*
X98298000Y-101347088D01*
X98298000Y-99949000D01*
X98806000Y-99949000D01*
X98806000Y-101347088D01*
X99091431Y-101477150D01*
X99093591Y-101476503D01*
X99430739Y-101336613D01*
X99734117Y-101133636D01*
X99992067Y-100875373D01*
X100194676Y-100571749D01*
X100334158Y-100234432D01*
X100206102Y-99949000D01*
X98806000Y-99949000D01*
X98298000Y-99949000D01*
X96897898Y-99949000D01*
X96769842Y-100234432D01*
X96524158Y-100234432D01*
X96396102Y-99949000D01*
X94996000Y-99949000D01*
X94488000Y-99949000D01*
X93087898Y-99949000D01*
X92959842Y-100234432D01*
X87879623Y-100234432D01*
X88057937Y-99967566D01*
X88202369Y-99618877D01*
X88276000Y-99248710D01*
X88276000Y-99155568D01*
X92959842Y-99155568D01*
X93087898Y-99441000D01*
X94488000Y-99441000D01*
X94488000Y-98042912D01*
X94996000Y-98042912D01*
X94996000Y-99441000D01*
X96396102Y-99441000D01*
X96524158Y-99155568D01*
X96769842Y-99155568D01*
X96897898Y-99441000D01*
X98298000Y-99441000D01*
X98298000Y-98042912D01*
X98806000Y-98042912D01*
X98806000Y-99441000D01*
X100206102Y-99441000D01*
X100334158Y-99155568D01*
X100194676Y-98818251D01*
X99992067Y-98514627D01*
X99734117Y-98256364D01*
X99430739Y-98053387D01*
X99093591Y-97913497D01*
X99091431Y-97912850D01*
X98806000Y-98042912D01*
X98298000Y-98042912D01*
X98012569Y-97912850D01*
X98010409Y-97913497D01*
X97673261Y-98053387D01*
X97369883Y-98256364D01*
X97111933Y-98514627D01*
X96909324Y-98818251D01*
X96769842Y-99155568D01*
X96524158Y-99155568D01*
X96384676Y-98818251D01*
X96182067Y-98514627D01*
X95924117Y-98256364D01*
X95620739Y-98053387D01*
X95283591Y-97913497D01*
X95281431Y-97912850D01*
X94996000Y-98042912D01*
X94488000Y-98042912D01*
X94202569Y-97912850D01*
X94200409Y-97913497D01*
X93863261Y-98053387D01*
X93559883Y-98256364D01*
X93301933Y-98514627D01*
X93099324Y-98818251D01*
X92959842Y-99155568D01*
X88276000Y-99155568D01*
X88276000Y-98871290D01*
X88202369Y-98501123D01*
X88057937Y-98152434D01*
X87848255Y-97838621D01*
X87799634Y-97790000D01*
X87848255Y-97741379D01*
X88057937Y-97427566D01*
X88202369Y-97078877D01*
X88276000Y-96708710D01*
X88276000Y-96331290D01*
X88202369Y-95961123D01*
X88057937Y-95612434D01*
X87848255Y-95298621D01*
X87799634Y-95250000D01*
X87848255Y-95201379D01*
X88057937Y-94887566D01*
X88202369Y-94538877D01*
X88276000Y-94168710D01*
X88276000Y-93791290D01*
X88202369Y-93421123D01*
X88057937Y-93072434D01*
X87848255Y-92758621D01*
X87581379Y-92491745D01*
X87267566Y-92282063D01*
X86918877Y-92137631D01*
X86548710Y-92064000D01*
X86171290Y-92064000D01*
X85801123Y-92137631D01*
X85452434Y-92282063D01*
X85138621Y-92491745D01*
X84871745Y-92758621D01*
X84681179Y-93043825D01*
X84673915Y-93037864D01*
X84206815Y-92570765D01*
X84206815Y-86955000D01*
X89109085Y-86955000D01*
X89109085Y-88305000D01*
X89128702Y-88504171D01*
X89186798Y-88695687D01*
X89281140Y-88872190D01*
X89286078Y-88878206D01*
X89178984Y-89136754D01*
X89114000Y-89463451D01*
X89114000Y-89796549D01*
X89178984Y-90123246D01*
X89306455Y-90430989D01*
X89408000Y-90582961D01*
X89408000Y-91371375D01*
X89401241Y-91440000D01*
X89428214Y-91713859D01*
X89493283Y-91928359D01*
X89508097Y-91977195D01*
X89637818Y-92219887D01*
X89812393Y-92432608D01*
X89865704Y-92476359D01*
X91038645Y-93649301D01*
X91082392Y-93702608D01*
X91295113Y-93877183D01*
X91537805Y-94006904D01*
X91801140Y-94086786D01*
X92074999Y-94113759D01*
X92143624Y-94107000D01*
X97086375Y-94107000D01*
X97155000Y-94113759D01*
X97223625Y-94107000D01*
X97428860Y-94086786D01*
X97692195Y-94006904D01*
X97934887Y-93877183D01*
X98147608Y-93702608D01*
X98191363Y-93649292D01*
X99491306Y-92349351D01*
X99544607Y-92305608D01*
X99605722Y-92231140D01*
X99653596Y-92172805D01*
X99719183Y-92092887D01*
X99848904Y-91850195D01*
X99920135Y-91615378D01*
X100042687Y-91578202D01*
X100219190Y-91483860D01*
X100373896Y-91356896D01*
X100500860Y-91202190D01*
X100595202Y-91025687D01*
X100653298Y-90834171D01*
X100672915Y-90635000D01*
X100672915Y-88435000D01*
X100653298Y-88235829D01*
X100595202Y-88044313D01*
X100500860Y-87867810D01*
X100487537Y-87851575D01*
X100586683Y-87612214D01*
X100668000Y-87203408D01*
X100668000Y-86786592D01*
X100586683Y-86377786D01*
X100427175Y-85992698D01*
X100195604Y-85646129D01*
X99900871Y-85351396D01*
X99554302Y-85119825D01*
X99169214Y-84960317D01*
X98760408Y-84879000D01*
X98343592Y-84879000D01*
X97934786Y-84960317D01*
X97549698Y-85119825D01*
X97203129Y-85351396D01*
X96908396Y-85646129D01*
X96676825Y-85992698D01*
X96647000Y-86064702D01*
X96617175Y-85992698D01*
X96385604Y-85646129D01*
X96090871Y-85351396D01*
X95744302Y-85119825D01*
X95359214Y-84960317D01*
X94950408Y-84879000D01*
X94533592Y-84879000D01*
X94124786Y-84960317D01*
X93739698Y-85119825D01*
X93393129Y-85351396D01*
X93098396Y-85646129D01*
X92866825Y-85992698D01*
X92707317Y-86377786D01*
X92626000Y-86786592D01*
X92626000Y-87203408D01*
X92707317Y-87612214D01*
X92806463Y-87851575D01*
X92793140Y-87867810D01*
X92698798Y-88044313D01*
X92640702Y-88235829D01*
X92621085Y-88435000D01*
X92621085Y-90635000D01*
X92640702Y-90834171D01*
X92698798Y-91025687D01*
X92793140Y-91202190D01*
X92884079Y-91313000D01*
X92653656Y-91313000D01*
X92202000Y-90861344D01*
X92202000Y-90582961D01*
X92303545Y-90430989D01*
X92431016Y-90123246D01*
X92496000Y-89796549D01*
X92496000Y-89463451D01*
X92431016Y-89136754D01*
X92323922Y-88878206D01*
X92328860Y-88872190D01*
X92423202Y-88695687D01*
X92481298Y-88504171D01*
X92500915Y-88305000D01*
X92500915Y-86955000D01*
X92481298Y-86755829D01*
X92423202Y-86564313D01*
X92328860Y-86387810D01*
X92201896Y-86233104D01*
X92047190Y-86106140D01*
X91870687Y-86011798D01*
X91679171Y-85953702D01*
X91480000Y-85934085D01*
X90130000Y-85934085D01*
X89930829Y-85953702D01*
X89739313Y-86011798D01*
X89562810Y-86106140D01*
X89408104Y-86233104D01*
X89281140Y-86387810D01*
X89186798Y-86564313D01*
X89128702Y-86755829D01*
X89109085Y-86955000D01*
X84206815Y-86955000D01*
X84206815Y-85528036D01*
X84531123Y-85662369D01*
X84901290Y-85736000D01*
X85278710Y-85736000D01*
X85648877Y-85662369D01*
X85997566Y-85517937D01*
X86275145Y-85332466D01*
X86304607Y-85356645D01*
X86436984Y-85427403D01*
X86580622Y-85470975D01*
X86730000Y-85485687D01*
X87185500Y-85482000D01*
X87376000Y-85291500D01*
X87376000Y-84074000D01*
X87884000Y-84074000D01*
X87884000Y-85291500D01*
X88074500Y-85482000D01*
X88530000Y-85485687D01*
X88679378Y-85470975D01*
X88823016Y-85427403D01*
X88955393Y-85356645D01*
X89071422Y-85261422D01*
X89166645Y-85145393D01*
X89237403Y-85013016D01*
X89280975Y-84869378D01*
X89295687Y-84720000D01*
X89292000Y-84264500D01*
X89101500Y-84074000D01*
X87884000Y-84074000D01*
X87376000Y-84074000D01*
X87356000Y-84074000D01*
X87356000Y-83566000D01*
X87376000Y-83566000D01*
X87376000Y-82348500D01*
X87884000Y-82348500D01*
X87884000Y-83566000D01*
X89101500Y-83566000D01*
X89292000Y-83375500D01*
X89295687Y-82920000D01*
X89280975Y-82770622D01*
X89237403Y-82626984D01*
X89166645Y-82494607D01*
X89071422Y-82378578D01*
X88955393Y-82283355D01*
X88823016Y-82212597D01*
X88679378Y-82169025D01*
X88530000Y-82154313D01*
X88074500Y-82158000D01*
X87884000Y-82348500D01*
X87376000Y-82348500D01*
X87185500Y-82158000D01*
X86730000Y-82154313D01*
X86580622Y-82169025D01*
X86436984Y-82212597D01*
X86304607Y-82283355D01*
X86275145Y-82307534D01*
X85997566Y-82122063D01*
X85648877Y-81977631D01*
X85278710Y-81904000D01*
X84901290Y-81904000D01*
X84531123Y-81977631D01*
X84206815Y-82111964D01*
X84206815Y-78415557D01*
X84212958Y-78353184D01*
X84206815Y-78290811D01*
X84206815Y-78290805D01*
X84188438Y-78104222D01*
X84186811Y-78098856D01*
X84137105Y-77935000D01*
X84115818Y-77864826D01*
X83997890Y-77644197D01*
X83839185Y-77450815D01*
X83790730Y-77411049D01*
X83073117Y-76693436D01*
X83159708Y-76676212D01*
X83490199Y-76539318D01*
X83787633Y-76340579D01*
X84040579Y-76087633D01*
X84239318Y-75790199D01*
X84376212Y-75459708D01*
X84446000Y-75108860D01*
X84446000Y-74815406D01*
X86064632Y-74815406D01*
X86072353Y-75122996D01*
X86139935Y-75423169D01*
X86227642Y-75634912D01*
X86491936Y-75708853D01*
X87270790Y-74930000D01*
X86491936Y-74151147D01*
X86227642Y-74225088D01*
X86117067Y-74512219D01*
X86064632Y-74815406D01*
X84446000Y-74815406D01*
X84446000Y-74751140D01*
X84376212Y-74400292D01*
X84239318Y-74069801D01*
X84040579Y-73772367D01*
X83900000Y-73631788D01*
X83900000Y-72047000D01*
X84074002Y-72047000D01*
X84074002Y-71832776D01*
X84311971Y-71967501D01*
X84520416Y-71881170D01*
X84779337Y-71717699D01*
X84914087Y-71589752D01*
X84949421Y-71642633D01*
X85202367Y-71895579D01*
X85499801Y-72094318D01*
X85830292Y-72231212D01*
X86181140Y-72301000D01*
X86538860Y-72301000D01*
X86889708Y-72231212D01*
X87220199Y-72094318D01*
X87517633Y-71895579D01*
X87630000Y-71783212D01*
X87742367Y-71895579D01*
X88039801Y-72094318D01*
X88370292Y-72231212D01*
X88721140Y-72301000D01*
X89078860Y-72301000D01*
X89214844Y-72273951D01*
X89108926Y-72403012D01*
X89033574Y-72543987D01*
X88990998Y-72623641D01*
X88918377Y-72863037D01*
X88907659Y-72971862D01*
X88900000Y-73049620D01*
X88900000Y-73049627D01*
X88893857Y-73112000D01*
X88900000Y-73174373D01*
X88900000Y-73428963D01*
X88773104Y-73533104D01*
X88646140Y-73687810D01*
X88632076Y-73714123D01*
X88559370Y-73641417D01*
X88408853Y-73791934D01*
X88334912Y-73527642D01*
X88047781Y-73417067D01*
X87744594Y-73364632D01*
X87437004Y-73372353D01*
X87136831Y-73439935D01*
X86925088Y-73527642D01*
X86851147Y-73791936D01*
X87630000Y-74570790D01*
X87644142Y-74556647D01*
X88003353Y-74915858D01*
X87989210Y-74930000D01*
X88003353Y-74944142D01*
X87644142Y-75303353D01*
X87630000Y-75289210D01*
X86851147Y-76068064D01*
X86925088Y-76332358D01*
X87212219Y-76442933D01*
X87515406Y-76495368D01*
X87822996Y-76487647D01*
X88123169Y-76420065D01*
X88334912Y-76332358D01*
X88408853Y-76068066D01*
X88559370Y-76218583D01*
X88632076Y-76145877D01*
X88646140Y-76172190D01*
X88651078Y-76178206D01*
X88543984Y-76436754D01*
X88479000Y-76763451D01*
X88479000Y-77096549D01*
X88543984Y-77423246D01*
X88671455Y-77730989D01*
X88856515Y-78007950D01*
X89092050Y-78243485D01*
X89369011Y-78428545D01*
X89676754Y-78556016D01*
X90003451Y-78621000D01*
X90336549Y-78621000D01*
X90663246Y-78556016D01*
X90970989Y-78428545D01*
X91247950Y-78243485D01*
X91290645Y-78200790D01*
X91345000Y-78206143D01*
X91407373Y-78200000D01*
X91407380Y-78200000D01*
X91593963Y-78181623D01*
X91833359Y-78109003D01*
X92053988Y-77991075D01*
X92247370Y-77832370D01*
X92287141Y-77783909D01*
X92621085Y-77449966D01*
X92621085Y-77935000D01*
X92640702Y-78134171D01*
X92698798Y-78325687D01*
X92793140Y-78502190D01*
X92920104Y-78656896D01*
X93074810Y-78783860D01*
X93251313Y-78878202D01*
X93442829Y-78936298D01*
X93642000Y-78955915D01*
X95842000Y-78955915D01*
X96041171Y-78936298D01*
X96232687Y-78878202D01*
X96409190Y-78783860D01*
X96563896Y-78656896D01*
X96647000Y-78555634D01*
X96730104Y-78656896D01*
X96884810Y-78783860D01*
X97061313Y-78878202D01*
X97252829Y-78936298D01*
X97452000Y-78955915D01*
X99652000Y-78955915D01*
X99851171Y-78936298D01*
X100042687Y-78878202D01*
X100219190Y-78783860D01*
X100373896Y-78656896D01*
X100500860Y-78502190D01*
X100595202Y-78325687D01*
X100653298Y-78134171D01*
X100672915Y-77935000D01*
X100672915Y-75735000D01*
X100653298Y-75535829D01*
X100595202Y-75344313D01*
X100500860Y-75167810D01*
X100373896Y-75013104D01*
X100219190Y-74886140D01*
X100042687Y-74791798D01*
X99851171Y-74733702D01*
X99652000Y-74714085D01*
X97452000Y-74714085D01*
X97252829Y-74733702D01*
X97061313Y-74791798D01*
X96884810Y-74886140D01*
X96730104Y-75013104D01*
X96647000Y-75114366D01*
X96563896Y-75013104D01*
X96409190Y-74886140D01*
X96339958Y-74849135D01*
X96373359Y-74839003D01*
X96593988Y-74721075D01*
X96787370Y-74562370D01*
X96827141Y-74513909D01*
X99040051Y-72301000D01*
X99238860Y-72301000D01*
X99589708Y-72231212D01*
X99920199Y-72094318D01*
X100217633Y-71895579D01*
X100470579Y-71642633D01*
X100669318Y-71345199D01*
X100806212Y-71014708D01*
X100876000Y-70663860D01*
X100876000Y-70306140D01*
X100806212Y-69955292D01*
X100669318Y-69624801D01*
X100470579Y-69327367D01*
X100217633Y-69074421D01*
X99920199Y-68875682D01*
X99589708Y-68738788D01*
X99238860Y-68669000D01*
X98881140Y-68669000D01*
X98530292Y-68738788D01*
X98199801Y-68875682D01*
X97902367Y-69074421D01*
X97790000Y-69186788D01*
X97677633Y-69074421D01*
X97380199Y-68875682D01*
X97049708Y-68738788D01*
X96698860Y-68669000D01*
X96341140Y-68669000D01*
X95990292Y-68738788D01*
X95659801Y-68875682D01*
X95362367Y-69074421D01*
X95250000Y-69186788D01*
X95137633Y-69074421D01*
X94840199Y-68875682D01*
X94509708Y-68738788D01*
X94158860Y-68669000D01*
X93801140Y-68669000D01*
X93450292Y-68738788D01*
X93119801Y-68875682D01*
X92822367Y-69074421D01*
X92710000Y-69186788D01*
X92597633Y-69074421D01*
X92300199Y-68875682D01*
X91969708Y-68738788D01*
X91618860Y-68669000D01*
X91261140Y-68669000D01*
X90910292Y-68738788D01*
X90579801Y-68875682D01*
X90282367Y-69074421D01*
X90170000Y-69186788D01*
X90057633Y-69074421D01*
X89760199Y-68875682D01*
X89429708Y-68738788D01*
X89078860Y-68669000D01*
X88721140Y-68669000D01*
X88370292Y-68738788D01*
X88039801Y-68875682D01*
X87742367Y-69074421D01*
X87630000Y-69186788D01*
X87517633Y-69074421D01*
X87220199Y-68875682D01*
X86889708Y-68738788D01*
X86538860Y-68669000D01*
X86181140Y-68669000D01*
X85830292Y-68738788D01*
X85499801Y-68875682D01*
X85202367Y-69074421D01*
X84949421Y-69327367D01*
X84914087Y-69380248D01*
X84779337Y-69252301D01*
X84520416Y-69088830D01*
X84311971Y-69002499D01*
X84074000Y-69137225D01*
X84074000Y-70231000D01*
X84094000Y-70231000D01*
X84094000Y-70739000D01*
X84074000Y-70739000D01*
X84074000Y-70759000D01*
X83566000Y-70759000D01*
X83566000Y-70739000D01*
X83546000Y-70739000D01*
X83546000Y-70231000D01*
X83566000Y-70231000D01*
X83566000Y-69137225D01*
X83328029Y-69002499D01*
X83119584Y-69088830D01*
X82860663Y-69252301D01*
X82725913Y-69380248D01*
X82690579Y-69327367D01*
X82437633Y-69074421D01*
X82143298Y-68877753D01*
X84542669Y-66478383D01*
X84740269Y-66584002D01*
X84740271Y-66584003D01*
X84979667Y-66656623D01*
X85228630Y-66681144D01*
X85291010Y-66675000D01*
X100902627Y-66675000D01*
X100965000Y-66681143D01*
X101027373Y-66675000D01*
X101027380Y-66675000D01*
X101213963Y-66656623D01*
X101453359Y-66584003D01*
X101673988Y-66466075D01*
X101867370Y-66307370D01*
X101907141Y-66258909D01*
X102453915Y-65712136D01*
X102502370Y-65672370D01*
X102616000Y-65533912D01*
X102616000Y-129921000D01*
X47244000Y-129921000D01*
X47244000Y-128174432D01*
X47747842Y-128174432D01*
X47887324Y-128511749D01*
X48089933Y-128815373D01*
X48347883Y-129073636D01*
X48651261Y-129276613D01*
X48988409Y-129416503D01*
X48990569Y-129417150D01*
X49276000Y-129287088D01*
X49276000Y-127889000D01*
X49784000Y-127889000D01*
X49784000Y-129287088D01*
X50069431Y-129417150D01*
X50071591Y-129416503D01*
X50408739Y-129276613D01*
X50712117Y-129073636D01*
X50970067Y-128815373D01*
X51172676Y-128511749D01*
X51312158Y-128174432D01*
X51557842Y-128174432D01*
X51697324Y-128511749D01*
X51899933Y-128815373D01*
X52157883Y-129073636D01*
X52461261Y-129276613D01*
X52798409Y-129416503D01*
X52800569Y-129417150D01*
X53086000Y-129287088D01*
X53086000Y-127889000D01*
X53594000Y-127889000D01*
X53594000Y-129287088D01*
X53879431Y-129417150D01*
X53881591Y-129416503D01*
X54218739Y-129276613D01*
X54522117Y-129073636D01*
X54780067Y-128815373D01*
X54982676Y-128511749D01*
X55122158Y-128174432D01*
X55065181Y-128047432D01*
X92959842Y-128047432D01*
X93099324Y-128384749D01*
X93301933Y-128688373D01*
X93559883Y-128946636D01*
X93863261Y-129149613D01*
X94200409Y-129289503D01*
X94202569Y-129290150D01*
X94488000Y-129160088D01*
X94488000Y-127762000D01*
X94996000Y-127762000D01*
X94996000Y-129160088D01*
X95281431Y-129290150D01*
X95283591Y-129289503D01*
X95620739Y-129149613D01*
X95924117Y-128946636D01*
X96182067Y-128688373D01*
X96384676Y-128384749D01*
X96524158Y-128047432D01*
X96769842Y-128047432D01*
X96909324Y-128384749D01*
X97111933Y-128688373D01*
X97369883Y-128946636D01*
X97673261Y-129149613D01*
X98010409Y-129289503D01*
X98012569Y-129290150D01*
X98298000Y-129160088D01*
X98298000Y-127762000D01*
X98806000Y-127762000D01*
X98806000Y-129160088D01*
X99091431Y-129290150D01*
X99093591Y-129289503D01*
X99430739Y-129149613D01*
X99734117Y-128946636D01*
X99992067Y-128688373D01*
X100194676Y-128384749D01*
X100334158Y-128047432D01*
X100206102Y-127762000D01*
X98806000Y-127762000D01*
X98298000Y-127762000D01*
X96897898Y-127762000D01*
X96769842Y-128047432D01*
X96524158Y-128047432D01*
X96396102Y-127762000D01*
X94996000Y-127762000D01*
X94488000Y-127762000D01*
X93087898Y-127762000D01*
X92959842Y-128047432D01*
X55065181Y-128047432D01*
X54994102Y-127889000D01*
X53594000Y-127889000D01*
X53086000Y-127889000D01*
X51685898Y-127889000D01*
X51557842Y-128174432D01*
X51312158Y-128174432D01*
X51184102Y-127889000D01*
X49784000Y-127889000D01*
X49276000Y-127889000D01*
X47875898Y-127889000D01*
X47747842Y-128174432D01*
X47244000Y-128174432D01*
X47244000Y-127095568D01*
X47747842Y-127095568D01*
X47875898Y-127381000D01*
X49276000Y-127381000D01*
X49276000Y-125982912D01*
X49784000Y-125982912D01*
X49784000Y-127381000D01*
X51184102Y-127381000D01*
X51312158Y-127095568D01*
X51557842Y-127095568D01*
X51685898Y-127381000D01*
X53086000Y-127381000D01*
X53086000Y-125982912D01*
X53594000Y-125982912D01*
X53594000Y-127381000D01*
X54994102Y-127381000D01*
X55122158Y-127095568D01*
X55069643Y-126968568D01*
X92959842Y-126968568D01*
X93087898Y-127254000D01*
X94488000Y-127254000D01*
X94488000Y-125855912D01*
X94996000Y-125855912D01*
X94996000Y-127254000D01*
X96396102Y-127254000D01*
X96524158Y-126968568D01*
X96769842Y-126968568D01*
X96897898Y-127254000D01*
X98298000Y-127254000D01*
X98298000Y-125855912D01*
X98806000Y-125855912D01*
X98806000Y-127254000D01*
X100206102Y-127254000D01*
X100334158Y-126968568D01*
X100194676Y-126631251D01*
X99992067Y-126327627D01*
X99734117Y-126069364D01*
X99430739Y-125866387D01*
X99093591Y-125726497D01*
X99091431Y-125725850D01*
X98806000Y-125855912D01*
X98298000Y-125855912D01*
X98012569Y-125725850D01*
X98010409Y-125726497D01*
X97673261Y-125866387D01*
X97369883Y-126069364D01*
X97111933Y-126327627D01*
X96909324Y-126631251D01*
X96769842Y-126968568D01*
X96524158Y-126968568D01*
X96384676Y-126631251D01*
X96182067Y-126327627D01*
X95924117Y-126069364D01*
X95620739Y-125866387D01*
X95283591Y-125726497D01*
X95281431Y-125725850D01*
X94996000Y-125855912D01*
X94488000Y-125855912D01*
X94202569Y-125725850D01*
X94200409Y-125726497D01*
X93863261Y-125866387D01*
X93559883Y-126069364D01*
X93301933Y-126327627D01*
X93099324Y-126631251D01*
X92959842Y-126968568D01*
X55069643Y-126968568D01*
X54982676Y-126758251D01*
X54780067Y-126454627D01*
X54522117Y-126196364D01*
X54218739Y-125993387D01*
X53881591Y-125853497D01*
X53879431Y-125852850D01*
X53594000Y-125982912D01*
X53086000Y-125982912D01*
X52800569Y-125852850D01*
X52798409Y-125853497D01*
X52461261Y-125993387D01*
X52157883Y-126196364D01*
X51899933Y-126454627D01*
X51697324Y-126758251D01*
X51557842Y-127095568D01*
X51312158Y-127095568D01*
X51172676Y-126758251D01*
X50970067Y-126454627D01*
X50712117Y-126196364D01*
X50408739Y-125993387D01*
X50071591Y-125853497D01*
X50069431Y-125852850D01*
X49784000Y-125982912D01*
X49276000Y-125982912D01*
X48990569Y-125852850D01*
X48988409Y-125853497D01*
X48651261Y-125993387D01*
X48347883Y-126196364D01*
X48089933Y-126454627D01*
X47887324Y-126758251D01*
X47747842Y-127095568D01*
X47244000Y-127095568D01*
X47244000Y-122648534D01*
X73290676Y-122648534D01*
X73511018Y-123035191D01*
X74003611Y-123266190D01*
X74531805Y-123396651D01*
X75075301Y-123421559D01*
X75613213Y-123339958D01*
X76124870Y-123154983D01*
X76348982Y-123035191D01*
X76569324Y-122648534D01*
X74930000Y-121009210D01*
X73290676Y-122648534D01*
X47244000Y-122648534D01*
X47244000Y-120795301D01*
X72158441Y-120795301D01*
X72240042Y-121333213D01*
X72425017Y-121844870D01*
X72544809Y-122068982D01*
X72931466Y-122289324D01*
X74570790Y-120650000D01*
X75289210Y-120650000D01*
X76928534Y-122289324D01*
X77315191Y-122068982D01*
X77546190Y-121576389D01*
X77676651Y-121048195D01*
X77701559Y-120504699D01*
X77619958Y-119966787D01*
X77434983Y-119455130D01*
X77315191Y-119231018D01*
X76928534Y-119010676D01*
X75289210Y-120650000D01*
X74570790Y-120650000D01*
X72931466Y-119010676D01*
X72544809Y-119231018D01*
X72313810Y-119723611D01*
X72183349Y-120251805D01*
X72158441Y-120795301D01*
X47244000Y-120795301D01*
X47244000Y-116375000D01*
X47409085Y-116375000D01*
X47409085Y-118575000D01*
X47428702Y-118774171D01*
X47486798Y-118965687D01*
X47581140Y-119142190D01*
X47708104Y-119296896D01*
X47862810Y-119423860D01*
X48039313Y-119518202D01*
X48230829Y-119576298D01*
X48430000Y-119595915D01*
X50630000Y-119595915D01*
X50829171Y-119576298D01*
X51020687Y-119518202D01*
X51197190Y-119423860D01*
X51351896Y-119296896D01*
X51435000Y-119195634D01*
X51518104Y-119296896D01*
X51672810Y-119423860D01*
X51849313Y-119518202D01*
X52040829Y-119576298D01*
X52240000Y-119595915D01*
X54440000Y-119595915D01*
X54639171Y-119576298D01*
X54830687Y-119518202D01*
X55007190Y-119423860D01*
X55161896Y-119296896D01*
X55288860Y-119142190D01*
X55383202Y-118965687D01*
X55441298Y-118774171D01*
X55453383Y-118651466D01*
X73290676Y-118651466D01*
X74930000Y-120290790D01*
X76569324Y-118651466D01*
X76348982Y-118264809D01*
X75856389Y-118033810D01*
X75328195Y-117903349D01*
X74784699Y-117878441D01*
X74246787Y-117960042D01*
X73735130Y-118145017D01*
X73511018Y-118264809D01*
X73290676Y-118651466D01*
X55453383Y-118651466D01*
X55460915Y-118575000D01*
X55460915Y-116375000D01*
X55441298Y-116175829D01*
X55438014Y-116165000D01*
X56089085Y-116165000D01*
X56089085Y-117515000D01*
X56108702Y-117714171D01*
X56166798Y-117905687D01*
X56261140Y-118082190D01*
X56388104Y-118236896D01*
X56542810Y-118363860D01*
X56719313Y-118458202D01*
X56910829Y-118516298D01*
X57110000Y-118535915D01*
X58460000Y-118535915D01*
X58659171Y-118516298D01*
X58850687Y-118458202D01*
X59027190Y-118363860D01*
X59181896Y-118236896D01*
X59308860Y-118082190D01*
X59403202Y-117905687D01*
X59461298Y-117714171D01*
X59480915Y-117515000D01*
X59480915Y-116165000D01*
X59461298Y-115965829D01*
X59403202Y-115774313D01*
X59308860Y-115597810D01*
X59303922Y-115591794D01*
X59411016Y-115333246D01*
X59476000Y-115006549D01*
X59476000Y-114673451D01*
X59411016Y-114346754D01*
X59375082Y-114260000D01*
X89109085Y-114260000D01*
X89109085Y-115610000D01*
X89128702Y-115809171D01*
X89186798Y-116000687D01*
X89281140Y-116177190D01*
X89286078Y-116183206D01*
X89178984Y-116441754D01*
X89114000Y-116768451D01*
X89114000Y-117101549D01*
X89178984Y-117428246D01*
X89306455Y-117735989D01*
X89491515Y-118012950D01*
X89727050Y-118248485D01*
X90004011Y-118433545D01*
X90311754Y-118561016D01*
X90638451Y-118626000D01*
X90971549Y-118626000D01*
X91298246Y-118561016D01*
X91605989Y-118433545D01*
X91882950Y-118248485D01*
X92118485Y-118012950D01*
X92303545Y-117735989D01*
X92431016Y-117428246D01*
X92496000Y-117101549D01*
X92496000Y-116768451D01*
X92431016Y-116441754D01*
X92350761Y-116248000D01*
X92621085Y-116248000D01*
X92621085Y-118448000D01*
X92640702Y-118647171D01*
X92698798Y-118838687D01*
X92793140Y-119015190D01*
X92920104Y-119169896D01*
X93074810Y-119296860D01*
X93251313Y-119391202D01*
X93442829Y-119449298D01*
X93642000Y-119468915D01*
X95842000Y-119468915D01*
X96041171Y-119449298D01*
X96232687Y-119391202D01*
X96409190Y-119296860D01*
X96563896Y-119169896D01*
X96647000Y-119068634D01*
X96730104Y-119169896D01*
X96884810Y-119296860D01*
X97061313Y-119391202D01*
X97252829Y-119449298D01*
X97452000Y-119468915D01*
X99652000Y-119468915D01*
X99851171Y-119449298D01*
X100042687Y-119391202D01*
X100219190Y-119296860D01*
X100373896Y-119169896D01*
X100500860Y-119015190D01*
X100595202Y-118838687D01*
X100653298Y-118647171D01*
X100672915Y-118448000D01*
X100672915Y-116248000D01*
X100653298Y-116048829D01*
X100595202Y-115857313D01*
X100500860Y-115680810D01*
X100487537Y-115664575D01*
X100586683Y-115425214D01*
X100668000Y-115016408D01*
X100668000Y-114599592D01*
X100586683Y-114190786D01*
X100427175Y-113805698D01*
X100195604Y-113459129D01*
X99900871Y-113164396D01*
X99554302Y-112932825D01*
X99169214Y-112773317D01*
X98760408Y-112692000D01*
X98343592Y-112692000D01*
X97934786Y-112773317D01*
X97549698Y-112932825D01*
X97203129Y-113164396D01*
X96908396Y-113459129D01*
X96676825Y-113805698D01*
X96647000Y-113877702D01*
X96617175Y-113805698D01*
X96385604Y-113459129D01*
X96090871Y-113164396D01*
X95744302Y-112932825D01*
X95359214Y-112773317D01*
X94950408Y-112692000D01*
X94533592Y-112692000D01*
X94124786Y-112773317D01*
X93739698Y-112932825D01*
X93393129Y-113164396D01*
X93098396Y-113459129D01*
X92866825Y-113805698D01*
X92707317Y-114190786D01*
X92626000Y-114599592D01*
X92626000Y-115016408D01*
X92707317Y-115425214D01*
X92806463Y-115664575D01*
X92793140Y-115680810D01*
X92698798Y-115857313D01*
X92640702Y-116048829D01*
X92621085Y-116248000D01*
X92350761Y-116248000D01*
X92323922Y-116183206D01*
X92328860Y-116177190D01*
X92423202Y-116000687D01*
X92481298Y-115809171D01*
X92500915Y-115610000D01*
X92500915Y-114260000D01*
X92481298Y-114060829D01*
X92423202Y-113869313D01*
X92328860Y-113692810D01*
X92201896Y-113538104D01*
X92047190Y-113411140D01*
X91870687Y-113316798D01*
X91679171Y-113258702D01*
X91480000Y-113239085D01*
X90130000Y-113239085D01*
X89930829Y-113258702D01*
X89739313Y-113316798D01*
X89562810Y-113411140D01*
X89408104Y-113538104D01*
X89281140Y-113692810D01*
X89186798Y-113869313D01*
X89128702Y-114060829D01*
X89109085Y-114260000D01*
X59375082Y-114260000D01*
X59283545Y-114039011D01*
X59098485Y-113762050D01*
X58862950Y-113526515D01*
X58585989Y-113341455D01*
X58278246Y-113213984D01*
X57951549Y-113149000D01*
X57618451Y-113149000D01*
X57291754Y-113213984D01*
X56984011Y-113341455D01*
X56707050Y-113526515D01*
X56471515Y-113762050D01*
X56286455Y-114039011D01*
X56158984Y-114346754D01*
X56094000Y-114673451D01*
X56094000Y-115006549D01*
X56158984Y-115333246D01*
X56266078Y-115591794D01*
X56261140Y-115597810D01*
X56166798Y-115774313D01*
X56108702Y-115965829D01*
X56089085Y-116165000D01*
X55438014Y-116165000D01*
X55383202Y-115984313D01*
X55288860Y-115807810D01*
X55275537Y-115791575D01*
X55374683Y-115552214D01*
X55456000Y-115143408D01*
X55456000Y-114726592D01*
X55374683Y-114317786D01*
X55215175Y-113932698D01*
X54983604Y-113586129D01*
X54688871Y-113291396D01*
X54342302Y-113059825D01*
X53957214Y-112900317D01*
X53548408Y-112819000D01*
X53131592Y-112819000D01*
X52722786Y-112900317D01*
X52337698Y-113059825D01*
X51991129Y-113291396D01*
X51696396Y-113586129D01*
X51464825Y-113932698D01*
X51435000Y-114004702D01*
X51405175Y-113932698D01*
X51173604Y-113586129D01*
X50878871Y-113291396D01*
X50532302Y-113059825D01*
X50147214Y-112900317D01*
X49738408Y-112819000D01*
X49321592Y-112819000D01*
X48912786Y-112900317D01*
X48527698Y-113059825D01*
X48181129Y-113291396D01*
X47886396Y-113586129D01*
X47654825Y-113932698D01*
X47495317Y-114317786D01*
X47414000Y-114726592D01*
X47414000Y-115143408D01*
X47495317Y-115552214D01*
X47594463Y-115791575D01*
X47581140Y-115807810D01*
X47486798Y-115984313D01*
X47428702Y-116175829D01*
X47409085Y-116375000D01*
X47244000Y-116375000D01*
X47244000Y-103675000D01*
X47409085Y-103675000D01*
X47409085Y-105875000D01*
X47428702Y-106074171D01*
X47486798Y-106265687D01*
X47581140Y-106442190D01*
X47708104Y-106596896D01*
X47862810Y-106723860D01*
X48039313Y-106818202D01*
X48230829Y-106876298D01*
X48430000Y-106895915D01*
X50630000Y-106895915D01*
X50829171Y-106876298D01*
X51020687Y-106818202D01*
X51197190Y-106723860D01*
X51351896Y-106596896D01*
X51435000Y-106495634D01*
X51518104Y-106596896D01*
X51672810Y-106723860D01*
X51849313Y-106818202D01*
X52040829Y-106876298D01*
X52240000Y-106895915D01*
X54440000Y-106895915D01*
X54639171Y-106876298D01*
X54830687Y-106818202D01*
X55007190Y-106723860D01*
X55161896Y-106596896D01*
X55288860Y-106442190D01*
X55383202Y-106265687D01*
X55441298Y-106074171D01*
X55460915Y-105875000D01*
X55460915Y-103675000D01*
X55441298Y-103475829D01*
X55383202Y-103284313D01*
X55288860Y-103107810D01*
X55161896Y-102953104D01*
X55007190Y-102826140D01*
X54830687Y-102731798D01*
X54639171Y-102673702D01*
X54440000Y-102654085D01*
X52240000Y-102654085D01*
X52040829Y-102673702D01*
X51849313Y-102731798D01*
X51672810Y-102826140D01*
X51518104Y-102953104D01*
X51435000Y-103054366D01*
X51351896Y-102953104D01*
X51197190Y-102826140D01*
X51020687Y-102731798D01*
X50829171Y-102673702D01*
X50630000Y-102654085D01*
X48430000Y-102654085D01*
X48230829Y-102673702D01*
X48039313Y-102731798D01*
X47862810Y-102826140D01*
X47708104Y-102953104D01*
X47581140Y-103107810D01*
X47486798Y-103284313D01*
X47428702Y-103475829D01*
X47409085Y-103675000D01*
X47244000Y-103675000D01*
X47244000Y-100234432D01*
X47747842Y-100234432D01*
X47887324Y-100571749D01*
X48089933Y-100875373D01*
X48347883Y-101133636D01*
X48651261Y-101336613D01*
X48988409Y-101476503D01*
X48990569Y-101477150D01*
X49276000Y-101347088D01*
X49276000Y-99949000D01*
X49784000Y-99949000D01*
X49784000Y-101347088D01*
X50069431Y-101477150D01*
X50071591Y-101476503D01*
X50408739Y-101336613D01*
X50712117Y-101133636D01*
X50970067Y-100875373D01*
X51172676Y-100571749D01*
X51312158Y-100234432D01*
X51557842Y-100234432D01*
X51697324Y-100571749D01*
X51899933Y-100875373D01*
X52157883Y-101133636D01*
X52461261Y-101336613D01*
X52798409Y-101476503D01*
X52800569Y-101477150D01*
X53086000Y-101347088D01*
X53086000Y-99949000D01*
X53594000Y-99949000D01*
X53594000Y-101347088D01*
X53879431Y-101477150D01*
X53881591Y-101476503D01*
X54218739Y-101336613D01*
X54522117Y-101133636D01*
X54780067Y-100875373D01*
X54982676Y-100571749D01*
X55122158Y-100234432D01*
X54994102Y-99949000D01*
X53594000Y-99949000D01*
X53086000Y-99949000D01*
X51685898Y-99949000D01*
X51557842Y-100234432D01*
X51312158Y-100234432D01*
X51184102Y-99949000D01*
X49784000Y-99949000D01*
X49276000Y-99949000D01*
X47875898Y-99949000D01*
X47747842Y-100234432D01*
X47244000Y-100234432D01*
X47244000Y-99155568D01*
X47747842Y-99155568D01*
X47875898Y-99441000D01*
X49276000Y-99441000D01*
X49276000Y-98042912D01*
X49784000Y-98042912D01*
X49784000Y-99441000D01*
X51184102Y-99441000D01*
X51312158Y-99155568D01*
X51557842Y-99155568D01*
X51685898Y-99441000D01*
X53086000Y-99441000D01*
X53086000Y-98042912D01*
X53594000Y-98042912D01*
X53594000Y-99441000D01*
X54994102Y-99441000D01*
X55122158Y-99155568D01*
X54982676Y-98818251D01*
X54780067Y-98514627D01*
X54522117Y-98256364D01*
X54218739Y-98053387D01*
X53881591Y-97913497D01*
X53879431Y-97912850D01*
X53594000Y-98042912D01*
X53086000Y-98042912D01*
X52800569Y-97912850D01*
X52798409Y-97913497D01*
X52461261Y-98053387D01*
X52157883Y-98256364D01*
X51899933Y-98514627D01*
X51697324Y-98818251D01*
X51557842Y-99155568D01*
X51312158Y-99155568D01*
X51172676Y-98818251D01*
X50970067Y-98514627D01*
X50712117Y-98256364D01*
X50408739Y-98053387D01*
X50071591Y-97913497D01*
X50069431Y-97912850D01*
X49784000Y-98042912D01*
X49276000Y-98042912D01*
X48990569Y-97912850D01*
X48988409Y-97913497D01*
X48651261Y-98053387D01*
X48347883Y-98256364D01*
X48089933Y-98514627D01*
X47887324Y-98818251D01*
X47747842Y-99155568D01*
X47244000Y-99155568D01*
X47244000Y-88435000D01*
X47409085Y-88435000D01*
X47409085Y-90635000D01*
X47428702Y-90834171D01*
X47486798Y-91025687D01*
X47581140Y-91202190D01*
X47708104Y-91356896D01*
X47862810Y-91483860D01*
X48039313Y-91578202D01*
X48230829Y-91636298D01*
X48430000Y-91655915D01*
X50630000Y-91655915D01*
X50829171Y-91636298D01*
X51020687Y-91578202D01*
X51197190Y-91483860D01*
X51351896Y-91356896D01*
X51435000Y-91255634D01*
X51518104Y-91356896D01*
X51672810Y-91483860D01*
X51849313Y-91578202D01*
X52040829Y-91636298D01*
X52240000Y-91655915D01*
X54440000Y-91655915D01*
X54639171Y-91636298D01*
X54830687Y-91578202D01*
X55007190Y-91483860D01*
X55161896Y-91356896D01*
X55288860Y-91202190D01*
X55383202Y-91025687D01*
X55441298Y-90834171D01*
X55460915Y-90635000D01*
X55460915Y-88435000D01*
X55441298Y-88235829D01*
X55383202Y-88044313D01*
X55288860Y-87867810D01*
X55275537Y-87851575D01*
X55374683Y-87612214D01*
X55456000Y-87203408D01*
X55456000Y-86786592D01*
X55374683Y-86377786D01*
X55215175Y-85992698D01*
X54983604Y-85646129D01*
X54688871Y-85351396D01*
X54342302Y-85119825D01*
X53957214Y-84960317D01*
X53548408Y-84879000D01*
X53131592Y-84879000D01*
X52722786Y-84960317D01*
X52337698Y-85119825D01*
X51991129Y-85351396D01*
X51696396Y-85646129D01*
X51464825Y-85992698D01*
X51435000Y-86064702D01*
X51405175Y-85992698D01*
X51173604Y-85646129D01*
X50878871Y-85351396D01*
X50532302Y-85119825D01*
X50147214Y-84960317D01*
X49738408Y-84879000D01*
X49321592Y-84879000D01*
X48912786Y-84960317D01*
X48527698Y-85119825D01*
X48181129Y-85351396D01*
X47886396Y-85646129D01*
X47654825Y-85992698D01*
X47495317Y-86377786D01*
X47414000Y-86786592D01*
X47414000Y-87203408D01*
X47495317Y-87612214D01*
X47594463Y-87851575D01*
X47581140Y-87867810D01*
X47486798Y-88044313D01*
X47428702Y-88235829D01*
X47409085Y-88435000D01*
X47244000Y-88435000D01*
X47244000Y-75735000D01*
X47409085Y-75735000D01*
X47409085Y-77935000D01*
X47428702Y-78134171D01*
X47486798Y-78325687D01*
X47581140Y-78502190D01*
X47708104Y-78656896D01*
X47862810Y-78783860D01*
X48039313Y-78878202D01*
X48230829Y-78936298D01*
X48430000Y-78955915D01*
X50630000Y-78955915D01*
X50829171Y-78936298D01*
X51020687Y-78878202D01*
X51197190Y-78783860D01*
X51351896Y-78656896D01*
X51435000Y-78555634D01*
X51518104Y-78656896D01*
X51672810Y-78783860D01*
X51849313Y-78878202D01*
X52040829Y-78936298D01*
X52240000Y-78955915D01*
X54440000Y-78955915D01*
X54639171Y-78936298D01*
X54830687Y-78878202D01*
X55007190Y-78783860D01*
X55161896Y-78656896D01*
X55288860Y-78502190D01*
X55383202Y-78325687D01*
X55441298Y-78134171D01*
X55460915Y-77935000D01*
X55460915Y-75735000D01*
X55441298Y-75535829D01*
X55383202Y-75344313D01*
X55288860Y-75167810D01*
X55161896Y-75013104D01*
X55007190Y-74886140D01*
X54830687Y-74791798D01*
X54639171Y-74733702D01*
X54440000Y-74714085D01*
X52240000Y-74714085D01*
X52040829Y-74733702D01*
X51849313Y-74791798D01*
X51672810Y-74886140D01*
X51518104Y-75013104D01*
X51435000Y-75114366D01*
X51351896Y-75013104D01*
X51197190Y-74886140D01*
X51020687Y-74791798D01*
X50829171Y-74733702D01*
X50630000Y-74714085D01*
X48430000Y-74714085D01*
X48230829Y-74733702D01*
X48039313Y-74791798D01*
X47862810Y-74886140D01*
X47708104Y-75013104D01*
X47581140Y-75167810D01*
X47486798Y-75344313D01*
X47428702Y-75535829D01*
X47409085Y-75735000D01*
X47244000Y-75735000D01*
X47244000Y-53796140D01*
X48984000Y-53796140D01*
X48984000Y-54153860D01*
X49053788Y-54504708D01*
X49190682Y-54835199D01*
X49389421Y-55132633D01*
X49642367Y-55385579D01*
X49939801Y-55584318D01*
X50270292Y-55721212D01*
X50621140Y-55791000D01*
X50978860Y-55791000D01*
X51329708Y-55721212D01*
X51660199Y-55584318D01*
X51957633Y-55385579D01*
X52210579Y-55132633D01*
X52223654Y-55113064D01*
X55021147Y-55113064D01*
X55095088Y-55377358D01*
X55382219Y-55487933D01*
X55685406Y-55540368D01*
X55992996Y-55532647D01*
X56293169Y-55465065D01*
X56504912Y-55377358D01*
X56578853Y-55113064D01*
X55800000Y-54334210D01*
X55021147Y-55113064D01*
X52223654Y-55113064D01*
X52409318Y-54835199D01*
X52546212Y-54504708D01*
X52616000Y-54153860D01*
X52616000Y-53860406D01*
X54234632Y-53860406D01*
X54242353Y-54167996D01*
X54309935Y-54468169D01*
X54397642Y-54679912D01*
X54661936Y-54753853D01*
X55440790Y-53975000D01*
X56159210Y-53975000D01*
X56938064Y-54753853D01*
X57202358Y-54679912D01*
X57312933Y-54392781D01*
X57365368Y-54089594D01*
X57357647Y-53782004D01*
X57290065Y-53481831D01*
X57202358Y-53270088D01*
X56938064Y-53196147D01*
X56159210Y-53975000D01*
X55440790Y-53975000D01*
X54661936Y-53196147D01*
X54397642Y-53270088D01*
X54287067Y-53557219D01*
X54234632Y-53860406D01*
X52616000Y-53860406D01*
X52616000Y-53796140D01*
X52546212Y-53445292D01*
X52409318Y-53114801D01*
X52223655Y-52836936D01*
X55021147Y-52836936D01*
X55800000Y-53615790D01*
X56578853Y-52836936D01*
X56504912Y-52572642D01*
X56217781Y-52462067D01*
X55914594Y-52409632D01*
X55607004Y-52417353D01*
X55306831Y-52484935D01*
X55095088Y-52572642D01*
X55021147Y-52836936D01*
X52223655Y-52836936D01*
X52210579Y-52817367D01*
X51957633Y-52564421D01*
X51660199Y-52365682D01*
X51329708Y-52228788D01*
X50978860Y-52159000D01*
X50621140Y-52159000D01*
X50270292Y-52228788D01*
X49939801Y-52365682D01*
X49642367Y-52564421D01*
X49389421Y-52817367D01*
X49190682Y-53114801D01*
X49053788Y-53445292D01*
X48984000Y-53796140D01*
X47244000Y-53796140D01*
X47244000Y-46176140D01*
X48984000Y-46176140D01*
X48984000Y-46533860D01*
X49053788Y-46884708D01*
X49190682Y-47215199D01*
X49389421Y-47512633D01*
X49642367Y-47765579D01*
X49939801Y-47964318D01*
X50270292Y-48101212D01*
X50621140Y-48171000D01*
X50978860Y-48171000D01*
X51329708Y-48101212D01*
X51660199Y-47964318D01*
X51957633Y-47765579D01*
X52210579Y-47512633D01*
X52223654Y-47493064D01*
X55021147Y-47493064D01*
X55095088Y-47757358D01*
X55382219Y-47867933D01*
X55685406Y-47920368D01*
X55992996Y-47912647D01*
X56293169Y-47845065D01*
X56504912Y-47757358D01*
X56578853Y-47493064D01*
X55800000Y-46714210D01*
X55021147Y-47493064D01*
X52223654Y-47493064D01*
X52409318Y-47215199D01*
X52546212Y-46884708D01*
X52616000Y-46533860D01*
X52616000Y-46240406D01*
X54234632Y-46240406D01*
X54242353Y-46547996D01*
X54309935Y-46848169D01*
X54397642Y-47059912D01*
X54661936Y-47133853D01*
X55440790Y-46355000D01*
X56159210Y-46355000D01*
X56938064Y-47133853D01*
X57202358Y-47059912D01*
X57312933Y-46772781D01*
X57365368Y-46469594D01*
X57357647Y-46162004D01*
X57290065Y-45861831D01*
X57202358Y-45650088D01*
X56980661Y-45588064D01*
X76771147Y-45588064D01*
X76845088Y-45852358D01*
X77132219Y-45962933D01*
X77435406Y-46015368D01*
X77742996Y-46007647D01*
X78043169Y-45940065D01*
X78254912Y-45852358D01*
X78328853Y-45588064D01*
X77550000Y-44809210D01*
X76771147Y-45588064D01*
X56980661Y-45588064D01*
X56938064Y-45576147D01*
X56159210Y-46355000D01*
X55440790Y-46355000D01*
X54661936Y-45576147D01*
X54397642Y-45650088D01*
X54287067Y-45937219D01*
X54234632Y-46240406D01*
X52616000Y-46240406D01*
X52616000Y-46176140D01*
X52546212Y-45825292D01*
X52409318Y-45494801D01*
X52223655Y-45216936D01*
X55021147Y-45216936D01*
X55800000Y-45995790D01*
X56578853Y-45216936D01*
X56504912Y-44952642D01*
X56217781Y-44842067D01*
X55914594Y-44789632D01*
X55607004Y-44797353D01*
X55306831Y-44864935D01*
X55095088Y-44952642D01*
X55021147Y-45216936D01*
X52223655Y-45216936D01*
X52210579Y-45197367D01*
X51957633Y-44944421D01*
X51660199Y-44745682D01*
X51329708Y-44608788D01*
X50978860Y-44539000D01*
X50621140Y-44539000D01*
X50270292Y-44608788D01*
X49939801Y-44745682D01*
X49642367Y-44944421D01*
X49389421Y-45197367D01*
X49190682Y-45494801D01*
X49053788Y-45825292D01*
X48984000Y-46176140D01*
X47244000Y-46176140D01*
X47244000Y-44335406D01*
X75984632Y-44335406D01*
X75992353Y-44642996D01*
X76059935Y-44943169D01*
X76147642Y-45154912D01*
X76411936Y-45228853D01*
X77190790Y-44450000D01*
X77909210Y-44450000D01*
X78688064Y-45228853D01*
X78952358Y-45154912D01*
X79062933Y-44867781D01*
X79115368Y-44564594D01*
X79107647Y-44257004D01*
X79040065Y-43956831D01*
X78952358Y-43745088D01*
X78688064Y-43671147D01*
X77909210Y-44450000D01*
X77190790Y-44450000D01*
X76411936Y-43671147D01*
X76147642Y-43745088D01*
X76037067Y-44032219D01*
X75984632Y-44335406D01*
X47244000Y-44335406D01*
X47244000Y-39524940D01*
X47394025Y-39524940D01*
X47394025Y-43025060D01*
X47413642Y-43224231D01*
X47471738Y-43415747D01*
X47566080Y-43592250D01*
X47693044Y-43746956D01*
X47847750Y-43873920D01*
X48024253Y-43968262D01*
X48215769Y-44026358D01*
X48414940Y-44045975D01*
X51915060Y-44045975D01*
X52114231Y-44026358D01*
X52305747Y-43968262D01*
X52482250Y-43873920D01*
X52636956Y-43746956D01*
X52763920Y-43592250D01*
X52858262Y-43415747D01*
X52916358Y-43224231D01*
X52929087Y-43094987D01*
X53784223Y-43094987D01*
X53974325Y-43456065D01*
X54424245Y-43662053D01*
X54905706Y-43776308D01*
X55400206Y-43794439D01*
X55888742Y-43715749D01*
X56352539Y-43543263D01*
X56515675Y-43456065D01*
X56591556Y-43311936D01*
X76771147Y-43311936D01*
X77550000Y-44090790D01*
X78328853Y-43311936D01*
X78254912Y-43047642D01*
X77967781Y-42937067D01*
X77664594Y-42884632D01*
X77357004Y-42892353D01*
X77056831Y-42959935D01*
X76845088Y-43047642D01*
X76771147Y-43311936D01*
X56591556Y-43311936D01*
X56705777Y-43094987D01*
X55245000Y-41634210D01*
X53784223Y-43094987D01*
X52929087Y-43094987D01*
X52935975Y-43025060D01*
X52935975Y-42272934D01*
X52976737Y-42382539D01*
X53063935Y-42545675D01*
X53425013Y-42735777D01*
X54885790Y-41275000D01*
X55604210Y-41275000D01*
X57064987Y-42735777D01*
X57426065Y-42545675D01*
X57632053Y-42095755D01*
X57746308Y-41614294D01*
X57764439Y-41119794D01*
X57685749Y-40631258D01*
X57513263Y-40167461D01*
X57426065Y-40004325D01*
X57064987Y-39814223D01*
X55604210Y-41275000D01*
X54885790Y-41275000D01*
X53425013Y-39814223D01*
X53063935Y-40004325D01*
X52935975Y-40283816D01*
X52935975Y-39524940D01*
X52929088Y-39455013D01*
X53784223Y-39455013D01*
X55245000Y-40915790D01*
X56705777Y-39455013D01*
X56515675Y-39093935D01*
X56065755Y-38887947D01*
X55584294Y-38773692D01*
X55089794Y-38755561D01*
X54601258Y-38834251D01*
X54137461Y-39006737D01*
X53974325Y-39093935D01*
X53784223Y-39455013D01*
X52929088Y-39455013D01*
X52916358Y-39325769D01*
X52858262Y-39134253D01*
X52763920Y-38957750D01*
X52636956Y-38803044D01*
X52482250Y-38676080D01*
X52305747Y-38581738D01*
X52114231Y-38523642D01*
X51915060Y-38504025D01*
X48414940Y-38504025D01*
X48215769Y-38523642D01*
X48024253Y-38581738D01*
X47847750Y-38676080D01*
X47693044Y-38803044D01*
X47566080Y-38957750D01*
X47471738Y-39134253D01*
X47413642Y-39325769D01*
X47394025Y-39524940D01*
X47244000Y-39524940D01*
X47244000Y-37921140D01*
X62954000Y-37921140D01*
X62954000Y-38278860D01*
X63023788Y-38629708D01*
X63160682Y-38960199D01*
X63359421Y-39257633D01*
X63612367Y-39510579D01*
X63909801Y-39709318D01*
X64240292Y-39846212D01*
X64591140Y-39916000D01*
X64948860Y-39916000D01*
X65299708Y-39846212D01*
X65630199Y-39709318D01*
X65927633Y-39510579D01*
X66180579Y-39257633D01*
X66193654Y-39238064D01*
X68991147Y-39238064D01*
X69065088Y-39502358D01*
X69352219Y-39612933D01*
X69655406Y-39665368D01*
X69962996Y-39657647D01*
X70263169Y-39590065D01*
X70474912Y-39502358D01*
X70548853Y-39238064D01*
X69770000Y-38459210D01*
X68991147Y-39238064D01*
X66193654Y-39238064D01*
X66379318Y-38960199D01*
X66516212Y-38629708D01*
X66586000Y-38278860D01*
X66586000Y-37985406D01*
X68204632Y-37985406D01*
X68212353Y-38292996D01*
X68279935Y-38593169D01*
X68367642Y-38804912D01*
X68631936Y-38878853D01*
X69410790Y-38100000D01*
X70129210Y-38100000D01*
X70908064Y-38878853D01*
X71172358Y-38804912D01*
X71282933Y-38517781D01*
X71335368Y-38214594D01*
X71327647Y-37907004D01*
X71260065Y-37606831D01*
X71172358Y-37395088D01*
X70908064Y-37321147D01*
X70129210Y-38100000D01*
X69410790Y-38100000D01*
X68631936Y-37321147D01*
X68367642Y-37395088D01*
X68257067Y-37682219D01*
X68204632Y-37985406D01*
X66586000Y-37985406D01*
X66586000Y-37921140D01*
X66516212Y-37570292D01*
X66379318Y-37239801D01*
X66193655Y-36961936D01*
X68991147Y-36961936D01*
X69770000Y-37740790D01*
X70548853Y-36961936D01*
X70474912Y-36697642D01*
X70187781Y-36587067D01*
X69884594Y-36534632D01*
X69577004Y-36542353D01*
X69276831Y-36609935D01*
X69065088Y-36697642D01*
X68991147Y-36961936D01*
X66193655Y-36961936D01*
X66180579Y-36942367D01*
X65927633Y-36689421D01*
X65630199Y-36490682D01*
X65299708Y-36353788D01*
X64948860Y-36284000D01*
X64591140Y-36284000D01*
X64240292Y-36353788D01*
X63909801Y-36490682D01*
X63612367Y-36689421D01*
X63359421Y-36942367D01*
X63160682Y-37239801D01*
X63023788Y-37570292D01*
X62954000Y-37921140D01*
X47244000Y-37921140D01*
X47244000Y-36744987D01*
X53784223Y-36744987D01*
X53974325Y-37106065D01*
X54424245Y-37312053D01*
X54905706Y-37426308D01*
X55400206Y-37444439D01*
X55888742Y-37365749D01*
X56352539Y-37193263D01*
X56515675Y-37106065D01*
X56705777Y-36744987D01*
X55245000Y-35284210D01*
X53784223Y-36744987D01*
X47244000Y-36744987D01*
X47244000Y-34781973D01*
X48047490Y-34781973D01*
X48171955Y-35061743D01*
X48348609Y-35311856D01*
X48570663Y-35522699D01*
X48829584Y-35686170D01*
X49038029Y-35772501D01*
X49276000Y-35637775D01*
X49276000Y-34544000D01*
X49784000Y-34544000D01*
X49784000Y-35637775D01*
X50021971Y-35772501D01*
X50230416Y-35686170D01*
X50489337Y-35522699D01*
X50711391Y-35311856D01*
X50875004Y-35080206D01*
X52725561Y-35080206D01*
X52804251Y-35568742D01*
X52976737Y-36032539D01*
X53063935Y-36195675D01*
X53425013Y-36385777D01*
X54885790Y-34925000D01*
X55604210Y-34925000D01*
X57064987Y-36385777D01*
X57426065Y-36195675D01*
X57554025Y-35916184D01*
X57554025Y-36675060D01*
X57573642Y-36874231D01*
X57631738Y-37065747D01*
X57726080Y-37242250D01*
X57853044Y-37396956D01*
X58007750Y-37523920D01*
X58184253Y-37618262D01*
X58375769Y-37676358D01*
X58574940Y-37695975D01*
X62075060Y-37695975D01*
X62274231Y-37676358D01*
X62465747Y-37618262D01*
X62642250Y-37523920D01*
X62796956Y-37396956D01*
X62923920Y-37242250D01*
X63018262Y-37065747D01*
X63076358Y-36874231D01*
X63095975Y-36675060D01*
X63095975Y-33174940D01*
X63076358Y-32975769D01*
X63018262Y-32784253D01*
X62923920Y-32607750D01*
X62796956Y-32453044D01*
X62642250Y-32326080D01*
X62465747Y-32231738D01*
X62274231Y-32173642D01*
X62075060Y-32154025D01*
X58574940Y-32154025D01*
X58375769Y-32173642D01*
X58184253Y-32231738D01*
X58007750Y-32326080D01*
X57853044Y-32453044D01*
X57726080Y-32607750D01*
X57631738Y-32784253D01*
X57573642Y-32975769D01*
X57554025Y-33174940D01*
X57554025Y-33927066D01*
X57513263Y-33817461D01*
X57426065Y-33654325D01*
X57064987Y-33464223D01*
X55604210Y-34925000D01*
X54885790Y-34925000D01*
X53425013Y-33464223D01*
X53063935Y-33654325D01*
X52857947Y-34104245D01*
X52743692Y-34585706D01*
X52725561Y-35080206D01*
X50875004Y-35080206D01*
X50888045Y-35061743D01*
X51012510Y-34781973D01*
X50880719Y-34544000D01*
X49784000Y-34544000D01*
X49276000Y-34544000D01*
X48179281Y-34544000D01*
X48047490Y-34781973D01*
X47244000Y-34781973D01*
X47244000Y-33798027D01*
X48047490Y-33798027D01*
X48179281Y-34036000D01*
X49276000Y-34036000D01*
X49276000Y-32942225D01*
X49784000Y-32942225D01*
X49784000Y-34036000D01*
X50880719Y-34036000D01*
X51012510Y-33798027D01*
X50888045Y-33518257D01*
X50711391Y-33268144D01*
X50539586Y-33105013D01*
X53784223Y-33105013D01*
X55245000Y-34565790D01*
X56705777Y-33105013D01*
X56515675Y-32743935D01*
X56065755Y-32537947D01*
X55584294Y-32423692D01*
X55089794Y-32405561D01*
X54601258Y-32484251D01*
X54137461Y-32656737D01*
X53974325Y-32743935D01*
X53784223Y-33105013D01*
X50539586Y-33105013D01*
X50489337Y-33057301D01*
X50230416Y-32893830D01*
X50021971Y-32807499D01*
X49784000Y-32942225D01*
X49276000Y-32942225D01*
X49038029Y-32807499D01*
X48829584Y-32893830D01*
X48570663Y-33057301D01*
X48348609Y-33268144D01*
X48171955Y-33518257D01*
X48047490Y-33798027D01*
X47244000Y-33798027D01*
X47244000Y-27116290D01*
X59044000Y-27116290D01*
X59044000Y-27493710D01*
X59117631Y-27863877D01*
X59262063Y-28212566D01*
X59471745Y-28526379D01*
X59738621Y-28793255D01*
X60052434Y-29002937D01*
X60401123Y-29147369D01*
X60771290Y-29221000D01*
X61148710Y-29221000D01*
X61518877Y-29147369D01*
X61867566Y-29002937D01*
X61924448Y-28964930D01*
X62032810Y-29053860D01*
X62209313Y-29148202D01*
X62400829Y-29206298D01*
X62600000Y-29225915D01*
X64400000Y-29225915D01*
X64599171Y-29206298D01*
X64790687Y-29148202D01*
X64967190Y-29053860D01*
X65121896Y-28926896D01*
X65248860Y-28772190D01*
X65343202Y-28595687D01*
X65401298Y-28404171D01*
X65420915Y-28205000D01*
X65420915Y-26405000D01*
X65401298Y-26205829D01*
X65343202Y-26014313D01*
X65248860Y-25837810D01*
X65121896Y-25683104D01*
X64967190Y-25556140D01*
X64790687Y-25461798D01*
X64599171Y-25403702D01*
X64400000Y-25384085D01*
X62600000Y-25384085D01*
X62400829Y-25403702D01*
X62209313Y-25461798D01*
X62032810Y-25556140D01*
X61924448Y-25645070D01*
X61867566Y-25607063D01*
X61518877Y-25462631D01*
X61148710Y-25389000D01*
X60771290Y-25389000D01*
X60401123Y-25462631D01*
X60052434Y-25607063D01*
X59738621Y-25816745D01*
X59471745Y-26083621D01*
X59262063Y-26397434D01*
X59117631Y-26746123D01*
X59044000Y-27116290D01*
X47244000Y-27116290D01*
X47244000Y-23951140D01*
X47714000Y-23951140D01*
X47714000Y-24308860D01*
X47783788Y-24659708D01*
X47920682Y-24990199D01*
X48119421Y-25287633D01*
X48372367Y-25540579D01*
X48669801Y-25739318D01*
X49000292Y-25876212D01*
X49351140Y-25946000D01*
X49708860Y-25946000D01*
X50059708Y-25876212D01*
X50390199Y-25739318D01*
X50687633Y-25540579D01*
X50940579Y-25287633D01*
X51139318Y-24990199D01*
X51276212Y-24659708D01*
X51346000Y-24308860D01*
X51346000Y-23951140D01*
X51276212Y-23600292D01*
X51139318Y-23269801D01*
X50940579Y-22972367D01*
X50696276Y-22728064D01*
X65896147Y-22728064D01*
X65970088Y-22992358D01*
X66257219Y-23102933D01*
X66560406Y-23155368D01*
X66867996Y-23147647D01*
X67168169Y-23080065D01*
X67379912Y-22992358D01*
X67453853Y-22728064D01*
X66675000Y-21949210D01*
X65896147Y-22728064D01*
X50696276Y-22728064D01*
X50687633Y-22719421D01*
X50390199Y-22520682D01*
X50059708Y-22383788D01*
X49708860Y-22314000D01*
X49351140Y-22314000D01*
X49000292Y-22383788D01*
X48669801Y-22520682D01*
X48372367Y-22719421D01*
X48119421Y-22972367D01*
X47920682Y-23269801D01*
X47783788Y-23600292D01*
X47714000Y-23951140D01*
X47244000Y-23951140D01*
X47244000Y-18785000D01*
X48244085Y-18785000D01*
X48244085Y-20585000D01*
X48263702Y-20784171D01*
X48321798Y-20975687D01*
X48416140Y-21152190D01*
X48543104Y-21306896D01*
X48697810Y-21433860D01*
X48874313Y-21528202D01*
X49065829Y-21586298D01*
X49265000Y-21605915D01*
X51065000Y-21605915D01*
X51264171Y-21586298D01*
X51455687Y-21528202D01*
X51632190Y-21433860D01*
X51740552Y-21344930D01*
X51797434Y-21382937D01*
X52146123Y-21527369D01*
X52516290Y-21601000D01*
X52893710Y-21601000D01*
X53263877Y-21527369D01*
X53389326Y-21475406D01*
X65109632Y-21475406D01*
X65117353Y-21782996D01*
X65184935Y-22083169D01*
X65272642Y-22294912D01*
X65536936Y-22368853D01*
X66315790Y-21590000D01*
X65536936Y-20811147D01*
X65272642Y-20885088D01*
X65162067Y-21172219D01*
X65109632Y-21475406D01*
X53389326Y-21475406D01*
X53612566Y-21382937D01*
X53926379Y-21173255D01*
X54193255Y-20906379D01*
X54402937Y-20592566D01*
X54547369Y-20243877D01*
X54553350Y-20213810D01*
X54620088Y-20452358D01*
X54907219Y-20562933D01*
X55210406Y-20615368D01*
X55517996Y-20607647D01*
X55818169Y-20540065D01*
X56029912Y-20452358D01*
X56103853Y-20188064D01*
X55325000Y-19409210D01*
X55310858Y-19423353D01*
X54951648Y-19064143D01*
X54965790Y-19050000D01*
X55684210Y-19050000D01*
X56463064Y-19828853D01*
X56727358Y-19754912D01*
X56837933Y-19467781D01*
X56890368Y-19164594D01*
X56883002Y-18871140D01*
X58509000Y-18871140D01*
X58509000Y-19228860D01*
X58578788Y-19579708D01*
X58715682Y-19910199D01*
X58914421Y-20207633D01*
X59167367Y-20460579D01*
X59464801Y-20659318D01*
X59795292Y-20796212D01*
X60146140Y-20866000D01*
X60503860Y-20866000D01*
X60854708Y-20796212D01*
X61185199Y-20659318D01*
X61482633Y-20460579D01*
X61623212Y-20320000D01*
X65933058Y-20320000D01*
X65896147Y-20451936D01*
X66675000Y-21230790D01*
X66689142Y-21216647D01*
X67048353Y-21575858D01*
X67034210Y-21590000D01*
X67813064Y-22368853D01*
X67945000Y-22331941D01*
X67945001Y-30451789D01*
X67832633Y-30339421D01*
X67535199Y-30140682D01*
X67204708Y-30003788D01*
X66853860Y-29934000D01*
X66496140Y-29934000D01*
X66145292Y-30003788D01*
X65814801Y-30140682D01*
X65517367Y-30339421D01*
X65264421Y-30592367D01*
X65065682Y-30889801D01*
X64928788Y-31220292D01*
X64859000Y-31571140D01*
X64859000Y-31928860D01*
X64928788Y-32279708D01*
X65065682Y-32610199D01*
X65264421Y-32907633D01*
X65517367Y-33160579D01*
X65814801Y-33359318D01*
X66145292Y-33496212D01*
X66496140Y-33566000D01*
X66853860Y-33566000D01*
X67204708Y-33496212D01*
X67535199Y-33359318D01*
X67832633Y-33160579D01*
X68085579Y-32907633D01*
X68094046Y-32894961D01*
X68153926Y-33006988D01*
X68312631Y-33200370D01*
X68361087Y-33240137D01*
X75344863Y-40223914D01*
X75384630Y-40272370D01*
X75578012Y-40431075D01*
X75798641Y-40549003D01*
X75934374Y-40590177D01*
X75946140Y-40612190D01*
X76073104Y-40766896D01*
X76227810Y-40893860D01*
X76404313Y-40988202D01*
X76595829Y-41046298D01*
X76795000Y-41065915D01*
X78145000Y-41065915D01*
X78344171Y-41046298D01*
X78535687Y-40988202D01*
X78712190Y-40893860D01*
X78718206Y-40888922D01*
X78976754Y-40996016D01*
X79303451Y-41061000D01*
X79636549Y-41061000D01*
X79963246Y-40996016D01*
X80270989Y-40868545D01*
X80470000Y-40735570D01*
X80669011Y-40868545D01*
X80976754Y-40996016D01*
X81303451Y-41061000D01*
X81636549Y-41061000D01*
X81963246Y-40996016D01*
X82270989Y-40868545D01*
X82470000Y-40735570D01*
X82669011Y-40868545D01*
X82976754Y-40996016D01*
X83303451Y-41061000D01*
X83636549Y-41061000D01*
X83963246Y-40996016D01*
X84270989Y-40868545D01*
X84470000Y-40735570D01*
X84669011Y-40868545D01*
X84976754Y-40996016D01*
X85303451Y-41061000D01*
X85636549Y-41061000D01*
X85963246Y-40996016D01*
X86270989Y-40868545D01*
X86470000Y-40735570D01*
X86669011Y-40868545D01*
X86976754Y-40996016D01*
X87303451Y-41061000D01*
X87636549Y-41061000D01*
X87963246Y-40996016D01*
X88270989Y-40868545D01*
X88470000Y-40735570D01*
X88669011Y-40868545D01*
X88976754Y-40996016D01*
X89303451Y-41061000D01*
X89636549Y-41061000D01*
X89963246Y-40996016D01*
X90270989Y-40868545D01*
X90470000Y-40735570D01*
X90669011Y-40868545D01*
X90976754Y-40996016D01*
X91303451Y-41061000D01*
X91636549Y-41061000D01*
X91963246Y-40996016D01*
X92270989Y-40868545D01*
X92470000Y-40735570D01*
X92669011Y-40868545D01*
X92976754Y-40996016D01*
X93303451Y-41061000D01*
X93636549Y-41061000D01*
X93963246Y-40996016D01*
X94270989Y-40868545D01*
X94547950Y-40683485D01*
X94672702Y-40558733D01*
X94844136Y-40663558D01*
X94997870Y-40727226D01*
X95216000Y-40590347D01*
X95216000Y-39624000D01*
X95724000Y-39624000D01*
X95724000Y-40590347D01*
X95942130Y-40727226D01*
X96095864Y-40663558D01*
X96336199Y-40516603D01*
X96543246Y-40325584D01*
X96709049Y-40097843D01*
X96827236Y-39842131D01*
X96693884Y-39624000D01*
X95724000Y-39624000D01*
X95216000Y-39624000D01*
X95196000Y-39624000D01*
X95196000Y-39116000D01*
X95216000Y-39116000D01*
X95216000Y-38149653D01*
X95724000Y-38149653D01*
X95724000Y-39116000D01*
X96693884Y-39116000D01*
X96827236Y-38897869D01*
X96709049Y-38642157D01*
X96543246Y-38414416D01*
X96336199Y-38223397D01*
X96095864Y-38076442D01*
X95942130Y-38012774D01*
X95724000Y-38149653D01*
X95216000Y-38149653D01*
X94997870Y-38012774D01*
X94844136Y-38076442D01*
X94672702Y-38181267D01*
X94547950Y-38056515D01*
X94270989Y-37871455D01*
X93963246Y-37743984D01*
X93636549Y-37679000D01*
X93303451Y-37679000D01*
X92976754Y-37743984D01*
X92669011Y-37871455D01*
X92470000Y-38004430D01*
X92270989Y-37871455D01*
X91963246Y-37743984D01*
X91636549Y-37679000D01*
X91303451Y-37679000D01*
X90976754Y-37743984D01*
X90669011Y-37871455D01*
X90470000Y-38004430D01*
X90270989Y-37871455D01*
X89963246Y-37743984D01*
X89636549Y-37679000D01*
X89303451Y-37679000D01*
X88976754Y-37743984D01*
X88669011Y-37871455D01*
X88470000Y-38004430D01*
X88270989Y-37871455D01*
X87963246Y-37743984D01*
X87636549Y-37679000D01*
X87303451Y-37679000D01*
X86976754Y-37743984D01*
X86669011Y-37871455D01*
X86470000Y-38004430D01*
X86270989Y-37871455D01*
X85963246Y-37743984D01*
X85636549Y-37679000D01*
X85303451Y-37679000D01*
X84976754Y-37743984D01*
X84669011Y-37871455D01*
X84470000Y-38004430D01*
X84270989Y-37871455D01*
X83963246Y-37743984D01*
X83636549Y-37679000D01*
X83303451Y-37679000D01*
X82976754Y-37743984D01*
X82740000Y-37842050D01*
X82740000Y-34542372D01*
X82746143Y-34479999D01*
X82740000Y-34417626D01*
X82740000Y-34417620D01*
X82721623Y-34231037D01*
X82649003Y-33991641D01*
X82531075Y-33771012D01*
X82372370Y-33577630D01*
X82323915Y-33537864D01*
X75237141Y-26451091D01*
X75197370Y-26402630D01*
X75003988Y-26243925D01*
X74783359Y-26125997D01*
X74543963Y-26053377D01*
X74357380Y-26035000D01*
X74357373Y-26035000D01*
X74295000Y-26028857D01*
X74232627Y-26035000D01*
X73256037Y-26035000D01*
X73151896Y-25908104D01*
X72997190Y-25781140D01*
X72820687Y-25686798D01*
X72629171Y-25628702D01*
X72430000Y-25609085D01*
X71080000Y-25609085D01*
X70880829Y-25628702D01*
X70689313Y-25686798D01*
X70512810Y-25781140D01*
X70485000Y-25803963D01*
X70485000Y-20382372D01*
X70491143Y-20319999D01*
X70485000Y-20257626D01*
X70485000Y-20257620D01*
X70466623Y-20071037D01*
X70394003Y-19831641D01*
X70276075Y-19611012D01*
X70117370Y-19417630D01*
X70068915Y-19377864D01*
X68887141Y-18196091D01*
X68847370Y-18147630D01*
X68653988Y-17988925D01*
X68433359Y-17870997D01*
X68193963Y-17798377D01*
X68007380Y-17780000D01*
X68007373Y-17780000D01*
X67945000Y-17773857D01*
X67882627Y-17780000D01*
X61623212Y-17780000D01*
X61482633Y-17639421D01*
X61185199Y-17440682D01*
X60854708Y-17303788D01*
X60503860Y-17234000D01*
X60146140Y-17234000D01*
X59795292Y-17303788D01*
X59464801Y-17440682D01*
X59167367Y-17639421D01*
X58914421Y-17892367D01*
X58715682Y-18189801D01*
X58578788Y-18520292D01*
X58509000Y-18871140D01*
X56883002Y-18871140D01*
X56882647Y-18857004D01*
X56815065Y-18556831D01*
X56727358Y-18345088D01*
X56463064Y-18271147D01*
X55684210Y-19050000D01*
X54965790Y-19050000D01*
X54186936Y-18271147D01*
X54041476Y-18311842D01*
X53926379Y-18196745D01*
X53612566Y-17987063D01*
X53431194Y-17911936D01*
X54546147Y-17911936D01*
X55325000Y-18690790D01*
X56103853Y-17911936D01*
X56029912Y-17647642D01*
X55742781Y-17537067D01*
X55439594Y-17484632D01*
X55132004Y-17492353D01*
X54831831Y-17559935D01*
X54620088Y-17647642D01*
X54546147Y-17911936D01*
X53431194Y-17911936D01*
X53263877Y-17842631D01*
X52893710Y-17769000D01*
X52516290Y-17769000D01*
X52146123Y-17842631D01*
X51797434Y-17987063D01*
X51740552Y-18025070D01*
X51632190Y-17936140D01*
X51455687Y-17841798D01*
X51264171Y-17783702D01*
X51065000Y-17764085D01*
X49265000Y-17764085D01*
X49065829Y-17783702D01*
X48874313Y-17841798D01*
X48697810Y-17936140D01*
X48543104Y-18063104D01*
X48416140Y-18217810D01*
X48321798Y-18394313D01*
X48263702Y-18585829D01*
X48244085Y-18785000D01*
X47244000Y-18785000D01*
X47244000Y-16470000D01*
X75774085Y-16470000D01*
X75774085Y-17820000D01*
X75793702Y-18019171D01*
X75851798Y-18210687D01*
X75946140Y-18387190D01*
X76073104Y-18541896D01*
X76227810Y-18668860D01*
X76404313Y-18763202D01*
X76595829Y-18821298D01*
X76795000Y-18840915D01*
X78145000Y-18840915D01*
X78344171Y-18821298D01*
X78535687Y-18763202D01*
X78712190Y-18668860D01*
X78718206Y-18663922D01*
X78976754Y-18771016D01*
X79303451Y-18836000D01*
X79636549Y-18836000D01*
X79963246Y-18771016D01*
X80270989Y-18643545D01*
X80470000Y-18510570D01*
X80669011Y-18643545D01*
X80976754Y-18771016D01*
X81303451Y-18836000D01*
X81636549Y-18836000D01*
X81963246Y-18771016D01*
X82270989Y-18643545D01*
X82470000Y-18510570D01*
X82669011Y-18643545D01*
X82976754Y-18771016D01*
X83303451Y-18836000D01*
X83636549Y-18836000D01*
X83963246Y-18771016D01*
X84270989Y-18643545D01*
X84470000Y-18510570D01*
X84669011Y-18643545D01*
X84976754Y-18771016D01*
X85303451Y-18836000D01*
X85636549Y-18836000D01*
X85963246Y-18771016D01*
X86270989Y-18643545D01*
X86470000Y-18510570D01*
X86669011Y-18643545D01*
X86976754Y-18771016D01*
X87303451Y-18836000D01*
X87636549Y-18836000D01*
X87963246Y-18771016D01*
X88270989Y-18643545D01*
X88470000Y-18510570D01*
X88669011Y-18643545D01*
X88976754Y-18771016D01*
X89303451Y-18836000D01*
X89636549Y-18836000D01*
X89963246Y-18771016D01*
X90270989Y-18643545D01*
X90470000Y-18510570D01*
X90669011Y-18643545D01*
X90976754Y-18771016D01*
X91303451Y-18836000D01*
X91636549Y-18836000D01*
X91963246Y-18771016D01*
X92270989Y-18643545D01*
X92470000Y-18510570D01*
X92669011Y-18643545D01*
X92976754Y-18771016D01*
X93303451Y-18836000D01*
X93636549Y-18836000D01*
X93963246Y-18771016D01*
X94270989Y-18643545D01*
X94470000Y-18510570D01*
X94669011Y-18643545D01*
X94976754Y-18771016D01*
X95303451Y-18836000D01*
X95636549Y-18836000D01*
X95963246Y-18771016D01*
X96270989Y-18643545D01*
X96547950Y-18458485D01*
X96783485Y-18222950D01*
X96968545Y-17945989D01*
X97096016Y-17638246D01*
X97161000Y-17311549D01*
X97161000Y-16978451D01*
X97096016Y-16651754D01*
X96968545Y-16344011D01*
X96783485Y-16067050D01*
X96547950Y-15831515D01*
X96270989Y-15646455D01*
X95963246Y-15518984D01*
X95636549Y-15454000D01*
X95303451Y-15454000D01*
X94976754Y-15518984D01*
X94669011Y-15646455D01*
X94470000Y-15779430D01*
X94270989Y-15646455D01*
X93963246Y-15518984D01*
X93636549Y-15454000D01*
X93303451Y-15454000D01*
X92976754Y-15518984D01*
X92669011Y-15646455D01*
X92470000Y-15779430D01*
X92270989Y-15646455D01*
X91963246Y-15518984D01*
X91636549Y-15454000D01*
X91303451Y-15454000D01*
X90976754Y-15518984D01*
X90669011Y-15646455D01*
X90470000Y-15779430D01*
X90270989Y-15646455D01*
X89963246Y-15518984D01*
X89636549Y-15454000D01*
X89303451Y-15454000D01*
X88976754Y-15518984D01*
X88669011Y-15646455D01*
X88470000Y-15779430D01*
X88270989Y-15646455D01*
X87963246Y-15518984D01*
X87636549Y-15454000D01*
X87303451Y-15454000D01*
X86976754Y-15518984D01*
X86669011Y-15646455D01*
X86470000Y-15779430D01*
X86270989Y-15646455D01*
X85963246Y-15518984D01*
X85636549Y-15454000D01*
X85303451Y-15454000D01*
X84976754Y-15518984D01*
X84669011Y-15646455D01*
X84470000Y-15779430D01*
X84270989Y-15646455D01*
X83963246Y-15518984D01*
X83636549Y-15454000D01*
X83303451Y-15454000D01*
X82976754Y-15518984D01*
X82669011Y-15646455D01*
X82470000Y-15779430D01*
X82270989Y-15646455D01*
X81963246Y-15518984D01*
X81636549Y-15454000D01*
X81303451Y-15454000D01*
X80976754Y-15518984D01*
X80669011Y-15646455D01*
X80470000Y-15779430D01*
X80270989Y-15646455D01*
X79963246Y-15518984D01*
X79636549Y-15454000D01*
X79303451Y-15454000D01*
X78976754Y-15518984D01*
X78718206Y-15626078D01*
X78712190Y-15621140D01*
X78535687Y-15526798D01*
X78344171Y-15468702D01*
X78145000Y-15449085D01*
X76795000Y-15449085D01*
X76595829Y-15468702D01*
X76404313Y-15526798D01*
X76227810Y-15621140D01*
X76073104Y-15748104D01*
X75946140Y-15902810D01*
X75851798Y-16079313D01*
X75793702Y-16270829D01*
X75774085Y-16470000D01*
X47244000Y-16470000D01*
X47244000Y-14859000D01*
X102616000Y-14859000D01*
X102616000Y-46861088D01*
G37*
X102616000Y-46861088D02*
X102502370Y-46722630D01*
X102453914Y-46682863D01*
X100876000Y-45104950D01*
X100876000Y-44906140D01*
X100806212Y-44555292D01*
X100669318Y-44224801D01*
X100470579Y-43927367D01*
X100217633Y-43674421D01*
X99920199Y-43475682D01*
X99589708Y-43338788D01*
X99238860Y-43269000D01*
X98881140Y-43269000D01*
X98530292Y-43338788D01*
X98199801Y-43475682D01*
X97902367Y-43674421D01*
X97649421Y-43927367D01*
X97450682Y-44224801D01*
X97313788Y-44555292D01*
X97244000Y-44906140D01*
X97244000Y-45263860D01*
X97313788Y-45614708D01*
X97450682Y-45945199D01*
X97649421Y-46242633D01*
X97902367Y-46495579D01*
X98199801Y-46694318D01*
X98530292Y-46831212D01*
X98881140Y-46901000D01*
X99079950Y-46901000D01*
X100330001Y-48151052D01*
X100330001Y-53946789D01*
X100217633Y-53834421D01*
X99920199Y-53635682D01*
X99589708Y-53498788D01*
X99238860Y-53429000D01*
X98881140Y-53429000D01*
X98530292Y-53498788D01*
X98199801Y-53635682D01*
X97902367Y-53834421D01*
X97649421Y-54087367D01*
X97450682Y-54384801D01*
X97313788Y-54715292D01*
X97244000Y-55066140D01*
X97244000Y-55423860D01*
X97313788Y-55774708D01*
X97450682Y-56105199D01*
X97649421Y-56402633D01*
X97790000Y-56543212D01*
X97790001Y-61164191D01*
X97726721Y-61198015D01*
X97720927Y-61178916D01*
X97699003Y-61106641D01*
X97581075Y-60886012D01*
X97422370Y-60692630D01*
X97373915Y-60652864D01*
X95675915Y-58954865D01*
X95675915Y-58380000D01*
X95656298Y-58180829D01*
X95598202Y-57989313D01*
X95503860Y-57812810D01*
X95376896Y-57658104D01*
X95222190Y-57531140D01*
X95045687Y-57436798D01*
X94854171Y-57378702D01*
X94655000Y-57359085D01*
X93305000Y-57359085D01*
X93105829Y-57378702D01*
X92914313Y-57436798D01*
X92737810Y-57531140D01*
X92731794Y-57536078D01*
X92473246Y-57428984D01*
X92146549Y-57364000D01*
X91813451Y-57364000D01*
X91486754Y-57428984D01*
X91179011Y-57556455D01*
X90902050Y-57741515D01*
X90666515Y-57977050D01*
X90481455Y-58254011D01*
X90353984Y-58561754D01*
X90289000Y-58888451D01*
X90289000Y-59221549D01*
X90353984Y-59548246D01*
X90481455Y-59855989D01*
X90666515Y-60132950D01*
X90710000Y-60176435D01*
X90710000Y-60802627D01*
X90703857Y-60865000D01*
X90710000Y-60927373D01*
X90710000Y-60927380D01*
X90712819Y-60955998D01*
X90728377Y-61113963D01*
X90749984Y-61185190D01*
X90579801Y-61255682D01*
X90282367Y-61454421D01*
X90173063Y-61563725D01*
X90170000Y-61532626D01*
X90170000Y-61532620D01*
X90151623Y-61346037D01*
X90150734Y-61343104D01*
X90100927Y-61178916D01*
X90079003Y-61106641D01*
X89961075Y-60886012D01*
X89802370Y-60692630D01*
X89753915Y-60652864D01*
X89238984Y-60137933D01*
X89248202Y-60120687D01*
X89306298Y-59929171D01*
X89325915Y-59730000D01*
X89325915Y-58380000D01*
X89306298Y-58180829D01*
X89248202Y-57989313D01*
X89153860Y-57812810D01*
X89026896Y-57658104D01*
X88872190Y-57531140D01*
X88695687Y-57436798D01*
X88504171Y-57378702D01*
X88305000Y-57359085D01*
X86955000Y-57359085D01*
X86755829Y-57378702D01*
X86564313Y-57436798D01*
X86387810Y-57531140D01*
X86381794Y-57536078D01*
X86123246Y-57428984D01*
X85796549Y-57364000D01*
X85463451Y-57364000D01*
X85136754Y-57428984D01*
X84829011Y-57556455D01*
X84552050Y-57741515D01*
X84316515Y-57977050D01*
X84131455Y-58254011D01*
X84003984Y-58561754D01*
X83939000Y-58888451D01*
X83939000Y-59221549D01*
X84003984Y-59548246D01*
X84131455Y-59855989D01*
X84316515Y-60132950D01*
X84360000Y-60176435D01*
X84360001Y-61123051D01*
X84349708Y-61118788D01*
X83998860Y-61049000D01*
X83641140Y-61049000D01*
X83290292Y-61118788D01*
X82959801Y-61255682D01*
X82662367Y-61454421D01*
X82409421Y-61707367D01*
X82374087Y-61760248D01*
X82239337Y-61632301D01*
X81980416Y-61468830D01*
X81771971Y-61382499D01*
X81534000Y-61517225D01*
X81534000Y-62611000D01*
X81554000Y-62611000D01*
X81554000Y-63119000D01*
X81534000Y-63119000D01*
X81534000Y-64212775D01*
X81771971Y-64347501D01*
X81980416Y-64261170D01*
X82239337Y-64097699D01*
X82374087Y-63969752D01*
X82409421Y-64022633D01*
X82550001Y-64163213D01*
X82550001Y-64878947D01*
X78759950Y-68669000D01*
X78561140Y-68669000D01*
X78210292Y-68738788D01*
X77879801Y-68875682D01*
X77582367Y-69074421D01*
X77470000Y-69186788D01*
X77357633Y-69074421D01*
X77060199Y-68875682D01*
X76729708Y-68738788D01*
X76378860Y-68669000D01*
X76021140Y-68669000D01*
X75670292Y-68738788D01*
X75339801Y-68875682D01*
X75042367Y-69074421D01*
X74930000Y-69186788D01*
X74817633Y-69074421D01*
X74520199Y-68875682D01*
X74189708Y-68738788D01*
X73838860Y-68669000D01*
X73481140Y-68669000D01*
X73130292Y-68738788D01*
X72799801Y-68875682D01*
X72502367Y-69074421D01*
X72390000Y-69186788D01*
X72277633Y-69074421D01*
X71980199Y-68875682D01*
X71649708Y-68738788D01*
X71298860Y-68669000D01*
X70941140Y-68669000D01*
X70590292Y-68738788D01*
X70259801Y-68875682D01*
X69962367Y-69074421D01*
X69850000Y-69186788D01*
X69737633Y-69074421D01*
X69440199Y-68875682D01*
X69109708Y-68738788D01*
X68758860Y-68669000D01*
X68401140Y-68669000D01*
X68050292Y-68738788D01*
X67719801Y-68875682D01*
X67422367Y-69074421D01*
X67310000Y-69186788D01*
X67197633Y-69074421D01*
X66900199Y-68875682D01*
X66569708Y-68738788D01*
X66218860Y-68669000D01*
X65861140Y-68669000D01*
X65510292Y-68738788D01*
X65179801Y-68875682D01*
X64882367Y-69074421D01*
X64629421Y-69327367D01*
X64430682Y-69624801D01*
X64293788Y-69955292D01*
X64224000Y-70306140D01*
X64224000Y-70663860D01*
X64293788Y-71014708D01*
X64430682Y-71345199D01*
X64629421Y-71642633D01*
X64781413Y-71794625D01*
X64788377Y-71865333D01*
X64860997Y-72104729D01*
X64978925Y-72325358D01*
X65137631Y-72518740D01*
X65186086Y-72558506D01*
X66675000Y-74047422D01*
X66675000Y-80560440D01*
X66463064Y-80501147D01*
X65684210Y-81280000D01*
X66463064Y-82058853D01*
X66675001Y-81999560D01*
X66675001Y-88373948D01*
X64551091Y-90497859D01*
X64502630Y-90537630D01*
X64343925Y-90731013D01*
X64225997Y-90951642D01*
X64153377Y-91191038D01*
X64135000Y-91377621D01*
X64135000Y-91377627D01*
X64128857Y-91440000D01*
X64135000Y-91502373D01*
X64135000Y-92059085D01*
X62600000Y-92059085D01*
X62400829Y-92078702D01*
X62209313Y-92136798D01*
X62032810Y-92231140D01*
X61878104Y-92358104D01*
X61751140Y-92512810D01*
X61656798Y-92689313D01*
X61598702Y-92880829D01*
X61595000Y-92918415D01*
X61595000Y-86251050D01*
X62999913Y-84846138D01*
X63048369Y-84806371D01*
X63207074Y-84612989D01*
X63325002Y-84392360D01*
X63397622Y-84152964D01*
X63415999Y-83966381D01*
X63415999Y-83966375D01*
X63422142Y-83904002D01*
X63415999Y-83841629D01*
X63415999Y-82418064D01*
X64546147Y-82418064D01*
X64620088Y-82682358D01*
X64907219Y-82792933D01*
X65210406Y-82845368D01*
X65517996Y-82837647D01*
X65818169Y-82770065D01*
X66029912Y-82682358D01*
X66103853Y-82418064D01*
X65325000Y-81639210D01*
X64546147Y-82418064D01*
X63415999Y-82418064D01*
X63415999Y-81165406D01*
X63759632Y-81165406D01*
X63767353Y-81472996D01*
X63834935Y-81773169D01*
X63922642Y-81984912D01*
X64186936Y-82058853D01*
X64965790Y-81280000D01*
X64186936Y-80501147D01*
X63922642Y-80575088D01*
X63812067Y-80862219D01*
X63759632Y-81165406D01*
X63415999Y-81165406D01*
X63415999Y-80141936D01*
X64546147Y-80141936D01*
X65325000Y-80920790D01*
X66103853Y-80141936D01*
X66029912Y-79877642D01*
X65742781Y-79767067D01*
X65439594Y-79714632D01*
X65132004Y-79722353D01*
X64831831Y-79789935D01*
X64620088Y-79877642D01*
X64546147Y-80141936D01*
X63415999Y-80141936D01*
X63415999Y-79137804D01*
X63605292Y-79216212D01*
X63956140Y-79286000D01*
X64313860Y-79286000D01*
X64664708Y-79216212D01*
X64995199Y-79079318D01*
X65292633Y-78880579D01*
X65545579Y-78627633D01*
X65744318Y-78330199D01*
X65881212Y-77999708D01*
X65951000Y-77648860D01*
X65951000Y-77291140D01*
X65881212Y-76940292D01*
X65744318Y-76609801D01*
X65545579Y-76312367D01*
X65292633Y-76059421D01*
X64995199Y-75860682D01*
X64664708Y-75723788D01*
X64313860Y-75654000D01*
X63956140Y-75654000D01*
X63605292Y-75723788D01*
X63415999Y-75802196D01*
X63415999Y-66153681D01*
X65129184Y-64440497D01*
X65179801Y-64474318D01*
X65510292Y-64611212D01*
X65861140Y-64681000D01*
X66218860Y-64681000D01*
X66569708Y-64611212D01*
X66900199Y-64474318D01*
X67197633Y-64275579D01*
X67310000Y-64163212D01*
X67422367Y-64275579D01*
X67719801Y-64474318D01*
X68050292Y-64611212D01*
X68401140Y-64681000D01*
X68758860Y-64681000D01*
X69109708Y-64611212D01*
X69440199Y-64474318D01*
X69737633Y-64275579D01*
X69850000Y-64163212D01*
X69962367Y-64275579D01*
X70259801Y-64474318D01*
X70351666Y-64512370D01*
X70411013Y-64561074D01*
X70631641Y-64679002D01*
X70871037Y-64751623D01*
X71120000Y-64776143D01*
X71368963Y-64751623D01*
X71608359Y-64679002D01*
X71828987Y-64561074D01*
X71888333Y-64512370D01*
X71980199Y-64474318D01*
X72277633Y-64275579D01*
X72390000Y-64163212D01*
X72502367Y-64275579D01*
X72799801Y-64474318D01*
X72891665Y-64512370D01*
X72951013Y-64561075D01*
X73171642Y-64679003D01*
X73411038Y-64751623D01*
X73660000Y-64776144D01*
X73908963Y-64751623D01*
X74148359Y-64679003D01*
X74368988Y-64561075D01*
X74428337Y-64512369D01*
X74520199Y-64474318D01*
X74817633Y-64275579D01*
X74930000Y-64163212D01*
X75042367Y-64275579D01*
X75339801Y-64474318D01*
X75670292Y-64611212D01*
X76021140Y-64681000D01*
X76378860Y-64681000D01*
X76729708Y-64611212D01*
X77060199Y-64474318D01*
X77357633Y-64275579D01*
X77470000Y-64163212D01*
X77582367Y-64275579D01*
X77879801Y-64474318D01*
X78210292Y-64611212D01*
X78561140Y-64681000D01*
X78918860Y-64681000D01*
X79269708Y-64611212D01*
X79600199Y-64474318D01*
X79897633Y-64275579D01*
X80150579Y-64022633D01*
X80185913Y-63969752D01*
X80320663Y-64097699D01*
X80579584Y-64261170D01*
X80788029Y-64347501D01*
X81026000Y-64212775D01*
X81026000Y-63119000D01*
X81006000Y-63119000D01*
X81006000Y-62611000D01*
X81026000Y-62611000D01*
X81026000Y-61517225D01*
X80851339Y-61418341D01*
X86389681Y-55880000D01*
X87601788Y-55880000D01*
X87742367Y-56020579D01*
X88039801Y-56219318D01*
X88370292Y-56356212D01*
X88721140Y-56426000D01*
X89078860Y-56426000D01*
X89429708Y-56356212D01*
X89760199Y-56219318D01*
X90057633Y-56020579D01*
X90310579Y-55767633D01*
X90509318Y-55470199D01*
X90646212Y-55139708D01*
X90716000Y-54788860D01*
X90716000Y-54431140D01*
X90646212Y-54080292D01*
X90509318Y-53749801D01*
X90310579Y-53452367D01*
X90057633Y-53199421D01*
X89760199Y-53000682D01*
X89429708Y-52863788D01*
X89078860Y-52794000D01*
X88880051Y-52794000D01*
X87503000Y-51416950D01*
X87503000Y-50684501D01*
X87531742Y-50655759D01*
X87725009Y-50366515D01*
X87858134Y-50045123D01*
X87926000Y-49703936D01*
X87926000Y-49356064D01*
X87858134Y-49014877D01*
X87725009Y-48693485D01*
X87531742Y-48404241D01*
X87430000Y-48302499D01*
X87430000Y-45588064D01*
X89391147Y-45588064D01*
X89465088Y-45852358D01*
X89752219Y-45962933D01*
X90055406Y-46015368D01*
X90362996Y-46007647D01*
X90663169Y-45940065D01*
X90874912Y-45852358D01*
X90948853Y-45588064D01*
X90170000Y-44809210D01*
X89391147Y-45588064D01*
X87430000Y-45588064D01*
X87430000Y-45502372D01*
X87436143Y-45439999D01*
X87430000Y-45377626D01*
X87430000Y-45377620D01*
X87414156Y-45216755D01*
X87411623Y-45191036D01*
X87357013Y-45011012D01*
X87339003Y-44951641D01*
X87221075Y-44731012D01*
X87062370Y-44537630D01*
X87013914Y-44497863D01*
X86986000Y-44469949D01*
X86986000Y-44335406D01*
X88604632Y-44335406D01*
X88612353Y-44642996D01*
X88679935Y-44943169D01*
X88767642Y-45154912D01*
X89031936Y-45228853D01*
X89810790Y-44450000D01*
X90529210Y-44450000D01*
X91308064Y-45228853D01*
X91572358Y-45154912D01*
X91682933Y-44867781D01*
X91735368Y-44564594D01*
X91727647Y-44257004D01*
X91660065Y-43956831D01*
X91572358Y-43745088D01*
X91308064Y-43671147D01*
X90529210Y-44450000D01*
X89810790Y-44450000D01*
X89031936Y-43671147D01*
X88767642Y-43745088D01*
X88657067Y-44032219D01*
X88604632Y-44335406D01*
X86986000Y-44335406D01*
X86986000Y-44271140D01*
X86916212Y-43920292D01*
X86779318Y-43589801D01*
X86593655Y-43311936D01*
X89391147Y-43311936D01*
X90170000Y-44090790D01*
X90948853Y-43311936D01*
X90874912Y-43047642D01*
X90587781Y-42937067D01*
X90284594Y-42884632D01*
X89977004Y-42892353D01*
X89676831Y-42959935D01*
X89465088Y-43047642D01*
X89391147Y-43311936D01*
X86593655Y-43311936D01*
X86580579Y-43292367D01*
X86327633Y-43039421D01*
X86030199Y-42840682D01*
X85699708Y-42703788D01*
X85348860Y-42634000D01*
X84991140Y-42634000D01*
X84640292Y-42703788D01*
X84309801Y-42840682D01*
X84012367Y-43039421D01*
X83860000Y-43191788D01*
X83707633Y-43039421D01*
X83410199Y-42840682D01*
X83079708Y-42703788D01*
X82728860Y-42634000D01*
X82371140Y-42634000D01*
X82020292Y-42703788D01*
X81689801Y-42840682D01*
X81392367Y-43039421D01*
X81139421Y-43292367D01*
X80940682Y-43589801D01*
X80803788Y-43920292D01*
X80734000Y-44271140D01*
X80734000Y-44469950D01*
X80426086Y-44777864D01*
X80377631Y-44817630D01*
X80218926Y-45011012D01*
X80179379Y-45085000D01*
X80100998Y-45231641D01*
X80028377Y-45471037D01*
X80003857Y-45720000D01*
X80010001Y-45782383D01*
X80010000Y-48302499D01*
X79908258Y-48404241D01*
X79714991Y-48693485D01*
X79581866Y-49014877D01*
X79514000Y-49356064D01*
X79514000Y-49703936D01*
X79581866Y-50045123D01*
X79714991Y-50366515D01*
X79908258Y-50655759D01*
X80083001Y-50830502D01*
X80083001Y-51470948D01*
X78759950Y-52794000D01*
X78561140Y-52794000D01*
X78210292Y-52863788D01*
X77879801Y-53000682D01*
X77582367Y-53199421D01*
X77329421Y-53452367D01*
X77130682Y-53749801D01*
X76993788Y-54080292D01*
X76924000Y-54431140D01*
X76924000Y-54629949D01*
X75346086Y-56207864D01*
X75297631Y-56247630D01*
X75138926Y-56441012D01*
X75024238Y-56655579D01*
X75020998Y-56661641D01*
X74948377Y-56901037D01*
X74923857Y-57150000D01*
X74930001Y-57212383D01*
X74930001Y-57553964D01*
X74902190Y-57531140D01*
X74725687Y-57436798D01*
X74534171Y-57378702D01*
X74335000Y-57359085D01*
X72985000Y-57359085D01*
X72785829Y-57378702D01*
X72594313Y-57436798D01*
X72417810Y-57531140D01*
X72411794Y-57536078D01*
X72153246Y-57428984D01*
X71826549Y-57364000D01*
X71493451Y-57364000D01*
X71166754Y-57428984D01*
X70859011Y-57556455D01*
X70582050Y-57741515D01*
X70346515Y-57977050D01*
X70161455Y-58254011D01*
X70033984Y-58561754D01*
X69969000Y-58888451D01*
X69969000Y-59221549D01*
X70033984Y-59548246D01*
X70161455Y-59855989D01*
X70346515Y-60132950D01*
X70390000Y-60176435D01*
X70390000Y-61201752D01*
X70259801Y-61255682D01*
X69962367Y-61454421D01*
X69850000Y-61566788D01*
X69737633Y-61454421D01*
X69440199Y-61255682D01*
X69109708Y-61118788D01*
X68758860Y-61049000D01*
X68401140Y-61049000D01*
X68050292Y-61118788D01*
X67719801Y-61255682D01*
X67422367Y-61454421D01*
X67310000Y-61566788D01*
X67197633Y-61454421D01*
X66900199Y-61255682D01*
X66569708Y-61118788D01*
X66218860Y-61049000D01*
X65861140Y-61049000D01*
X65510292Y-61118788D01*
X65179801Y-61255682D01*
X64882367Y-61454421D01*
X64730375Y-61606413D01*
X64685385Y-61610844D01*
X64659666Y-61613377D01*
X64597283Y-61632301D01*
X64420271Y-61685997D01*
X64199642Y-61803925D01*
X64006260Y-61962630D01*
X63966496Y-62011083D01*
X61292090Y-64685490D01*
X61243629Y-64725261D01*
X61084924Y-64918644D01*
X60966996Y-65139273D01*
X60894376Y-65378669D01*
X60875999Y-65565252D01*
X60875999Y-65565258D01*
X60869856Y-65627631D01*
X60875999Y-65690004D01*
X60876000Y-79542607D01*
X60854708Y-79533788D01*
X60503860Y-79464000D01*
X60146140Y-79464000D01*
X59795292Y-79533788D01*
X59464801Y-79670682D01*
X59167367Y-79869421D01*
X58914421Y-80122367D01*
X58715682Y-80419801D01*
X58578788Y-80750292D01*
X58509000Y-81101140D01*
X58509000Y-81458860D01*
X58578788Y-81809708D01*
X58715682Y-82140199D01*
X58914421Y-82437633D01*
X59167367Y-82690579D01*
X59464801Y-82889318D01*
X59795292Y-83026212D01*
X60146140Y-83096000D01*
X60503860Y-83096000D01*
X60854708Y-83026212D01*
X60876000Y-83017393D01*
X60876000Y-83377949D01*
X59471091Y-84782859D01*
X59422630Y-84822630D01*
X59263925Y-85016013D01*
X59145997Y-85236642D01*
X59095406Y-85403417D01*
X59073377Y-85476037D01*
X59072790Y-85482000D01*
X59055000Y-85662621D01*
X59055000Y-85662627D01*
X59048857Y-85725000D01*
X59055000Y-85787373D01*
X59055000Y-86128963D01*
X59027190Y-86106140D01*
X58850687Y-86011798D01*
X58659171Y-85953702D01*
X58460000Y-85934085D01*
X57110000Y-85934085D01*
X56910829Y-85953702D01*
X56719313Y-86011798D01*
X56542810Y-86106140D01*
X56388104Y-86233104D01*
X56261140Y-86387810D01*
X56166798Y-86564313D01*
X56108702Y-86755829D01*
X56089085Y-86955000D01*
X56089085Y-88305000D01*
X56108702Y-88504171D01*
X56166798Y-88695687D01*
X56261140Y-88872190D01*
X56266078Y-88878206D01*
X56158984Y-89136754D01*
X56094000Y-89463451D01*
X56094000Y-89796549D01*
X56158984Y-90123246D01*
X56286455Y-90430989D01*
X56471515Y-90707950D01*
X56707050Y-90943485D01*
X56984011Y-91128545D01*
X57291754Y-91256016D01*
X57618451Y-91321000D01*
X57951549Y-91321000D01*
X58278246Y-91256016D01*
X58585989Y-91128545D01*
X58862950Y-90943485D01*
X59055000Y-90751435D01*
X59055001Y-98362617D01*
X59048857Y-98425000D01*
X59073377Y-98673963D01*
X59145998Y-98913359D01*
X59263926Y-99133988D01*
X59422631Y-99327370D01*
X59471086Y-99367137D01*
X61584000Y-101480051D01*
X61584000Y-101788710D01*
X61657631Y-102158877D01*
X61802063Y-102507566D01*
X62011745Y-102821379D01*
X62060366Y-102870000D01*
X62011745Y-102918621D01*
X61802063Y-103232434D01*
X61657631Y-103581123D01*
X61584000Y-103951290D01*
X61584000Y-104328710D01*
X61657631Y-104698877D01*
X61802063Y-105047566D01*
X62011745Y-105361379D01*
X62060366Y-105410000D01*
X62011745Y-105458621D01*
X61802063Y-105772434D01*
X61657631Y-106121123D01*
X61584000Y-106491290D01*
X61584000Y-106868710D01*
X61657631Y-107238877D01*
X61802063Y-107587566D01*
X62011745Y-107901379D01*
X62060366Y-107950000D01*
X62011745Y-107998621D01*
X61802063Y-108312434D01*
X61657631Y-108661123D01*
X61584000Y-109031290D01*
X61584000Y-109408710D01*
X61657631Y-109778877D01*
X61802063Y-110127566D01*
X62011745Y-110441379D01*
X62060366Y-110490000D01*
X62011745Y-110538621D01*
X61802063Y-110852434D01*
X61657631Y-111201123D01*
X61584000Y-111571290D01*
X61584000Y-111948710D01*
X61657631Y-112318877D01*
X61802063Y-112667566D01*
X62011745Y-112981379D01*
X62278621Y-113248255D01*
X62592434Y-113457937D01*
X62941123Y-113602369D01*
X63311290Y-113676000D01*
X63688710Y-113676000D01*
X64058877Y-113602369D01*
X64407566Y-113457937D01*
X64721379Y-113248255D01*
X64988255Y-112981379D01*
X65197937Y-112667566D01*
X65342369Y-112318877D01*
X65416000Y-111948710D01*
X65416000Y-111571290D01*
X65342369Y-111201123D01*
X65197937Y-110852434D01*
X64988255Y-110538621D01*
X64939634Y-110490000D01*
X64988255Y-110441379D01*
X65197937Y-110127566D01*
X65342369Y-109778877D01*
X65416000Y-109408710D01*
X65416000Y-109031290D01*
X65342369Y-108661123D01*
X65197937Y-108312434D01*
X64988255Y-107998621D01*
X64939634Y-107950000D01*
X64988255Y-107901379D01*
X65197937Y-107587566D01*
X65342369Y-107238877D01*
X65416000Y-106868710D01*
X65416000Y-106582050D01*
X66664000Y-107830051D01*
X66664000Y-108138710D01*
X66737631Y-108508877D01*
X66882063Y-108857566D01*
X67091745Y-109171379D01*
X67140366Y-109220000D01*
X67091745Y-109268621D01*
X66882063Y-109582434D01*
X66737631Y-109931123D01*
X66664000Y-110301290D01*
X66664000Y-110678710D01*
X66737631Y-111048877D01*
X66882063Y-111397566D01*
X67091745Y-111711379D01*
X67358621Y-111978255D01*
X67672434Y-112187937D01*
X68021123Y-112332369D01*
X68391290Y-112406000D01*
X68768710Y-112406000D01*
X69138877Y-112332369D01*
X69487566Y-112187937D01*
X69801379Y-111978255D01*
X70068255Y-111711379D01*
X70277937Y-111397566D01*
X70422369Y-111048877D01*
X70496000Y-110678710D01*
X70496000Y-110301290D01*
X70422369Y-109931123D01*
X70277937Y-109582434D01*
X70068255Y-109268621D01*
X70019634Y-109220000D01*
X70068255Y-109171379D01*
X70277937Y-108857566D01*
X70422369Y-108508877D01*
X70496000Y-108138710D01*
X70496000Y-107761290D01*
X70422369Y-107391123D01*
X70277937Y-107042434D01*
X70068255Y-106728621D01*
X70019634Y-106680000D01*
X70068255Y-106631379D01*
X70277937Y-106317566D01*
X70422369Y-105968877D01*
X70496000Y-105598710D01*
X70496000Y-105221290D01*
X70422369Y-104851123D01*
X70277937Y-104502434D01*
X70068255Y-104188621D01*
X69835881Y-103956247D01*
X69847735Y-103944767D01*
X70033052Y-103676793D01*
X70162529Y-103377814D01*
X70031985Y-103124000D01*
X68834000Y-103124000D01*
X68834000Y-103144000D01*
X68326000Y-103144000D01*
X68326000Y-103124000D01*
X68306000Y-103124000D01*
X68306000Y-102616000D01*
X68326000Y-102616000D01*
X68326000Y-102596000D01*
X68834000Y-102596000D01*
X68834000Y-102616000D01*
X70031985Y-102616000D01*
X70162529Y-102362186D01*
X70033052Y-102063207D01*
X69847735Y-101795233D01*
X69835881Y-101783753D01*
X70068255Y-101551379D01*
X70277937Y-101237566D01*
X70422369Y-100888877D01*
X70496000Y-100518710D01*
X70496000Y-100210050D01*
X71973914Y-98732137D01*
X72022370Y-98692370D01*
X72181075Y-98498988D01*
X72299003Y-98278359D01*
X72349594Y-98111584D01*
X72371623Y-98038964D01*
X72374582Y-98008917D01*
X72390000Y-97852380D01*
X72390000Y-97852374D01*
X72396143Y-97790001D01*
X72390000Y-97727628D01*
X72390000Y-94042373D01*
X72396143Y-93980000D01*
X72390000Y-93917627D01*
X72390000Y-93917620D01*
X72371623Y-93731037D01*
X72299003Y-93491641D01*
X72181075Y-93271012D01*
X72070335Y-93136075D01*
X72062135Y-93126083D01*
X72062132Y-93126080D01*
X72022370Y-93077630D01*
X71973920Y-93037868D01*
X71204001Y-92267950D01*
X71204001Y-92221373D01*
X71210144Y-92159000D01*
X71204001Y-92096628D01*
X71204001Y-92096621D01*
X71185624Y-91910038D01*
X71120000Y-91693705D01*
X71120000Y-87118534D01*
X73290676Y-87118534D01*
X73511018Y-87505191D01*
X74003611Y-87736190D01*
X74531805Y-87866651D01*
X75075301Y-87891559D01*
X75613213Y-87809958D01*
X76124870Y-87624983D01*
X76348982Y-87505191D01*
X76569324Y-87118534D01*
X74930000Y-85479210D01*
X73290676Y-87118534D01*
X71120000Y-87118534D01*
X71120000Y-85265301D01*
X72158441Y-85265301D01*
X72240042Y-85803213D01*
X72425017Y-86314870D01*
X72544809Y-86538982D01*
X72931466Y-86759324D01*
X74570790Y-85120000D01*
X75289210Y-85120000D01*
X76928534Y-86759324D01*
X77315191Y-86538982D01*
X77546190Y-86046389D01*
X77676651Y-85518195D01*
X77701559Y-84974699D01*
X77619958Y-84436787D01*
X77434983Y-83925130D01*
X77315191Y-83701018D01*
X76928534Y-83480676D01*
X75289210Y-85120000D01*
X74570790Y-85120000D01*
X72931466Y-83480676D01*
X72544809Y-83701018D01*
X72313810Y-84193611D01*
X72183349Y-84721805D01*
X72158441Y-85265301D01*
X71120000Y-85265301D01*
X71120000Y-83121466D01*
X73290676Y-83121466D01*
X74930000Y-84760790D01*
X76569324Y-83121466D01*
X76348982Y-82734809D01*
X75856389Y-82503810D01*
X75328195Y-82373349D01*
X74784699Y-82348441D01*
X74246787Y-82430042D01*
X73735130Y-82615017D01*
X73511018Y-82734809D01*
X73290676Y-83121466D01*
X71120000Y-83121466D01*
X71120000Y-73412420D01*
X73529172Y-75821592D01*
X73434801Y-75860682D01*
X73137367Y-76059421D01*
X72884421Y-76312367D01*
X72685682Y-76609801D01*
X72548788Y-76940292D01*
X72479000Y-77291140D01*
X72479000Y-77648860D01*
X72548788Y-77999708D01*
X72685682Y-78330199D01*
X72884421Y-78627633D01*
X73137367Y-78880579D01*
X73434801Y-79079318D01*
X73765292Y-79216212D01*
X74116140Y-79286000D01*
X74473860Y-79286000D01*
X74824708Y-79216212D01*
X75155199Y-79079318D01*
X75452633Y-78880579D01*
X75705579Y-78627633D01*
X75904318Y-78330199D01*
X75943408Y-78235828D01*
X78105000Y-80397421D01*
X78105001Y-89643948D01*
X75981091Y-91767859D01*
X75932630Y-91807630D01*
X75773925Y-92001013D01*
X75655997Y-92221642D01*
X75583377Y-92461038D01*
X75565000Y-92647621D01*
X75565000Y-92647627D01*
X75558857Y-92710000D01*
X75565000Y-92772373D01*
X75565001Y-95822617D01*
X75558857Y-95885000D01*
X75583377Y-96133963D01*
X75655998Y-96373359D01*
X75773926Y-96593988D01*
X75932631Y-96787370D01*
X75981087Y-96827137D01*
X79364000Y-100210051D01*
X79364000Y-100518710D01*
X79437631Y-100888877D01*
X79582063Y-101237566D01*
X79791745Y-101551379D01*
X80024119Y-101783753D01*
X80012265Y-101795233D01*
X79826948Y-102063207D01*
X79697471Y-102362186D01*
X79828015Y-102616000D01*
X81026000Y-102616000D01*
X81026000Y-102596000D01*
X81534000Y-102596000D01*
X81534000Y-102616000D01*
X81554000Y-102616000D01*
X81554000Y-103124000D01*
X81534000Y-103124000D01*
X81534000Y-103144000D01*
X81026000Y-103144000D01*
X81026000Y-103124000D01*
X79828015Y-103124000D01*
X79697471Y-103377814D01*
X79826948Y-103676793D01*
X80012265Y-103944767D01*
X80024119Y-103956247D01*
X79791745Y-104188621D01*
X79582063Y-104502434D01*
X79437631Y-104851123D01*
X79364000Y-105221290D01*
X79364000Y-105598710D01*
X79437631Y-105968877D01*
X79582063Y-106317566D01*
X79791745Y-106631379D01*
X79840366Y-106680000D01*
X79791745Y-106728621D01*
X79582063Y-107042434D01*
X79437631Y-107391123D01*
X79364000Y-107761290D01*
X79364000Y-108138710D01*
X79437631Y-108508877D01*
X79582063Y-108857566D01*
X79791745Y-109171379D01*
X79840366Y-109220000D01*
X79791745Y-109268621D01*
X79582063Y-109582434D01*
X79437631Y-109931123D01*
X79364000Y-110301290D01*
X79364000Y-110678710D01*
X79437631Y-111048877D01*
X79582063Y-111397566D01*
X79791745Y-111711379D01*
X80058621Y-111978255D01*
X80372434Y-112187937D01*
X80721123Y-112332369D01*
X81091290Y-112406000D01*
X81468710Y-112406000D01*
X81838877Y-112332369D01*
X82187566Y-112187937D01*
X82501379Y-111978255D01*
X82768255Y-111711379D01*
X82977937Y-111397566D01*
X83122369Y-111048877D01*
X83196000Y-110678710D01*
X83196000Y-110301290D01*
X83122369Y-109931123D01*
X82977937Y-109582434D01*
X82768255Y-109268621D01*
X82719634Y-109220000D01*
X82768255Y-109171379D01*
X82977937Y-108857566D01*
X83122369Y-108508877D01*
X83196000Y-108138710D01*
X83196000Y-107761290D01*
X83122369Y-107391123D01*
X82977937Y-107042434D01*
X82768255Y-106728621D01*
X82719634Y-106680000D01*
X82768255Y-106631379D01*
X82977937Y-106317566D01*
X83122369Y-105968877D01*
X83196000Y-105598710D01*
X83196000Y-105312050D01*
X84444000Y-106560051D01*
X84444000Y-106868710D01*
X84517631Y-107238877D01*
X84662063Y-107587566D01*
X84871745Y-107901379D01*
X84920366Y-107950000D01*
X84871745Y-107998621D01*
X84662063Y-108312434D01*
X84517631Y-108661123D01*
X84444000Y-109031290D01*
X84444000Y-109408710D01*
X84517631Y-109778877D01*
X84662063Y-110127566D01*
X84700070Y-110184448D01*
X84611140Y-110292810D01*
X84516798Y-110469313D01*
X84458702Y-110660829D01*
X84439085Y-110860000D01*
X84439085Y-112660000D01*
X84458702Y-112859171D01*
X84516798Y-113050687D01*
X84611140Y-113227190D01*
X84738104Y-113381896D01*
X84892810Y-113508860D01*
X85069313Y-113603202D01*
X85260829Y-113661298D01*
X85460000Y-113680915D01*
X87260000Y-113680915D01*
X87459171Y-113661298D01*
X87650687Y-113603202D01*
X87827190Y-113508860D01*
X87981896Y-113381896D01*
X88108860Y-113227190D01*
X88203202Y-113050687D01*
X88261298Y-112859171D01*
X88280915Y-112660000D01*
X88280915Y-110860000D01*
X88261298Y-110660829D01*
X88203202Y-110469313D01*
X88108860Y-110292810D01*
X88019930Y-110184448D01*
X88057937Y-110127566D01*
X88202369Y-109778877D01*
X88276000Y-109408710D01*
X88276000Y-109031290D01*
X88202369Y-108661123D01*
X88057937Y-108312434D01*
X87848255Y-107998621D01*
X87799634Y-107950000D01*
X87848255Y-107901379D01*
X88057937Y-107587566D01*
X88202369Y-107238877D01*
X88276000Y-106868710D01*
X88276000Y-106491290D01*
X88202369Y-106121123D01*
X88057937Y-105772434D01*
X87848255Y-105458621D01*
X87799634Y-105410000D01*
X87848255Y-105361379D01*
X88057937Y-105047566D01*
X88202369Y-104698877D01*
X88276000Y-104328710D01*
X88276000Y-103951290D01*
X88202369Y-103581123D01*
X88188649Y-103548000D01*
X92621085Y-103548000D01*
X92621085Y-105748000D01*
X92640702Y-105947171D01*
X92698798Y-106138687D01*
X92793140Y-106315190D01*
X92920104Y-106469896D01*
X93074810Y-106596860D01*
X93251313Y-106691202D01*
X93442829Y-106749298D01*
X93642000Y-106768915D01*
X95842000Y-106768915D01*
X96041171Y-106749298D01*
X96232687Y-106691202D01*
X96409190Y-106596860D01*
X96563896Y-106469896D01*
X96647000Y-106368634D01*
X96730104Y-106469896D01*
X96884810Y-106596860D01*
X97061313Y-106691202D01*
X97252829Y-106749298D01*
X97452000Y-106768915D01*
X99652000Y-106768915D01*
X99851171Y-106749298D01*
X100042687Y-106691202D01*
X100219190Y-106596860D01*
X100373896Y-106469896D01*
X100500860Y-106315190D01*
X100595202Y-106138687D01*
X100653298Y-105947171D01*
X100672915Y-105748000D01*
X100672915Y-103548000D01*
X100653298Y-103348829D01*
X100595202Y-103157313D01*
X100500860Y-102980810D01*
X100373896Y-102826104D01*
X100219190Y-102699140D01*
X100042687Y-102604798D01*
X99851171Y-102546702D01*
X99652000Y-102527085D01*
X97452000Y-102527085D01*
X97252829Y-102546702D01*
X97061313Y-102604798D01*
X96884810Y-102699140D01*
X96730104Y-102826104D01*
X96647000Y-102927366D01*
X96563896Y-102826104D01*
X96409190Y-102699140D01*
X96232687Y-102604798D01*
X96041171Y-102546702D01*
X95842000Y-102527085D01*
X93642000Y-102527085D01*
X93442829Y-102546702D01*
X93251313Y-102604798D01*
X93074810Y-102699140D01*
X92920104Y-102826104D01*
X92793140Y-102980810D01*
X92698798Y-103157313D01*
X92640702Y-103348829D01*
X92621085Y-103548000D01*
X88188649Y-103548000D01*
X88057937Y-103232434D01*
X87848255Y-102918621D01*
X87799634Y-102870000D01*
X87848255Y-102821379D01*
X88057937Y-102507566D01*
X88202369Y-102158877D01*
X88276000Y-101788710D01*
X88276000Y-101411290D01*
X88202369Y-101041123D01*
X88057937Y-100692434D01*
X87848255Y-100378621D01*
X87799634Y-100330000D01*
X87848255Y-100281379D01*
X87879623Y-100234432D01*
X92959842Y-100234432D01*
X93099324Y-100571749D01*
X93301933Y-100875373D01*
X93559883Y-101133636D01*
X93863261Y-101336613D01*
X94200409Y-101476503D01*
X94202569Y-101477150D01*
X94488000Y-101347088D01*
X94488000Y-99949000D01*
X94996000Y-99949000D01*
X94996000Y-101347088D01*
X95281431Y-101477150D01*
X95283591Y-101476503D01*
X95620739Y-101336613D01*
X95924117Y-101133636D01*
X96182067Y-100875373D01*
X96384676Y-100571749D01*
X96524158Y-100234432D01*
X96769842Y-100234432D01*
X96909324Y-100571749D01*
X97111933Y-100875373D01*
X97369883Y-101133636D01*
X97673261Y-101336613D01*
X98010409Y-101476503D01*
X98012569Y-101477150D01*
X98298000Y-101347088D01*
X98298000Y-99949000D01*
X98806000Y-99949000D01*
X98806000Y-101347088D01*
X99091431Y-101477150D01*
X99093591Y-101476503D01*
X99430739Y-101336613D01*
X99734117Y-101133636D01*
X99992067Y-100875373D01*
X100194676Y-100571749D01*
X100334158Y-100234432D01*
X100206102Y-99949000D01*
X98806000Y-99949000D01*
X98298000Y-99949000D01*
X96897898Y-99949000D01*
X96769842Y-100234432D01*
X96524158Y-100234432D01*
X96396102Y-99949000D01*
X94996000Y-99949000D01*
X94488000Y-99949000D01*
X93087898Y-99949000D01*
X92959842Y-100234432D01*
X87879623Y-100234432D01*
X88057937Y-99967566D01*
X88202369Y-99618877D01*
X88276000Y-99248710D01*
X88276000Y-99155568D01*
X92959842Y-99155568D01*
X93087898Y-99441000D01*
X94488000Y-99441000D01*
X94488000Y-98042912D01*
X94996000Y-98042912D01*
X94996000Y-99441000D01*
X96396102Y-99441000D01*
X96524158Y-99155568D01*
X96769842Y-99155568D01*
X96897898Y-99441000D01*
X98298000Y-99441000D01*
X98298000Y-98042912D01*
X98806000Y-98042912D01*
X98806000Y-99441000D01*
X100206102Y-99441000D01*
X100334158Y-99155568D01*
X100194676Y-98818251D01*
X99992067Y-98514627D01*
X99734117Y-98256364D01*
X99430739Y-98053387D01*
X99093591Y-97913497D01*
X99091431Y-97912850D01*
X98806000Y-98042912D01*
X98298000Y-98042912D01*
X98012569Y-97912850D01*
X98010409Y-97913497D01*
X97673261Y-98053387D01*
X97369883Y-98256364D01*
X97111933Y-98514627D01*
X96909324Y-98818251D01*
X96769842Y-99155568D01*
X96524158Y-99155568D01*
X96384676Y-98818251D01*
X96182067Y-98514627D01*
X95924117Y-98256364D01*
X95620739Y-98053387D01*
X95283591Y-97913497D01*
X95281431Y-97912850D01*
X94996000Y-98042912D01*
X94488000Y-98042912D01*
X94202569Y-97912850D01*
X94200409Y-97913497D01*
X93863261Y-98053387D01*
X93559883Y-98256364D01*
X93301933Y-98514627D01*
X93099324Y-98818251D01*
X92959842Y-99155568D01*
X88276000Y-99155568D01*
X88276000Y-98871290D01*
X88202369Y-98501123D01*
X88057937Y-98152434D01*
X87848255Y-97838621D01*
X87799634Y-97790000D01*
X87848255Y-97741379D01*
X88057937Y-97427566D01*
X88202369Y-97078877D01*
X88276000Y-96708710D01*
X88276000Y-96331290D01*
X88202369Y-95961123D01*
X88057937Y-95612434D01*
X87848255Y-95298621D01*
X87799634Y-95250000D01*
X87848255Y-95201379D01*
X88057937Y-94887566D01*
X88202369Y-94538877D01*
X88276000Y-94168710D01*
X88276000Y-93791290D01*
X88202369Y-93421123D01*
X88057937Y-93072434D01*
X87848255Y-92758621D01*
X87581379Y-92491745D01*
X87267566Y-92282063D01*
X86918877Y-92137631D01*
X86548710Y-92064000D01*
X86171290Y-92064000D01*
X85801123Y-92137631D01*
X85452434Y-92282063D01*
X85138621Y-92491745D01*
X84871745Y-92758621D01*
X84681179Y-93043825D01*
X84673915Y-93037864D01*
X84206815Y-92570765D01*
X84206815Y-86955000D01*
X89109085Y-86955000D01*
X89109085Y-88305000D01*
X89128702Y-88504171D01*
X89186798Y-88695687D01*
X89281140Y-88872190D01*
X89286078Y-88878206D01*
X89178984Y-89136754D01*
X89114000Y-89463451D01*
X89114000Y-89796549D01*
X89178984Y-90123246D01*
X89306455Y-90430989D01*
X89408000Y-90582961D01*
X89408000Y-91371375D01*
X89401241Y-91440000D01*
X89428214Y-91713859D01*
X89493283Y-91928359D01*
X89508097Y-91977195D01*
X89637818Y-92219887D01*
X89812393Y-92432608D01*
X89865704Y-92476359D01*
X91038645Y-93649301D01*
X91082392Y-93702608D01*
X91295113Y-93877183D01*
X91537805Y-94006904D01*
X91801140Y-94086786D01*
X92074999Y-94113759D01*
X92143624Y-94107000D01*
X97086375Y-94107000D01*
X97155000Y-94113759D01*
X97223625Y-94107000D01*
X97428860Y-94086786D01*
X97692195Y-94006904D01*
X97934887Y-93877183D01*
X98147608Y-93702608D01*
X98191363Y-93649292D01*
X99491306Y-92349351D01*
X99544607Y-92305608D01*
X99605722Y-92231140D01*
X99653596Y-92172805D01*
X99719183Y-92092887D01*
X99848904Y-91850195D01*
X99920135Y-91615378D01*
X100042687Y-91578202D01*
X100219190Y-91483860D01*
X100373896Y-91356896D01*
X100500860Y-91202190D01*
X100595202Y-91025687D01*
X100653298Y-90834171D01*
X100672915Y-90635000D01*
X100672915Y-88435000D01*
X100653298Y-88235829D01*
X100595202Y-88044313D01*
X100500860Y-87867810D01*
X100487537Y-87851575D01*
X100586683Y-87612214D01*
X100668000Y-87203408D01*
X100668000Y-86786592D01*
X100586683Y-86377786D01*
X100427175Y-85992698D01*
X100195604Y-85646129D01*
X99900871Y-85351396D01*
X99554302Y-85119825D01*
X99169214Y-84960317D01*
X98760408Y-84879000D01*
X98343592Y-84879000D01*
X97934786Y-84960317D01*
X97549698Y-85119825D01*
X97203129Y-85351396D01*
X96908396Y-85646129D01*
X96676825Y-85992698D01*
X96647000Y-86064702D01*
X96617175Y-85992698D01*
X96385604Y-85646129D01*
X96090871Y-85351396D01*
X95744302Y-85119825D01*
X95359214Y-84960317D01*
X94950408Y-84879000D01*
X94533592Y-84879000D01*
X94124786Y-84960317D01*
X93739698Y-85119825D01*
X93393129Y-85351396D01*
X93098396Y-85646129D01*
X92866825Y-85992698D01*
X92707317Y-86377786D01*
X92626000Y-86786592D01*
X92626000Y-87203408D01*
X92707317Y-87612214D01*
X92806463Y-87851575D01*
X92793140Y-87867810D01*
X92698798Y-88044313D01*
X92640702Y-88235829D01*
X92621085Y-88435000D01*
X92621085Y-90635000D01*
X92640702Y-90834171D01*
X92698798Y-91025687D01*
X92793140Y-91202190D01*
X92884079Y-91313000D01*
X92653656Y-91313000D01*
X92202000Y-90861344D01*
X92202000Y-90582961D01*
X92303545Y-90430989D01*
X92431016Y-90123246D01*
X92496000Y-89796549D01*
X92496000Y-89463451D01*
X92431016Y-89136754D01*
X92323922Y-88878206D01*
X92328860Y-88872190D01*
X92423202Y-88695687D01*
X92481298Y-88504171D01*
X92500915Y-88305000D01*
X92500915Y-86955000D01*
X92481298Y-86755829D01*
X92423202Y-86564313D01*
X92328860Y-86387810D01*
X92201896Y-86233104D01*
X92047190Y-86106140D01*
X91870687Y-86011798D01*
X91679171Y-85953702D01*
X91480000Y-85934085D01*
X90130000Y-85934085D01*
X89930829Y-85953702D01*
X89739313Y-86011798D01*
X89562810Y-86106140D01*
X89408104Y-86233104D01*
X89281140Y-86387810D01*
X89186798Y-86564313D01*
X89128702Y-86755829D01*
X89109085Y-86955000D01*
X84206815Y-86955000D01*
X84206815Y-85528036D01*
X84531123Y-85662369D01*
X84901290Y-85736000D01*
X85278710Y-85736000D01*
X85648877Y-85662369D01*
X85997566Y-85517937D01*
X86275145Y-85332466D01*
X86304607Y-85356645D01*
X86436984Y-85427403D01*
X86580622Y-85470975D01*
X86730000Y-85485687D01*
X87185500Y-85482000D01*
X87376000Y-85291500D01*
X87376000Y-84074000D01*
X87884000Y-84074000D01*
X87884000Y-85291500D01*
X88074500Y-85482000D01*
X88530000Y-85485687D01*
X88679378Y-85470975D01*
X88823016Y-85427403D01*
X88955393Y-85356645D01*
X89071422Y-85261422D01*
X89166645Y-85145393D01*
X89237403Y-85013016D01*
X89280975Y-84869378D01*
X89295687Y-84720000D01*
X89292000Y-84264500D01*
X89101500Y-84074000D01*
X87884000Y-84074000D01*
X87376000Y-84074000D01*
X87356000Y-84074000D01*
X87356000Y-83566000D01*
X87376000Y-83566000D01*
X87376000Y-82348500D01*
X87884000Y-82348500D01*
X87884000Y-83566000D01*
X89101500Y-83566000D01*
X89292000Y-83375500D01*
X89295687Y-82920000D01*
X89280975Y-82770622D01*
X89237403Y-82626984D01*
X89166645Y-82494607D01*
X89071422Y-82378578D01*
X88955393Y-82283355D01*
X88823016Y-82212597D01*
X88679378Y-82169025D01*
X88530000Y-82154313D01*
X88074500Y-82158000D01*
X87884000Y-82348500D01*
X87376000Y-82348500D01*
X87185500Y-82158000D01*
X86730000Y-82154313D01*
X86580622Y-82169025D01*
X86436984Y-82212597D01*
X86304607Y-82283355D01*
X86275145Y-82307534D01*
X85997566Y-82122063D01*
X85648877Y-81977631D01*
X85278710Y-81904000D01*
X84901290Y-81904000D01*
X84531123Y-81977631D01*
X84206815Y-82111964D01*
X84206815Y-78415557D01*
X84212958Y-78353184D01*
X84206815Y-78290811D01*
X84206815Y-78290805D01*
X84188438Y-78104222D01*
X84186811Y-78098856D01*
X84137105Y-77935000D01*
X84115818Y-77864826D01*
X83997890Y-77644197D01*
X83839185Y-77450815D01*
X83790730Y-77411049D01*
X83073117Y-76693436D01*
X83159708Y-76676212D01*
X83490199Y-76539318D01*
X83787633Y-76340579D01*
X84040579Y-76087633D01*
X84239318Y-75790199D01*
X84376212Y-75459708D01*
X84446000Y-75108860D01*
X84446000Y-74815406D01*
X86064632Y-74815406D01*
X86072353Y-75122996D01*
X86139935Y-75423169D01*
X86227642Y-75634912D01*
X86491936Y-75708853D01*
X87270790Y-74930000D01*
X86491936Y-74151147D01*
X86227642Y-74225088D01*
X86117067Y-74512219D01*
X86064632Y-74815406D01*
X84446000Y-74815406D01*
X84446000Y-74751140D01*
X84376212Y-74400292D01*
X84239318Y-74069801D01*
X84040579Y-73772367D01*
X83900000Y-73631788D01*
X83900000Y-72047000D01*
X84074002Y-72047000D01*
X84074002Y-71832776D01*
X84311971Y-71967501D01*
X84520416Y-71881170D01*
X84779337Y-71717699D01*
X84914087Y-71589752D01*
X84949421Y-71642633D01*
X85202367Y-71895579D01*
X85499801Y-72094318D01*
X85830292Y-72231212D01*
X86181140Y-72301000D01*
X86538860Y-72301000D01*
X86889708Y-72231212D01*
X87220199Y-72094318D01*
X87517633Y-71895579D01*
X87630000Y-71783212D01*
X87742367Y-71895579D01*
X88039801Y-72094318D01*
X88370292Y-72231212D01*
X88721140Y-72301000D01*
X89078860Y-72301000D01*
X89214844Y-72273951D01*
X89108926Y-72403012D01*
X89033574Y-72543987D01*
X88990998Y-72623641D01*
X88918377Y-72863037D01*
X88907659Y-72971862D01*
X88900000Y-73049620D01*
X88900000Y-73049627D01*
X88893857Y-73112000D01*
X88900000Y-73174373D01*
X88900000Y-73428963D01*
X88773104Y-73533104D01*
X88646140Y-73687810D01*
X88632076Y-73714123D01*
X88559370Y-73641417D01*
X88408853Y-73791934D01*
X88334912Y-73527642D01*
X88047781Y-73417067D01*
X87744594Y-73364632D01*
X87437004Y-73372353D01*
X87136831Y-73439935D01*
X86925088Y-73527642D01*
X86851147Y-73791936D01*
X87630000Y-74570790D01*
X87644142Y-74556647D01*
X88003353Y-74915858D01*
X87989210Y-74930000D01*
X88003353Y-74944142D01*
X87644142Y-75303353D01*
X87630000Y-75289210D01*
X86851147Y-76068064D01*
X86925088Y-76332358D01*
X87212219Y-76442933D01*
X87515406Y-76495368D01*
X87822996Y-76487647D01*
X88123169Y-76420065D01*
X88334912Y-76332358D01*
X88408853Y-76068066D01*
X88559370Y-76218583D01*
X88632076Y-76145877D01*
X88646140Y-76172190D01*
X88651078Y-76178206D01*
X88543984Y-76436754D01*
X88479000Y-76763451D01*
X88479000Y-77096549D01*
X88543984Y-77423246D01*
X88671455Y-77730989D01*
X88856515Y-78007950D01*
X89092050Y-78243485D01*
X89369011Y-78428545D01*
X89676754Y-78556016D01*
X90003451Y-78621000D01*
X90336549Y-78621000D01*
X90663246Y-78556016D01*
X90970989Y-78428545D01*
X91247950Y-78243485D01*
X91290645Y-78200790D01*
X91345000Y-78206143D01*
X91407373Y-78200000D01*
X91407380Y-78200000D01*
X91593963Y-78181623D01*
X91833359Y-78109003D01*
X92053988Y-77991075D01*
X92247370Y-77832370D01*
X92287141Y-77783909D01*
X92621085Y-77449966D01*
X92621085Y-77935000D01*
X92640702Y-78134171D01*
X92698798Y-78325687D01*
X92793140Y-78502190D01*
X92920104Y-78656896D01*
X93074810Y-78783860D01*
X93251313Y-78878202D01*
X93442829Y-78936298D01*
X93642000Y-78955915D01*
X95842000Y-78955915D01*
X96041171Y-78936298D01*
X96232687Y-78878202D01*
X96409190Y-78783860D01*
X96563896Y-78656896D01*
X96647000Y-78555634D01*
X96730104Y-78656896D01*
X96884810Y-78783860D01*
X97061313Y-78878202D01*
X97252829Y-78936298D01*
X97452000Y-78955915D01*
X99652000Y-78955915D01*
X99851171Y-78936298D01*
X100042687Y-78878202D01*
X100219190Y-78783860D01*
X100373896Y-78656896D01*
X100500860Y-78502190D01*
X100595202Y-78325687D01*
X100653298Y-78134171D01*
X100672915Y-77935000D01*
X100672915Y-75735000D01*
X100653298Y-75535829D01*
X100595202Y-75344313D01*
X100500860Y-75167810D01*
X100373896Y-75013104D01*
X100219190Y-74886140D01*
X100042687Y-74791798D01*
X99851171Y-74733702D01*
X99652000Y-74714085D01*
X97452000Y-74714085D01*
X97252829Y-74733702D01*
X97061313Y-74791798D01*
X96884810Y-74886140D01*
X96730104Y-75013104D01*
X96647000Y-75114366D01*
X96563896Y-75013104D01*
X96409190Y-74886140D01*
X96339958Y-74849135D01*
X96373359Y-74839003D01*
X96593988Y-74721075D01*
X96787370Y-74562370D01*
X96827141Y-74513909D01*
X99040051Y-72301000D01*
X99238860Y-72301000D01*
X99589708Y-72231212D01*
X99920199Y-72094318D01*
X100217633Y-71895579D01*
X100470579Y-71642633D01*
X100669318Y-71345199D01*
X100806212Y-71014708D01*
X100876000Y-70663860D01*
X100876000Y-70306140D01*
X100806212Y-69955292D01*
X100669318Y-69624801D01*
X100470579Y-69327367D01*
X100217633Y-69074421D01*
X99920199Y-68875682D01*
X99589708Y-68738788D01*
X99238860Y-68669000D01*
X98881140Y-68669000D01*
X98530292Y-68738788D01*
X98199801Y-68875682D01*
X97902367Y-69074421D01*
X97790000Y-69186788D01*
X97677633Y-69074421D01*
X97380199Y-68875682D01*
X97049708Y-68738788D01*
X96698860Y-68669000D01*
X96341140Y-68669000D01*
X95990292Y-68738788D01*
X95659801Y-68875682D01*
X95362367Y-69074421D01*
X95250000Y-69186788D01*
X95137633Y-69074421D01*
X94840199Y-68875682D01*
X94509708Y-68738788D01*
X94158860Y-68669000D01*
X93801140Y-68669000D01*
X93450292Y-68738788D01*
X93119801Y-68875682D01*
X92822367Y-69074421D01*
X92710000Y-69186788D01*
X92597633Y-69074421D01*
X92300199Y-68875682D01*
X91969708Y-68738788D01*
X91618860Y-68669000D01*
X91261140Y-68669000D01*
X90910292Y-68738788D01*
X90579801Y-68875682D01*
X90282367Y-69074421D01*
X90170000Y-69186788D01*
X90057633Y-69074421D01*
X89760199Y-68875682D01*
X89429708Y-68738788D01*
X89078860Y-68669000D01*
X88721140Y-68669000D01*
X88370292Y-68738788D01*
X88039801Y-68875682D01*
X87742367Y-69074421D01*
X87630000Y-69186788D01*
X87517633Y-69074421D01*
X87220199Y-68875682D01*
X86889708Y-68738788D01*
X86538860Y-68669000D01*
X86181140Y-68669000D01*
X85830292Y-68738788D01*
X85499801Y-68875682D01*
X85202367Y-69074421D01*
X84949421Y-69327367D01*
X84914087Y-69380248D01*
X84779337Y-69252301D01*
X84520416Y-69088830D01*
X84311971Y-69002499D01*
X84074000Y-69137225D01*
X84074000Y-70231000D01*
X84094000Y-70231000D01*
X84094000Y-70739000D01*
X84074000Y-70739000D01*
X84074000Y-70759000D01*
X83566000Y-70759000D01*
X83566000Y-70739000D01*
X83546000Y-70739000D01*
X83546000Y-70231000D01*
X83566000Y-70231000D01*
X83566000Y-69137225D01*
X83328029Y-69002499D01*
X83119584Y-69088830D01*
X82860663Y-69252301D01*
X82725913Y-69380248D01*
X82690579Y-69327367D01*
X82437633Y-69074421D01*
X82143298Y-68877753D01*
X84542669Y-66478383D01*
X84740269Y-66584002D01*
X84740271Y-66584003D01*
X84979667Y-66656623D01*
X85228630Y-66681144D01*
X85291010Y-66675000D01*
X100902627Y-66675000D01*
X100965000Y-66681143D01*
X101027373Y-66675000D01*
X101027380Y-66675000D01*
X101213963Y-66656623D01*
X101453359Y-66584003D01*
X101673988Y-66466075D01*
X101867370Y-66307370D01*
X101907141Y-66258909D01*
X102453915Y-65712136D01*
X102502370Y-65672370D01*
X102616000Y-65533912D01*
X102616000Y-129921000D01*
X47244000Y-129921000D01*
X47244000Y-128174432D01*
X47747842Y-128174432D01*
X47887324Y-128511749D01*
X48089933Y-128815373D01*
X48347883Y-129073636D01*
X48651261Y-129276613D01*
X48988409Y-129416503D01*
X48990569Y-129417150D01*
X49276000Y-129287088D01*
X49276000Y-127889000D01*
X49784000Y-127889000D01*
X49784000Y-129287088D01*
X50069431Y-129417150D01*
X50071591Y-129416503D01*
X50408739Y-129276613D01*
X50712117Y-129073636D01*
X50970067Y-128815373D01*
X51172676Y-128511749D01*
X51312158Y-128174432D01*
X51557842Y-128174432D01*
X51697324Y-128511749D01*
X51899933Y-128815373D01*
X52157883Y-129073636D01*
X52461261Y-129276613D01*
X52798409Y-129416503D01*
X52800569Y-129417150D01*
X53086000Y-129287088D01*
X53086000Y-127889000D01*
X53594000Y-127889000D01*
X53594000Y-129287088D01*
X53879431Y-129417150D01*
X53881591Y-129416503D01*
X54218739Y-129276613D01*
X54522117Y-129073636D01*
X54780067Y-128815373D01*
X54982676Y-128511749D01*
X55122158Y-128174432D01*
X55065181Y-128047432D01*
X92959842Y-128047432D01*
X93099324Y-128384749D01*
X93301933Y-128688373D01*
X93559883Y-128946636D01*
X93863261Y-129149613D01*
X94200409Y-129289503D01*
X94202569Y-129290150D01*
X94488000Y-129160088D01*
X94488000Y-127762000D01*
X94996000Y-127762000D01*
X94996000Y-129160088D01*
X95281431Y-129290150D01*
X95283591Y-129289503D01*
X95620739Y-129149613D01*
X95924117Y-128946636D01*
X96182067Y-128688373D01*
X96384676Y-128384749D01*
X96524158Y-128047432D01*
X96769842Y-128047432D01*
X96909324Y-128384749D01*
X97111933Y-128688373D01*
X97369883Y-128946636D01*
X97673261Y-129149613D01*
X98010409Y-129289503D01*
X98012569Y-129290150D01*
X98298000Y-129160088D01*
X98298000Y-127762000D01*
X98806000Y-127762000D01*
X98806000Y-129160088D01*
X99091431Y-129290150D01*
X99093591Y-129289503D01*
X99430739Y-129149613D01*
X99734117Y-128946636D01*
X99992067Y-128688373D01*
X100194676Y-128384749D01*
X100334158Y-128047432D01*
X100206102Y-127762000D01*
X98806000Y-127762000D01*
X98298000Y-127762000D01*
X96897898Y-127762000D01*
X96769842Y-128047432D01*
X96524158Y-128047432D01*
X96396102Y-127762000D01*
X94996000Y-127762000D01*
X94488000Y-127762000D01*
X93087898Y-127762000D01*
X92959842Y-128047432D01*
X55065181Y-128047432D01*
X54994102Y-127889000D01*
X53594000Y-127889000D01*
X53086000Y-127889000D01*
X51685898Y-127889000D01*
X51557842Y-128174432D01*
X51312158Y-128174432D01*
X51184102Y-127889000D01*
X49784000Y-127889000D01*
X49276000Y-127889000D01*
X47875898Y-127889000D01*
X47747842Y-128174432D01*
X47244000Y-128174432D01*
X47244000Y-127095568D01*
X47747842Y-127095568D01*
X47875898Y-127381000D01*
X49276000Y-127381000D01*
X49276000Y-125982912D01*
X49784000Y-125982912D01*
X49784000Y-127381000D01*
X51184102Y-127381000D01*
X51312158Y-127095568D01*
X51557842Y-127095568D01*
X51685898Y-127381000D01*
X53086000Y-127381000D01*
X53086000Y-125982912D01*
X53594000Y-125982912D01*
X53594000Y-127381000D01*
X54994102Y-127381000D01*
X55122158Y-127095568D01*
X55069643Y-126968568D01*
X92959842Y-126968568D01*
X93087898Y-127254000D01*
X94488000Y-127254000D01*
X94488000Y-125855912D01*
X94996000Y-125855912D01*
X94996000Y-127254000D01*
X96396102Y-127254000D01*
X96524158Y-126968568D01*
X96769842Y-126968568D01*
X96897898Y-127254000D01*
X98298000Y-127254000D01*
X98298000Y-125855912D01*
X98806000Y-125855912D01*
X98806000Y-127254000D01*
X100206102Y-127254000D01*
X100334158Y-126968568D01*
X100194676Y-126631251D01*
X99992067Y-126327627D01*
X99734117Y-126069364D01*
X99430739Y-125866387D01*
X99093591Y-125726497D01*
X99091431Y-125725850D01*
X98806000Y-125855912D01*
X98298000Y-125855912D01*
X98012569Y-125725850D01*
X98010409Y-125726497D01*
X97673261Y-125866387D01*
X97369883Y-126069364D01*
X97111933Y-126327627D01*
X96909324Y-126631251D01*
X96769842Y-126968568D01*
X96524158Y-126968568D01*
X96384676Y-126631251D01*
X96182067Y-126327627D01*
X95924117Y-126069364D01*
X95620739Y-125866387D01*
X95283591Y-125726497D01*
X95281431Y-125725850D01*
X94996000Y-125855912D01*
X94488000Y-125855912D01*
X94202569Y-125725850D01*
X94200409Y-125726497D01*
X93863261Y-125866387D01*
X93559883Y-126069364D01*
X93301933Y-126327627D01*
X93099324Y-126631251D01*
X92959842Y-126968568D01*
X55069643Y-126968568D01*
X54982676Y-126758251D01*
X54780067Y-126454627D01*
X54522117Y-126196364D01*
X54218739Y-125993387D01*
X53881591Y-125853497D01*
X53879431Y-125852850D01*
X53594000Y-125982912D01*
X53086000Y-125982912D01*
X52800569Y-125852850D01*
X52798409Y-125853497D01*
X52461261Y-125993387D01*
X52157883Y-126196364D01*
X51899933Y-126454627D01*
X51697324Y-126758251D01*
X51557842Y-127095568D01*
X51312158Y-127095568D01*
X51172676Y-126758251D01*
X50970067Y-126454627D01*
X50712117Y-126196364D01*
X50408739Y-125993387D01*
X50071591Y-125853497D01*
X50069431Y-125852850D01*
X49784000Y-125982912D01*
X49276000Y-125982912D01*
X48990569Y-125852850D01*
X48988409Y-125853497D01*
X48651261Y-125993387D01*
X48347883Y-126196364D01*
X48089933Y-126454627D01*
X47887324Y-126758251D01*
X47747842Y-127095568D01*
X47244000Y-127095568D01*
X47244000Y-122648534D01*
X73290676Y-122648534D01*
X73511018Y-123035191D01*
X74003611Y-123266190D01*
X74531805Y-123396651D01*
X75075301Y-123421559D01*
X75613213Y-123339958D01*
X76124870Y-123154983D01*
X76348982Y-123035191D01*
X76569324Y-122648534D01*
X74930000Y-121009210D01*
X73290676Y-122648534D01*
X47244000Y-122648534D01*
X47244000Y-120795301D01*
X72158441Y-120795301D01*
X72240042Y-121333213D01*
X72425017Y-121844870D01*
X72544809Y-122068982D01*
X72931466Y-122289324D01*
X74570790Y-120650000D01*
X75289210Y-120650000D01*
X76928534Y-122289324D01*
X77315191Y-122068982D01*
X77546190Y-121576389D01*
X77676651Y-121048195D01*
X77701559Y-120504699D01*
X77619958Y-119966787D01*
X77434983Y-119455130D01*
X77315191Y-119231018D01*
X76928534Y-119010676D01*
X75289210Y-120650000D01*
X74570790Y-120650000D01*
X72931466Y-119010676D01*
X72544809Y-119231018D01*
X72313810Y-119723611D01*
X72183349Y-120251805D01*
X72158441Y-120795301D01*
X47244000Y-120795301D01*
X47244000Y-116375000D01*
X47409085Y-116375000D01*
X47409085Y-118575000D01*
X47428702Y-118774171D01*
X47486798Y-118965687D01*
X47581140Y-119142190D01*
X47708104Y-119296896D01*
X47862810Y-119423860D01*
X48039313Y-119518202D01*
X48230829Y-119576298D01*
X48430000Y-119595915D01*
X50630000Y-119595915D01*
X50829171Y-119576298D01*
X51020687Y-119518202D01*
X51197190Y-119423860D01*
X51351896Y-119296896D01*
X51435000Y-119195634D01*
X51518104Y-119296896D01*
X51672810Y-119423860D01*
X51849313Y-119518202D01*
X52040829Y-119576298D01*
X52240000Y-119595915D01*
X54440000Y-119595915D01*
X54639171Y-119576298D01*
X54830687Y-119518202D01*
X55007190Y-119423860D01*
X55161896Y-119296896D01*
X55288860Y-119142190D01*
X55383202Y-118965687D01*
X55441298Y-118774171D01*
X55453383Y-118651466D01*
X73290676Y-118651466D01*
X74930000Y-120290790D01*
X76569324Y-118651466D01*
X76348982Y-118264809D01*
X75856389Y-118033810D01*
X75328195Y-117903349D01*
X74784699Y-117878441D01*
X74246787Y-117960042D01*
X73735130Y-118145017D01*
X73511018Y-118264809D01*
X73290676Y-118651466D01*
X55453383Y-118651466D01*
X55460915Y-118575000D01*
X55460915Y-116375000D01*
X55441298Y-116175829D01*
X55438014Y-116165000D01*
X56089085Y-116165000D01*
X56089085Y-117515000D01*
X56108702Y-117714171D01*
X56166798Y-117905687D01*
X56261140Y-118082190D01*
X56388104Y-118236896D01*
X56542810Y-118363860D01*
X56719313Y-118458202D01*
X56910829Y-118516298D01*
X57110000Y-118535915D01*
X58460000Y-118535915D01*
X58659171Y-118516298D01*
X58850687Y-118458202D01*
X59027190Y-118363860D01*
X59181896Y-118236896D01*
X59308860Y-118082190D01*
X59403202Y-117905687D01*
X59461298Y-117714171D01*
X59480915Y-117515000D01*
X59480915Y-116165000D01*
X59461298Y-115965829D01*
X59403202Y-115774313D01*
X59308860Y-115597810D01*
X59303922Y-115591794D01*
X59411016Y-115333246D01*
X59476000Y-115006549D01*
X59476000Y-114673451D01*
X59411016Y-114346754D01*
X59375082Y-114260000D01*
X89109085Y-114260000D01*
X89109085Y-115610000D01*
X89128702Y-115809171D01*
X89186798Y-116000687D01*
X89281140Y-116177190D01*
X89286078Y-116183206D01*
X89178984Y-116441754D01*
X89114000Y-116768451D01*
X89114000Y-117101549D01*
X89178984Y-117428246D01*
X89306455Y-117735989D01*
X89491515Y-118012950D01*
X89727050Y-118248485D01*
X90004011Y-118433545D01*
X90311754Y-118561016D01*
X90638451Y-118626000D01*
X90971549Y-118626000D01*
X91298246Y-118561016D01*
X91605989Y-118433545D01*
X91882950Y-118248485D01*
X92118485Y-118012950D01*
X92303545Y-117735989D01*
X92431016Y-117428246D01*
X92496000Y-117101549D01*
X92496000Y-116768451D01*
X92431016Y-116441754D01*
X92350761Y-116248000D01*
X92621085Y-116248000D01*
X92621085Y-118448000D01*
X92640702Y-118647171D01*
X92698798Y-118838687D01*
X92793140Y-119015190D01*
X92920104Y-119169896D01*
X93074810Y-119296860D01*
X93251313Y-119391202D01*
X93442829Y-119449298D01*
X93642000Y-119468915D01*
X95842000Y-119468915D01*
X96041171Y-119449298D01*
X96232687Y-119391202D01*
X96409190Y-119296860D01*
X96563896Y-119169896D01*
X96647000Y-119068634D01*
X96730104Y-119169896D01*
X96884810Y-119296860D01*
X97061313Y-119391202D01*
X97252829Y-119449298D01*
X97452000Y-119468915D01*
X99652000Y-119468915D01*
X99851171Y-119449298D01*
X100042687Y-119391202D01*
X100219190Y-119296860D01*
X100373896Y-119169896D01*
X100500860Y-119015190D01*
X100595202Y-118838687D01*
X100653298Y-118647171D01*
X100672915Y-118448000D01*
X100672915Y-116248000D01*
X100653298Y-116048829D01*
X100595202Y-115857313D01*
X100500860Y-115680810D01*
X100487537Y-115664575D01*
X100586683Y-115425214D01*
X100668000Y-115016408D01*
X100668000Y-114599592D01*
X100586683Y-114190786D01*
X100427175Y-113805698D01*
X100195604Y-113459129D01*
X99900871Y-113164396D01*
X99554302Y-112932825D01*
X99169214Y-112773317D01*
X98760408Y-112692000D01*
X98343592Y-112692000D01*
X97934786Y-112773317D01*
X97549698Y-112932825D01*
X97203129Y-113164396D01*
X96908396Y-113459129D01*
X96676825Y-113805698D01*
X96647000Y-113877702D01*
X96617175Y-113805698D01*
X96385604Y-113459129D01*
X96090871Y-113164396D01*
X95744302Y-112932825D01*
X95359214Y-112773317D01*
X94950408Y-112692000D01*
X94533592Y-112692000D01*
X94124786Y-112773317D01*
X93739698Y-112932825D01*
X93393129Y-113164396D01*
X93098396Y-113459129D01*
X92866825Y-113805698D01*
X92707317Y-114190786D01*
X92626000Y-114599592D01*
X92626000Y-115016408D01*
X92707317Y-115425214D01*
X92806463Y-115664575D01*
X92793140Y-115680810D01*
X92698798Y-115857313D01*
X92640702Y-116048829D01*
X92621085Y-116248000D01*
X92350761Y-116248000D01*
X92323922Y-116183206D01*
X92328860Y-116177190D01*
X92423202Y-116000687D01*
X92481298Y-115809171D01*
X92500915Y-115610000D01*
X92500915Y-114260000D01*
X92481298Y-114060829D01*
X92423202Y-113869313D01*
X92328860Y-113692810D01*
X92201896Y-113538104D01*
X92047190Y-113411140D01*
X91870687Y-113316798D01*
X91679171Y-113258702D01*
X91480000Y-113239085D01*
X90130000Y-113239085D01*
X89930829Y-113258702D01*
X89739313Y-113316798D01*
X89562810Y-113411140D01*
X89408104Y-113538104D01*
X89281140Y-113692810D01*
X89186798Y-113869313D01*
X89128702Y-114060829D01*
X89109085Y-114260000D01*
X59375082Y-114260000D01*
X59283545Y-114039011D01*
X59098485Y-113762050D01*
X58862950Y-113526515D01*
X58585989Y-113341455D01*
X58278246Y-113213984D01*
X57951549Y-113149000D01*
X57618451Y-113149000D01*
X57291754Y-113213984D01*
X56984011Y-113341455D01*
X56707050Y-113526515D01*
X56471515Y-113762050D01*
X56286455Y-114039011D01*
X56158984Y-114346754D01*
X56094000Y-114673451D01*
X56094000Y-115006549D01*
X56158984Y-115333246D01*
X56266078Y-115591794D01*
X56261140Y-115597810D01*
X56166798Y-115774313D01*
X56108702Y-115965829D01*
X56089085Y-116165000D01*
X55438014Y-116165000D01*
X55383202Y-115984313D01*
X55288860Y-115807810D01*
X55275537Y-115791575D01*
X55374683Y-115552214D01*
X55456000Y-115143408D01*
X55456000Y-114726592D01*
X55374683Y-114317786D01*
X55215175Y-113932698D01*
X54983604Y-113586129D01*
X54688871Y-113291396D01*
X54342302Y-113059825D01*
X53957214Y-112900317D01*
X53548408Y-112819000D01*
X53131592Y-112819000D01*
X52722786Y-112900317D01*
X52337698Y-113059825D01*
X51991129Y-113291396D01*
X51696396Y-113586129D01*
X51464825Y-113932698D01*
X51435000Y-114004702D01*
X51405175Y-113932698D01*
X51173604Y-113586129D01*
X50878871Y-113291396D01*
X50532302Y-113059825D01*
X50147214Y-112900317D01*
X49738408Y-112819000D01*
X49321592Y-112819000D01*
X48912786Y-112900317D01*
X48527698Y-113059825D01*
X48181129Y-113291396D01*
X47886396Y-113586129D01*
X47654825Y-113932698D01*
X47495317Y-114317786D01*
X47414000Y-114726592D01*
X47414000Y-115143408D01*
X47495317Y-115552214D01*
X47594463Y-115791575D01*
X47581140Y-115807810D01*
X47486798Y-115984313D01*
X47428702Y-116175829D01*
X47409085Y-116375000D01*
X47244000Y-116375000D01*
X47244000Y-103675000D01*
X47409085Y-103675000D01*
X47409085Y-105875000D01*
X47428702Y-106074171D01*
X47486798Y-106265687D01*
X47581140Y-106442190D01*
X47708104Y-106596896D01*
X47862810Y-106723860D01*
X48039313Y-106818202D01*
X48230829Y-106876298D01*
X48430000Y-106895915D01*
X50630000Y-106895915D01*
X50829171Y-106876298D01*
X51020687Y-106818202D01*
X51197190Y-106723860D01*
X51351896Y-106596896D01*
X51435000Y-106495634D01*
X51518104Y-106596896D01*
X51672810Y-106723860D01*
X51849313Y-106818202D01*
X52040829Y-106876298D01*
X52240000Y-106895915D01*
X54440000Y-106895915D01*
X54639171Y-106876298D01*
X54830687Y-106818202D01*
X55007190Y-106723860D01*
X55161896Y-106596896D01*
X55288860Y-106442190D01*
X55383202Y-106265687D01*
X55441298Y-106074171D01*
X55460915Y-105875000D01*
X55460915Y-103675000D01*
X55441298Y-103475829D01*
X55383202Y-103284313D01*
X55288860Y-103107810D01*
X55161896Y-102953104D01*
X55007190Y-102826140D01*
X54830687Y-102731798D01*
X54639171Y-102673702D01*
X54440000Y-102654085D01*
X52240000Y-102654085D01*
X52040829Y-102673702D01*
X51849313Y-102731798D01*
X51672810Y-102826140D01*
X51518104Y-102953104D01*
X51435000Y-103054366D01*
X51351896Y-102953104D01*
X51197190Y-102826140D01*
X51020687Y-102731798D01*
X50829171Y-102673702D01*
X50630000Y-102654085D01*
X48430000Y-102654085D01*
X48230829Y-102673702D01*
X48039313Y-102731798D01*
X47862810Y-102826140D01*
X47708104Y-102953104D01*
X47581140Y-103107810D01*
X47486798Y-103284313D01*
X47428702Y-103475829D01*
X47409085Y-103675000D01*
X47244000Y-103675000D01*
X47244000Y-100234432D01*
X47747842Y-100234432D01*
X47887324Y-100571749D01*
X48089933Y-100875373D01*
X48347883Y-101133636D01*
X48651261Y-101336613D01*
X48988409Y-101476503D01*
X48990569Y-101477150D01*
X49276000Y-101347088D01*
X49276000Y-99949000D01*
X49784000Y-99949000D01*
X49784000Y-101347088D01*
X50069431Y-101477150D01*
X50071591Y-101476503D01*
X50408739Y-101336613D01*
X50712117Y-101133636D01*
X50970067Y-100875373D01*
X51172676Y-100571749D01*
X51312158Y-100234432D01*
X51557842Y-100234432D01*
X51697324Y-100571749D01*
X51899933Y-100875373D01*
X52157883Y-101133636D01*
X52461261Y-101336613D01*
X52798409Y-101476503D01*
X52800569Y-101477150D01*
X53086000Y-101347088D01*
X53086000Y-99949000D01*
X53594000Y-99949000D01*
X53594000Y-101347088D01*
X53879431Y-101477150D01*
X53881591Y-101476503D01*
X54218739Y-101336613D01*
X54522117Y-101133636D01*
X54780067Y-100875373D01*
X54982676Y-100571749D01*
X55122158Y-100234432D01*
X54994102Y-99949000D01*
X53594000Y-99949000D01*
X53086000Y-99949000D01*
X51685898Y-99949000D01*
X51557842Y-100234432D01*
X51312158Y-100234432D01*
X51184102Y-99949000D01*
X49784000Y-99949000D01*
X49276000Y-99949000D01*
X47875898Y-99949000D01*
X47747842Y-100234432D01*
X47244000Y-100234432D01*
X47244000Y-99155568D01*
X47747842Y-99155568D01*
X47875898Y-99441000D01*
X49276000Y-99441000D01*
X49276000Y-98042912D01*
X49784000Y-98042912D01*
X49784000Y-99441000D01*
X51184102Y-99441000D01*
X51312158Y-99155568D01*
X51557842Y-99155568D01*
X51685898Y-99441000D01*
X53086000Y-99441000D01*
X53086000Y-98042912D01*
X53594000Y-98042912D01*
X53594000Y-99441000D01*
X54994102Y-99441000D01*
X55122158Y-99155568D01*
X54982676Y-98818251D01*
X54780067Y-98514627D01*
X54522117Y-98256364D01*
X54218739Y-98053387D01*
X53881591Y-97913497D01*
X53879431Y-97912850D01*
X53594000Y-98042912D01*
X53086000Y-98042912D01*
X52800569Y-97912850D01*
X52798409Y-97913497D01*
X52461261Y-98053387D01*
X52157883Y-98256364D01*
X51899933Y-98514627D01*
X51697324Y-98818251D01*
X51557842Y-99155568D01*
X51312158Y-99155568D01*
X51172676Y-98818251D01*
X50970067Y-98514627D01*
X50712117Y-98256364D01*
X50408739Y-98053387D01*
X50071591Y-97913497D01*
X50069431Y-97912850D01*
X49784000Y-98042912D01*
X49276000Y-98042912D01*
X48990569Y-97912850D01*
X48988409Y-97913497D01*
X48651261Y-98053387D01*
X48347883Y-98256364D01*
X48089933Y-98514627D01*
X47887324Y-98818251D01*
X47747842Y-99155568D01*
X47244000Y-99155568D01*
X47244000Y-88435000D01*
X47409085Y-88435000D01*
X47409085Y-90635000D01*
X47428702Y-90834171D01*
X47486798Y-91025687D01*
X47581140Y-91202190D01*
X47708104Y-91356896D01*
X47862810Y-91483860D01*
X48039313Y-91578202D01*
X48230829Y-91636298D01*
X48430000Y-91655915D01*
X50630000Y-91655915D01*
X50829171Y-91636298D01*
X51020687Y-91578202D01*
X51197190Y-91483860D01*
X51351896Y-91356896D01*
X51435000Y-91255634D01*
X51518104Y-91356896D01*
X51672810Y-91483860D01*
X51849313Y-91578202D01*
X52040829Y-91636298D01*
X52240000Y-91655915D01*
X54440000Y-91655915D01*
X54639171Y-91636298D01*
X54830687Y-91578202D01*
X55007190Y-91483860D01*
X55161896Y-91356896D01*
X55288860Y-91202190D01*
X55383202Y-91025687D01*
X55441298Y-90834171D01*
X55460915Y-90635000D01*
X55460915Y-88435000D01*
X55441298Y-88235829D01*
X55383202Y-88044313D01*
X55288860Y-87867810D01*
X55275537Y-87851575D01*
X55374683Y-87612214D01*
X55456000Y-87203408D01*
X55456000Y-86786592D01*
X55374683Y-86377786D01*
X55215175Y-85992698D01*
X54983604Y-85646129D01*
X54688871Y-85351396D01*
X54342302Y-85119825D01*
X53957214Y-84960317D01*
X53548408Y-84879000D01*
X53131592Y-84879000D01*
X52722786Y-84960317D01*
X52337698Y-85119825D01*
X51991129Y-85351396D01*
X51696396Y-85646129D01*
X51464825Y-85992698D01*
X51435000Y-86064702D01*
X51405175Y-85992698D01*
X51173604Y-85646129D01*
X50878871Y-85351396D01*
X50532302Y-85119825D01*
X50147214Y-84960317D01*
X49738408Y-84879000D01*
X49321592Y-84879000D01*
X48912786Y-84960317D01*
X48527698Y-85119825D01*
X48181129Y-85351396D01*
X47886396Y-85646129D01*
X47654825Y-85992698D01*
X47495317Y-86377786D01*
X47414000Y-86786592D01*
X47414000Y-87203408D01*
X47495317Y-87612214D01*
X47594463Y-87851575D01*
X47581140Y-87867810D01*
X47486798Y-88044313D01*
X47428702Y-88235829D01*
X47409085Y-88435000D01*
X47244000Y-88435000D01*
X47244000Y-75735000D01*
X47409085Y-75735000D01*
X47409085Y-77935000D01*
X47428702Y-78134171D01*
X47486798Y-78325687D01*
X47581140Y-78502190D01*
X47708104Y-78656896D01*
X47862810Y-78783860D01*
X48039313Y-78878202D01*
X48230829Y-78936298D01*
X48430000Y-78955915D01*
X50630000Y-78955915D01*
X50829171Y-78936298D01*
X51020687Y-78878202D01*
X51197190Y-78783860D01*
X51351896Y-78656896D01*
X51435000Y-78555634D01*
X51518104Y-78656896D01*
X51672810Y-78783860D01*
X51849313Y-78878202D01*
X52040829Y-78936298D01*
X52240000Y-78955915D01*
X54440000Y-78955915D01*
X54639171Y-78936298D01*
X54830687Y-78878202D01*
X55007190Y-78783860D01*
X55161896Y-78656896D01*
X55288860Y-78502190D01*
X55383202Y-78325687D01*
X55441298Y-78134171D01*
X55460915Y-77935000D01*
X55460915Y-75735000D01*
X55441298Y-75535829D01*
X55383202Y-75344313D01*
X55288860Y-75167810D01*
X55161896Y-75013104D01*
X55007190Y-74886140D01*
X54830687Y-74791798D01*
X54639171Y-74733702D01*
X54440000Y-74714085D01*
X52240000Y-74714085D01*
X52040829Y-74733702D01*
X51849313Y-74791798D01*
X51672810Y-74886140D01*
X51518104Y-75013104D01*
X51435000Y-75114366D01*
X51351896Y-75013104D01*
X51197190Y-74886140D01*
X51020687Y-74791798D01*
X50829171Y-74733702D01*
X50630000Y-74714085D01*
X48430000Y-74714085D01*
X48230829Y-74733702D01*
X48039313Y-74791798D01*
X47862810Y-74886140D01*
X47708104Y-75013104D01*
X47581140Y-75167810D01*
X47486798Y-75344313D01*
X47428702Y-75535829D01*
X47409085Y-75735000D01*
X47244000Y-75735000D01*
X47244000Y-53796140D01*
X48984000Y-53796140D01*
X48984000Y-54153860D01*
X49053788Y-54504708D01*
X49190682Y-54835199D01*
X49389421Y-55132633D01*
X49642367Y-55385579D01*
X49939801Y-55584318D01*
X50270292Y-55721212D01*
X50621140Y-55791000D01*
X50978860Y-55791000D01*
X51329708Y-55721212D01*
X51660199Y-55584318D01*
X51957633Y-55385579D01*
X52210579Y-55132633D01*
X52223654Y-55113064D01*
X55021147Y-55113064D01*
X55095088Y-55377358D01*
X55382219Y-55487933D01*
X55685406Y-55540368D01*
X55992996Y-55532647D01*
X56293169Y-55465065D01*
X56504912Y-55377358D01*
X56578853Y-55113064D01*
X55800000Y-54334210D01*
X55021147Y-55113064D01*
X52223654Y-55113064D01*
X52409318Y-54835199D01*
X52546212Y-54504708D01*
X52616000Y-54153860D01*
X52616000Y-53860406D01*
X54234632Y-53860406D01*
X54242353Y-54167996D01*
X54309935Y-54468169D01*
X54397642Y-54679912D01*
X54661936Y-54753853D01*
X55440790Y-53975000D01*
X56159210Y-53975000D01*
X56938064Y-54753853D01*
X57202358Y-54679912D01*
X57312933Y-54392781D01*
X57365368Y-54089594D01*
X57357647Y-53782004D01*
X57290065Y-53481831D01*
X57202358Y-53270088D01*
X56938064Y-53196147D01*
X56159210Y-53975000D01*
X55440790Y-53975000D01*
X54661936Y-53196147D01*
X54397642Y-53270088D01*
X54287067Y-53557219D01*
X54234632Y-53860406D01*
X52616000Y-53860406D01*
X52616000Y-53796140D01*
X52546212Y-53445292D01*
X52409318Y-53114801D01*
X52223655Y-52836936D01*
X55021147Y-52836936D01*
X55800000Y-53615790D01*
X56578853Y-52836936D01*
X56504912Y-52572642D01*
X56217781Y-52462067D01*
X55914594Y-52409632D01*
X55607004Y-52417353D01*
X55306831Y-52484935D01*
X55095088Y-52572642D01*
X55021147Y-52836936D01*
X52223655Y-52836936D01*
X52210579Y-52817367D01*
X51957633Y-52564421D01*
X51660199Y-52365682D01*
X51329708Y-52228788D01*
X50978860Y-52159000D01*
X50621140Y-52159000D01*
X50270292Y-52228788D01*
X49939801Y-52365682D01*
X49642367Y-52564421D01*
X49389421Y-52817367D01*
X49190682Y-53114801D01*
X49053788Y-53445292D01*
X48984000Y-53796140D01*
X47244000Y-53796140D01*
X47244000Y-46176140D01*
X48984000Y-46176140D01*
X48984000Y-46533860D01*
X49053788Y-46884708D01*
X49190682Y-47215199D01*
X49389421Y-47512633D01*
X49642367Y-47765579D01*
X49939801Y-47964318D01*
X50270292Y-48101212D01*
X50621140Y-48171000D01*
X50978860Y-48171000D01*
X51329708Y-48101212D01*
X51660199Y-47964318D01*
X51957633Y-47765579D01*
X52210579Y-47512633D01*
X52223654Y-47493064D01*
X55021147Y-47493064D01*
X55095088Y-47757358D01*
X55382219Y-47867933D01*
X55685406Y-47920368D01*
X55992996Y-47912647D01*
X56293169Y-47845065D01*
X56504912Y-47757358D01*
X56578853Y-47493064D01*
X55800000Y-46714210D01*
X55021147Y-47493064D01*
X52223654Y-47493064D01*
X52409318Y-47215199D01*
X52546212Y-46884708D01*
X52616000Y-46533860D01*
X52616000Y-46240406D01*
X54234632Y-46240406D01*
X54242353Y-46547996D01*
X54309935Y-46848169D01*
X54397642Y-47059912D01*
X54661936Y-47133853D01*
X55440790Y-46355000D01*
X56159210Y-46355000D01*
X56938064Y-47133853D01*
X57202358Y-47059912D01*
X57312933Y-46772781D01*
X57365368Y-46469594D01*
X57357647Y-46162004D01*
X57290065Y-45861831D01*
X57202358Y-45650088D01*
X56980661Y-45588064D01*
X76771147Y-45588064D01*
X76845088Y-45852358D01*
X77132219Y-45962933D01*
X77435406Y-46015368D01*
X77742996Y-46007647D01*
X78043169Y-45940065D01*
X78254912Y-45852358D01*
X78328853Y-45588064D01*
X77550000Y-44809210D01*
X76771147Y-45588064D01*
X56980661Y-45588064D01*
X56938064Y-45576147D01*
X56159210Y-46355000D01*
X55440790Y-46355000D01*
X54661936Y-45576147D01*
X54397642Y-45650088D01*
X54287067Y-45937219D01*
X54234632Y-46240406D01*
X52616000Y-46240406D01*
X52616000Y-46176140D01*
X52546212Y-45825292D01*
X52409318Y-45494801D01*
X52223655Y-45216936D01*
X55021147Y-45216936D01*
X55800000Y-45995790D01*
X56578853Y-45216936D01*
X56504912Y-44952642D01*
X56217781Y-44842067D01*
X55914594Y-44789632D01*
X55607004Y-44797353D01*
X55306831Y-44864935D01*
X55095088Y-44952642D01*
X55021147Y-45216936D01*
X52223655Y-45216936D01*
X52210579Y-45197367D01*
X51957633Y-44944421D01*
X51660199Y-44745682D01*
X51329708Y-44608788D01*
X50978860Y-44539000D01*
X50621140Y-44539000D01*
X50270292Y-44608788D01*
X49939801Y-44745682D01*
X49642367Y-44944421D01*
X49389421Y-45197367D01*
X49190682Y-45494801D01*
X49053788Y-45825292D01*
X48984000Y-46176140D01*
X47244000Y-46176140D01*
X47244000Y-44335406D01*
X75984632Y-44335406D01*
X75992353Y-44642996D01*
X76059935Y-44943169D01*
X76147642Y-45154912D01*
X76411936Y-45228853D01*
X77190790Y-44450000D01*
X77909210Y-44450000D01*
X78688064Y-45228853D01*
X78952358Y-45154912D01*
X79062933Y-44867781D01*
X79115368Y-44564594D01*
X79107647Y-44257004D01*
X79040065Y-43956831D01*
X78952358Y-43745088D01*
X78688064Y-43671147D01*
X77909210Y-44450000D01*
X77190790Y-44450000D01*
X76411936Y-43671147D01*
X76147642Y-43745088D01*
X76037067Y-44032219D01*
X75984632Y-44335406D01*
X47244000Y-44335406D01*
X47244000Y-39524940D01*
X47394025Y-39524940D01*
X47394025Y-43025060D01*
X47413642Y-43224231D01*
X47471738Y-43415747D01*
X47566080Y-43592250D01*
X47693044Y-43746956D01*
X47847750Y-43873920D01*
X48024253Y-43968262D01*
X48215769Y-44026358D01*
X48414940Y-44045975D01*
X51915060Y-44045975D01*
X52114231Y-44026358D01*
X52305747Y-43968262D01*
X52482250Y-43873920D01*
X52636956Y-43746956D01*
X52763920Y-43592250D01*
X52858262Y-43415747D01*
X52916358Y-43224231D01*
X52929087Y-43094987D01*
X53784223Y-43094987D01*
X53974325Y-43456065D01*
X54424245Y-43662053D01*
X54905706Y-43776308D01*
X55400206Y-43794439D01*
X55888742Y-43715749D01*
X56352539Y-43543263D01*
X56515675Y-43456065D01*
X56591556Y-43311936D01*
X76771147Y-43311936D01*
X77550000Y-44090790D01*
X78328853Y-43311936D01*
X78254912Y-43047642D01*
X77967781Y-42937067D01*
X77664594Y-42884632D01*
X77357004Y-42892353D01*
X77056831Y-42959935D01*
X76845088Y-43047642D01*
X76771147Y-43311936D01*
X56591556Y-43311936D01*
X56705777Y-43094987D01*
X55245000Y-41634210D01*
X53784223Y-43094987D01*
X52929087Y-43094987D01*
X52935975Y-43025060D01*
X52935975Y-42272934D01*
X52976737Y-42382539D01*
X53063935Y-42545675D01*
X53425013Y-42735777D01*
X54885790Y-41275000D01*
X55604210Y-41275000D01*
X57064987Y-42735777D01*
X57426065Y-42545675D01*
X57632053Y-42095755D01*
X57746308Y-41614294D01*
X57764439Y-41119794D01*
X57685749Y-40631258D01*
X57513263Y-40167461D01*
X57426065Y-40004325D01*
X57064987Y-39814223D01*
X55604210Y-41275000D01*
X54885790Y-41275000D01*
X53425013Y-39814223D01*
X53063935Y-40004325D01*
X52935975Y-40283816D01*
X52935975Y-39524940D01*
X52929088Y-39455013D01*
X53784223Y-39455013D01*
X55245000Y-40915790D01*
X56705777Y-39455013D01*
X56515675Y-39093935D01*
X56065755Y-38887947D01*
X55584294Y-38773692D01*
X55089794Y-38755561D01*
X54601258Y-38834251D01*
X54137461Y-39006737D01*
X53974325Y-39093935D01*
X53784223Y-39455013D01*
X52929088Y-39455013D01*
X52916358Y-39325769D01*
X52858262Y-39134253D01*
X52763920Y-38957750D01*
X52636956Y-38803044D01*
X52482250Y-38676080D01*
X52305747Y-38581738D01*
X52114231Y-38523642D01*
X51915060Y-38504025D01*
X48414940Y-38504025D01*
X48215769Y-38523642D01*
X48024253Y-38581738D01*
X47847750Y-38676080D01*
X47693044Y-38803044D01*
X47566080Y-38957750D01*
X47471738Y-39134253D01*
X47413642Y-39325769D01*
X47394025Y-39524940D01*
X47244000Y-39524940D01*
X47244000Y-37921140D01*
X62954000Y-37921140D01*
X62954000Y-38278860D01*
X63023788Y-38629708D01*
X63160682Y-38960199D01*
X63359421Y-39257633D01*
X63612367Y-39510579D01*
X63909801Y-39709318D01*
X64240292Y-39846212D01*
X64591140Y-39916000D01*
X64948860Y-39916000D01*
X65299708Y-39846212D01*
X65630199Y-39709318D01*
X65927633Y-39510579D01*
X66180579Y-39257633D01*
X66193654Y-39238064D01*
X68991147Y-39238064D01*
X69065088Y-39502358D01*
X69352219Y-39612933D01*
X69655406Y-39665368D01*
X69962996Y-39657647D01*
X70263169Y-39590065D01*
X70474912Y-39502358D01*
X70548853Y-39238064D01*
X69770000Y-38459210D01*
X68991147Y-39238064D01*
X66193654Y-39238064D01*
X66379318Y-38960199D01*
X66516212Y-38629708D01*
X66586000Y-38278860D01*
X66586000Y-37985406D01*
X68204632Y-37985406D01*
X68212353Y-38292996D01*
X68279935Y-38593169D01*
X68367642Y-38804912D01*
X68631936Y-38878853D01*
X69410790Y-38100000D01*
X70129210Y-38100000D01*
X70908064Y-38878853D01*
X71172358Y-38804912D01*
X71282933Y-38517781D01*
X71335368Y-38214594D01*
X71327647Y-37907004D01*
X71260065Y-37606831D01*
X71172358Y-37395088D01*
X70908064Y-37321147D01*
X70129210Y-38100000D01*
X69410790Y-38100000D01*
X68631936Y-37321147D01*
X68367642Y-37395088D01*
X68257067Y-37682219D01*
X68204632Y-37985406D01*
X66586000Y-37985406D01*
X66586000Y-37921140D01*
X66516212Y-37570292D01*
X66379318Y-37239801D01*
X66193655Y-36961936D01*
X68991147Y-36961936D01*
X69770000Y-37740790D01*
X70548853Y-36961936D01*
X70474912Y-36697642D01*
X70187781Y-36587067D01*
X69884594Y-36534632D01*
X69577004Y-36542353D01*
X69276831Y-36609935D01*
X69065088Y-36697642D01*
X68991147Y-36961936D01*
X66193655Y-36961936D01*
X66180579Y-36942367D01*
X65927633Y-36689421D01*
X65630199Y-36490682D01*
X65299708Y-36353788D01*
X64948860Y-36284000D01*
X64591140Y-36284000D01*
X64240292Y-36353788D01*
X63909801Y-36490682D01*
X63612367Y-36689421D01*
X63359421Y-36942367D01*
X63160682Y-37239801D01*
X63023788Y-37570292D01*
X62954000Y-37921140D01*
X47244000Y-37921140D01*
X47244000Y-36744987D01*
X53784223Y-36744987D01*
X53974325Y-37106065D01*
X54424245Y-37312053D01*
X54905706Y-37426308D01*
X55400206Y-37444439D01*
X55888742Y-37365749D01*
X56352539Y-37193263D01*
X56515675Y-37106065D01*
X56705777Y-36744987D01*
X55245000Y-35284210D01*
X53784223Y-36744987D01*
X47244000Y-36744987D01*
X47244000Y-34781973D01*
X48047490Y-34781973D01*
X48171955Y-35061743D01*
X48348609Y-35311856D01*
X48570663Y-35522699D01*
X48829584Y-35686170D01*
X49038029Y-35772501D01*
X49276000Y-35637775D01*
X49276000Y-34544000D01*
X49784000Y-34544000D01*
X49784000Y-35637775D01*
X50021971Y-35772501D01*
X50230416Y-35686170D01*
X50489337Y-35522699D01*
X50711391Y-35311856D01*
X50875004Y-35080206D01*
X52725561Y-35080206D01*
X52804251Y-35568742D01*
X52976737Y-36032539D01*
X53063935Y-36195675D01*
X53425013Y-36385777D01*
X54885790Y-34925000D01*
X55604210Y-34925000D01*
X57064987Y-36385777D01*
X57426065Y-36195675D01*
X57554025Y-35916184D01*
X57554025Y-36675060D01*
X57573642Y-36874231D01*
X57631738Y-37065747D01*
X57726080Y-37242250D01*
X57853044Y-37396956D01*
X58007750Y-37523920D01*
X58184253Y-37618262D01*
X58375769Y-37676358D01*
X58574940Y-37695975D01*
X62075060Y-37695975D01*
X62274231Y-37676358D01*
X62465747Y-37618262D01*
X62642250Y-37523920D01*
X62796956Y-37396956D01*
X62923920Y-37242250D01*
X63018262Y-37065747D01*
X63076358Y-36874231D01*
X63095975Y-36675060D01*
X63095975Y-33174940D01*
X63076358Y-32975769D01*
X63018262Y-32784253D01*
X62923920Y-32607750D01*
X62796956Y-32453044D01*
X62642250Y-32326080D01*
X62465747Y-32231738D01*
X62274231Y-32173642D01*
X62075060Y-32154025D01*
X58574940Y-32154025D01*
X58375769Y-32173642D01*
X58184253Y-32231738D01*
X58007750Y-32326080D01*
X57853044Y-32453044D01*
X57726080Y-32607750D01*
X57631738Y-32784253D01*
X57573642Y-32975769D01*
X57554025Y-33174940D01*
X57554025Y-33927066D01*
X57513263Y-33817461D01*
X57426065Y-33654325D01*
X57064987Y-33464223D01*
X55604210Y-34925000D01*
X54885790Y-34925000D01*
X53425013Y-33464223D01*
X53063935Y-33654325D01*
X52857947Y-34104245D01*
X52743692Y-34585706D01*
X52725561Y-35080206D01*
X50875004Y-35080206D01*
X50888045Y-35061743D01*
X51012510Y-34781973D01*
X50880719Y-34544000D01*
X49784000Y-34544000D01*
X49276000Y-34544000D01*
X48179281Y-34544000D01*
X48047490Y-34781973D01*
X47244000Y-34781973D01*
X47244000Y-33798027D01*
X48047490Y-33798027D01*
X48179281Y-34036000D01*
X49276000Y-34036000D01*
X49276000Y-32942225D01*
X49784000Y-32942225D01*
X49784000Y-34036000D01*
X50880719Y-34036000D01*
X51012510Y-33798027D01*
X50888045Y-33518257D01*
X50711391Y-33268144D01*
X50539586Y-33105013D01*
X53784223Y-33105013D01*
X55245000Y-34565790D01*
X56705777Y-33105013D01*
X56515675Y-32743935D01*
X56065755Y-32537947D01*
X55584294Y-32423692D01*
X55089794Y-32405561D01*
X54601258Y-32484251D01*
X54137461Y-32656737D01*
X53974325Y-32743935D01*
X53784223Y-33105013D01*
X50539586Y-33105013D01*
X50489337Y-33057301D01*
X50230416Y-32893830D01*
X50021971Y-32807499D01*
X49784000Y-32942225D01*
X49276000Y-32942225D01*
X49038029Y-32807499D01*
X48829584Y-32893830D01*
X48570663Y-33057301D01*
X48348609Y-33268144D01*
X48171955Y-33518257D01*
X48047490Y-33798027D01*
X47244000Y-33798027D01*
X47244000Y-27116290D01*
X59044000Y-27116290D01*
X59044000Y-27493710D01*
X59117631Y-27863877D01*
X59262063Y-28212566D01*
X59471745Y-28526379D01*
X59738621Y-28793255D01*
X60052434Y-29002937D01*
X60401123Y-29147369D01*
X60771290Y-29221000D01*
X61148710Y-29221000D01*
X61518877Y-29147369D01*
X61867566Y-29002937D01*
X61924448Y-28964930D01*
X62032810Y-29053860D01*
X62209313Y-29148202D01*
X62400829Y-29206298D01*
X62600000Y-29225915D01*
X64400000Y-29225915D01*
X64599171Y-29206298D01*
X64790687Y-29148202D01*
X64967190Y-29053860D01*
X65121896Y-28926896D01*
X65248860Y-28772190D01*
X65343202Y-28595687D01*
X65401298Y-28404171D01*
X65420915Y-28205000D01*
X65420915Y-26405000D01*
X65401298Y-26205829D01*
X65343202Y-26014313D01*
X65248860Y-25837810D01*
X65121896Y-25683104D01*
X64967190Y-25556140D01*
X64790687Y-25461798D01*
X64599171Y-25403702D01*
X64400000Y-25384085D01*
X62600000Y-25384085D01*
X62400829Y-25403702D01*
X62209313Y-25461798D01*
X62032810Y-25556140D01*
X61924448Y-25645070D01*
X61867566Y-25607063D01*
X61518877Y-25462631D01*
X61148710Y-25389000D01*
X60771290Y-25389000D01*
X60401123Y-25462631D01*
X60052434Y-25607063D01*
X59738621Y-25816745D01*
X59471745Y-26083621D01*
X59262063Y-26397434D01*
X59117631Y-26746123D01*
X59044000Y-27116290D01*
X47244000Y-27116290D01*
X47244000Y-23951140D01*
X47714000Y-23951140D01*
X47714000Y-24308860D01*
X47783788Y-24659708D01*
X47920682Y-24990199D01*
X48119421Y-25287633D01*
X48372367Y-25540579D01*
X48669801Y-25739318D01*
X49000292Y-25876212D01*
X49351140Y-25946000D01*
X49708860Y-25946000D01*
X50059708Y-25876212D01*
X50390199Y-25739318D01*
X50687633Y-25540579D01*
X50940579Y-25287633D01*
X51139318Y-24990199D01*
X51276212Y-24659708D01*
X51346000Y-24308860D01*
X51346000Y-23951140D01*
X51276212Y-23600292D01*
X51139318Y-23269801D01*
X50940579Y-22972367D01*
X50696276Y-22728064D01*
X65896147Y-22728064D01*
X65970088Y-22992358D01*
X66257219Y-23102933D01*
X66560406Y-23155368D01*
X66867996Y-23147647D01*
X67168169Y-23080065D01*
X67379912Y-22992358D01*
X67453853Y-22728064D01*
X66675000Y-21949210D01*
X65896147Y-22728064D01*
X50696276Y-22728064D01*
X50687633Y-22719421D01*
X50390199Y-22520682D01*
X50059708Y-22383788D01*
X49708860Y-22314000D01*
X49351140Y-22314000D01*
X49000292Y-22383788D01*
X48669801Y-22520682D01*
X48372367Y-22719421D01*
X48119421Y-22972367D01*
X47920682Y-23269801D01*
X47783788Y-23600292D01*
X47714000Y-23951140D01*
X47244000Y-23951140D01*
X47244000Y-18785000D01*
X48244085Y-18785000D01*
X48244085Y-20585000D01*
X48263702Y-20784171D01*
X48321798Y-20975687D01*
X48416140Y-21152190D01*
X48543104Y-21306896D01*
X48697810Y-21433860D01*
X48874313Y-21528202D01*
X49065829Y-21586298D01*
X49265000Y-21605915D01*
X51065000Y-21605915D01*
X51264171Y-21586298D01*
X51455687Y-21528202D01*
X51632190Y-21433860D01*
X51740552Y-21344930D01*
X51797434Y-21382937D01*
X52146123Y-21527369D01*
X52516290Y-21601000D01*
X52893710Y-21601000D01*
X53263877Y-21527369D01*
X53389326Y-21475406D01*
X65109632Y-21475406D01*
X65117353Y-21782996D01*
X65184935Y-22083169D01*
X65272642Y-22294912D01*
X65536936Y-22368853D01*
X66315790Y-21590000D01*
X65536936Y-20811147D01*
X65272642Y-20885088D01*
X65162067Y-21172219D01*
X65109632Y-21475406D01*
X53389326Y-21475406D01*
X53612566Y-21382937D01*
X53926379Y-21173255D01*
X54193255Y-20906379D01*
X54402937Y-20592566D01*
X54547369Y-20243877D01*
X54553350Y-20213810D01*
X54620088Y-20452358D01*
X54907219Y-20562933D01*
X55210406Y-20615368D01*
X55517996Y-20607647D01*
X55818169Y-20540065D01*
X56029912Y-20452358D01*
X56103853Y-20188064D01*
X55325000Y-19409210D01*
X55310858Y-19423353D01*
X54951648Y-19064143D01*
X54965790Y-19050000D01*
X55684210Y-19050000D01*
X56463064Y-19828853D01*
X56727358Y-19754912D01*
X56837933Y-19467781D01*
X56890368Y-19164594D01*
X56883002Y-18871140D01*
X58509000Y-18871140D01*
X58509000Y-19228860D01*
X58578788Y-19579708D01*
X58715682Y-19910199D01*
X58914421Y-20207633D01*
X59167367Y-20460579D01*
X59464801Y-20659318D01*
X59795292Y-20796212D01*
X60146140Y-20866000D01*
X60503860Y-20866000D01*
X60854708Y-20796212D01*
X61185199Y-20659318D01*
X61482633Y-20460579D01*
X61623212Y-20320000D01*
X65933058Y-20320000D01*
X65896147Y-20451936D01*
X66675000Y-21230790D01*
X66689142Y-21216647D01*
X67048353Y-21575858D01*
X67034210Y-21590000D01*
X67813064Y-22368853D01*
X67945000Y-22331941D01*
X67945001Y-30451789D01*
X67832633Y-30339421D01*
X67535199Y-30140682D01*
X67204708Y-30003788D01*
X66853860Y-29934000D01*
X66496140Y-29934000D01*
X66145292Y-30003788D01*
X65814801Y-30140682D01*
X65517367Y-30339421D01*
X65264421Y-30592367D01*
X65065682Y-30889801D01*
X64928788Y-31220292D01*
X64859000Y-31571140D01*
X64859000Y-31928860D01*
X64928788Y-32279708D01*
X65065682Y-32610199D01*
X65264421Y-32907633D01*
X65517367Y-33160579D01*
X65814801Y-33359318D01*
X66145292Y-33496212D01*
X66496140Y-33566000D01*
X66853860Y-33566000D01*
X67204708Y-33496212D01*
X67535199Y-33359318D01*
X67832633Y-33160579D01*
X68085579Y-32907633D01*
X68094046Y-32894961D01*
X68153926Y-33006988D01*
X68312631Y-33200370D01*
X68361087Y-33240137D01*
X75344863Y-40223914D01*
X75384630Y-40272370D01*
X75578012Y-40431075D01*
X75798641Y-40549003D01*
X75934374Y-40590177D01*
X75946140Y-40612190D01*
X76073104Y-40766896D01*
X76227810Y-40893860D01*
X76404313Y-40988202D01*
X76595829Y-41046298D01*
X76795000Y-41065915D01*
X78145000Y-41065915D01*
X78344171Y-41046298D01*
X78535687Y-40988202D01*
X78712190Y-40893860D01*
X78718206Y-40888922D01*
X78976754Y-40996016D01*
X79303451Y-41061000D01*
X79636549Y-41061000D01*
X79963246Y-40996016D01*
X80270989Y-40868545D01*
X80470000Y-40735570D01*
X80669011Y-40868545D01*
X80976754Y-40996016D01*
X81303451Y-41061000D01*
X81636549Y-41061000D01*
X81963246Y-40996016D01*
X82270989Y-40868545D01*
X82470000Y-40735570D01*
X82669011Y-40868545D01*
X82976754Y-40996016D01*
X83303451Y-41061000D01*
X83636549Y-41061000D01*
X83963246Y-40996016D01*
X84270989Y-40868545D01*
X84470000Y-40735570D01*
X84669011Y-40868545D01*
X84976754Y-40996016D01*
X85303451Y-41061000D01*
X85636549Y-41061000D01*
X85963246Y-40996016D01*
X86270989Y-40868545D01*
X86470000Y-40735570D01*
X86669011Y-40868545D01*
X86976754Y-40996016D01*
X87303451Y-41061000D01*
X87636549Y-41061000D01*
X87963246Y-40996016D01*
X88270989Y-40868545D01*
X88470000Y-40735570D01*
X88669011Y-40868545D01*
X88976754Y-40996016D01*
X89303451Y-41061000D01*
X89636549Y-41061000D01*
X89963246Y-40996016D01*
X90270989Y-40868545D01*
X90470000Y-40735570D01*
X90669011Y-40868545D01*
X90976754Y-40996016D01*
X91303451Y-41061000D01*
X91636549Y-41061000D01*
X91963246Y-40996016D01*
X92270989Y-40868545D01*
X92470000Y-40735570D01*
X92669011Y-40868545D01*
X92976754Y-40996016D01*
X93303451Y-41061000D01*
X93636549Y-41061000D01*
X93963246Y-40996016D01*
X94270989Y-40868545D01*
X94547950Y-40683485D01*
X94672702Y-40558733D01*
X94844136Y-40663558D01*
X94997870Y-40727226D01*
X95216000Y-40590347D01*
X95216000Y-39624000D01*
X95724000Y-39624000D01*
X95724000Y-40590347D01*
X95942130Y-40727226D01*
X96095864Y-40663558D01*
X96336199Y-40516603D01*
X96543246Y-40325584D01*
X96709049Y-40097843D01*
X96827236Y-39842131D01*
X96693884Y-39624000D01*
X95724000Y-39624000D01*
X95216000Y-39624000D01*
X95196000Y-39624000D01*
X95196000Y-39116000D01*
X95216000Y-39116000D01*
X95216000Y-38149653D01*
X95724000Y-38149653D01*
X95724000Y-39116000D01*
X96693884Y-39116000D01*
X96827236Y-38897869D01*
X96709049Y-38642157D01*
X96543246Y-38414416D01*
X96336199Y-38223397D01*
X96095864Y-38076442D01*
X95942130Y-38012774D01*
X95724000Y-38149653D01*
X95216000Y-38149653D01*
X94997870Y-38012774D01*
X94844136Y-38076442D01*
X94672702Y-38181267D01*
X94547950Y-38056515D01*
X94270989Y-37871455D01*
X93963246Y-37743984D01*
X93636549Y-37679000D01*
X93303451Y-37679000D01*
X92976754Y-37743984D01*
X92669011Y-37871455D01*
X92470000Y-38004430D01*
X92270989Y-37871455D01*
X91963246Y-37743984D01*
X91636549Y-37679000D01*
X91303451Y-37679000D01*
X90976754Y-37743984D01*
X90669011Y-37871455D01*
X90470000Y-38004430D01*
X90270989Y-37871455D01*
X89963246Y-37743984D01*
X89636549Y-37679000D01*
X89303451Y-37679000D01*
X88976754Y-37743984D01*
X88669011Y-37871455D01*
X88470000Y-38004430D01*
X88270989Y-37871455D01*
X87963246Y-37743984D01*
X87636549Y-37679000D01*
X87303451Y-37679000D01*
X86976754Y-37743984D01*
X86669011Y-37871455D01*
X86470000Y-38004430D01*
X86270989Y-37871455D01*
X85963246Y-37743984D01*
X85636549Y-37679000D01*
X85303451Y-37679000D01*
X84976754Y-37743984D01*
X84669011Y-37871455D01*
X84470000Y-38004430D01*
X84270989Y-37871455D01*
X83963246Y-37743984D01*
X83636549Y-37679000D01*
X83303451Y-37679000D01*
X82976754Y-37743984D01*
X82740000Y-37842050D01*
X82740000Y-34542372D01*
X82746143Y-34479999D01*
X82740000Y-34417626D01*
X82740000Y-34417620D01*
X82721623Y-34231037D01*
X82649003Y-33991641D01*
X82531075Y-33771012D01*
X82372370Y-33577630D01*
X82323915Y-33537864D01*
X75237141Y-26451091D01*
X75197370Y-26402630D01*
X75003988Y-26243925D01*
X74783359Y-26125997D01*
X74543963Y-26053377D01*
X74357380Y-26035000D01*
X74357373Y-26035000D01*
X74295000Y-26028857D01*
X74232627Y-26035000D01*
X73256037Y-26035000D01*
X73151896Y-25908104D01*
X72997190Y-25781140D01*
X72820687Y-25686798D01*
X72629171Y-25628702D01*
X72430000Y-25609085D01*
X71080000Y-25609085D01*
X70880829Y-25628702D01*
X70689313Y-25686798D01*
X70512810Y-25781140D01*
X70485000Y-25803963D01*
X70485000Y-20382372D01*
X70491143Y-20319999D01*
X70485000Y-20257626D01*
X70485000Y-20257620D01*
X70466623Y-20071037D01*
X70394003Y-19831641D01*
X70276075Y-19611012D01*
X70117370Y-19417630D01*
X70068915Y-19377864D01*
X68887141Y-18196091D01*
X68847370Y-18147630D01*
X68653988Y-17988925D01*
X68433359Y-17870997D01*
X68193963Y-17798377D01*
X68007380Y-17780000D01*
X68007373Y-17780000D01*
X67945000Y-17773857D01*
X67882627Y-17780000D01*
X61623212Y-17780000D01*
X61482633Y-17639421D01*
X61185199Y-17440682D01*
X60854708Y-17303788D01*
X60503860Y-17234000D01*
X60146140Y-17234000D01*
X59795292Y-17303788D01*
X59464801Y-17440682D01*
X59167367Y-17639421D01*
X58914421Y-17892367D01*
X58715682Y-18189801D01*
X58578788Y-18520292D01*
X58509000Y-18871140D01*
X56883002Y-18871140D01*
X56882647Y-18857004D01*
X56815065Y-18556831D01*
X56727358Y-18345088D01*
X56463064Y-18271147D01*
X55684210Y-19050000D01*
X54965790Y-19050000D01*
X54186936Y-18271147D01*
X54041476Y-18311842D01*
X53926379Y-18196745D01*
X53612566Y-17987063D01*
X53431194Y-17911936D01*
X54546147Y-17911936D01*
X55325000Y-18690790D01*
X56103853Y-17911936D01*
X56029912Y-17647642D01*
X55742781Y-17537067D01*
X55439594Y-17484632D01*
X55132004Y-17492353D01*
X54831831Y-17559935D01*
X54620088Y-17647642D01*
X54546147Y-17911936D01*
X53431194Y-17911936D01*
X53263877Y-17842631D01*
X52893710Y-17769000D01*
X52516290Y-17769000D01*
X52146123Y-17842631D01*
X51797434Y-17987063D01*
X51740552Y-18025070D01*
X51632190Y-17936140D01*
X51455687Y-17841798D01*
X51264171Y-17783702D01*
X51065000Y-17764085D01*
X49265000Y-17764085D01*
X49065829Y-17783702D01*
X48874313Y-17841798D01*
X48697810Y-17936140D01*
X48543104Y-18063104D01*
X48416140Y-18217810D01*
X48321798Y-18394313D01*
X48263702Y-18585829D01*
X48244085Y-18785000D01*
X47244000Y-18785000D01*
X47244000Y-16470000D01*
X75774085Y-16470000D01*
X75774085Y-17820000D01*
X75793702Y-18019171D01*
X75851798Y-18210687D01*
X75946140Y-18387190D01*
X76073104Y-18541896D01*
X76227810Y-18668860D01*
X76404313Y-18763202D01*
X76595829Y-18821298D01*
X76795000Y-18840915D01*
X78145000Y-18840915D01*
X78344171Y-18821298D01*
X78535687Y-18763202D01*
X78712190Y-18668860D01*
X78718206Y-18663922D01*
X78976754Y-18771016D01*
X79303451Y-18836000D01*
X79636549Y-18836000D01*
X79963246Y-18771016D01*
X80270989Y-18643545D01*
X80470000Y-18510570D01*
X80669011Y-18643545D01*
X80976754Y-18771016D01*
X81303451Y-18836000D01*
X81636549Y-18836000D01*
X81963246Y-18771016D01*
X82270989Y-18643545D01*
X82470000Y-18510570D01*
X82669011Y-18643545D01*
X82976754Y-18771016D01*
X83303451Y-18836000D01*
X83636549Y-18836000D01*
X83963246Y-18771016D01*
X84270989Y-18643545D01*
X84470000Y-18510570D01*
X84669011Y-18643545D01*
X84976754Y-18771016D01*
X85303451Y-18836000D01*
X85636549Y-18836000D01*
X85963246Y-18771016D01*
X86270989Y-18643545D01*
X86470000Y-18510570D01*
X86669011Y-18643545D01*
X86976754Y-18771016D01*
X87303451Y-18836000D01*
X87636549Y-18836000D01*
X87963246Y-18771016D01*
X88270989Y-18643545D01*
X88470000Y-18510570D01*
X88669011Y-18643545D01*
X88976754Y-18771016D01*
X89303451Y-18836000D01*
X89636549Y-18836000D01*
X89963246Y-18771016D01*
X90270989Y-18643545D01*
X90470000Y-18510570D01*
X90669011Y-18643545D01*
X90976754Y-18771016D01*
X91303451Y-18836000D01*
X91636549Y-18836000D01*
X91963246Y-18771016D01*
X92270989Y-18643545D01*
X92470000Y-18510570D01*
X92669011Y-18643545D01*
X92976754Y-18771016D01*
X93303451Y-18836000D01*
X93636549Y-18836000D01*
X93963246Y-18771016D01*
X94270989Y-18643545D01*
X94470000Y-18510570D01*
X94669011Y-18643545D01*
X94976754Y-18771016D01*
X95303451Y-18836000D01*
X95636549Y-18836000D01*
X95963246Y-18771016D01*
X96270989Y-18643545D01*
X96547950Y-18458485D01*
X96783485Y-18222950D01*
X96968545Y-17945989D01*
X97096016Y-17638246D01*
X97161000Y-17311549D01*
X97161000Y-16978451D01*
X97096016Y-16651754D01*
X96968545Y-16344011D01*
X96783485Y-16067050D01*
X96547950Y-15831515D01*
X96270989Y-15646455D01*
X95963246Y-15518984D01*
X95636549Y-15454000D01*
X95303451Y-15454000D01*
X94976754Y-15518984D01*
X94669011Y-15646455D01*
X94470000Y-15779430D01*
X94270989Y-15646455D01*
X93963246Y-15518984D01*
X93636549Y-15454000D01*
X93303451Y-15454000D01*
X92976754Y-15518984D01*
X92669011Y-15646455D01*
X92470000Y-15779430D01*
X92270989Y-15646455D01*
X91963246Y-15518984D01*
X91636549Y-15454000D01*
X91303451Y-15454000D01*
X90976754Y-15518984D01*
X90669011Y-15646455D01*
X90470000Y-15779430D01*
X90270989Y-15646455D01*
X89963246Y-15518984D01*
X89636549Y-15454000D01*
X89303451Y-15454000D01*
X88976754Y-15518984D01*
X88669011Y-15646455D01*
X88470000Y-15779430D01*
X88270989Y-15646455D01*
X87963246Y-15518984D01*
X87636549Y-15454000D01*
X87303451Y-15454000D01*
X86976754Y-15518984D01*
X86669011Y-15646455D01*
X86470000Y-15779430D01*
X86270989Y-15646455D01*
X85963246Y-15518984D01*
X85636549Y-15454000D01*
X85303451Y-15454000D01*
X84976754Y-15518984D01*
X84669011Y-15646455D01*
X84470000Y-15779430D01*
X84270989Y-15646455D01*
X83963246Y-15518984D01*
X83636549Y-15454000D01*
X83303451Y-15454000D01*
X82976754Y-15518984D01*
X82669011Y-15646455D01*
X82470000Y-15779430D01*
X82270989Y-15646455D01*
X81963246Y-15518984D01*
X81636549Y-15454000D01*
X81303451Y-15454000D01*
X80976754Y-15518984D01*
X80669011Y-15646455D01*
X80470000Y-15779430D01*
X80270989Y-15646455D01*
X79963246Y-15518984D01*
X79636549Y-15454000D01*
X79303451Y-15454000D01*
X78976754Y-15518984D01*
X78718206Y-15626078D01*
X78712190Y-15621140D01*
X78535687Y-15526798D01*
X78344171Y-15468702D01*
X78145000Y-15449085D01*
X76795000Y-15449085D01*
X76595829Y-15468702D01*
X76404313Y-15526798D01*
X76227810Y-15621140D01*
X76073104Y-15748104D01*
X75946140Y-15902810D01*
X75851798Y-16079313D01*
X75793702Y-16270829D01*
X75774085Y-16470000D01*
X47244000Y-16470000D01*
X47244000Y-14859000D01*
X102616000Y-14859000D01*
X102616000Y-46861088D01*
M02*
