G04 #@! TF.GenerationSoftware,KiCad,Pcbnew,(5.1.5)-3*
G04 #@! TF.CreationDate,2020-02-27T17:39:31-08:00*
G04 #@! TF.ProjectId,MobileCloud,4d6f6269-6c65-4436-9c6f-75642e6b6963,C*
G04 #@! TF.SameCoordinates,Original*
G04 #@! TF.FileFunction,Soldermask,Top*
G04 #@! TF.FilePolarity,Negative*
%FSLAX46Y46*%
G04 Gerber Fmt 4.6, Leading zero omitted, Abs format (unit mm)*
G04 Created by KiCad (PCBNEW (5.1.5)-3) date 2020-02-27 17:39:31*
%MOMM*%
%LPD*%
G04 APERTURE LIST*
%ADD10C,0.100000*%
G04 APERTURE END LIST*
D10*
G36*
X53564549Y-126506116D02*
G01*
X53675734Y-126528232D01*
X53823850Y-126589584D01*
X53882700Y-126613960D01*
X53885203Y-126614997D01*
X54073720Y-126740960D01*
X54234040Y-126901280D01*
X54360003Y-127089797D01*
X54446768Y-127299266D01*
X54491000Y-127521636D01*
X54491000Y-127748364D01*
X54446768Y-127970734D01*
X54360003Y-128180203D01*
X54234040Y-128368720D01*
X54073720Y-128529040D01*
X53885203Y-128655003D01*
X53885202Y-128655004D01*
X53885201Y-128655004D01*
X53823850Y-128680416D01*
X53675734Y-128741768D01*
X53564549Y-128763884D01*
X53453365Y-128786000D01*
X53226635Y-128786000D01*
X53115451Y-128763884D01*
X53004266Y-128741768D01*
X52856150Y-128680416D01*
X52794799Y-128655004D01*
X52794798Y-128655004D01*
X52794797Y-128655003D01*
X52606280Y-128529040D01*
X52445960Y-128368720D01*
X52319997Y-128180203D01*
X52233232Y-127970734D01*
X52189000Y-127748364D01*
X52189000Y-127521636D01*
X52233232Y-127299266D01*
X52319997Y-127089797D01*
X52445960Y-126901280D01*
X52606280Y-126740960D01*
X52794797Y-126614997D01*
X52797301Y-126613960D01*
X52856150Y-126589584D01*
X53004266Y-126528232D01*
X53115451Y-126506116D01*
X53226635Y-126484000D01*
X53453365Y-126484000D01*
X53564549Y-126506116D01*
G37*
G36*
X49754549Y-126506116D02*
G01*
X49865734Y-126528232D01*
X50013850Y-126589584D01*
X50072700Y-126613960D01*
X50075203Y-126614997D01*
X50263720Y-126740960D01*
X50424040Y-126901280D01*
X50550003Y-127089797D01*
X50636768Y-127299266D01*
X50681000Y-127521636D01*
X50681000Y-127748364D01*
X50636768Y-127970734D01*
X50550003Y-128180203D01*
X50424040Y-128368720D01*
X50263720Y-128529040D01*
X50075203Y-128655003D01*
X50075202Y-128655004D01*
X50075201Y-128655004D01*
X50013850Y-128680416D01*
X49865734Y-128741768D01*
X49754549Y-128763884D01*
X49643365Y-128786000D01*
X49416635Y-128786000D01*
X49305451Y-128763884D01*
X49194266Y-128741768D01*
X49046150Y-128680416D01*
X48984799Y-128655004D01*
X48984798Y-128655004D01*
X48984797Y-128655003D01*
X48796280Y-128529040D01*
X48635960Y-128368720D01*
X48509997Y-128180203D01*
X48423232Y-127970734D01*
X48379000Y-127748364D01*
X48379000Y-127521636D01*
X48423232Y-127299266D01*
X48509997Y-127089797D01*
X48635960Y-126901280D01*
X48796280Y-126740960D01*
X48984797Y-126614997D01*
X48987301Y-126613960D01*
X49046150Y-126589584D01*
X49194266Y-126528232D01*
X49305451Y-126506116D01*
X49416635Y-126484000D01*
X49643365Y-126484000D01*
X49754549Y-126506116D01*
G37*
G36*
X94966549Y-126379116D02*
G01*
X95077734Y-126401232D01*
X95225850Y-126462584D01*
X95277554Y-126484000D01*
X95287203Y-126487997D01*
X95475720Y-126613960D01*
X95636040Y-126774280D01*
X95762003Y-126962797D01*
X95848768Y-127172266D01*
X95893000Y-127394636D01*
X95893000Y-127621364D01*
X95848768Y-127843734D01*
X95762003Y-128053203D01*
X95636040Y-128241720D01*
X95475720Y-128402040D01*
X95287203Y-128528003D01*
X95287202Y-128528004D01*
X95287201Y-128528004D01*
X95225850Y-128553416D01*
X95077734Y-128614768D01*
X94966549Y-128636884D01*
X94855365Y-128659000D01*
X94628635Y-128659000D01*
X94517451Y-128636884D01*
X94406266Y-128614768D01*
X94258150Y-128553416D01*
X94196799Y-128528004D01*
X94196798Y-128528004D01*
X94196797Y-128528003D01*
X94008280Y-128402040D01*
X93847960Y-128241720D01*
X93721997Y-128053203D01*
X93635232Y-127843734D01*
X93591000Y-127621364D01*
X93591000Y-127394636D01*
X93635232Y-127172266D01*
X93721997Y-126962797D01*
X93847960Y-126774280D01*
X94008280Y-126613960D01*
X94196797Y-126487997D01*
X94206447Y-126484000D01*
X94258150Y-126462584D01*
X94406266Y-126401232D01*
X94517451Y-126379116D01*
X94628635Y-126357000D01*
X94855365Y-126357000D01*
X94966549Y-126379116D01*
G37*
G36*
X98776549Y-126379116D02*
G01*
X98887734Y-126401232D01*
X99035850Y-126462584D01*
X99087554Y-126484000D01*
X99097203Y-126487997D01*
X99285720Y-126613960D01*
X99446040Y-126774280D01*
X99572003Y-126962797D01*
X99658768Y-127172266D01*
X99703000Y-127394636D01*
X99703000Y-127621364D01*
X99658768Y-127843734D01*
X99572003Y-128053203D01*
X99446040Y-128241720D01*
X99285720Y-128402040D01*
X99097203Y-128528003D01*
X99097202Y-128528004D01*
X99097201Y-128528004D01*
X99035850Y-128553416D01*
X98887734Y-128614768D01*
X98776549Y-128636884D01*
X98665365Y-128659000D01*
X98438635Y-128659000D01*
X98327451Y-128636884D01*
X98216266Y-128614768D01*
X98068150Y-128553416D01*
X98006799Y-128528004D01*
X98006798Y-128528004D01*
X98006797Y-128528003D01*
X97818280Y-128402040D01*
X97657960Y-128241720D01*
X97531997Y-128053203D01*
X97445232Y-127843734D01*
X97401000Y-127621364D01*
X97401000Y-127394636D01*
X97445232Y-127172266D01*
X97531997Y-126962797D01*
X97657960Y-126774280D01*
X97818280Y-126613960D01*
X98006797Y-126487997D01*
X98016447Y-126484000D01*
X98068150Y-126462584D01*
X98216266Y-126401232D01*
X98327451Y-126379116D01*
X98438635Y-126357000D01*
X98665365Y-126357000D01*
X98776549Y-126379116D01*
G37*
G36*
X75528254Y-118677818D02*
G01*
X75901511Y-118832426D01*
X75901513Y-118832427D01*
X76237436Y-119056884D01*
X76523116Y-119342564D01*
X76747574Y-119678489D01*
X76902182Y-120051746D01*
X76981000Y-120447993D01*
X76981000Y-120852007D01*
X76902182Y-121248254D01*
X76747574Y-121621511D01*
X76747573Y-121621513D01*
X76523116Y-121957436D01*
X76237436Y-122243116D01*
X75901513Y-122467573D01*
X75901512Y-122467574D01*
X75901511Y-122467574D01*
X75528254Y-122622182D01*
X75132007Y-122701000D01*
X74727993Y-122701000D01*
X74331746Y-122622182D01*
X73958489Y-122467574D01*
X73958488Y-122467574D01*
X73958487Y-122467573D01*
X73622564Y-122243116D01*
X73336884Y-121957436D01*
X73112427Y-121621513D01*
X73112426Y-121621511D01*
X72957818Y-121248254D01*
X72879000Y-120852007D01*
X72879000Y-120447993D01*
X72957818Y-120051746D01*
X73112426Y-119678489D01*
X73336884Y-119342564D01*
X73622564Y-119056884D01*
X73958487Y-118832427D01*
X73958489Y-118832426D01*
X74331746Y-118677818D01*
X74727993Y-118599000D01*
X75132007Y-118599000D01*
X75528254Y-118677818D01*
G37*
G36*
X53564549Y-113806116D02*
G01*
X53675734Y-113828232D01*
X53823850Y-113889584D01*
X53882700Y-113913960D01*
X53885203Y-113914997D01*
X54073720Y-114040960D01*
X54234040Y-114201280D01*
X54360003Y-114389797D01*
X54360004Y-114389799D01*
X54446768Y-114599267D01*
X54480430Y-114768494D01*
X54491000Y-114821636D01*
X54491000Y-115048364D01*
X54446768Y-115270734D01*
X54360003Y-115480203D01*
X54234040Y-115668720D01*
X54073720Y-115829040D01*
X53885203Y-115955003D01*
X53885202Y-115955004D01*
X53885201Y-115955004D01*
X53823850Y-115980416D01*
X53675734Y-116041768D01*
X53559192Y-116064950D01*
X53501607Y-116076404D01*
X53478158Y-116083517D01*
X53456547Y-116095068D01*
X53437605Y-116110613D01*
X53422060Y-116129555D01*
X53410509Y-116151166D01*
X53403396Y-116174615D01*
X53400994Y-116199001D01*
X53403396Y-116223387D01*
X53410509Y-116246836D01*
X53422060Y-116268447D01*
X53437605Y-116287389D01*
X53456547Y-116302934D01*
X53478158Y-116314485D01*
X53501607Y-116321598D01*
X53525993Y-116324000D01*
X54491000Y-116324000D01*
X54491000Y-118626000D01*
X52189000Y-118626000D01*
X52189000Y-116324000D01*
X53154007Y-116324000D01*
X53178393Y-116321598D01*
X53201842Y-116314485D01*
X53223453Y-116302934D01*
X53242395Y-116287389D01*
X53257940Y-116268447D01*
X53269491Y-116246836D01*
X53276604Y-116223387D01*
X53279006Y-116199001D01*
X53276604Y-116174615D01*
X53269491Y-116151166D01*
X53257940Y-116129555D01*
X53242395Y-116110613D01*
X53223453Y-116095068D01*
X53201842Y-116083517D01*
X53178393Y-116076404D01*
X53120808Y-116064950D01*
X53004266Y-116041768D01*
X52856150Y-115980416D01*
X52794799Y-115955004D01*
X52794798Y-115955004D01*
X52794797Y-115955003D01*
X52606280Y-115829040D01*
X52445960Y-115668720D01*
X52319997Y-115480203D01*
X52233232Y-115270734D01*
X52189000Y-115048364D01*
X52189000Y-114821636D01*
X52199571Y-114768494D01*
X52233232Y-114599267D01*
X52319996Y-114389799D01*
X52319997Y-114389797D01*
X52445960Y-114201280D01*
X52606280Y-114040960D01*
X52794797Y-113914997D01*
X52797301Y-113913960D01*
X52856150Y-113889584D01*
X53004266Y-113828232D01*
X53115451Y-113806116D01*
X53226635Y-113784000D01*
X53453365Y-113784000D01*
X53564549Y-113806116D01*
G37*
G36*
X49754549Y-113806116D02*
G01*
X49865734Y-113828232D01*
X50013850Y-113889584D01*
X50072700Y-113913960D01*
X50075203Y-113914997D01*
X50263720Y-114040960D01*
X50424040Y-114201280D01*
X50550003Y-114389797D01*
X50550004Y-114389799D01*
X50636768Y-114599267D01*
X50670430Y-114768494D01*
X50681000Y-114821636D01*
X50681000Y-115048364D01*
X50636768Y-115270734D01*
X50550003Y-115480203D01*
X50424040Y-115668720D01*
X50263720Y-115829040D01*
X50075203Y-115955003D01*
X50075202Y-115955004D01*
X50075201Y-115955004D01*
X50013850Y-115980416D01*
X49865734Y-116041768D01*
X49749192Y-116064950D01*
X49691607Y-116076404D01*
X49668158Y-116083517D01*
X49646547Y-116095068D01*
X49627605Y-116110613D01*
X49612060Y-116129555D01*
X49600509Y-116151166D01*
X49593396Y-116174615D01*
X49590994Y-116199001D01*
X49593396Y-116223387D01*
X49600509Y-116246836D01*
X49612060Y-116268447D01*
X49627605Y-116287389D01*
X49646547Y-116302934D01*
X49668158Y-116314485D01*
X49691607Y-116321598D01*
X49715993Y-116324000D01*
X50681000Y-116324000D01*
X50681000Y-118626000D01*
X48379000Y-118626000D01*
X48379000Y-116324000D01*
X49344007Y-116324000D01*
X49368393Y-116321598D01*
X49391842Y-116314485D01*
X49413453Y-116302934D01*
X49432395Y-116287389D01*
X49447940Y-116268447D01*
X49459491Y-116246836D01*
X49466604Y-116223387D01*
X49469006Y-116199001D01*
X49466604Y-116174615D01*
X49459491Y-116151166D01*
X49447940Y-116129555D01*
X49432395Y-116110613D01*
X49413453Y-116095068D01*
X49391842Y-116083517D01*
X49368393Y-116076404D01*
X49310808Y-116064950D01*
X49194266Y-116041768D01*
X49046150Y-115980416D01*
X48984799Y-115955004D01*
X48984798Y-115955004D01*
X48984797Y-115955003D01*
X48796280Y-115829040D01*
X48635960Y-115668720D01*
X48509997Y-115480203D01*
X48423232Y-115270734D01*
X48379000Y-115048364D01*
X48379000Y-114821636D01*
X48389571Y-114768494D01*
X48423232Y-114599267D01*
X48509996Y-114389799D01*
X48509997Y-114389797D01*
X48635960Y-114201280D01*
X48796280Y-114040960D01*
X48984797Y-113914997D01*
X48987301Y-113913960D01*
X49046150Y-113889584D01*
X49194266Y-113828232D01*
X49305451Y-113806116D01*
X49416635Y-113784000D01*
X49643365Y-113784000D01*
X49754549Y-113806116D01*
G37*
G36*
X98776549Y-113679116D02*
G01*
X98887734Y-113701232D01*
X99035850Y-113762584D01*
X99087554Y-113784000D01*
X99097203Y-113787997D01*
X99285720Y-113913960D01*
X99446040Y-114074280D01*
X99572003Y-114262797D01*
X99658768Y-114472266D01*
X99703000Y-114694636D01*
X99703000Y-114921364D01*
X99658768Y-115143734D01*
X99572003Y-115353203D01*
X99446040Y-115541720D01*
X99285720Y-115702040D01*
X99097203Y-115828003D01*
X99097202Y-115828004D01*
X99097201Y-115828004D01*
X99035850Y-115853416D01*
X98887734Y-115914768D01*
X98771192Y-115937950D01*
X98713607Y-115949404D01*
X98690158Y-115956517D01*
X98668547Y-115968068D01*
X98649605Y-115983613D01*
X98634060Y-116002555D01*
X98622509Y-116024166D01*
X98615396Y-116047615D01*
X98612994Y-116072001D01*
X98615396Y-116096387D01*
X98622509Y-116119836D01*
X98634060Y-116141447D01*
X98649605Y-116160389D01*
X98668547Y-116175934D01*
X98690158Y-116187485D01*
X98713607Y-116194598D01*
X98737993Y-116197000D01*
X99703000Y-116197000D01*
X99703000Y-118499000D01*
X97401000Y-118499000D01*
X97401000Y-116197000D01*
X98366007Y-116197000D01*
X98390393Y-116194598D01*
X98413842Y-116187485D01*
X98435453Y-116175934D01*
X98454395Y-116160389D01*
X98469940Y-116141447D01*
X98481491Y-116119836D01*
X98488604Y-116096387D01*
X98491006Y-116072001D01*
X98488604Y-116047615D01*
X98481491Y-116024166D01*
X98469940Y-116002555D01*
X98454395Y-115983613D01*
X98435453Y-115968068D01*
X98413842Y-115956517D01*
X98390393Y-115949404D01*
X98332808Y-115937950D01*
X98216266Y-115914768D01*
X98068150Y-115853416D01*
X98006799Y-115828004D01*
X98006798Y-115828004D01*
X98006797Y-115828003D01*
X97818280Y-115702040D01*
X97657960Y-115541720D01*
X97531997Y-115353203D01*
X97445232Y-115143734D01*
X97401000Y-114921364D01*
X97401000Y-114694636D01*
X97445232Y-114472266D01*
X97531997Y-114262797D01*
X97657960Y-114074280D01*
X97818280Y-113913960D01*
X98006797Y-113787997D01*
X98016447Y-113784000D01*
X98068150Y-113762584D01*
X98216266Y-113701232D01*
X98327451Y-113679116D01*
X98438635Y-113657000D01*
X98665365Y-113657000D01*
X98776549Y-113679116D01*
G37*
G36*
X94966549Y-113679116D02*
G01*
X95077734Y-113701232D01*
X95225850Y-113762584D01*
X95277554Y-113784000D01*
X95287203Y-113787997D01*
X95475720Y-113913960D01*
X95636040Y-114074280D01*
X95762003Y-114262797D01*
X95848768Y-114472266D01*
X95893000Y-114694636D01*
X95893000Y-114921364D01*
X95848768Y-115143734D01*
X95762003Y-115353203D01*
X95636040Y-115541720D01*
X95475720Y-115702040D01*
X95287203Y-115828003D01*
X95287202Y-115828004D01*
X95287201Y-115828004D01*
X95225850Y-115853416D01*
X95077734Y-115914768D01*
X94961192Y-115937950D01*
X94903607Y-115949404D01*
X94880158Y-115956517D01*
X94858547Y-115968068D01*
X94839605Y-115983613D01*
X94824060Y-116002555D01*
X94812509Y-116024166D01*
X94805396Y-116047615D01*
X94802994Y-116072001D01*
X94805396Y-116096387D01*
X94812509Y-116119836D01*
X94824060Y-116141447D01*
X94839605Y-116160389D01*
X94858547Y-116175934D01*
X94880158Y-116187485D01*
X94903607Y-116194598D01*
X94927993Y-116197000D01*
X95893000Y-116197000D01*
X95893000Y-118499000D01*
X93591000Y-118499000D01*
X93591000Y-116197000D01*
X94556007Y-116197000D01*
X94580393Y-116194598D01*
X94603842Y-116187485D01*
X94625453Y-116175934D01*
X94644395Y-116160389D01*
X94659940Y-116141447D01*
X94671491Y-116119836D01*
X94678604Y-116096387D01*
X94681006Y-116072001D01*
X94678604Y-116047615D01*
X94671491Y-116024166D01*
X94659940Y-116002555D01*
X94644395Y-115983613D01*
X94625453Y-115968068D01*
X94603842Y-115956517D01*
X94580393Y-115949404D01*
X94522808Y-115937950D01*
X94406266Y-115914768D01*
X94258150Y-115853416D01*
X94196799Y-115828004D01*
X94196798Y-115828004D01*
X94196797Y-115828003D01*
X94008280Y-115702040D01*
X93847960Y-115541720D01*
X93721997Y-115353203D01*
X93635232Y-115143734D01*
X93591000Y-114921364D01*
X93591000Y-114694636D01*
X93635232Y-114472266D01*
X93721997Y-114262797D01*
X93847960Y-114074280D01*
X94008280Y-113913960D01*
X94196797Y-113787997D01*
X94206447Y-113784000D01*
X94258150Y-113762584D01*
X94406266Y-113701232D01*
X94517451Y-113679116D01*
X94628635Y-113657000D01*
X94855365Y-113657000D01*
X94966549Y-113679116D01*
G37*
G36*
X91016766Y-116236899D02*
G01*
X91148888Y-116291626D01*
X91148890Y-116291627D01*
X91267798Y-116371079D01*
X91368921Y-116472202D01*
X91368922Y-116472204D01*
X91448374Y-116591112D01*
X91503101Y-116723234D01*
X91531000Y-116863494D01*
X91531000Y-117006506D01*
X91503101Y-117146766D01*
X91448374Y-117278888D01*
X91448373Y-117278890D01*
X91368921Y-117397798D01*
X91267798Y-117498921D01*
X91148890Y-117578373D01*
X91148889Y-117578374D01*
X91148888Y-117578374D01*
X91016766Y-117633101D01*
X90876506Y-117661000D01*
X90733494Y-117661000D01*
X90593234Y-117633101D01*
X90461112Y-117578374D01*
X90461111Y-117578374D01*
X90461110Y-117578373D01*
X90342202Y-117498921D01*
X90241079Y-117397798D01*
X90161627Y-117278890D01*
X90161626Y-117278888D01*
X90106899Y-117146766D01*
X90079000Y-117006506D01*
X90079000Y-116863494D01*
X90106899Y-116723234D01*
X90161626Y-116591112D01*
X90241078Y-116472204D01*
X90241079Y-116472202D01*
X90342202Y-116371079D01*
X90461110Y-116291627D01*
X90461112Y-116291626D01*
X90593234Y-116236899D01*
X90733494Y-116209000D01*
X90876506Y-116209000D01*
X91016766Y-116236899D01*
G37*
G36*
X58511000Y-117566000D02*
G01*
X57059000Y-117566000D01*
X57059000Y-116114000D01*
X58511000Y-116114000D01*
X58511000Y-117566000D01*
G37*
G36*
X91531000Y-115661000D02*
G01*
X90079000Y-115661000D01*
X90079000Y-114209000D01*
X91531000Y-114209000D01*
X91531000Y-115661000D01*
G37*
G36*
X57996766Y-114141899D02*
G01*
X58128888Y-114196626D01*
X58128890Y-114196627D01*
X58247798Y-114276079D01*
X58348921Y-114377202D01*
X58428373Y-114496110D01*
X58428374Y-114496112D01*
X58483101Y-114628234D01*
X58511000Y-114768494D01*
X58511000Y-114911506D01*
X58483101Y-115051766D01*
X58445006Y-115143734D01*
X58428373Y-115183890D01*
X58348921Y-115302798D01*
X58247798Y-115403921D01*
X58128890Y-115483373D01*
X58128889Y-115483374D01*
X58128888Y-115483374D01*
X57996766Y-115538101D01*
X57856506Y-115566000D01*
X57713494Y-115566000D01*
X57573234Y-115538101D01*
X57441112Y-115483374D01*
X57441111Y-115483374D01*
X57441110Y-115483373D01*
X57322202Y-115403921D01*
X57221079Y-115302798D01*
X57141627Y-115183890D01*
X57124994Y-115143734D01*
X57086899Y-115051766D01*
X57059000Y-114911506D01*
X57059000Y-114768494D01*
X57086899Y-114628234D01*
X57141626Y-114496112D01*
X57141627Y-114496110D01*
X57221079Y-114377202D01*
X57322202Y-114276079D01*
X57441110Y-114196627D01*
X57441112Y-114196626D01*
X57573234Y-114141899D01*
X57713494Y-114114000D01*
X57856506Y-114114000D01*
X57996766Y-114141899D01*
G37*
G36*
X87311000Y-112711000D02*
G01*
X85409000Y-112711000D01*
X85409000Y-110809000D01*
X87311000Y-110809000D01*
X87311000Y-112711000D01*
G37*
G36*
X63777395Y-110845546D02*
G01*
X63950466Y-110917234D01*
X64027818Y-110968919D01*
X64106227Y-111021310D01*
X64238690Y-111153773D01*
X64238691Y-111153775D01*
X64342766Y-111309534D01*
X64414454Y-111482605D01*
X64451000Y-111666333D01*
X64451000Y-111853667D01*
X64414454Y-112037395D01*
X64342766Y-112210466D01*
X64342765Y-112210467D01*
X64238690Y-112366227D01*
X64106227Y-112498690D01*
X64027818Y-112551081D01*
X63950466Y-112602766D01*
X63777395Y-112674454D01*
X63593667Y-112711000D01*
X63406333Y-112711000D01*
X63222605Y-112674454D01*
X63049534Y-112602766D01*
X62972182Y-112551081D01*
X62893773Y-112498690D01*
X62761310Y-112366227D01*
X62657235Y-112210467D01*
X62657234Y-112210466D01*
X62585546Y-112037395D01*
X62549000Y-111853667D01*
X62549000Y-111666333D01*
X62585546Y-111482605D01*
X62657234Y-111309534D01*
X62761309Y-111153775D01*
X62761310Y-111153773D01*
X62893773Y-111021310D01*
X62972182Y-110968919D01*
X63049534Y-110917234D01*
X63222605Y-110845546D01*
X63406333Y-110809000D01*
X63593667Y-110809000D01*
X63777395Y-110845546D01*
G37*
G36*
X68857395Y-109575546D02*
G01*
X69030466Y-109647234D01*
X69107818Y-109698919D01*
X69186227Y-109751310D01*
X69318690Y-109883773D01*
X69318691Y-109883775D01*
X69422766Y-110039534D01*
X69494454Y-110212605D01*
X69531000Y-110396333D01*
X69531000Y-110583667D01*
X69494454Y-110767395D01*
X69422766Y-110940466D01*
X69422765Y-110940467D01*
X69318690Y-111096227D01*
X69186227Y-111228690D01*
X69107818Y-111281081D01*
X69030466Y-111332766D01*
X68857395Y-111404454D01*
X68673667Y-111441000D01*
X68486333Y-111441000D01*
X68302605Y-111404454D01*
X68129534Y-111332766D01*
X68052182Y-111281081D01*
X67973773Y-111228690D01*
X67841310Y-111096227D01*
X67737235Y-110940467D01*
X67737234Y-110940466D01*
X67665546Y-110767395D01*
X67629000Y-110583667D01*
X67629000Y-110396333D01*
X67665546Y-110212605D01*
X67737234Y-110039534D01*
X67841309Y-109883775D01*
X67841310Y-109883773D01*
X67973773Y-109751310D01*
X68052182Y-109698919D01*
X68129534Y-109647234D01*
X68302605Y-109575546D01*
X68486333Y-109539000D01*
X68673667Y-109539000D01*
X68857395Y-109575546D01*
G37*
G36*
X81557395Y-109575546D02*
G01*
X81730466Y-109647234D01*
X81807818Y-109698919D01*
X81886227Y-109751310D01*
X82018690Y-109883773D01*
X82018691Y-109883775D01*
X82122766Y-110039534D01*
X82194454Y-110212605D01*
X82231000Y-110396333D01*
X82231000Y-110583667D01*
X82194454Y-110767395D01*
X82122766Y-110940466D01*
X82122765Y-110940467D01*
X82018690Y-111096227D01*
X81886227Y-111228690D01*
X81807818Y-111281081D01*
X81730466Y-111332766D01*
X81557395Y-111404454D01*
X81373667Y-111441000D01*
X81186333Y-111441000D01*
X81002605Y-111404454D01*
X80829534Y-111332766D01*
X80752182Y-111281081D01*
X80673773Y-111228690D01*
X80541310Y-111096227D01*
X80437235Y-110940467D01*
X80437234Y-110940466D01*
X80365546Y-110767395D01*
X80329000Y-110583667D01*
X80329000Y-110396333D01*
X80365546Y-110212605D01*
X80437234Y-110039534D01*
X80541309Y-109883775D01*
X80541310Y-109883773D01*
X80673773Y-109751310D01*
X80752182Y-109698919D01*
X80829534Y-109647234D01*
X81002605Y-109575546D01*
X81186333Y-109539000D01*
X81373667Y-109539000D01*
X81557395Y-109575546D01*
G37*
G36*
X63777395Y-108305546D02*
G01*
X63950466Y-108377234D01*
X64027818Y-108428919D01*
X64106227Y-108481310D01*
X64238690Y-108613773D01*
X64238691Y-108613775D01*
X64342766Y-108769534D01*
X64414454Y-108942605D01*
X64451000Y-109126333D01*
X64451000Y-109313667D01*
X64414454Y-109497395D01*
X64342766Y-109670466D01*
X64342765Y-109670467D01*
X64238690Y-109826227D01*
X64106227Y-109958690D01*
X64027818Y-110011081D01*
X63950466Y-110062766D01*
X63777395Y-110134454D01*
X63593667Y-110171000D01*
X63406333Y-110171000D01*
X63222605Y-110134454D01*
X63049534Y-110062766D01*
X62972182Y-110011081D01*
X62893773Y-109958690D01*
X62761310Y-109826227D01*
X62657235Y-109670467D01*
X62657234Y-109670466D01*
X62585546Y-109497395D01*
X62549000Y-109313667D01*
X62549000Y-109126333D01*
X62585546Y-108942605D01*
X62657234Y-108769534D01*
X62761309Y-108613775D01*
X62761310Y-108613773D01*
X62893773Y-108481310D01*
X62972182Y-108428919D01*
X63049534Y-108377234D01*
X63222605Y-108305546D01*
X63406333Y-108269000D01*
X63593667Y-108269000D01*
X63777395Y-108305546D01*
G37*
G36*
X86637395Y-108305546D02*
G01*
X86810466Y-108377234D01*
X86887818Y-108428919D01*
X86966227Y-108481310D01*
X87098690Y-108613773D01*
X87098691Y-108613775D01*
X87202766Y-108769534D01*
X87274454Y-108942605D01*
X87311000Y-109126333D01*
X87311000Y-109313667D01*
X87274454Y-109497395D01*
X87202766Y-109670466D01*
X87202765Y-109670467D01*
X87098690Y-109826227D01*
X86966227Y-109958690D01*
X86887818Y-110011081D01*
X86810466Y-110062766D01*
X86637395Y-110134454D01*
X86453667Y-110171000D01*
X86266333Y-110171000D01*
X86082605Y-110134454D01*
X85909534Y-110062766D01*
X85832182Y-110011081D01*
X85753773Y-109958690D01*
X85621310Y-109826227D01*
X85517235Y-109670467D01*
X85517234Y-109670466D01*
X85445546Y-109497395D01*
X85409000Y-109313667D01*
X85409000Y-109126333D01*
X85445546Y-108942605D01*
X85517234Y-108769534D01*
X85621309Y-108613775D01*
X85621310Y-108613773D01*
X85753773Y-108481310D01*
X85832182Y-108428919D01*
X85909534Y-108377234D01*
X86082605Y-108305546D01*
X86266333Y-108269000D01*
X86453667Y-108269000D01*
X86637395Y-108305546D01*
G37*
G36*
X68857395Y-107035546D02*
G01*
X69030466Y-107107234D01*
X69107818Y-107158919D01*
X69186227Y-107211310D01*
X69318690Y-107343773D01*
X69318691Y-107343775D01*
X69422766Y-107499534D01*
X69494454Y-107672605D01*
X69531000Y-107856333D01*
X69531000Y-108043667D01*
X69494454Y-108227395D01*
X69422766Y-108400466D01*
X69422765Y-108400467D01*
X69318690Y-108556227D01*
X69186227Y-108688690D01*
X69107818Y-108741081D01*
X69030466Y-108792766D01*
X68857395Y-108864454D01*
X68673667Y-108901000D01*
X68486333Y-108901000D01*
X68302605Y-108864454D01*
X68129534Y-108792766D01*
X68052182Y-108741081D01*
X67973773Y-108688690D01*
X67841310Y-108556227D01*
X67737235Y-108400467D01*
X67737234Y-108400466D01*
X67665546Y-108227395D01*
X67629000Y-108043667D01*
X67629000Y-107856333D01*
X67665546Y-107672605D01*
X67737234Y-107499534D01*
X67841309Y-107343775D01*
X67841310Y-107343773D01*
X67973773Y-107211310D01*
X68052182Y-107158919D01*
X68129534Y-107107234D01*
X68302605Y-107035546D01*
X68486333Y-106999000D01*
X68673667Y-106999000D01*
X68857395Y-107035546D01*
G37*
G36*
X81557395Y-107035546D02*
G01*
X81730466Y-107107234D01*
X81807818Y-107158919D01*
X81886227Y-107211310D01*
X82018690Y-107343773D01*
X82018691Y-107343775D01*
X82122766Y-107499534D01*
X82194454Y-107672605D01*
X82231000Y-107856333D01*
X82231000Y-108043667D01*
X82194454Y-108227395D01*
X82122766Y-108400466D01*
X82122765Y-108400467D01*
X82018690Y-108556227D01*
X81886227Y-108688690D01*
X81807818Y-108741081D01*
X81730466Y-108792766D01*
X81557395Y-108864454D01*
X81373667Y-108901000D01*
X81186333Y-108901000D01*
X81002605Y-108864454D01*
X80829534Y-108792766D01*
X80752182Y-108741081D01*
X80673773Y-108688690D01*
X80541310Y-108556227D01*
X80437235Y-108400467D01*
X80437234Y-108400466D01*
X80365546Y-108227395D01*
X80329000Y-108043667D01*
X80329000Y-107856333D01*
X80365546Y-107672605D01*
X80437234Y-107499534D01*
X80541309Y-107343775D01*
X80541310Y-107343773D01*
X80673773Y-107211310D01*
X80752182Y-107158919D01*
X80829534Y-107107234D01*
X81002605Y-107035546D01*
X81186333Y-106999000D01*
X81373667Y-106999000D01*
X81557395Y-107035546D01*
G37*
G36*
X63777395Y-105765546D02*
G01*
X63950466Y-105837234D01*
X64027818Y-105888919D01*
X64106227Y-105941310D01*
X64238690Y-106073773D01*
X64238691Y-106073775D01*
X64342766Y-106229534D01*
X64414454Y-106402605D01*
X64451000Y-106586333D01*
X64451000Y-106773667D01*
X64414454Y-106957395D01*
X64342766Y-107130466D01*
X64342765Y-107130467D01*
X64238690Y-107286227D01*
X64106227Y-107418690D01*
X64027818Y-107471081D01*
X63950466Y-107522766D01*
X63777395Y-107594454D01*
X63593667Y-107631000D01*
X63406333Y-107631000D01*
X63222605Y-107594454D01*
X63049534Y-107522766D01*
X62972182Y-107471081D01*
X62893773Y-107418690D01*
X62761310Y-107286227D01*
X62657235Y-107130467D01*
X62657234Y-107130466D01*
X62585546Y-106957395D01*
X62549000Y-106773667D01*
X62549000Y-106586333D01*
X62585546Y-106402605D01*
X62657234Y-106229534D01*
X62761309Y-106073775D01*
X62761310Y-106073773D01*
X62893773Y-105941310D01*
X62972182Y-105888919D01*
X63049534Y-105837234D01*
X63222605Y-105765546D01*
X63406333Y-105729000D01*
X63593667Y-105729000D01*
X63777395Y-105765546D01*
G37*
G36*
X86637395Y-105765546D02*
G01*
X86810466Y-105837234D01*
X86887818Y-105888919D01*
X86966227Y-105941310D01*
X87098690Y-106073773D01*
X87098691Y-106073775D01*
X87202766Y-106229534D01*
X87274454Y-106402605D01*
X87311000Y-106586333D01*
X87311000Y-106773667D01*
X87274454Y-106957395D01*
X87202766Y-107130466D01*
X87202765Y-107130467D01*
X87098690Y-107286227D01*
X86966227Y-107418690D01*
X86887818Y-107471081D01*
X86810466Y-107522766D01*
X86637395Y-107594454D01*
X86453667Y-107631000D01*
X86266333Y-107631000D01*
X86082605Y-107594454D01*
X85909534Y-107522766D01*
X85832182Y-107471081D01*
X85753773Y-107418690D01*
X85621310Y-107286227D01*
X85517235Y-107130467D01*
X85517234Y-107130466D01*
X85445546Y-106957395D01*
X85409000Y-106773667D01*
X85409000Y-106586333D01*
X85445546Y-106402605D01*
X85517234Y-106229534D01*
X85621309Y-106073775D01*
X85621310Y-106073773D01*
X85753773Y-105941310D01*
X85832182Y-105888919D01*
X85909534Y-105837234D01*
X86082605Y-105765546D01*
X86266333Y-105729000D01*
X86453667Y-105729000D01*
X86637395Y-105765546D01*
G37*
G36*
X81557395Y-104495546D02*
G01*
X81730466Y-104567234D01*
X81807818Y-104618919D01*
X81886227Y-104671310D01*
X82018690Y-104803773D01*
X82018691Y-104803775D01*
X82122766Y-104959534D01*
X82194454Y-105132605D01*
X82231000Y-105316333D01*
X82231000Y-105503667D01*
X82194454Y-105687395D01*
X82122766Y-105860466D01*
X82071081Y-105937818D01*
X82018690Y-106016227D01*
X81886227Y-106148690D01*
X81807818Y-106201081D01*
X81730466Y-106252766D01*
X81557395Y-106324454D01*
X81373667Y-106361000D01*
X81186333Y-106361000D01*
X81002605Y-106324454D01*
X80829534Y-106252766D01*
X80752182Y-106201081D01*
X80673773Y-106148690D01*
X80541310Y-106016227D01*
X80488919Y-105937818D01*
X80437234Y-105860466D01*
X80365546Y-105687395D01*
X80329000Y-105503667D01*
X80329000Y-105316333D01*
X80365546Y-105132605D01*
X80437234Y-104959534D01*
X80541309Y-104803775D01*
X80541310Y-104803773D01*
X80673773Y-104671310D01*
X80752182Y-104618919D01*
X80829534Y-104567234D01*
X81002605Y-104495546D01*
X81186333Y-104459000D01*
X81373667Y-104459000D01*
X81557395Y-104495546D01*
G37*
G36*
X68857395Y-104495546D02*
G01*
X69030466Y-104567234D01*
X69107818Y-104618919D01*
X69186227Y-104671310D01*
X69318690Y-104803773D01*
X69318691Y-104803775D01*
X69422766Y-104959534D01*
X69494454Y-105132605D01*
X69531000Y-105316333D01*
X69531000Y-105503667D01*
X69494454Y-105687395D01*
X69422766Y-105860466D01*
X69371081Y-105937818D01*
X69318690Y-106016227D01*
X69186227Y-106148690D01*
X69107818Y-106201081D01*
X69030466Y-106252766D01*
X68857395Y-106324454D01*
X68673667Y-106361000D01*
X68486333Y-106361000D01*
X68302605Y-106324454D01*
X68129534Y-106252766D01*
X68052182Y-106201081D01*
X67973773Y-106148690D01*
X67841310Y-106016227D01*
X67788919Y-105937818D01*
X67737234Y-105860466D01*
X67665546Y-105687395D01*
X67629000Y-105503667D01*
X67629000Y-105316333D01*
X67665546Y-105132605D01*
X67737234Y-104959534D01*
X67841309Y-104803775D01*
X67841310Y-104803773D01*
X67973773Y-104671310D01*
X68052182Y-104618919D01*
X68129534Y-104567234D01*
X68302605Y-104495546D01*
X68486333Y-104459000D01*
X68673667Y-104459000D01*
X68857395Y-104495546D01*
G37*
G36*
X54491000Y-105926000D02*
G01*
X52189000Y-105926000D01*
X52189000Y-103624000D01*
X54491000Y-103624000D01*
X54491000Y-105926000D01*
G37*
G36*
X50681000Y-105926000D02*
G01*
X48379000Y-105926000D01*
X48379000Y-103624000D01*
X50681000Y-103624000D01*
X50681000Y-105926000D01*
G37*
G36*
X99703000Y-105799000D02*
G01*
X97401000Y-105799000D01*
X97401000Y-103497000D01*
X99703000Y-103497000D01*
X99703000Y-105799000D01*
G37*
G36*
X95893000Y-105799000D02*
G01*
X93591000Y-105799000D01*
X93591000Y-103497000D01*
X95893000Y-103497000D01*
X95893000Y-105799000D01*
G37*
G36*
X63777395Y-103225546D02*
G01*
X63950466Y-103297234D01*
X64027818Y-103348919D01*
X64106227Y-103401310D01*
X64238690Y-103533773D01*
X64238691Y-103533775D01*
X64342766Y-103689534D01*
X64414454Y-103862605D01*
X64451000Y-104046333D01*
X64451000Y-104233667D01*
X64414454Y-104417395D01*
X64342766Y-104590466D01*
X64342765Y-104590467D01*
X64238690Y-104746227D01*
X64106227Y-104878690D01*
X64027818Y-104931081D01*
X63950466Y-104982766D01*
X63777395Y-105054454D01*
X63593667Y-105091000D01*
X63406333Y-105091000D01*
X63222605Y-105054454D01*
X63049534Y-104982766D01*
X62972182Y-104931081D01*
X62893773Y-104878690D01*
X62761310Y-104746227D01*
X62657235Y-104590467D01*
X62657234Y-104590466D01*
X62585546Y-104417395D01*
X62549000Y-104233667D01*
X62549000Y-104046333D01*
X62585546Y-103862605D01*
X62657234Y-103689534D01*
X62761309Y-103533775D01*
X62761310Y-103533773D01*
X62893773Y-103401310D01*
X62972182Y-103348919D01*
X63049534Y-103297234D01*
X63222605Y-103225546D01*
X63406333Y-103189000D01*
X63593667Y-103189000D01*
X63777395Y-103225546D01*
G37*
G36*
X86637395Y-103225546D02*
G01*
X86810466Y-103297234D01*
X86887818Y-103348919D01*
X86966227Y-103401310D01*
X87098690Y-103533773D01*
X87098691Y-103533775D01*
X87202766Y-103689534D01*
X87274454Y-103862605D01*
X87311000Y-104046333D01*
X87311000Y-104233667D01*
X87274454Y-104417395D01*
X87202766Y-104590466D01*
X87202765Y-104590467D01*
X87098690Y-104746227D01*
X86966227Y-104878690D01*
X86887818Y-104931081D01*
X86810466Y-104982766D01*
X86637395Y-105054454D01*
X86453667Y-105091000D01*
X86266333Y-105091000D01*
X86082605Y-105054454D01*
X85909534Y-104982766D01*
X85832182Y-104931081D01*
X85753773Y-104878690D01*
X85621310Y-104746227D01*
X85517235Y-104590467D01*
X85517234Y-104590466D01*
X85445546Y-104417395D01*
X85409000Y-104233667D01*
X85409000Y-104046333D01*
X85445546Y-103862605D01*
X85517234Y-103689534D01*
X85621309Y-103533775D01*
X85621310Y-103533773D01*
X85753773Y-103401310D01*
X85832182Y-103348919D01*
X85909534Y-103297234D01*
X86082605Y-103225546D01*
X86266333Y-103189000D01*
X86453667Y-103189000D01*
X86637395Y-103225546D01*
G37*
G36*
X68857395Y-101955546D02*
G01*
X69030466Y-102027234D01*
X69107818Y-102078919D01*
X69186227Y-102131310D01*
X69318690Y-102263773D01*
X69318691Y-102263775D01*
X69422766Y-102419534D01*
X69494454Y-102592605D01*
X69531000Y-102776333D01*
X69531000Y-102963667D01*
X69494454Y-103147395D01*
X69422766Y-103320466D01*
X69422765Y-103320467D01*
X69318690Y-103476227D01*
X69186227Y-103608690D01*
X69107818Y-103661081D01*
X69030466Y-103712766D01*
X68857395Y-103784454D01*
X68673667Y-103821000D01*
X68486333Y-103821000D01*
X68302605Y-103784454D01*
X68129534Y-103712766D01*
X68052182Y-103661081D01*
X67973773Y-103608690D01*
X67841310Y-103476227D01*
X67737235Y-103320467D01*
X67737234Y-103320466D01*
X67665546Y-103147395D01*
X67629000Y-102963667D01*
X67629000Y-102776333D01*
X67665546Y-102592605D01*
X67737234Y-102419534D01*
X67841309Y-102263775D01*
X67841310Y-102263773D01*
X67973773Y-102131310D01*
X68052182Y-102078919D01*
X68129534Y-102027234D01*
X68302605Y-101955546D01*
X68486333Y-101919000D01*
X68673667Y-101919000D01*
X68857395Y-101955546D01*
G37*
G36*
X81557395Y-101955546D02*
G01*
X81730466Y-102027234D01*
X81807818Y-102078919D01*
X81886227Y-102131310D01*
X82018690Y-102263773D01*
X82018691Y-102263775D01*
X82122766Y-102419534D01*
X82194454Y-102592605D01*
X82231000Y-102776333D01*
X82231000Y-102963667D01*
X82194454Y-103147395D01*
X82122766Y-103320466D01*
X82122765Y-103320467D01*
X82018690Y-103476227D01*
X81886227Y-103608690D01*
X81807818Y-103661081D01*
X81730466Y-103712766D01*
X81557395Y-103784454D01*
X81373667Y-103821000D01*
X81186333Y-103821000D01*
X81002605Y-103784454D01*
X80829534Y-103712766D01*
X80752182Y-103661081D01*
X80673773Y-103608690D01*
X80541310Y-103476227D01*
X80437235Y-103320467D01*
X80437234Y-103320466D01*
X80365546Y-103147395D01*
X80329000Y-102963667D01*
X80329000Y-102776333D01*
X80365546Y-102592605D01*
X80437234Y-102419534D01*
X80541309Y-102263775D01*
X80541310Y-102263773D01*
X80673773Y-102131310D01*
X80752182Y-102078919D01*
X80829534Y-102027234D01*
X81002605Y-101955546D01*
X81186333Y-101919000D01*
X81373667Y-101919000D01*
X81557395Y-101955546D01*
G37*
G36*
X86637395Y-100685546D02*
G01*
X86810466Y-100757234D01*
X86877116Y-100801768D01*
X86966227Y-100861310D01*
X87098690Y-100993773D01*
X87098691Y-100993775D01*
X87202766Y-101149534D01*
X87274454Y-101322605D01*
X87311000Y-101506333D01*
X87311000Y-101693667D01*
X87274454Y-101877395D01*
X87202766Y-102050466D01*
X87202765Y-102050467D01*
X87098690Y-102206227D01*
X86966227Y-102338690D01*
X86887818Y-102391081D01*
X86810466Y-102442766D01*
X86637395Y-102514454D01*
X86453667Y-102551000D01*
X86266333Y-102551000D01*
X86082605Y-102514454D01*
X85909534Y-102442766D01*
X85832182Y-102391081D01*
X85753773Y-102338690D01*
X85621310Y-102206227D01*
X85517235Y-102050467D01*
X85517234Y-102050466D01*
X85445546Y-101877395D01*
X85409000Y-101693667D01*
X85409000Y-101506333D01*
X85445546Y-101322605D01*
X85517234Y-101149534D01*
X85621309Y-100993775D01*
X85621310Y-100993773D01*
X85753773Y-100861310D01*
X85842884Y-100801768D01*
X85909534Y-100757234D01*
X86082605Y-100685546D01*
X86266333Y-100649000D01*
X86453667Y-100649000D01*
X86637395Y-100685546D01*
G37*
G36*
X63777395Y-100685546D02*
G01*
X63950466Y-100757234D01*
X64017116Y-100801768D01*
X64106227Y-100861310D01*
X64238690Y-100993773D01*
X64238691Y-100993775D01*
X64342766Y-101149534D01*
X64414454Y-101322605D01*
X64451000Y-101506333D01*
X64451000Y-101693667D01*
X64414454Y-101877395D01*
X64342766Y-102050466D01*
X64342765Y-102050467D01*
X64238690Y-102206227D01*
X64106227Y-102338690D01*
X64027818Y-102391081D01*
X63950466Y-102442766D01*
X63777395Y-102514454D01*
X63593667Y-102551000D01*
X63406333Y-102551000D01*
X63222605Y-102514454D01*
X63049534Y-102442766D01*
X62972182Y-102391081D01*
X62893773Y-102338690D01*
X62761310Y-102206227D01*
X62657235Y-102050467D01*
X62657234Y-102050466D01*
X62585546Y-101877395D01*
X62549000Y-101693667D01*
X62549000Y-101506333D01*
X62585546Y-101322605D01*
X62657234Y-101149534D01*
X62761309Y-100993775D01*
X62761310Y-100993773D01*
X62893773Y-100861310D01*
X62982884Y-100801768D01*
X63049534Y-100757234D01*
X63222605Y-100685546D01*
X63406333Y-100649000D01*
X63593667Y-100649000D01*
X63777395Y-100685546D01*
G37*
G36*
X68857395Y-99415546D02*
G01*
X69030466Y-99487234D01*
X69107818Y-99538919D01*
X69186227Y-99591310D01*
X69318690Y-99723773D01*
X69318691Y-99723775D01*
X69422766Y-99879534D01*
X69494454Y-100052605D01*
X69531000Y-100236333D01*
X69531000Y-100423667D01*
X69494454Y-100607395D01*
X69422766Y-100780466D01*
X69371081Y-100857818D01*
X69318690Y-100936227D01*
X69186227Y-101068690D01*
X69107818Y-101121081D01*
X69030466Y-101172766D01*
X68857395Y-101244454D01*
X68673667Y-101281000D01*
X68486333Y-101281000D01*
X68302605Y-101244454D01*
X68129534Y-101172766D01*
X68052182Y-101121081D01*
X67973773Y-101068690D01*
X67841310Y-100936227D01*
X67788919Y-100857818D01*
X67737234Y-100780466D01*
X67665546Y-100607395D01*
X67629000Y-100423667D01*
X67629000Y-100236333D01*
X67665546Y-100052605D01*
X67737234Y-99879534D01*
X67841309Y-99723775D01*
X67841310Y-99723773D01*
X67973773Y-99591310D01*
X68052182Y-99538919D01*
X68129534Y-99487234D01*
X68302605Y-99415546D01*
X68486333Y-99379000D01*
X68673667Y-99379000D01*
X68857395Y-99415546D01*
G37*
G36*
X81557395Y-99415546D02*
G01*
X81730466Y-99487234D01*
X81807818Y-99538919D01*
X81886227Y-99591310D01*
X82018690Y-99723773D01*
X82018691Y-99723775D01*
X82122766Y-99879534D01*
X82194454Y-100052605D01*
X82231000Y-100236333D01*
X82231000Y-100423667D01*
X82194454Y-100607395D01*
X82122766Y-100780466D01*
X82071081Y-100857818D01*
X82018690Y-100936227D01*
X81886227Y-101068690D01*
X81807818Y-101121081D01*
X81730466Y-101172766D01*
X81557395Y-101244454D01*
X81373667Y-101281000D01*
X81186333Y-101281000D01*
X81002605Y-101244454D01*
X80829534Y-101172766D01*
X80752182Y-101121081D01*
X80673773Y-101068690D01*
X80541310Y-100936227D01*
X80488919Y-100857818D01*
X80437234Y-100780466D01*
X80365546Y-100607395D01*
X80329000Y-100423667D01*
X80329000Y-100236333D01*
X80365546Y-100052605D01*
X80437234Y-99879534D01*
X80541309Y-99723775D01*
X80541310Y-99723773D01*
X80673773Y-99591310D01*
X80752182Y-99538919D01*
X80829534Y-99487234D01*
X81002605Y-99415546D01*
X81186333Y-99379000D01*
X81373667Y-99379000D01*
X81557395Y-99415546D01*
G37*
G36*
X98776549Y-98566116D02*
G01*
X98887734Y-98588232D01*
X99097203Y-98674997D01*
X99285720Y-98800960D01*
X99446040Y-98961280D01*
X99572003Y-99149797D01*
X99649709Y-99337395D01*
X99658768Y-99359267D01*
X99703000Y-99581635D01*
X99703000Y-99808365D01*
X99684223Y-99902765D01*
X99658768Y-100030734D01*
X99572003Y-100240203D01*
X99446040Y-100428720D01*
X99285720Y-100589040D01*
X99097203Y-100715003D01*
X98887734Y-100801768D01*
X98776549Y-100823884D01*
X98665365Y-100846000D01*
X98438635Y-100846000D01*
X98327451Y-100823884D01*
X98216266Y-100801768D01*
X98006797Y-100715003D01*
X97818280Y-100589040D01*
X97657960Y-100428720D01*
X97531997Y-100240203D01*
X97445232Y-100030734D01*
X97419777Y-99902765D01*
X97401000Y-99808365D01*
X97401000Y-99581635D01*
X97445232Y-99359267D01*
X97454292Y-99337395D01*
X97531997Y-99149797D01*
X97657960Y-98961280D01*
X97818280Y-98800960D01*
X98006797Y-98674997D01*
X98216266Y-98588232D01*
X98327451Y-98566116D01*
X98438635Y-98544000D01*
X98665365Y-98544000D01*
X98776549Y-98566116D01*
G37*
G36*
X94966549Y-98566116D02*
G01*
X95077734Y-98588232D01*
X95287203Y-98674997D01*
X95475720Y-98800960D01*
X95636040Y-98961280D01*
X95762003Y-99149797D01*
X95839709Y-99337395D01*
X95848768Y-99359267D01*
X95893000Y-99581635D01*
X95893000Y-99808365D01*
X95874223Y-99902765D01*
X95848768Y-100030734D01*
X95762003Y-100240203D01*
X95636040Y-100428720D01*
X95475720Y-100589040D01*
X95287203Y-100715003D01*
X95077734Y-100801768D01*
X94966549Y-100823884D01*
X94855365Y-100846000D01*
X94628635Y-100846000D01*
X94517451Y-100823884D01*
X94406266Y-100801768D01*
X94196797Y-100715003D01*
X94008280Y-100589040D01*
X93847960Y-100428720D01*
X93721997Y-100240203D01*
X93635232Y-100030734D01*
X93609777Y-99902765D01*
X93591000Y-99808365D01*
X93591000Y-99581635D01*
X93635232Y-99359267D01*
X93644292Y-99337395D01*
X93721997Y-99149797D01*
X93847960Y-98961280D01*
X94008280Y-98800960D01*
X94196797Y-98674997D01*
X94406266Y-98588232D01*
X94517451Y-98566116D01*
X94628635Y-98544000D01*
X94855365Y-98544000D01*
X94966549Y-98566116D01*
G37*
G36*
X53564549Y-98566116D02*
G01*
X53675734Y-98588232D01*
X53885203Y-98674997D01*
X54073720Y-98800960D01*
X54234040Y-98961280D01*
X54360003Y-99149797D01*
X54437709Y-99337395D01*
X54446768Y-99359267D01*
X54491000Y-99581635D01*
X54491000Y-99808365D01*
X54472223Y-99902765D01*
X54446768Y-100030734D01*
X54360003Y-100240203D01*
X54234040Y-100428720D01*
X54073720Y-100589040D01*
X53885203Y-100715003D01*
X53675734Y-100801768D01*
X53564549Y-100823884D01*
X53453365Y-100846000D01*
X53226635Y-100846000D01*
X53115451Y-100823884D01*
X53004266Y-100801768D01*
X52794797Y-100715003D01*
X52606280Y-100589040D01*
X52445960Y-100428720D01*
X52319997Y-100240203D01*
X52233232Y-100030734D01*
X52207777Y-99902765D01*
X52189000Y-99808365D01*
X52189000Y-99581635D01*
X52233232Y-99359267D01*
X52242292Y-99337395D01*
X52319997Y-99149797D01*
X52445960Y-98961280D01*
X52606280Y-98800960D01*
X52794797Y-98674997D01*
X53004266Y-98588232D01*
X53115451Y-98566116D01*
X53226635Y-98544000D01*
X53453365Y-98544000D01*
X53564549Y-98566116D01*
G37*
G36*
X49754549Y-98566116D02*
G01*
X49865734Y-98588232D01*
X50075203Y-98674997D01*
X50263720Y-98800960D01*
X50424040Y-98961280D01*
X50550003Y-99149797D01*
X50627709Y-99337395D01*
X50636768Y-99359267D01*
X50681000Y-99581635D01*
X50681000Y-99808365D01*
X50662223Y-99902765D01*
X50636768Y-100030734D01*
X50550003Y-100240203D01*
X50424040Y-100428720D01*
X50263720Y-100589040D01*
X50075203Y-100715003D01*
X49865734Y-100801768D01*
X49754549Y-100823884D01*
X49643365Y-100846000D01*
X49416635Y-100846000D01*
X49305451Y-100823884D01*
X49194266Y-100801768D01*
X48984797Y-100715003D01*
X48796280Y-100589040D01*
X48635960Y-100428720D01*
X48509997Y-100240203D01*
X48423232Y-100030734D01*
X48397777Y-99902765D01*
X48379000Y-99808365D01*
X48379000Y-99581635D01*
X48423232Y-99359267D01*
X48432292Y-99337395D01*
X48509997Y-99149797D01*
X48635960Y-98961280D01*
X48796280Y-98800960D01*
X48984797Y-98674997D01*
X49194266Y-98588232D01*
X49305451Y-98566116D01*
X49416635Y-98544000D01*
X49643365Y-98544000D01*
X49754549Y-98566116D01*
G37*
G36*
X63777395Y-98145546D02*
G01*
X63950466Y-98217234D01*
X64027818Y-98268919D01*
X64106227Y-98321310D01*
X64238690Y-98453773D01*
X64238691Y-98453775D01*
X64342766Y-98609534D01*
X64414454Y-98782605D01*
X64451000Y-98966333D01*
X64451000Y-99153667D01*
X64414454Y-99337395D01*
X64342766Y-99510466D01*
X64342765Y-99510467D01*
X64238690Y-99666227D01*
X64106227Y-99798690D01*
X64091747Y-99808365D01*
X63950466Y-99902766D01*
X63777395Y-99974454D01*
X63593667Y-100011000D01*
X63406333Y-100011000D01*
X63222605Y-99974454D01*
X63049534Y-99902766D01*
X62908253Y-99808365D01*
X62893773Y-99798690D01*
X62761310Y-99666227D01*
X62657235Y-99510467D01*
X62657234Y-99510466D01*
X62585546Y-99337395D01*
X62549000Y-99153667D01*
X62549000Y-98966333D01*
X62585546Y-98782605D01*
X62657234Y-98609534D01*
X62761309Y-98453775D01*
X62761310Y-98453773D01*
X62893773Y-98321310D01*
X62972182Y-98268919D01*
X63049534Y-98217234D01*
X63222605Y-98145546D01*
X63406333Y-98109000D01*
X63593667Y-98109000D01*
X63777395Y-98145546D01*
G37*
G36*
X86637395Y-98145546D02*
G01*
X86810466Y-98217234D01*
X86887818Y-98268919D01*
X86966227Y-98321310D01*
X87098690Y-98453773D01*
X87098691Y-98453775D01*
X87202766Y-98609534D01*
X87274454Y-98782605D01*
X87311000Y-98966333D01*
X87311000Y-99153667D01*
X87274454Y-99337395D01*
X87202766Y-99510466D01*
X87202765Y-99510467D01*
X87098690Y-99666227D01*
X86966227Y-99798690D01*
X86951747Y-99808365D01*
X86810466Y-99902766D01*
X86637395Y-99974454D01*
X86453667Y-100011000D01*
X86266333Y-100011000D01*
X86082605Y-99974454D01*
X85909534Y-99902766D01*
X85768253Y-99808365D01*
X85753773Y-99798690D01*
X85621310Y-99666227D01*
X85517235Y-99510467D01*
X85517234Y-99510466D01*
X85445546Y-99337395D01*
X85409000Y-99153667D01*
X85409000Y-98966333D01*
X85445546Y-98782605D01*
X85517234Y-98609534D01*
X85621309Y-98453775D01*
X85621310Y-98453773D01*
X85753773Y-98321310D01*
X85832182Y-98268919D01*
X85909534Y-98217234D01*
X86082605Y-98145546D01*
X86266333Y-98109000D01*
X86453667Y-98109000D01*
X86637395Y-98145546D01*
G37*
G36*
X68857395Y-96875546D02*
G01*
X69030466Y-96947234D01*
X69107818Y-96998919D01*
X69186227Y-97051310D01*
X69318690Y-97183773D01*
X69318691Y-97183775D01*
X69422766Y-97339534D01*
X69494454Y-97512605D01*
X69531000Y-97696333D01*
X69531000Y-97883667D01*
X69494454Y-98067395D01*
X69422766Y-98240466D01*
X69422765Y-98240467D01*
X69318690Y-98396227D01*
X69186227Y-98528690D01*
X69107818Y-98581081D01*
X69030466Y-98632766D01*
X68857395Y-98704454D01*
X68673667Y-98741000D01*
X68486333Y-98741000D01*
X68302605Y-98704454D01*
X68129534Y-98632766D01*
X68052182Y-98581081D01*
X67973773Y-98528690D01*
X67841310Y-98396227D01*
X67737235Y-98240467D01*
X67737234Y-98240466D01*
X67665546Y-98067395D01*
X67629000Y-97883667D01*
X67629000Y-97696333D01*
X67665546Y-97512605D01*
X67737234Y-97339534D01*
X67841309Y-97183775D01*
X67841310Y-97183773D01*
X67973773Y-97051310D01*
X68052182Y-96998919D01*
X68129534Y-96947234D01*
X68302605Y-96875546D01*
X68486333Y-96839000D01*
X68673667Y-96839000D01*
X68857395Y-96875546D01*
G37*
G36*
X81557395Y-96875546D02*
G01*
X81730466Y-96947234D01*
X81807818Y-96998919D01*
X81886227Y-97051310D01*
X82018690Y-97183773D01*
X82018691Y-97183775D01*
X82122766Y-97339534D01*
X82194454Y-97512605D01*
X82231000Y-97696333D01*
X82231000Y-97883667D01*
X82194454Y-98067395D01*
X82122766Y-98240466D01*
X82122765Y-98240467D01*
X82018690Y-98396227D01*
X81886227Y-98528690D01*
X81807818Y-98581081D01*
X81730466Y-98632766D01*
X81557395Y-98704454D01*
X81373667Y-98741000D01*
X81186333Y-98741000D01*
X81002605Y-98704454D01*
X80829534Y-98632766D01*
X80752182Y-98581081D01*
X80673773Y-98528690D01*
X80541310Y-98396227D01*
X80437235Y-98240467D01*
X80437234Y-98240466D01*
X80365546Y-98067395D01*
X80329000Y-97883667D01*
X80329000Y-97696333D01*
X80365546Y-97512605D01*
X80437234Y-97339534D01*
X80541309Y-97183775D01*
X80541310Y-97183773D01*
X80673773Y-97051310D01*
X80752182Y-96998919D01*
X80829534Y-96947234D01*
X81002605Y-96875546D01*
X81186333Y-96839000D01*
X81373667Y-96839000D01*
X81557395Y-96875546D01*
G37*
G36*
X63777395Y-95605546D02*
G01*
X63950466Y-95677234D01*
X64027818Y-95728919D01*
X64106227Y-95781310D01*
X64238690Y-95913773D01*
X64238691Y-95913775D01*
X64342766Y-96069534D01*
X64414454Y-96242605D01*
X64451000Y-96426333D01*
X64451000Y-96613667D01*
X64414454Y-96797395D01*
X64342766Y-96970466D01*
X64342765Y-96970467D01*
X64238690Y-97126227D01*
X64106227Y-97258690D01*
X64027818Y-97311081D01*
X63950466Y-97362766D01*
X63777395Y-97434454D01*
X63593667Y-97471000D01*
X63406333Y-97471000D01*
X63222605Y-97434454D01*
X63049534Y-97362766D01*
X62972182Y-97311081D01*
X62893773Y-97258690D01*
X62761310Y-97126227D01*
X62657235Y-96970467D01*
X62657234Y-96970466D01*
X62585546Y-96797395D01*
X62549000Y-96613667D01*
X62549000Y-96426333D01*
X62585546Y-96242605D01*
X62657234Y-96069534D01*
X62761309Y-95913775D01*
X62761310Y-95913773D01*
X62893773Y-95781310D01*
X62972182Y-95728919D01*
X63049534Y-95677234D01*
X63222605Y-95605546D01*
X63406333Y-95569000D01*
X63593667Y-95569000D01*
X63777395Y-95605546D01*
G37*
G36*
X86637395Y-95605546D02*
G01*
X86810466Y-95677234D01*
X86887818Y-95728919D01*
X86966227Y-95781310D01*
X87098690Y-95913773D01*
X87098691Y-95913775D01*
X87202766Y-96069534D01*
X87274454Y-96242605D01*
X87311000Y-96426333D01*
X87311000Y-96613667D01*
X87274454Y-96797395D01*
X87202766Y-96970466D01*
X87202765Y-96970467D01*
X87098690Y-97126227D01*
X86966227Y-97258690D01*
X86887818Y-97311081D01*
X86810466Y-97362766D01*
X86637395Y-97434454D01*
X86453667Y-97471000D01*
X86266333Y-97471000D01*
X86082605Y-97434454D01*
X85909534Y-97362766D01*
X85832182Y-97311081D01*
X85753773Y-97258690D01*
X85621310Y-97126227D01*
X85517235Y-96970467D01*
X85517234Y-96970466D01*
X85445546Y-96797395D01*
X85409000Y-96613667D01*
X85409000Y-96426333D01*
X85445546Y-96242605D01*
X85517234Y-96069534D01*
X85621309Y-95913775D01*
X85621310Y-95913773D01*
X85753773Y-95781310D01*
X85832182Y-95728919D01*
X85909534Y-95677234D01*
X86082605Y-95605546D01*
X86266333Y-95569000D01*
X86453667Y-95569000D01*
X86637395Y-95605546D01*
G37*
G36*
X81557395Y-94335546D02*
G01*
X81730466Y-94407234D01*
X81807818Y-94458919D01*
X81886227Y-94511310D01*
X82018690Y-94643773D01*
X82018691Y-94643775D01*
X82122766Y-94799534D01*
X82194454Y-94972605D01*
X82231000Y-95156333D01*
X82231000Y-95343667D01*
X82194454Y-95527395D01*
X82122766Y-95700466D01*
X82122765Y-95700467D01*
X82018690Y-95856227D01*
X81886227Y-95988690D01*
X81807818Y-96041081D01*
X81730466Y-96092766D01*
X81557395Y-96164454D01*
X81373667Y-96201000D01*
X81186333Y-96201000D01*
X81002605Y-96164454D01*
X80829534Y-96092766D01*
X80752182Y-96041081D01*
X80673773Y-95988690D01*
X80541310Y-95856227D01*
X80437235Y-95700467D01*
X80437234Y-95700466D01*
X80365546Y-95527395D01*
X80329000Y-95343667D01*
X80329000Y-95156333D01*
X80365546Y-94972605D01*
X80437234Y-94799534D01*
X80541309Y-94643775D01*
X80541310Y-94643773D01*
X80673773Y-94511310D01*
X80752182Y-94458919D01*
X80829534Y-94407234D01*
X81002605Y-94335546D01*
X81186333Y-94299000D01*
X81373667Y-94299000D01*
X81557395Y-94335546D01*
G37*
G36*
X68857395Y-94335546D02*
G01*
X69030466Y-94407234D01*
X69107818Y-94458919D01*
X69186227Y-94511310D01*
X69318690Y-94643773D01*
X69318691Y-94643775D01*
X69422766Y-94799534D01*
X69494454Y-94972605D01*
X69531000Y-95156333D01*
X69531000Y-95343667D01*
X69494454Y-95527395D01*
X69422766Y-95700466D01*
X69422765Y-95700467D01*
X69318690Y-95856227D01*
X69186227Y-95988690D01*
X69107818Y-96041081D01*
X69030466Y-96092766D01*
X68857395Y-96164454D01*
X68673667Y-96201000D01*
X68486333Y-96201000D01*
X68302605Y-96164454D01*
X68129534Y-96092766D01*
X68052182Y-96041081D01*
X67973773Y-95988690D01*
X67841310Y-95856227D01*
X67737235Y-95700467D01*
X67737234Y-95700466D01*
X67665546Y-95527395D01*
X67629000Y-95343667D01*
X67629000Y-95156333D01*
X67665546Y-94972605D01*
X67737234Y-94799534D01*
X67841309Y-94643775D01*
X67841310Y-94643773D01*
X67973773Y-94511310D01*
X68052182Y-94458919D01*
X68129534Y-94407234D01*
X68302605Y-94335546D01*
X68486333Y-94299000D01*
X68673667Y-94299000D01*
X68857395Y-94335546D01*
G37*
G36*
X64451000Y-94931000D02*
G01*
X62549000Y-94931000D01*
X62549000Y-93029000D01*
X64451000Y-93029000D01*
X64451000Y-94931000D01*
G37*
G36*
X86637395Y-93065546D02*
G01*
X86810466Y-93137234D01*
X86810467Y-93137235D01*
X86966227Y-93241310D01*
X87098690Y-93373773D01*
X87098691Y-93373775D01*
X87202766Y-93529534D01*
X87274454Y-93702605D01*
X87311000Y-93886333D01*
X87311000Y-94073667D01*
X87274454Y-94257395D01*
X87202766Y-94430466D01*
X87202765Y-94430467D01*
X87098690Y-94586227D01*
X86966227Y-94718690D01*
X86887818Y-94771081D01*
X86810466Y-94822766D01*
X86637395Y-94894454D01*
X86453667Y-94931000D01*
X86266333Y-94931000D01*
X86082605Y-94894454D01*
X85909534Y-94822766D01*
X85832182Y-94771081D01*
X85753773Y-94718690D01*
X85621310Y-94586227D01*
X85517235Y-94430467D01*
X85517234Y-94430466D01*
X85445546Y-94257395D01*
X85409000Y-94073667D01*
X85409000Y-93886333D01*
X85445546Y-93702605D01*
X85517234Y-93529534D01*
X85621309Y-93373775D01*
X85621310Y-93373773D01*
X85753773Y-93241310D01*
X85909533Y-93137235D01*
X85909534Y-93137234D01*
X86082605Y-93065546D01*
X86266333Y-93029000D01*
X86453667Y-93029000D01*
X86637395Y-93065546D01*
G37*
G36*
X49754549Y-85866116D02*
G01*
X49865734Y-85888232D01*
X50075203Y-85974997D01*
X50263720Y-86100960D01*
X50424040Y-86261280D01*
X50550003Y-86449797D01*
X50636768Y-86659266D01*
X50681000Y-86881636D01*
X50681000Y-87108364D01*
X50636768Y-87330734D01*
X50550003Y-87540203D01*
X50424040Y-87728720D01*
X50263720Y-87889040D01*
X50075203Y-88015003D01*
X49865734Y-88101768D01*
X49749192Y-88124950D01*
X49691607Y-88136404D01*
X49668158Y-88143517D01*
X49646547Y-88155068D01*
X49627605Y-88170613D01*
X49612060Y-88189555D01*
X49600509Y-88211166D01*
X49593396Y-88234615D01*
X49590994Y-88259001D01*
X49593396Y-88283387D01*
X49600509Y-88306836D01*
X49612060Y-88328447D01*
X49627605Y-88347389D01*
X49646547Y-88362934D01*
X49668158Y-88374485D01*
X49691607Y-88381598D01*
X49715993Y-88384000D01*
X50681000Y-88384000D01*
X50681000Y-90686000D01*
X48379000Y-90686000D01*
X48379000Y-88384000D01*
X49344007Y-88384000D01*
X49368393Y-88381598D01*
X49391842Y-88374485D01*
X49413453Y-88362934D01*
X49432395Y-88347389D01*
X49447940Y-88328447D01*
X49459491Y-88306836D01*
X49466604Y-88283387D01*
X49469006Y-88259001D01*
X49466604Y-88234615D01*
X49459491Y-88211166D01*
X49447940Y-88189555D01*
X49432395Y-88170613D01*
X49413453Y-88155068D01*
X49391842Y-88143517D01*
X49368393Y-88136404D01*
X49310808Y-88124950D01*
X49194266Y-88101768D01*
X48984797Y-88015003D01*
X48796280Y-87889040D01*
X48635960Y-87728720D01*
X48509997Y-87540203D01*
X48423232Y-87330734D01*
X48379000Y-87108364D01*
X48379000Y-86881636D01*
X48423232Y-86659266D01*
X48509997Y-86449797D01*
X48635960Y-86261280D01*
X48796280Y-86100960D01*
X48984797Y-85974997D01*
X49194266Y-85888232D01*
X49305451Y-85866116D01*
X49416635Y-85844000D01*
X49643365Y-85844000D01*
X49754549Y-85866116D01*
G37*
G36*
X94966549Y-85866116D02*
G01*
X95077734Y-85888232D01*
X95287203Y-85974997D01*
X95475720Y-86100960D01*
X95636040Y-86261280D01*
X95762003Y-86449797D01*
X95848768Y-86659266D01*
X95893000Y-86881636D01*
X95893000Y-87108364D01*
X95848768Y-87330734D01*
X95762003Y-87540203D01*
X95636040Y-87728720D01*
X95475720Y-87889040D01*
X95287203Y-88015003D01*
X95077734Y-88101768D01*
X94961192Y-88124950D01*
X94903607Y-88136404D01*
X94880158Y-88143517D01*
X94858547Y-88155068D01*
X94839605Y-88170613D01*
X94824060Y-88189555D01*
X94812509Y-88211166D01*
X94805396Y-88234615D01*
X94802994Y-88259001D01*
X94805396Y-88283387D01*
X94812509Y-88306836D01*
X94824060Y-88328447D01*
X94839605Y-88347389D01*
X94858547Y-88362934D01*
X94880158Y-88374485D01*
X94903607Y-88381598D01*
X94927993Y-88384000D01*
X95893000Y-88384000D01*
X95893000Y-90686000D01*
X93591000Y-90686000D01*
X93591000Y-88384000D01*
X94556007Y-88384000D01*
X94580393Y-88381598D01*
X94603842Y-88374485D01*
X94625453Y-88362934D01*
X94644395Y-88347389D01*
X94659940Y-88328447D01*
X94671491Y-88306836D01*
X94678604Y-88283387D01*
X94681006Y-88259001D01*
X94678604Y-88234615D01*
X94671491Y-88211166D01*
X94659940Y-88189555D01*
X94644395Y-88170613D01*
X94625453Y-88155068D01*
X94603842Y-88143517D01*
X94580393Y-88136404D01*
X94522808Y-88124950D01*
X94406266Y-88101768D01*
X94196797Y-88015003D01*
X94008280Y-87889040D01*
X93847960Y-87728720D01*
X93721997Y-87540203D01*
X93635232Y-87330734D01*
X93591000Y-87108364D01*
X93591000Y-86881636D01*
X93635232Y-86659266D01*
X93721997Y-86449797D01*
X93847960Y-86261280D01*
X94008280Y-86100960D01*
X94196797Y-85974997D01*
X94406266Y-85888232D01*
X94517451Y-85866116D01*
X94628635Y-85844000D01*
X94855365Y-85844000D01*
X94966549Y-85866116D01*
G37*
G36*
X53564549Y-85866116D02*
G01*
X53675734Y-85888232D01*
X53885203Y-85974997D01*
X54073720Y-86100960D01*
X54234040Y-86261280D01*
X54360003Y-86449797D01*
X54446768Y-86659266D01*
X54491000Y-86881636D01*
X54491000Y-87108364D01*
X54446768Y-87330734D01*
X54360003Y-87540203D01*
X54234040Y-87728720D01*
X54073720Y-87889040D01*
X53885203Y-88015003D01*
X53675734Y-88101768D01*
X53559192Y-88124950D01*
X53501607Y-88136404D01*
X53478158Y-88143517D01*
X53456547Y-88155068D01*
X53437605Y-88170613D01*
X53422060Y-88189555D01*
X53410509Y-88211166D01*
X53403396Y-88234615D01*
X53400994Y-88259001D01*
X53403396Y-88283387D01*
X53410509Y-88306836D01*
X53422060Y-88328447D01*
X53437605Y-88347389D01*
X53456547Y-88362934D01*
X53478158Y-88374485D01*
X53501607Y-88381598D01*
X53525993Y-88384000D01*
X54491000Y-88384000D01*
X54491000Y-90686000D01*
X52189000Y-90686000D01*
X52189000Y-88384000D01*
X53154007Y-88384000D01*
X53178393Y-88381598D01*
X53201842Y-88374485D01*
X53223453Y-88362934D01*
X53242395Y-88347389D01*
X53257940Y-88328447D01*
X53269491Y-88306836D01*
X53276604Y-88283387D01*
X53279006Y-88259001D01*
X53276604Y-88234615D01*
X53269491Y-88211166D01*
X53257940Y-88189555D01*
X53242395Y-88170613D01*
X53223453Y-88155068D01*
X53201842Y-88143517D01*
X53178393Y-88136404D01*
X53120808Y-88124950D01*
X53004266Y-88101768D01*
X52794797Y-88015003D01*
X52606280Y-87889040D01*
X52445960Y-87728720D01*
X52319997Y-87540203D01*
X52233232Y-87330734D01*
X52189000Y-87108364D01*
X52189000Y-86881636D01*
X52233232Y-86659266D01*
X52319997Y-86449797D01*
X52445960Y-86261280D01*
X52606280Y-86100960D01*
X52794797Y-85974997D01*
X53004266Y-85888232D01*
X53115451Y-85866116D01*
X53226635Y-85844000D01*
X53453365Y-85844000D01*
X53564549Y-85866116D01*
G37*
G36*
X98776549Y-85866116D02*
G01*
X98887734Y-85888232D01*
X99097203Y-85974997D01*
X99285720Y-86100960D01*
X99446040Y-86261280D01*
X99572003Y-86449797D01*
X99658768Y-86659266D01*
X99703000Y-86881636D01*
X99703000Y-87108364D01*
X99658768Y-87330734D01*
X99572003Y-87540203D01*
X99446040Y-87728720D01*
X99285720Y-87889040D01*
X99097203Y-88015003D01*
X98887734Y-88101768D01*
X98771192Y-88124950D01*
X98713607Y-88136404D01*
X98690158Y-88143517D01*
X98668547Y-88155068D01*
X98649605Y-88170613D01*
X98634060Y-88189555D01*
X98622509Y-88211166D01*
X98615396Y-88234615D01*
X98612994Y-88259001D01*
X98615396Y-88283387D01*
X98622509Y-88306836D01*
X98634060Y-88328447D01*
X98649605Y-88347389D01*
X98668547Y-88362934D01*
X98690158Y-88374485D01*
X98713607Y-88381598D01*
X98737993Y-88384000D01*
X99703000Y-88384000D01*
X99703000Y-90686000D01*
X97401000Y-90686000D01*
X97401000Y-88384000D01*
X98366007Y-88384000D01*
X98390393Y-88381598D01*
X98413842Y-88374485D01*
X98435453Y-88362934D01*
X98454395Y-88347389D01*
X98469940Y-88328447D01*
X98481491Y-88306836D01*
X98488604Y-88283387D01*
X98491006Y-88259001D01*
X98488604Y-88234615D01*
X98481491Y-88211166D01*
X98469940Y-88189555D01*
X98454395Y-88170613D01*
X98435453Y-88155068D01*
X98413842Y-88143517D01*
X98390393Y-88136404D01*
X98332808Y-88124950D01*
X98216266Y-88101768D01*
X98006797Y-88015003D01*
X97818280Y-87889040D01*
X97657960Y-87728720D01*
X97531997Y-87540203D01*
X97445232Y-87330734D01*
X97401000Y-87108364D01*
X97401000Y-86881636D01*
X97445232Y-86659266D01*
X97531997Y-86449797D01*
X97657960Y-86261280D01*
X97818280Y-86100960D01*
X98006797Y-85974997D01*
X98216266Y-85888232D01*
X98327451Y-85866116D01*
X98438635Y-85844000D01*
X98665365Y-85844000D01*
X98776549Y-85866116D01*
G37*
G36*
X91016766Y-88931899D02*
G01*
X91148888Y-88986626D01*
X91148890Y-88986627D01*
X91267798Y-89066079D01*
X91368921Y-89167202D01*
X91368922Y-89167204D01*
X91448374Y-89286112D01*
X91503101Y-89418234D01*
X91531000Y-89558494D01*
X91531000Y-89701506D01*
X91503101Y-89841766D01*
X91448374Y-89973888D01*
X91448373Y-89973890D01*
X91368921Y-90092798D01*
X91267798Y-90193921D01*
X91148890Y-90273373D01*
X91148889Y-90273374D01*
X91148888Y-90273374D01*
X91016766Y-90328101D01*
X90876506Y-90356000D01*
X90733494Y-90356000D01*
X90593234Y-90328101D01*
X90461112Y-90273374D01*
X90461111Y-90273374D01*
X90461110Y-90273373D01*
X90342202Y-90193921D01*
X90241079Y-90092798D01*
X90161627Y-89973890D01*
X90161626Y-89973888D01*
X90106899Y-89841766D01*
X90079000Y-89701506D01*
X90079000Y-89558494D01*
X90106899Y-89418234D01*
X90161626Y-89286112D01*
X90241078Y-89167204D01*
X90241079Y-89167202D01*
X90342202Y-89066079D01*
X90461110Y-88986627D01*
X90461112Y-88986626D01*
X90593234Y-88931899D01*
X90733494Y-88904000D01*
X90876506Y-88904000D01*
X91016766Y-88931899D01*
G37*
G36*
X57996766Y-88931899D02*
G01*
X58128888Y-88986626D01*
X58128890Y-88986627D01*
X58247798Y-89066079D01*
X58348921Y-89167202D01*
X58348922Y-89167204D01*
X58428374Y-89286112D01*
X58483101Y-89418234D01*
X58511000Y-89558494D01*
X58511000Y-89701506D01*
X58483101Y-89841766D01*
X58428374Y-89973888D01*
X58428373Y-89973890D01*
X58348921Y-90092798D01*
X58247798Y-90193921D01*
X58128890Y-90273373D01*
X58128889Y-90273374D01*
X58128888Y-90273374D01*
X57996766Y-90328101D01*
X57856506Y-90356000D01*
X57713494Y-90356000D01*
X57573234Y-90328101D01*
X57441112Y-90273374D01*
X57441111Y-90273374D01*
X57441110Y-90273373D01*
X57322202Y-90193921D01*
X57221079Y-90092798D01*
X57141627Y-89973890D01*
X57141626Y-89973888D01*
X57086899Y-89841766D01*
X57059000Y-89701506D01*
X57059000Y-89558494D01*
X57086899Y-89418234D01*
X57141626Y-89286112D01*
X57221078Y-89167204D01*
X57221079Y-89167202D01*
X57322202Y-89066079D01*
X57441110Y-88986627D01*
X57441112Y-88986626D01*
X57573234Y-88931899D01*
X57713494Y-88904000D01*
X57856506Y-88904000D01*
X57996766Y-88931899D01*
G37*
G36*
X91531000Y-88356000D02*
G01*
X90079000Y-88356000D01*
X90079000Y-86904000D01*
X91531000Y-86904000D01*
X91531000Y-88356000D01*
G37*
G36*
X58511000Y-88356000D02*
G01*
X57059000Y-88356000D01*
X57059000Y-86904000D01*
X58511000Y-86904000D01*
X58511000Y-88356000D01*
G37*
G36*
X75528254Y-83147818D02*
G01*
X75901511Y-83302426D01*
X75901513Y-83302427D01*
X76237436Y-83526884D01*
X76523116Y-83812564D01*
X76747574Y-84148489D01*
X76902182Y-84521746D01*
X76981000Y-84917993D01*
X76981000Y-85322007D01*
X76902182Y-85718254D01*
X76747574Y-86091511D01*
X76747573Y-86091513D01*
X76523116Y-86427436D01*
X76237436Y-86713116D01*
X75901513Y-86937573D01*
X75901512Y-86937574D01*
X75901511Y-86937574D01*
X75528254Y-87092182D01*
X75132007Y-87171000D01*
X74727993Y-87171000D01*
X74331746Y-87092182D01*
X73958489Y-86937574D01*
X73958488Y-86937574D01*
X73958487Y-86937573D01*
X73622564Y-86713116D01*
X73336884Y-86427436D01*
X73112427Y-86091513D01*
X73112426Y-86091511D01*
X72957818Y-85718254D01*
X72879000Y-85322007D01*
X72879000Y-84917993D01*
X72957818Y-84521746D01*
X73112426Y-84148489D01*
X73336884Y-83812564D01*
X73622564Y-83526884D01*
X73958487Y-83302427D01*
X73958489Y-83302426D01*
X74331746Y-83147818D01*
X74727993Y-83069000D01*
X75132007Y-83069000D01*
X75528254Y-83147818D01*
G37*
G36*
X88581000Y-84771000D02*
G01*
X86679000Y-84771000D01*
X86679000Y-82869000D01*
X88581000Y-82869000D01*
X88581000Y-84771000D01*
G37*
G36*
X85367395Y-82905546D02*
G01*
X85540466Y-82977234D01*
X85540467Y-82977235D01*
X85696227Y-83081310D01*
X85828690Y-83213773D01*
X85828691Y-83213775D01*
X85932766Y-83369534D01*
X86004454Y-83542605D01*
X86041000Y-83726333D01*
X86041000Y-83913667D01*
X86004454Y-84097395D01*
X85932766Y-84270466D01*
X85932765Y-84270467D01*
X85828690Y-84426227D01*
X85696227Y-84558690D01*
X85617818Y-84611081D01*
X85540466Y-84662766D01*
X85367395Y-84734454D01*
X85183667Y-84771000D01*
X84996333Y-84771000D01*
X84812605Y-84734454D01*
X84639534Y-84662766D01*
X84562182Y-84611081D01*
X84483773Y-84558690D01*
X84351310Y-84426227D01*
X84247235Y-84270467D01*
X84247234Y-84270466D01*
X84175546Y-84097395D01*
X84139000Y-83913667D01*
X84139000Y-83726333D01*
X84175546Y-83542605D01*
X84247234Y-83369534D01*
X84351309Y-83213775D01*
X84351310Y-83213773D01*
X84483773Y-83081310D01*
X84639533Y-82977235D01*
X84639534Y-82977234D01*
X84812605Y-82905546D01*
X84996333Y-82869000D01*
X85183667Y-82869000D01*
X85367395Y-82905546D01*
G37*
G36*
X65573228Y-80461703D02*
G01*
X65728100Y-80525853D01*
X65867481Y-80618985D01*
X65986015Y-80737519D01*
X66079147Y-80876900D01*
X66143297Y-81031772D01*
X66176000Y-81196184D01*
X66176000Y-81363816D01*
X66143297Y-81528228D01*
X66079147Y-81683100D01*
X65986015Y-81822481D01*
X65867481Y-81941015D01*
X65728100Y-82034147D01*
X65573228Y-82098297D01*
X65408816Y-82131000D01*
X65241184Y-82131000D01*
X65076772Y-82098297D01*
X64921900Y-82034147D01*
X64782519Y-81941015D01*
X64663985Y-81822481D01*
X64570853Y-81683100D01*
X64506703Y-81528228D01*
X64474000Y-81363816D01*
X64474000Y-81196184D01*
X64506703Y-81031772D01*
X64570853Y-80876900D01*
X64663985Y-80737519D01*
X64782519Y-80618985D01*
X64921900Y-80525853D01*
X65076772Y-80461703D01*
X65241184Y-80429000D01*
X65408816Y-80429000D01*
X65573228Y-80461703D01*
G37*
G36*
X60573228Y-80461703D02*
G01*
X60728100Y-80525853D01*
X60867481Y-80618985D01*
X60986015Y-80737519D01*
X61079147Y-80876900D01*
X61143297Y-81031772D01*
X61176000Y-81196184D01*
X61176000Y-81363816D01*
X61143297Y-81528228D01*
X61079147Y-81683100D01*
X60986015Y-81822481D01*
X60867481Y-81941015D01*
X60728100Y-82034147D01*
X60573228Y-82098297D01*
X60408816Y-82131000D01*
X60241184Y-82131000D01*
X60076772Y-82098297D01*
X59921900Y-82034147D01*
X59782519Y-81941015D01*
X59663985Y-81822481D01*
X59570853Y-81683100D01*
X59506703Y-81528228D01*
X59474000Y-81363816D01*
X59474000Y-81196184D01*
X59506703Y-81031772D01*
X59570853Y-80876900D01*
X59663985Y-80737519D01*
X59782519Y-80618985D01*
X59921900Y-80525853D01*
X60076772Y-80461703D01*
X60241184Y-80429000D01*
X60408816Y-80429000D01*
X60573228Y-80461703D01*
G37*
G36*
X64383228Y-76651703D02*
G01*
X64538100Y-76715853D01*
X64677481Y-76808985D01*
X64796015Y-76927519D01*
X64889147Y-77066900D01*
X64953297Y-77221772D01*
X64986000Y-77386184D01*
X64986000Y-77553816D01*
X64953297Y-77718228D01*
X64889147Y-77873100D01*
X64796015Y-78012481D01*
X64677481Y-78131015D01*
X64538100Y-78224147D01*
X64383228Y-78288297D01*
X64218816Y-78321000D01*
X64051184Y-78321000D01*
X63886772Y-78288297D01*
X63731900Y-78224147D01*
X63592519Y-78131015D01*
X63473985Y-78012481D01*
X63380853Y-77873100D01*
X63316703Y-77718228D01*
X63284000Y-77553816D01*
X63284000Y-77386184D01*
X63316703Y-77221772D01*
X63380853Y-77066900D01*
X63473985Y-76927519D01*
X63592519Y-76808985D01*
X63731900Y-76715853D01*
X63886772Y-76651703D01*
X64051184Y-76619000D01*
X64218816Y-76619000D01*
X64383228Y-76651703D01*
G37*
G36*
X74543228Y-76651703D02*
G01*
X74698100Y-76715853D01*
X74837481Y-76808985D01*
X74956015Y-76927519D01*
X75049147Y-77066900D01*
X75113297Y-77221772D01*
X75146000Y-77386184D01*
X75146000Y-77553816D01*
X75113297Y-77718228D01*
X75049147Y-77873100D01*
X74956015Y-78012481D01*
X74837481Y-78131015D01*
X74698100Y-78224147D01*
X74543228Y-78288297D01*
X74378816Y-78321000D01*
X74211184Y-78321000D01*
X74046772Y-78288297D01*
X73891900Y-78224147D01*
X73752519Y-78131015D01*
X73633985Y-78012481D01*
X73540853Y-77873100D01*
X73476703Y-77718228D01*
X73444000Y-77553816D01*
X73444000Y-77386184D01*
X73476703Y-77221772D01*
X73540853Y-77066900D01*
X73633985Y-76927519D01*
X73752519Y-76808985D01*
X73891900Y-76715853D01*
X74046772Y-76651703D01*
X74211184Y-76619000D01*
X74378816Y-76619000D01*
X74543228Y-76651703D01*
G37*
G36*
X99703000Y-77986000D02*
G01*
X97401000Y-77986000D01*
X97401000Y-75684000D01*
X99703000Y-75684000D01*
X99703000Y-77986000D01*
G37*
G36*
X95893000Y-77986000D02*
G01*
X93591000Y-77986000D01*
X93591000Y-75684000D01*
X95893000Y-75684000D01*
X95893000Y-77986000D01*
G37*
G36*
X50681000Y-77986000D02*
G01*
X48379000Y-77986000D01*
X48379000Y-75684000D01*
X50681000Y-75684000D01*
X50681000Y-77986000D01*
G37*
G36*
X54491000Y-77986000D02*
G01*
X52189000Y-77986000D01*
X52189000Y-75684000D01*
X54491000Y-75684000D01*
X54491000Y-77986000D01*
G37*
G36*
X90381766Y-76231899D02*
G01*
X90513888Y-76286626D01*
X90513890Y-76286627D01*
X90632798Y-76366079D01*
X90733921Y-76467202D01*
X90733922Y-76467204D01*
X90813374Y-76586112D01*
X90868101Y-76718234D01*
X90896000Y-76858494D01*
X90896000Y-77001506D01*
X90868101Y-77141766D01*
X90834961Y-77221772D01*
X90813373Y-77273890D01*
X90733921Y-77392798D01*
X90632798Y-77493921D01*
X90513890Y-77573373D01*
X90513889Y-77573374D01*
X90513888Y-77573374D01*
X90381766Y-77628101D01*
X90241506Y-77656000D01*
X90098494Y-77656000D01*
X89958234Y-77628101D01*
X89826112Y-77573374D01*
X89826111Y-77573374D01*
X89826110Y-77573373D01*
X89707202Y-77493921D01*
X89606079Y-77392798D01*
X89526627Y-77273890D01*
X89505039Y-77221772D01*
X89471899Y-77141766D01*
X89444000Y-77001506D01*
X89444000Y-76858494D01*
X89471899Y-76718234D01*
X89526626Y-76586112D01*
X89606078Y-76467204D01*
X89606079Y-76467202D01*
X89707202Y-76366079D01*
X89826110Y-76286627D01*
X89826112Y-76286626D01*
X89958234Y-76231899D01*
X90098494Y-76204000D01*
X90241506Y-76204000D01*
X90381766Y-76231899D01*
G37*
G36*
X61076000Y-77612000D02*
G01*
X59574000Y-77612000D01*
X59574000Y-76450000D01*
X61076000Y-76450000D01*
X61076000Y-77612000D01*
G37*
G36*
X61076000Y-75950000D02*
G01*
X59574000Y-75950000D01*
X59574000Y-74788000D01*
X61076000Y-74788000D01*
X61076000Y-75950000D01*
G37*
G36*
X87878228Y-74111703D02*
G01*
X88033100Y-74175853D01*
X88172481Y-74268985D01*
X88291015Y-74387519D01*
X88384147Y-74526900D01*
X88448297Y-74681772D01*
X88481000Y-74846184D01*
X88481000Y-75013816D01*
X88448297Y-75178228D01*
X88384147Y-75333100D01*
X88291015Y-75472481D01*
X88172481Y-75591015D01*
X88033100Y-75684147D01*
X87878228Y-75748297D01*
X87713816Y-75781000D01*
X87546184Y-75781000D01*
X87381772Y-75748297D01*
X87226900Y-75684147D01*
X87087519Y-75591015D01*
X86968985Y-75472481D01*
X86875853Y-75333100D01*
X86811703Y-75178228D01*
X86779000Y-75013816D01*
X86779000Y-74846184D01*
X86811703Y-74681772D01*
X86875853Y-74526900D01*
X86968985Y-74387519D01*
X87087519Y-74268985D01*
X87226900Y-74175853D01*
X87381772Y-74111703D01*
X87546184Y-74079000D01*
X87713816Y-74079000D01*
X87878228Y-74111703D01*
G37*
G36*
X82878228Y-74111703D02*
G01*
X83033100Y-74175853D01*
X83172481Y-74268985D01*
X83291015Y-74387519D01*
X83384147Y-74526900D01*
X83448297Y-74681772D01*
X83481000Y-74846184D01*
X83481000Y-75013816D01*
X83448297Y-75178228D01*
X83384147Y-75333100D01*
X83291015Y-75472481D01*
X83172481Y-75591015D01*
X83033100Y-75684147D01*
X82878228Y-75748297D01*
X82713816Y-75781000D01*
X82546184Y-75781000D01*
X82381772Y-75748297D01*
X82226900Y-75684147D01*
X82087519Y-75591015D01*
X81968985Y-75472481D01*
X81875853Y-75333100D01*
X81811703Y-75178228D01*
X81779000Y-75013816D01*
X81779000Y-74846184D01*
X81811703Y-74681772D01*
X81875853Y-74526900D01*
X81968985Y-74387519D01*
X82087519Y-74268985D01*
X82226900Y-74175853D01*
X82381772Y-74111703D01*
X82546184Y-74079000D01*
X82713816Y-74079000D01*
X82878228Y-74111703D01*
G37*
G36*
X90896000Y-75656000D02*
G01*
X89444000Y-75656000D01*
X89444000Y-74204000D01*
X90896000Y-74204000D01*
X90896000Y-75656000D01*
G37*
G36*
X86608228Y-69666703D02*
G01*
X86763100Y-69730853D01*
X86902481Y-69823985D01*
X87021015Y-69942519D01*
X87114147Y-70081900D01*
X87178297Y-70236772D01*
X87211000Y-70401184D01*
X87211000Y-70568816D01*
X87178297Y-70733228D01*
X87114147Y-70888100D01*
X87021015Y-71027481D01*
X86902481Y-71146015D01*
X86763100Y-71239147D01*
X86608228Y-71303297D01*
X86443816Y-71336000D01*
X86276184Y-71336000D01*
X86111772Y-71303297D01*
X85956900Y-71239147D01*
X85817519Y-71146015D01*
X85698985Y-71027481D01*
X85605853Y-70888100D01*
X85541703Y-70733228D01*
X85509000Y-70568816D01*
X85509000Y-70401184D01*
X85541703Y-70236772D01*
X85605853Y-70081900D01*
X85698985Y-69942519D01*
X85817519Y-69823985D01*
X85956900Y-69730853D01*
X86111772Y-69666703D01*
X86276184Y-69634000D01*
X86443816Y-69634000D01*
X86608228Y-69666703D01*
G37*
G36*
X84068228Y-69666703D02*
G01*
X84223100Y-69730853D01*
X84362481Y-69823985D01*
X84481015Y-69942519D01*
X84574147Y-70081900D01*
X84638297Y-70236772D01*
X84671000Y-70401184D01*
X84671000Y-70568816D01*
X84638297Y-70733228D01*
X84574147Y-70888100D01*
X84481015Y-71027481D01*
X84362481Y-71146015D01*
X84223100Y-71239147D01*
X84068228Y-71303297D01*
X83903816Y-71336000D01*
X83736184Y-71336000D01*
X83571772Y-71303297D01*
X83416900Y-71239147D01*
X83277519Y-71146015D01*
X83158985Y-71027481D01*
X83065853Y-70888100D01*
X83001703Y-70733228D01*
X82969000Y-70568816D01*
X82969000Y-70401184D01*
X83001703Y-70236772D01*
X83065853Y-70081900D01*
X83158985Y-69942519D01*
X83277519Y-69823985D01*
X83416900Y-69730853D01*
X83571772Y-69666703D01*
X83736184Y-69634000D01*
X83903816Y-69634000D01*
X84068228Y-69666703D01*
G37*
G36*
X81528228Y-69666703D02*
G01*
X81683100Y-69730853D01*
X81822481Y-69823985D01*
X81941015Y-69942519D01*
X82034147Y-70081900D01*
X82098297Y-70236772D01*
X82131000Y-70401184D01*
X82131000Y-70568816D01*
X82098297Y-70733228D01*
X82034147Y-70888100D01*
X81941015Y-71027481D01*
X81822481Y-71146015D01*
X81683100Y-71239147D01*
X81528228Y-71303297D01*
X81363816Y-71336000D01*
X81196184Y-71336000D01*
X81031772Y-71303297D01*
X80876900Y-71239147D01*
X80737519Y-71146015D01*
X80618985Y-71027481D01*
X80525853Y-70888100D01*
X80461703Y-70733228D01*
X80429000Y-70568816D01*
X80429000Y-70401184D01*
X80461703Y-70236772D01*
X80525853Y-70081900D01*
X80618985Y-69942519D01*
X80737519Y-69823985D01*
X80876900Y-69730853D01*
X81031772Y-69666703D01*
X81196184Y-69634000D01*
X81363816Y-69634000D01*
X81528228Y-69666703D01*
G37*
G36*
X78988228Y-69666703D02*
G01*
X79143100Y-69730853D01*
X79282481Y-69823985D01*
X79401015Y-69942519D01*
X79494147Y-70081900D01*
X79558297Y-70236772D01*
X79591000Y-70401184D01*
X79591000Y-70568816D01*
X79558297Y-70733228D01*
X79494147Y-70888100D01*
X79401015Y-71027481D01*
X79282481Y-71146015D01*
X79143100Y-71239147D01*
X78988228Y-71303297D01*
X78823816Y-71336000D01*
X78656184Y-71336000D01*
X78491772Y-71303297D01*
X78336900Y-71239147D01*
X78197519Y-71146015D01*
X78078985Y-71027481D01*
X77985853Y-70888100D01*
X77921703Y-70733228D01*
X77889000Y-70568816D01*
X77889000Y-70401184D01*
X77921703Y-70236772D01*
X77985853Y-70081900D01*
X78078985Y-69942519D01*
X78197519Y-69823985D01*
X78336900Y-69730853D01*
X78491772Y-69666703D01*
X78656184Y-69634000D01*
X78823816Y-69634000D01*
X78988228Y-69666703D01*
G37*
G36*
X76448228Y-69666703D02*
G01*
X76603100Y-69730853D01*
X76742481Y-69823985D01*
X76861015Y-69942519D01*
X76954147Y-70081900D01*
X77018297Y-70236772D01*
X77051000Y-70401184D01*
X77051000Y-70568816D01*
X77018297Y-70733228D01*
X76954147Y-70888100D01*
X76861015Y-71027481D01*
X76742481Y-71146015D01*
X76603100Y-71239147D01*
X76448228Y-71303297D01*
X76283816Y-71336000D01*
X76116184Y-71336000D01*
X75951772Y-71303297D01*
X75796900Y-71239147D01*
X75657519Y-71146015D01*
X75538985Y-71027481D01*
X75445853Y-70888100D01*
X75381703Y-70733228D01*
X75349000Y-70568816D01*
X75349000Y-70401184D01*
X75381703Y-70236772D01*
X75445853Y-70081900D01*
X75538985Y-69942519D01*
X75657519Y-69823985D01*
X75796900Y-69730853D01*
X75951772Y-69666703D01*
X76116184Y-69634000D01*
X76283816Y-69634000D01*
X76448228Y-69666703D01*
G37*
G36*
X66288228Y-69666703D02*
G01*
X66443100Y-69730853D01*
X66582481Y-69823985D01*
X66701015Y-69942519D01*
X66794147Y-70081900D01*
X66858297Y-70236772D01*
X66891000Y-70401184D01*
X66891000Y-70568816D01*
X66858297Y-70733228D01*
X66794147Y-70888100D01*
X66701015Y-71027481D01*
X66582481Y-71146015D01*
X66443100Y-71239147D01*
X66288228Y-71303297D01*
X66123816Y-71336000D01*
X65956184Y-71336000D01*
X65791772Y-71303297D01*
X65636900Y-71239147D01*
X65497519Y-71146015D01*
X65378985Y-71027481D01*
X65285853Y-70888100D01*
X65221703Y-70733228D01*
X65189000Y-70568816D01*
X65189000Y-70401184D01*
X65221703Y-70236772D01*
X65285853Y-70081900D01*
X65378985Y-69942519D01*
X65497519Y-69823985D01*
X65636900Y-69730853D01*
X65791772Y-69666703D01*
X65956184Y-69634000D01*
X66123816Y-69634000D01*
X66288228Y-69666703D01*
G37*
G36*
X89148228Y-69666703D02*
G01*
X89303100Y-69730853D01*
X89442481Y-69823985D01*
X89561015Y-69942519D01*
X89654147Y-70081900D01*
X89718297Y-70236772D01*
X89751000Y-70401184D01*
X89751000Y-70568816D01*
X89718297Y-70733228D01*
X89654147Y-70888100D01*
X89561015Y-71027481D01*
X89442481Y-71146015D01*
X89303100Y-71239147D01*
X89148228Y-71303297D01*
X88983816Y-71336000D01*
X88816184Y-71336000D01*
X88651772Y-71303297D01*
X88496900Y-71239147D01*
X88357519Y-71146015D01*
X88238985Y-71027481D01*
X88145853Y-70888100D01*
X88081703Y-70733228D01*
X88049000Y-70568816D01*
X88049000Y-70401184D01*
X88081703Y-70236772D01*
X88145853Y-70081900D01*
X88238985Y-69942519D01*
X88357519Y-69823985D01*
X88496900Y-69730853D01*
X88651772Y-69666703D01*
X88816184Y-69634000D01*
X88983816Y-69634000D01*
X89148228Y-69666703D01*
G37*
G36*
X91688228Y-69666703D02*
G01*
X91843100Y-69730853D01*
X91982481Y-69823985D01*
X92101015Y-69942519D01*
X92194147Y-70081900D01*
X92258297Y-70236772D01*
X92291000Y-70401184D01*
X92291000Y-70568816D01*
X92258297Y-70733228D01*
X92194147Y-70888100D01*
X92101015Y-71027481D01*
X91982481Y-71146015D01*
X91843100Y-71239147D01*
X91688228Y-71303297D01*
X91523816Y-71336000D01*
X91356184Y-71336000D01*
X91191772Y-71303297D01*
X91036900Y-71239147D01*
X90897519Y-71146015D01*
X90778985Y-71027481D01*
X90685853Y-70888100D01*
X90621703Y-70733228D01*
X90589000Y-70568816D01*
X90589000Y-70401184D01*
X90621703Y-70236772D01*
X90685853Y-70081900D01*
X90778985Y-69942519D01*
X90897519Y-69823985D01*
X91036900Y-69730853D01*
X91191772Y-69666703D01*
X91356184Y-69634000D01*
X91523816Y-69634000D01*
X91688228Y-69666703D01*
G37*
G36*
X94228228Y-69666703D02*
G01*
X94383100Y-69730853D01*
X94522481Y-69823985D01*
X94641015Y-69942519D01*
X94734147Y-70081900D01*
X94798297Y-70236772D01*
X94831000Y-70401184D01*
X94831000Y-70568816D01*
X94798297Y-70733228D01*
X94734147Y-70888100D01*
X94641015Y-71027481D01*
X94522481Y-71146015D01*
X94383100Y-71239147D01*
X94228228Y-71303297D01*
X94063816Y-71336000D01*
X93896184Y-71336000D01*
X93731772Y-71303297D01*
X93576900Y-71239147D01*
X93437519Y-71146015D01*
X93318985Y-71027481D01*
X93225853Y-70888100D01*
X93161703Y-70733228D01*
X93129000Y-70568816D01*
X93129000Y-70401184D01*
X93161703Y-70236772D01*
X93225853Y-70081900D01*
X93318985Y-69942519D01*
X93437519Y-69823985D01*
X93576900Y-69730853D01*
X93731772Y-69666703D01*
X93896184Y-69634000D01*
X94063816Y-69634000D01*
X94228228Y-69666703D01*
G37*
G36*
X96768228Y-69666703D02*
G01*
X96923100Y-69730853D01*
X97062481Y-69823985D01*
X97181015Y-69942519D01*
X97274147Y-70081900D01*
X97338297Y-70236772D01*
X97371000Y-70401184D01*
X97371000Y-70568816D01*
X97338297Y-70733228D01*
X97274147Y-70888100D01*
X97181015Y-71027481D01*
X97062481Y-71146015D01*
X96923100Y-71239147D01*
X96768228Y-71303297D01*
X96603816Y-71336000D01*
X96436184Y-71336000D01*
X96271772Y-71303297D01*
X96116900Y-71239147D01*
X95977519Y-71146015D01*
X95858985Y-71027481D01*
X95765853Y-70888100D01*
X95701703Y-70733228D01*
X95669000Y-70568816D01*
X95669000Y-70401184D01*
X95701703Y-70236772D01*
X95765853Y-70081900D01*
X95858985Y-69942519D01*
X95977519Y-69823985D01*
X96116900Y-69730853D01*
X96271772Y-69666703D01*
X96436184Y-69634000D01*
X96603816Y-69634000D01*
X96768228Y-69666703D01*
G37*
G36*
X99308228Y-69666703D02*
G01*
X99463100Y-69730853D01*
X99602481Y-69823985D01*
X99721015Y-69942519D01*
X99814147Y-70081900D01*
X99878297Y-70236772D01*
X99911000Y-70401184D01*
X99911000Y-70568816D01*
X99878297Y-70733228D01*
X99814147Y-70888100D01*
X99721015Y-71027481D01*
X99602481Y-71146015D01*
X99463100Y-71239147D01*
X99308228Y-71303297D01*
X99143816Y-71336000D01*
X98976184Y-71336000D01*
X98811772Y-71303297D01*
X98656900Y-71239147D01*
X98517519Y-71146015D01*
X98398985Y-71027481D01*
X98305853Y-70888100D01*
X98241703Y-70733228D01*
X98209000Y-70568816D01*
X98209000Y-70401184D01*
X98241703Y-70236772D01*
X98305853Y-70081900D01*
X98398985Y-69942519D01*
X98517519Y-69823985D01*
X98656900Y-69730853D01*
X98811772Y-69666703D01*
X98976184Y-69634000D01*
X99143816Y-69634000D01*
X99308228Y-69666703D01*
G37*
G36*
X73908228Y-69666703D02*
G01*
X74063100Y-69730853D01*
X74202481Y-69823985D01*
X74321015Y-69942519D01*
X74414147Y-70081900D01*
X74478297Y-70236772D01*
X74511000Y-70401184D01*
X74511000Y-70568816D01*
X74478297Y-70733228D01*
X74414147Y-70888100D01*
X74321015Y-71027481D01*
X74202481Y-71146015D01*
X74063100Y-71239147D01*
X73908228Y-71303297D01*
X73743816Y-71336000D01*
X73576184Y-71336000D01*
X73411772Y-71303297D01*
X73256900Y-71239147D01*
X73117519Y-71146015D01*
X72998985Y-71027481D01*
X72905853Y-70888100D01*
X72841703Y-70733228D01*
X72809000Y-70568816D01*
X72809000Y-70401184D01*
X72841703Y-70236772D01*
X72905853Y-70081900D01*
X72998985Y-69942519D01*
X73117519Y-69823985D01*
X73256900Y-69730853D01*
X73411772Y-69666703D01*
X73576184Y-69634000D01*
X73743816Y-69634000D01*
X73908228Y-69666703D01*
G37*
G36*
X71368228Y-69666703D02*
G01*
X71523100Y-69730853D01*
X71662481Y-69823985D01*
X71781015Y-69942519D01*
X71874147Y-70081900D01*
X71938297Y-70236772D01*
X71971000Y-70401184D01*
X71971000Y-70568816D01*
X71938297Y-70733228D01*
X71874147Y-70888100D01*
X71781015Y-71027481D01*
X71662481Y-71146015D01*
X71523100Y-71239147D01*
X71368228Y-71303297D01*
X71203816Y-71336000D01*
X71036184Y-71336000D01*
X70871772Y-71303297D01*
X70716900Y-71239147D01*
X70577519Y-71146015D01*
X70458985Y-71027481D01*
X70365853Y-70888100D01*
X70301703Y-70733228D01*
X70269000Y-70568816D01*
X70269000Y-70401184D01*
X70301703Y-70236772D01*
X70365853Y-70081900D01*
X70458985Y-69942519D01*
X70577519Y-69823985D01*
X70716900Y-69730853D01*
X70871772Y-69666703D01*
X71036184Y-69634000D01*
X71203816Y-69634000D01*
X71368228Y-69666703D01*
G37*
G36*
X68828228Y-69666703D02*
G01*
X68983100Y-69730853D01*
X69122481Y-69823985D01*
X69241015Y-69942519D01*
X69334147Y-70081900D01*
X69398297Y-70236772D01*
X69431000Y-70401184D01*
X69431000Y-70568816D01*
X69398297Y-70733228D01*
X69334147Y-70888100D01*
X69241015Y-71027481D01*
X69122481Y-71146015D01*
X68983100Y-71239147D01*
X68828228Y-71303297D01*
X68663816Y-71336000D01*
X68496184Y-71336000D01*
X68331772Y-71303297D01*
X68176900Y-71239147D01*
X68037519Y-71146015D01*
X67918985Y-71027481D01*
X67825853Y-70888100D01*
X67761703Y-70733228D01*
X67729000Y-70568816D01*
X67729000Y-70401184D01*
X67761703Y-70236772D01*
X67825853Y-70081900D01*
X67918985Y-69942519D01*
X68037519Y-69823985D01*
X68176900Y-69730853D01*
X68331772Y-69666703D01*
X68496184Y-69634000D01*
X68663816Y-69634000D01*
X68828228Y-69666703D01*
G37*
G36*
X53536000Y-69931000D02*
G01*
X52374000Y-69931000D01*
X52374000Y-68769000D01*
X53536000Y-68769000D01*
X53536000Y-69931000D01*
G37*
G36*
X60406000Y-69931000D02*
G01*
X59244000Y-69931000D01*
X59244000Y-68769000D01*
X60406000Y-68769000D01*
X60406000Y-69931000D01*
G37*
G36*
X58116000Y-69931000D02*
G01*
X56954000Y-69931000D01*
X56954000Y-68769000D01*
X58116000Y-68769000D01*
X58116000Y-69931000D01*
G37*
G36*
X55826000Y-69931000D02*
G01*
X54664000Y-69931000D01*
X54664000Y-68769000D01*
X55826000Y-68769000D01*
X55826000Y-69931000D01*
G37*
G36*
X51246000Y-69931000D02*
G01*
X50084000Y-69931000D01*
X50084000Y-68769000D01*
X51246000Y-68769000D01*
X51246000Y-69931000D01*
G37*
G36*
X55826000Y-67641000D02*
G01*
X54664000Y-67641000D01*
X54664000Y-66479000D01*
X55826000Y-66479000D01*
X55826000Y-67641000D01*
G37*
G36*
X58116000Y-67641000D02*
G01*
X56954000Y-67641000D01*
X56954000Y-66479000D01*
X58116000Y-66479000D01*
X58116000Y-67641000D01*
G37*
G36*
X60406000Y-67641000D02*
G01*
X59244000Y-67641000D01*
X59244000Y-66479000D01*
X60406000Y-66479000D01*
X60406000Y-67641000D01*
G37*
G36*
X53536000Y-67641000D02*
G01*
X52374000Y-67641000D01*
X52374000Y-66479000D01*
X53536000Y-66479000D01*
X53536000Y-67641000D01*
G37*
G36*
X51246000Y-67641000D02*
G01*
X50084000Y-67641000D01*
X50084000Y-66479000D01*
X51246000Y-66479000D01*
X51246000Y-67641000D01*
G37*
G36*
X58116000Y-65351000D02*
G01*
X56954000Y-65351000D01*
X56954000Y-64189000D01*
X58116000Y-64189000D01*
X58116000Y-65351000D01*
G37*
G36*
X55826000Y-65351000D02*
G01*
X54664000Y-65351000D01*
X54664000Y-64189000D01*
X55826000Y-64189000D01*
X55826000Y-65351000D01*
G37*
G36*
X53536000Y-65351000D02*
G01*
X52374000Y-65351000D01*
X52374000Y-64189000D01*
X53536000Y-64189000D01*
X53536000Y-65351000D01*
G37*
G36*
X60406000Y-65351000D02*
G01*
X59244000Y-65351000D01*
X59244000Y-64189000D01*
X60406000Y-64189000D01*
X60406000Y-65351000D01*
G37*
G36*
X51246000Y-65351000D02*
G01*
X50084000Y-65351000D01*
X50084000Y-64189000D01*
X51246000Y-64189000D01*
X51246000Y-65351000D01*
G37*
G36*
X78988228Y-62046703D02*
G01*
X79143100Y-62110853D01*
X79282481Y-62203985D01*
X79401015Y-62322519D01*
X79494147Y-62461900D01*
X79558297Y-62616772D01*
X79591000Y-62781184D01*
X79591000Y-62948816D01*
X79558297Y-63113228D01*
X79494147Y-63268100D01*
X79401015Y-63407481D01*
X79282481Y-63526015D01*
X79143100Y-63619147D01*
X78988228Y-63683297D01*
X78823816Y-63716000D01*
X78656184Y-63716000D01*
X78491772Y-63683297D01*
X78336900Y-63619147D01*
X78197519Y-63526015D01*
X78078985Y-63407481D01*
X77985853Y-63268100D01*
X77921703Y-63113228D01*
X77889000Y-62948816D01*
X77889000Y-62781184D01*
X77921703Y-62616772D01*
X77985853Y-62461900D01*
X78078985Y-62322519D01*
X78197519Y-62203985D01*
X78336900Y-62110853D01*
X78491772Y-62046703D01*
X78656184Y-62014000D01*
X78823816Y-62014000D01*
X78988228Y-62046703D01*
G37*
G36*
X76448228Y-62046703D02*
G01*
X76603100Y-62110853D01*
X76742481Y-62203985D01*
X76861015Y-62322519D01*
X76954147Y-62461900D01*
X77018297Y-62616772D01*
X77051000Y-62781184D01*
X77051000Y-62948816D01*
X77018297Y-63113228D01*
X76954147Y-63268100D01*
X76861015Y-63407481D01*
X76742481Y-63526015D01*
X76603100Y-63619147D01*
X76448228Y-63683297D01*
X76283816Y-63716000D01*
X76116184Y-63716000D01*
X75951772Y-63683297D01*
X75796900Y-63619147D01*
X75657519Y-63526015D01*
X75538985Y-63407481D01*
X75445853Y-63268100D01*
X75381703Y-63113228D01*
X75349000Y-62948816D01*
X75349000Y-62781184D01*
X75381703Y-62616772D01*
X75445853Y-62461900D01*
X75538985Y-62322519D01*
X75657519Y-62203985D01*
X75796900Y-62110853D01*
X75951772Y-62046703D01*
X76116184Y-62014000D01*
X76283816Y-62014000D01*
X76448228Y-62046703D01*
G37*
G36*
X73908228Y-62046703D02*
G01*
X74063100Y-62110853D01*
X74202481Y-62203985D01*
X74321015Y-62322519D01*
X74414147Y-62461900D01*
X74478297Y-62616772D01*
X74511000Y-62781184D01*
X74511000Y-62948816D01*
X74478297Y-63113228D01*
X74414147Y-63268100D01*
X74321015Y-63407481D01*
X74202481Y-63526015D01*
X74063100Y-63619147D01*
X73908228Y-63683297D01*
X73743816Y-63716000D01*
X73576184Y-63716000D01*
X73411772Y-63683297D01*
X73256900Y-63619147D01*
X73117519Y-63526015D01*
X72998985Y-63407481D01*
X72905853Y-63268100D01*
X72841703Y-63113228D01*
X72809000Y-62948816D01*
X72809000Y-62781184D01*
X72841703Y-62616772D01*
X72905853Y-62461900D01*
X72998985Y-62322519D01*
X73117519Y-62203985D01*
X73256900Y-62110853D01*
X73411772Y-62046703D01*
X73576184Y-62014000D01*
X73743816Y-62014000D01*
X73908228Y-62046703D01*
G37*
G36*
X91688228Y-62046703D02*
G01*
X91843100Y-62110853D01*
X91982481Y-62203985D01*
X92101015Y-62322519D01*
X92194147Y-62461900D01*
X92258297Y-62616772D01*
X92291000Y-62781184D01*
X92291000Y-62948816D01*
X92258297Y-63113228D01*
X92194147Y-63268100D01*
X92101015Y-63407481D01*
X91982481Y-63526015D01*
X91843100Y-63619147D01*
X91688228Y-63683297D01*
X91523816Y-63716000D01*
X91356184Y-63716000D01*
X91191772Y-63683297D01*
X91036900Y-63619147D01*
X90897519Y-63526015D01*
X90778985Y-63407481D01*
X90685853Y-63268100D01*
X90621703Y-63113228D01*
X90589000Y-62948816D01*
X90589000Y-62781184D01*
X90621703Y-62616772D01*
X90685853Y-62461900D01*
X90778985Y-62322519D01*
X90897519Y-62203985D01*
X91036900Y-62110853D01*
X91191772Y-62046703D01*
X91356184Y-62014000D01*
X91523816Y-62014000D01*
X91688228Y-62046703D01*
G37*
G36*
X94228228Y-62046703D02*
G01*
X94383100Y-62110853D01*
X94522481Y-62203985D01*
X94641015Y-62322519D01*
X94734147Y-62461900D01*
X94798297Y-62616772D01*
X94831000Y-62781184D01*
X94831000Y-62948816D01*
X94798297Y-63113228D01*
X94734147Y-63268100D01*
X94641015Y-63407481D01*
X94522481Y-63526015D01*
X94383100Y-63619147D01*
X94228228Y-63683297D01*
X94063816Y-63716000D01*
X93896184Y-63716000D01*
X93731772Y-63683297D01*
X93576900Y-63619147D01*
X93437519Y-63526015D01*
X93318985Y-63407481D01*
X93225853Y-63268100D01*
X93161703Y-63113228D01*
X93129000Y-62948816D01*
X93129000Y-62781184D01*
X93161703Y-62616772D01*
X93225853Y-62461900D01*
X93318985Y-62322519D01*
X93437519Y-62203985D01*
X93576900Y-62110853D01*
X93731772Y-62046703D01*
X93896184Y-62014000D01*
X94063816Y-62014000D01*
X94228228Y-62046703D01*
G37*
G36*
X99911000Y-63716000D02*
G01*
X98209000Y-63716000D01*
X98209000Y-62014000D01*
X99911000Y-62014000D01*
X99911000Y-63716000D01*
G37*
G36*
X84068228Y-62046703D02*
G01*
X84223100Y-62110853D01*
X84362481Y-62203985D01*
X84481015Y-62322519D01*
X84574147Y-62461900D01*
X84638297Y-62616772D01*
X84671000Y-62781184D01*
X84671000Y-62948816D01*
X84638297Y-63113228D01*
X84574147Y-63268100D01*
X84481015Y-63407481D01*
X84362481Y-63526015D01*
X84223100Y-63619147D01*
X84068228Y-63683297D01*
X83903816Y-63716000D01*
X83736184Y-63716000D01*
X83571772Y-63683297D01*
X83416900Y-63619147D01*
X83277519Y-63526015D01*
X83158985Y-63407481D01*
X83065853Y-63268100D01*
X83001703Y-63113228D01*
X82969000Y-62948816D01*
X82969000Y-62781184D01*
X83001703Y-62616772D01*
X83065853Y-62461900D01*
X83158985Y-62322519D01*
X83277519Y-62203985D01*
X83416900Y-62110853D01*
X83571772Y-62046703D01*
X83736184Y-62014000D01*
X83903816Y-62014000D01*
X84068228Y-62046703D01*
G37*
G36*
X81528228Y-62046703D02*
G01*
X81683100Y-62110853D01*
X81822481Y-62203985D01*
X81941015Y-62322519D01*
X82034147Y-62461900D01*
X82098297Y-62616772D01*
X82131000Y-62781184D01*
X82131000Y-62948816D01*
X82098297Y-63113228D01*
X82034147Y-63268100D01*
X81941015Y-63407481D01*
X81822481Y-63526015D01*
X81683100Y-63619147D01*
X81528228Y-63683297D01*
X81363816Y-63716000D01*
X81196184Y-63716000D01*
X81031772Y-63683297D01*
X80876900Y-63619147D01*
X80737519Y-63526015D01*
X80618985Y-63407481D01*
X80525853Y-63268100D01*
X80461703Y-63113228D01*
X80429000Y-62948816D01*
X80429000Y-62781184D01*
X80461703Y-62616772D01*
X80525853Y-62461900D01*
X80618985Y-62322519D01*
X80737519Y-62203985D01*
X80876900Y-62110853D01*
X81031772Y-62046703D01*
X81196184Y-62014000D01*
X81363816Y-62014000D01*
X81528228Y-62046703D01*
G37*
G36*
X96768228Y-62046703D02*
G01*
X96923100Y-62110853D01*
X97062481Y-62203985D01*
X97181015Y-62322519D01*
X97274147Y-62461900D01*
X97338297Y-62616772D01*
X97371000Y-62781184D01*
X97371000Y-62948816D01*
X97338297Y-63113228D01*
X97274147Y-63268100D01*
X97181015Y-63407481D01*
X97062481Y-63526015D01*
X96923100Y-63619147D01*
X96768228Y-63683297D01*
X96603816Y-63716000D01*
X96436184Y-63716000D01*
X96271772Y-63683297D01*
X96116900Y-63619147D01*
X95977519Y-63526015D01*
X95858985Y-63407481D01*
X95765853Y-63268100D01*
X95701703Y-63113228D01*
X95669000Y-62948816D01*
X95669000Y-62781184D01*
X95701703Y-62616772D01*
X95765853Y-62461900D01*
X95858985Y-62322519D01*
X95977519Y-62203985D01*
X96116900Y-62110853D01*
X96271772Y-62046703D01*
X96436184Y-62014000D01*
X96603816Y-62014000D01*
X96768228Y-62046703D01*
G37*
G36*
X66288228Y-62046703D02*
G01*
X66443100Y-62110853D01*
X66582481Y-62203985D01*
X66701015Y-62322519D01*
X66794147Y-62461900D01*
X66858297Y-62616772D01*
X66891000Y-62781184D01*
X66891000Y-62948816D01*
X66858297Y-63113228D01*
X66794147Y-63268100D01*
X66701015Y-63407481D01*
X66582481Y-63526015D01*
X66443100Y-63619147D01*
X66288228Y-63683297D01*
X66123816Y-63716000D01*
X65956184Y-63716000D01*
X65791772Y-63683297D01*
X65636900Y-63619147D01*
X65497519Y-63526015D01*
X65378985Y-63407481D01*
X65285853Y-63268100D01*
X65221703Y-63113228D01*
X65189000Y-62948816D01*
X65189000Y-62781184D01*
X65221703Y-62616772D01*
X65285853Y-62461900D01*
X65378985Y-62322519D01*
X65497519Y-62203985D01*
X65636900Y-62110853D01*
X65791772Y-62046703D01*
X65956184Y-62014000D01*
X66123816Y-62014000D01*
X66288228Y-62046703D01*
G37*
G36*
X68828228Y-62046703D02*
G01*
X68983100Y-62110853D01*
X69122481Y-62203985D01*
X69241015Y-62322519D01*
X69334147Y-62461900D01*
X69398297Y-62616772D01*
X69431000Y-62781184D01*
X69431000Y-62948816D01*
X69398297Y-63113228D01*
X69334147Y-63268100D01*
X69241015Y-63407481D01*
X69122481Y-63526015D01*
X68983100Y-63619147D01*
X68828228Y-63683297D01*
X68663816Y-63716000D01*
X68496184Y-63716000D01*
X68331772Y-63683297D01*
X68176900Y-63619147D01*
X68037519Y-63526015D01*
X67918985Y-63407481D01*
X67825853Y-63268100D01*
X67761703Y-63113228D01*
X67729000Y-62948816D01*
X67729000Y-62781184D01*
X67761703Y-62616772D01*
X67825853Y-62461900D01*
X67918985Y-62322519D01*
X68037519Y-62203985D01*
X68176900Y-62110853D01*
X68331772Y-62046703D01*
X68496184Y-62014000D01*
X68663816Y-62014000D01*
X68828228Y-62046703D01*
G37*
G36*
X71368228Y-62046703D02*
G01*
X71523100Y-62110853D01*
X71662481Y-62203985D01*
X71781015Y-62322519D01*
X71874147Y-62461900D01*
X71938297Y-62616772D01*
X71971000Y-62781184D01*
X71971000Y-62948816D01*
X71938297Y-63113228D01*
X71874147Y-63268100D01*
X71781015Y-63407481D01*
X71662481Y-63526015D01*
X71523100Y-63619147D01*
X71368228Y-63683297D01*
X71203816Y-63716000D01*
X71036184Y-63716000D01*
X70871772Y-63683297D01*
X70716900Y-63619147D01*
X70577519Y-63526015D01*
X70458985Y-63407481D01*
X70365853Y-63268100D01*
X70301703Y-63113228D01*
X70269000Y-62948816D01*
X70269000Y-62781184D01*
X70301703Y-62616772D01*
X70365853Y-62461900D01*
X70458985Y-62322519D01*
X70577519Y-62203985D01*
X70716900Y-62110853D01*
X70871772Y-62046703D01*
X71036184Y-62014000D01*
X71203816Y-62014000D01*
X71368228Y-62046703D01*
G37*
G36*
X86608228Y-62046703D02*
G01*
X86763100Y-62110853D01*
X86902481Y-62203985D01*
X87021015Y-62322519D01*
X87114147Y-62461900D01*
X87178297Y-62616772D01*
X87211000Y-62781184D01*
X87211000Y-62948816D01*
X87178297Y-63113228D01*
X87114147Y-63268100D01*
X87021015Y-63407481D01*
X86902481Y-63526015D01*
X86763100Y-63619147D01*
X86608228Y-63683297D01*
X86443816Y-63716000D01*
X86276184Y-63716000D01*
X86111772Y-63683297D01*
X85956900Y-63619147D01*
X85817519Y-63526015D01*
X85698985Y-63407481D01*
X85605853Y-63268100D01*
X85541703Y-63113228D01*
X85509000Y-62948816D01*
X85509000Y-62781184D01*
X85541703Y-62616772D01*
X85605853Y-62461900D01*
X85698985Y-62322519D01*
X85817519Y-62203985D01*
X85956900Y-62110853D01*
X86111772Y-62046703D01*
X86276184Y-62014000D01*
X86443816Y-62014000D01*
X86608228Y-62046703D01*
G37*
G36*
X89148228Y-62046703D02*
G01*
X89303100Y-62110853D01*
X89442481Y-62203985D01*
X89561015Y-62322519D01*
X89654147Y-62461900D01*
X89718297Y-62616772D01*
X89751000Y-62781184D01*
X89751000Y-62948816D01*
X89718297Y-63113228D01*
X89654147Y-63268100D01*
X89561015Y-63407481D01*
X89442481Y-63526015D01*
X89303100Y-63619147D01*
X89148228Y-63683297D01*
X88983816Y-63716000D01*
X88816184Y-63716000D01*
X88651772Y-63683297D01*
X88496900Y-63619147D01*
X88357519Y-63526015D01*
X88238985Y-63407481D01*
X88145853Y-63268100D01*
X88081703Y-63113228D01*
X88049000Y-62948816D01*
X88049000Y-62781184D01*
X88081703Y-62616772D01*
X88145853Y-62461900D01*
X88238985Y-62322519D01*
X88357519Y-62203985D01*
X88496900Y-62110853D01*
X88651772Y-62046703D01*
X88816184Y-62014000D01*
X88983816Y-62014000D01*
X89148228Y-62046703D01*
G37*
G36*
X55826000Y-63061000D02*
G01*
X54664000Y-63061000D01*
X54664000Y-61899000D01*
X55826000Y-61899000D01*
X55826000Y-63061000D01*
G37*
G36*
X58116000Y-63061000D02*
G01*
X56954000Y-63061000D01*
X56954000Y-61899000D01*
X58116000Y-61899000D01*
X58116000Y-63061000D01*
G37*
G36*
X53536000Y-63061000D02*
G01*
X52374000Y-63061000D01*
X52374000Y-61899000D01*
X53536000Y-61899000D01*
X53536000Y-63061000D01*
G37*
G36*
X51246000Y-63061000D02*
G01*
X50084000Y-63061000D01*
X50084000Y-61899000D01*
X51246000Y-61899000D01*
X51246000Y-63061000D01*
G37*
G36*
X60406000Y-63061000D02*
G01*
X59244000Y-63061000D01*
X59244000Y-61899000D01*
X60406000Y-61899000D01*
X60406000Y-63061000D01*
G37*
G36*
X55826000Y-60771000D02*
G01*
X54664000Y-60771000D01*
X54664000Y-59609000D01*
X55826000Y-59609000D01*
X55826000Y-60771000D01*
G37*
G36*
X58116000Y-60771000D02*
G01*
X56954000Y-60771000D01*
X56954000Y-59609000D01*
X58116000Y-59609000D01*
X58116000Y-60771000D01*
G37*
G36*
X60406000Y-60771000D02*
G01*
X59244000Y-60771000D01*
X59244000Y-59609000D01*
X60406000Y-59609000D01*
X60406000Y-60771000D01*
G37*
G36*
X53536000Y-60771000D02*
G01*
X52374000Y-60771000D01*
X52374000Y-59609000D01*
X53536000Y-59609000D01*
X53536000Y-60771000D01*
G37*
G36*
X51246000Y-60771000D02*
G01*
X50084000Y-60771000D01*
X50084000Y-59609000D01*
X51246000Y-59609000D01*
X51246000Y-60771000D01*
G37*
G36*
X74386000Y-59781000D02*
G01*
X72934000Y-59781000D01*
X72934000Y-58329000D01*
X74386000Y-58329000D01*
X74386000Y-59781000D01*
G37*
G36*
X71871766Y-58356899D02*
G01*
X72003888Y-58411626D01*
X72003890Y-58411627D01*
X72122798Y-58491079D01*
X72223921Y-58592202D01*
X72223922Y-58592204D01*
X72303374Y-58711112D01*
X72358101Y-58843234D01*
X72386000Y-58983494D01*
X72386000Y-59126506D01*
X72358101Y-59266766D01*
X72303374Y-59398888D01*
X72303373Y-59398890D01*
X72223921Y-59517798D01*
X72122798Y-59618921D01*
X72003890Y-59698373D01*
X72003889Y-59698374D01*
X72003888Y-59698374D01*
X71871766Y-59753101D01*
X71731506Y-59781000D01*
X71588494Y-59781000D01*
X71448234Y-59753101D01*
X71316112Y-59698374D01*
X71316111Y-59698374D01*
X71316110Y-59698373D01*
X71197202Y-59618921D01*
X71096079Y-59517798D01*
X71016627Y-59398890D01*
X71016626Y-59398888D01*
X70961899Y-59266766D01*
X70934000Y-59126506D01*
X70934000Y-58983494D01*
X70961899Y-58843234D01*
X71016626Y-58711112D01*
X71096078Y-58592204D01*
X71096079Y-58592202D01*
X71197202Y-58491079D01*
X71316110Y-58411627D01*
X71316112Y-58411626D01*
X71448234Y-58356899D01*
X71588494Y-58329000D01*
X71731506Y-58329000D01*
X71871766Y-58356899D01*
G37*
G36*
X94706000Y-59781000D02*
G01*
X93254000Y-59781000D01*
X93254000Y-58329000D01*
X94706000Y-58329000D01*
X94706000Y-59781000D01*
G37*
G36*
X92191766Y-58356899D02*
G01*
X92323888Y-58411626D01*
X92323890Y-58411627D01*
X92442798Y-58491079D01*
X92543921Y-58592202D01*
X92543922Y-58592204D01*
X92623374Y-58711112D01*
X92678101Y-58843234D01*
X92706000Y-58983494D01*
X92706000Y-59126506D01*
X92678101Y-59266766D01*
X92623374Y-59398888D01*
X92623373Y-59398890D01*
X92543921Y-59517798D01*
X92442798Y-59618921D01*
X92323890Y-59698373D01*
X92323889Y-59698374D01*
X92323888Y-59698374D01*
X92191766Y-59753101D01*
X92051506Y-59781000D01*
X91908494Y-59781000D01*
X91768234Y-59753101D01*
X91636112Y-59698374D01*
X91636111Y-59698374D01*
X91636110Y-59698373D01*
X91517202Y-59618921D01*
X91416079Y-59517798D01*
X91336627Y-59398890D01*
X91336626Y-59398888D01*
X91281899Y-59266766D01*
X91254000Y-59126506D01*
X91254000Y-58983494D01*
X91281899Y-58843234D01*
X91336626Y-58711112D01*
X91416078Y-58592204D01*
X91416079Y-58592202D01*
X91517202Y-58491079D01*
X91636110Y-58411627D01*
X91636112Y-58411626D01*
X91768234Y-58356899D01*
X91908494Y-58329000D01*
X92051506Y-58329000D01*
X92191766Y-58356899D01*
G37*
G36*
X88356000Y-59781000D02*
G01*
X86904000Y-59781000D01*
X86904000Y-58329000D01*
X88356000Y-58329000D01*
X88356000Y-59781000D01*
G37*
G36*
X85841766Y-58356899D02*
G01*
X85973888Y-58411626D01*
X85973890Y-58411627D01*
X86092798Y-58491079D01*
X86193921Y-58592202D01*
X86193922Y-58592204D01*
X86273374Y-58711112D01*
X86328101Y-58843234D01*
X86356000Y-58983494D01*
X86356000Y-59126506D01*
X86328101Y-59266766D01*
X86273374Y-59398888D01*
X86273373Y-59398890D01*
X86193921Y-59517798D01*
X86092798Y-59618921D01*
X85973890Y-59698373D01*
X85973889Y-59698374D01*
X85973888Y-59698374D01*
X85841766Y-59753101D01*
X85701506Y-59781000D01*
X85558494Y-59781000D01*
X85418234Y-59753101D01*
X85286112Y-59698374D01*
X85286111Y-59698374D01*
X85286110Y-59698373D01*
X85167202Y-59618921D01*
X85066079Y-59517798D01*
X84986627Y-59398890D01*
X84986626Y-59398888D01*
X84931899Y-59266766D01*
X84904000Y-59126506D01*
X84904000Y-58983494D01*
X84931899Y-58843234D01*
X84986626Y-58711112D01*
X85066078Y-58592204D01*
X85066079Y-58592202D01*
X85167202Y-58491079D01*
X85286110Y-58411627D01*
X85286112Y-58411626D01*
X85418234Y-58356899D01*
X85558494Y-58329000D01*
X85701506Y-58329000D01*
X85841766Y-58356899D01*
G37*
G36*
X99308228Y-54426703D02*
G01*
X99463100Y-54490853D01*
X99602481Y-54583985D01*
X99721015Y-54702519D01*
X99814147Y-54841900D01*
X99878297Y-54996772D01*
X99911000Y-55161184D01*
X99911000Y-55328816D01*
X99878297Y-55493228D01*
X99814147Y-55648100D01*
X99721015Y-55787481D01*
X99602481Y-55906015D01*
X99463100Y-55999147D01*
X99308228Y-56063297D01*
X99143816Y-56096000D01*
X98976184Y-56096000D01*
X98811772Y-56063297D01*
X98656900Y-55999147D01*
X98517519Y-55906015D01*
X98398985Y-55787481D01*
X98305853Y-55648100D01*
X98241703Y-55493228D01*
X98209000Y-55328816D01*
X98209000Y-55161184D01*
X98241703Y-54996772D01*
X98305853Y-54841900D01*
X98398985Y-54702519D01*
X98517519Y-54583985D01*
X98656900Y-54490853D01*
X98811772Y-54426703D01*
X98976184Y-54394000D01*
X99143816Y-54394000D01*
X99308228Y-54426703D01*
G37*
G36*
X89148228Y-53791703D02*
G01*
X89303100Y-53855853D01*
X89442481Y-53948985D01*
X89561015Y-54067519D01*
X89654147Y-54206900D01*
X89718297Y-54361772D01*
X89751000Y-54526184D01*
X89751000Y-54693816D01*
X89718297Y-54858228D01*
X89654147Y-55013100D01*
X89561015Y-55152481D01*
X89442481Y-55271015D01*
X89303100Y-55364147D01*
X89148228Y-55428297D01*
X88983816Y-55461000D01*
X88816184Y-55461000D01*
X88651772Y-55428297D01*
X88496900Y-55364147D01*
X88357519Y-55271015D01*
X88238985Y-55152481D01*
X88145853Y-55013100D01*
X88081703Y-54858228D01*
X88049000Y-54693816D01*
X88049000Y-54526184D01*
X88081703Y-54361772D01*
X88145853Y-54206900D01*
X88238985Y-54067519D01*
X88357519Y-53948985D01*
X88496900Y-53855853D01*
X88651772Y-53791703D01*
X88816184Y-53759000D01*
X88983816Y-53759000D01*
X89148228Y-53791703D01*
G37*
G36*
X78988228Y-53791703D02*
G01*
X79143100Y-53855853D01*
X79282481Y-53948985D01*
X79401015Y-54067519D01*
X79494147Y-54206900D01*
X79558297Y-54361772D01*
X79591000Y-54526184D01*
X79591000Y-54693816D01*
X79558297Y-54858228D01*
X79494147Y-55013100D01*
X79401015Y-55152481D01*
X79282481Y-55271015D01*
X79143100Y-55364147D01*
X78988228Y-55428297D01*
X78823816Y-55461000D01*
X78656184Y-55461000D01*
X78491772Y-55428297D01*
X78336900Y-55364147D01*
X78197519Y-55271015D01*
X78078985Y-55152481D01*
X77985853Y-55013100D01*
X77921703Y-54858228D01*
X77889000Y-54693816D01*
X77889000Y-54526184D01*
X77921703Y-54361772D01*
X77985853Y-54206900D01*
X78078985Y-54067519D01*
X78197519Y-53948985D01*
X78336900Y-53855853D01*
X78491772Y-53791703D01*
X78656184Y-53759000D01*
X78823816Y-53759000D01*
X78988228Y-53791703D01*
G37*
G36*
X51048228Y-53156703D02*
G01*
X51203100Y-53220853D01*
X51342481Y-53313985D01*
X51461015Y-53432519D01*
X51554147Y-53571900D01*
X51618297Y-53726772D01*
X51651000Y-53891184D01*
X51651000Y-54058816D01*
X51618297Y-54223228D01*
X51554147Y-54378100D01*
X51461015Y-54517481D01*
X51342481Y-54636015D01*
X51203100Y-54729147D01*
X51048228Y-54793297D01*
X50883816Y-54826000D01*
X50716184Y-54826000D01*
X50551772Y-54793297D01*
X50396900Y-54729147D01*
X50257519Y-54636015D01*
X50138985Y-54517481D01*
X50045853Y-54378100D01*
X49981703Y-54223228D01*
X49949000Y-54058816D01*
X49949000Y-53891184D01*
X49981703Y-53726772D01*
X50045853Y-53571900D01*
X50138985Y-53432519D01*
X50257519Y-53313985D01*
X50396900Y-53220853D01*
X50551772Y-53156703D01*
X50716184Y-53124000D01*
X50883816Y-53124000D01*
X51048228Y-53156703D01*
G37*
G36*
X56048228Y-53156703D02*
G01*
X56203100Y-53220853D01*
X56342481Y-53313985D01*
X56461015Y-53432519D01*
X56554147Y-53571900D01*
X56618297Y-53726772D01*
X56651000Y-53891184D01*
X56651000Y-54058816D01*
X56618297Y-54223228D01*
X56554147Y-54378100D01*
X56461015Y-54517481D01*
X56342481Y-54636015D01*
X56203100Y-54729147D01*
X56048228Y-54793297D01*
X55883816Y-54826000D01*
X55716184Y-54826000D01*
X55551772Y-54793297D01*
X55396900Y-54729147D01*
X55257519Y-54636015D01*
X55138985Y-54517481D01*
X55045853Y-54378100D01*
X54981703Y-54223228D01*
X54949000Y-54058816D01*
X54949000Y-53891184D01*
X54981703Y-53726772D01*
X55045853Y-53571900D01*
X55138985Y-53432519D01*
X55257519Y-53313985D01*
X55396900Y-53220853D01*
X55551772Y-53156703D01*
X55716184Y-53124000D01*
X55883816Y-53124000D01*
X56048228Y-53156703D01*
G37*
G36*
X64966000Y-54056000D02*
G01*
X63804000Y-54056000D01*
X63804000Y-52894000D01*
X64966000Y-52894000D01*
X64966000Y-54056000D01*
G37*
G36*
X71836000Y-54056000D02*
G01*
X70674000Y-54056000D01*
X70674000Y-52894000D01*
X71836000Y-52894000D01*
X71836000Y-54056000D01*
G37*
G36*
X67256000Y-54056000D02*
G01*
X66094000Y-54056000D01*
X66094000Y-52894000D01*
X67256000Y-52894000D01*
X67256000Y-54056000D01*
G37*
G36*
X62676000Y-54056000D02*
G01*
X61514000Y-54056000D01*
X61514000Y-52894000D01*
X62676000Y-52894000D01*
X62676000Y-54056000D01*
G37*
G36*
X69546000Y-54056000D02*
G01*
X68384000Y-54056000D01*
X68384000Y-52894000D01*
X69546000Y-52894000D01*
X69546000Y-54056000D01*
G37*
G36*
X64966000Y-51766000D02*
G01*
X63804000Y-51766000D01*
X63804000Y-50604000D01*
X64966000Y-50604000D01*
X64966000Y-51766000D01*
G37*
G36*
X62676000Y-51766000D02*
G01*
X61514000Y-51766000D01*
X61514000Y-50604000D01*
X62676000Y-50604000D01*
X62676000Y-51766000D01*
G37*
G36*
X67256000Y-51766000D02*
G01*
X66094000Y-51766000D01*
X66094000Y-50604000D01*
X67256000Y-50604000D01*
X67256000Y-51766000D01*
G37*
G36*
X69546000Y-51766000D02*
G01*
X68384000Y-51766000D01*
X68384000Y-50604000D01*
X69546000Y-50604000D01*
X69546000Y-51766000D01*
G37*
G36*
X71836000Y-51766000D02*
G01*
X70674000Y-51766000D01*
X70674000Y-50604000D01*
X71836000Y-50604000D01*
X71836000Y-51766000D01*
G37*
G36*
X51551000Y-51577000D02*
G01*
X50049000Y-51577000D01*
X50049000Y-50415000D01*
X51551000Y-50415000D01*
X51551000Y-51577000D01*
G37*
G36*
X86393642Y-48759781D02*
G01*
X86539414Y-48820162D01*
X86539416Y-48820163D01*
X86670608Y-48907822D01*
X86782178Y-49019392D01*
X86869837Y-49150584D01*
X86869838Y-49150586D01*
X86930219Y-49296358D01*
X86961000Y-49451107D01*
X86961000Y-49608893D01*
X86930219Y-49763642D01*
X86869838Y-49909414D01*
X86869837Y-49909416D01*
X86782178Y-50040608D01*
X86670608Y-50152178D01*
X86539416Y-50239837D01*
X86539415Y-50239838D01*
X86539414Y-50239838D01*
X86393642Y-50300219D01*
X86238893Y-50331000D01*
X86081107Y-50331000D01*
X85926358Y-50300219D01*
X85780586Y-50239838D01*
X85780585Y-50239838D01*
X85780584Y-50239837D01*
X85649392Y-50152178D01*
X85537822Y-50040608D01*
X85450163Y-49909416D01*
X85450162Y-49909414D01*
X85389781Y-49763642D01*
X85359000Y-49608893D01*
X85359000Y-49451107D01*
X85389781Y-49296358D01*
X85450162Y-49150586D01*
X85450163Y-49150584D01*
X85537822Y-49019392D01*
X85649392Y-48907822D01*
X85780584Y-48820163D01*
X85780586Y-48820162D01*
X85926358Y-48759781D01*
X86081107Y-48729000D01*
X86238893Y-48729000D01*
X86393642Y-48759781D01*
G37*
G36*
X81513642Y-48759781D02*
G01*
X81659414Y-48820162D01*
X81659416Y-48820163D01*
X81790608Y-48907822D01*
X81902178Y-49019392D01*
X81989837Y-49150584D01*
X81989838Y-49150586D01*
X82050219Y-49296358D01*
X82081000Y-49451107D01*
X82081000Y-49608893D01*
X82050219Y-49763642D01*
X81989838Y-49909414D01*
X81989837Y-49909416D01*
X81902178Y-50040608D01*
X81790608Y-50152178D01*
X81659416Y-50239837D01*
X81659415Y-50239838D01*
X81659414Y-50239838D01*
X81513642Y-50300219D01*
X81358893Y-50331000D01*
X81201107Y-50331000D01*
X81046358Y-50300219D01*
X80900586Y-50239838D01*
X80900585Y-50239838D01*
X80900584Y-50239837D01*
X80769392Y-50152178D01*
X80657822Y-50040608D01*
X80570163Y-49909416D01*
X80570162Y-49909414D01*
X80509781Y-49763642D01*
X80479000Y-49608893D01*
X80479000Y-49451107D01*
X80509781Y-49296358D01*
X80570162Y-49150586D01*
X80570163Y-49150584D01*
X80657822Y-49019392D01*
X80769392Y-48907822D01*
X80900584Y-48820163D01*
X80900586Y-48820162D01*
X81046358Y-48759781D01*
X81201107Y-48729000D01*
X81358893Y-48729000D01*
X81513642Y-48759781D01*
G37*
G36*
X51551000Y-49915000D02*
G01*
X50049000Y-49915000D01*
X50049000Y-48753000D01*
X51551000Y-48753000D01*
X51551000Y-49915000D01*
G37*
G36*
X69546000Y-49476000D02*
G01*
X68384000Y-49476000D01*
X68384000Y-48314000D01*
X69546000Y-48314000D01*
X69546000Y-49476000D01*
G37*
G36*
X62676000Y-49476000D02*
G01*
X61514000Y-49476000D01*
X61514000Y-48314000D01*
X62676000Y-48314000D01*
X62676000Y-49476000D01*
G37*
G36*
X64966000Y-49476000D02*
G01*
X63804000Y-49476000D01*
X63804000Y-48314000D01*
X64966000Y-48314000D01*
X64966000Y-49476000D01*
G37*
G36*
X71836000Y-49476000D02*
G01*
X70674000Y-49476000D01*
X70674000Y-48314000D01*
X71836000Y-48314000D01*
X71836000Y-49476000D01*
G37*
G36*
X67256000Y-49476000D02*
G01*
X66094000Y-49476000D01*
X66094000Y-48314000D01*
X67256000Y-48314000D01*
X67256000Y-49476000D01*
G37*
G36*
X51048228Y-45536703D02*
G01*
X51203100Y-45600853D01*
X51342481Y-45693985D01*
X51461015Y-45812519D01*
X51554147Y-45951900D01*
X51618297Y-46106772D01*
X51651000Y-46271184D01*
X51651000Y-46438816D01*
X51618297Y-46603228D01*
X51554147Y-46758100D01*
X51461015Y-46897481D01*
X51342481Y-47016015D01*
X51203100Y-47109147D01*
X51048228Y-47173297D01*
X50883816Y-47206000D01*
X50716184Y-47206000D01*
X50551772Y-47173297D01*
X50396900Y-47109147D01*
X50257519Y-47016015D01*
X50138985Y-46897481D01*
X50045853Y-46758100D01*
X49981703Y-46603228D01*
X49949000Y-46438816D01*
X49949000Y-46271184D01*
X49981703Y-46106772D01*
X50045853Y-45951900D01*
X50138985Y-45812519D01*
X50257519Y-45693985D01*
X50396900Y-45600853D01*
X50551772Y-45536703D01*
X50716184Y-45504000D01*
X50883816Y-45504000D01*
X51048228Y-45536703D01*
G37*
G36*
X56048228Y-45536703D02*
G01*
X56203100Y-45600853D01*
X56342481Y-45693985D01*
X56461015Y-45812519D01*
X56554147Y-45951900D01*
X56618297Y-46106772D01*
X56651000Y-46271184D01*
X56651000Y-46438816D01*
X56618297Y-46603228D01*
X56554147Y-46758100D01*
X56461015Y-46897481D01*
X56342481Y-47016015D01*
X56203100Y-47109147D01*
X56048228Y-47173297D01*
X55883816Y-47206000D01*
X55716184Y-47206000D01*
X55551772Y-47173297D01*
X55396900Y-47109147D01*
X55257519Y-47016015D01*
X55138985Y-46897481D01*
X55045853Y-46758100D01*
X54981703Y-46603228D01*
X54949000Y-46438816D01*
X54949000Y-46271184D01*
X54981703Y-46106772D01*
X55045853Y-45951900D01*
X55138985Y-45812519D01*
X55257519Y-45693985D01*
X55396900Y-45600853D01*
X55551772Y-45536703D01*
X55716184Y-45504000D01*
X55883816Y-45504000D01*
X56048228Y-45536703D01*
G37*
G36*
X69546000Y-47186000D02*
G01*
X68384000Y-47186000D01*
X68384000Y-46024000D01*
X69546000Y-46024000D01*
X69546000Y-47186000D01*
G37*
G36*
X71836000Y-47186000D02*
G01*
X70674000Y-47186000D01*
X70674000Y-46024000D01*
X71836000Y-46024000D01*
X71836000Y-47186000D01*
G37*
G36*
X67256000Y-47186000D02*
G01*
X66094000Y-47186000D01*
X66094000Y-46024000D01*
X67256000Y-46024000D01*
X67256000Y-47186000D01*
G37*
G36*
X64966000Y-47186000D02*
G01*
X63804000Y-47186000D01*
X63804000Y-46024000D01*
X64966000Y-46024000D01*
X64966000Y-47186000D01*
G37*
G36*
X62676000Y-47186000D02*
G01*
X61514000Y-47186000D01*
X61514000Y-46024000D01*
X62676000Y-46024000D01*
X62676000Y-47186000D01*
G37*
G36*
X99308228Y-44266703D02*
G01*
X99463100Y-44330853D01*
X99602481Y-44423985D01*
X99721015Y-44542519D01*
X99814147Y-44681900D01*
X99878297Y-44836772D01*
X99911000Y-45001184D01*
X99911000Y-45168816D01*
X99878297Y-45333228D01*
X99814147Y-45488100D01*
X99721015Y-45627481D01*
X99602481Y-45746015D01*
X99463100Y-45839147D01*
X99308228Y-45903297D01*
X99143816Y-45936000D01*
X98976184Y-45936000D01*
X98811772Y-45903297D01*
X98656900Y-45839147D01*
X98517519Y-45746015D01*
X98398985Y-45627481D01*
X98305853Y-45488100D01*
X98241703Y-45333228D01*
X98209000Y-45168816D01*
X98209000Y-45001184D01*
X98241703Y-44836772D01*
X98305853Y-44681900D01*
X98398985Y-44542519D01*
X98517519Y-44423985D01*
X98656900Y-44330853D01*
X98811772Y-44266703D01*
X98976184Y-44234000D01*
X99143816Y-44234000D01*
X99308228Y-44266703D01*
G37*
G36*
X85418228Y-43631703D02*
G01*
X85573100Y-43695853D01*
X85712481Y-43788985D01*
X85831015Y-43907519D01*
X85924147Y-44046900D01*
X85988297Y-44201772D01*
X86021000Y-44366184D01*
X86021000Y-44533816D01*
X85988297Y-44698228D01*
X85924147Y-44853100D01*
X85831015Y-44992481D01*
X85712481Y-45111015D01*
X85573100Y-45204147D01*
X85418228Y-45268297D01*
X85253816Y-45301000D01*
X85086184Y-45301000D01*
X84921772Y-45268297D01*
X84766900Y-45204147D01*
X84627519Y-45111015D01*
X84508985Y-44992481D01*
X84415853Y-44853100D01*
X84351703Y-44698228D01*
X84319000Y-44533816D01*
X84319000Y-44366184D01*
X84351703Y-44201772D01*
X84415853Y-44046900D01*
X84508985Y-43907519D01*
X84627519Y-43788985D01*
X84766900Y-43695853D01*
X84921772Y-43631703D01*
X85086184Y-43599000D01*
X85253816Y-43599000D01*
X85418228Y-43631703D01*
G37*
G36*
X82798228Y-43631703D02*
G01*
X82953100Y-43695853D01*
X83092481Y-43788985D01*
X83211015Y-43907519D01*
X83304147Y-44046900D01*
X83368297Y-44201772D01*
X83401000Y-44366184D01*
X83401000Y-44533816D01*
X83368297Y-44698228D01*
X83304147Y-44853100D01*
X83211015Y-44992481D01*
X83092481Y-45111015D01*
X82953100Y-45204147D01*
X82798228Y-45268297D01*
X82633816Y-45301000D01*
X82466184Y-45301000D01*
X82301772Y-45268297D01*
X82146900Y-45204147D01*
X82007519Y-45111015D01*
X81888985Y-44992481D01*
X81795853Y-44853100D01*
X81731703Y-44698228D01*
X81699000Y-44533816D01*
X81699000Y-44366184D01*
X81731703Y-44201772D01*
X81795853Y-44046900D01*
X81888985Y-43907519D01*
X82007519Y-43788985D01*
X82146900Y-43695853D01*
X82301772Y-43631703D01*
X82466184Y-43599000D01*
X82633816Y-43599000D01*
X82798228Y-43631703D01*
G37*
G36*
X90418228Y-43631703D02*
G01*
X90573100Y-43695853D01*
X90712481Y-43788985D01*
X90831015Y-43907519D01*
X90924147Y-44046900D01*
X90988297Y-44201772D01*
X91021000Y-44366184D01*
X91021000Y-44533816D01*
X90988297Y-44698228D01*
X90924147Y-44853100D01*
X90831015Y-44992481D01*
X90712481Y-45111015D01*
X90573100Y-45204147D01*
X90418228Y-45268297D01*
X90253816Y-45301000D01*
X90086184Y-45301000D01*
X89921772Y-45268297D01*
X89766900Y-45204147D01*
X89627519Y-45111015D01*
X89508985Y-44992481D01*
X89415853Y-44853100D01*
X89351703Y-44698228D01*
X89319000Y-44533816D01*
X89319000Y-44366184D01*
X89351703Y-44201772D01*
X89415853Y-44046900D01*
X89508985Y-43907519D01*
X89627519Y-43788985D01*
X89766900Y-43695853D01*
X89921772Y-43631703D01*
X90086184Y-43599000D01*
X90253816Y-43599000D01*
X90418228Y-43631703D01*
G37*
G36*
X77798228Y-43631703D02*
G01*
X77953100Y-43695853D01*
X78092481Y-43788985D01*
X78211015Y-43907519D01*
X78304147Y-44046900D01*
X78368297Y-44201772D01*
X78401000Y-44366184D01*
X78401000Y-44533816D01*
X78368297Y-44698228D01*
X78304147Y-44853100D01*
X78211015Y-44992481D01*
X78092481Y-45111015D01*
X77953100Y-45204147D01*
X77798228Y-45268297D01*
X77633816Y-45301000D01*
X77466184Y-45301000D01*
X77301772Y-45268297D01*
X77146900Y-45204147D01*
X77007519Y-45111015D01*
X76888985Y-44992481D01*
X76795853Y-44853100D01*
X76731703Y-44698228D01*
X76699000Y-44533816D01*
X76699000Y-44366184D01*
X76731703Y-44201772D01*
X76795853Y-44046900D01*
X76888985Y-43907519D01*
X77007519Y-43788985D01*
X77146900Y-43695853D01*
X77301772Y-43631703D01*
X77466184Y-43599000D01*
X77633816Y-43599000D01*
X77798228Y-43631703D01*
G37*
G36*
X71836000Y-44896000D02*
G01*
X70674000Y-44896000D01*
X70674000Y-43734000D01*
X71836000Y-43734000D01*
X71836000Y-44896000D01*
G37*
G36*
X64966000Y-44896000D02*
G01*
X63804000Y-44896000D01*
X63804000Y-43734000D01*
X64966000Y-43734000D01*
X64966000Y-44896000D01*
G37*
G36*
X67256000Y-44896000D02*
G01*
X66094000Y-44896000D01*
X66094000Y-43734000D01*
X67256000Y-43734000D01*
X67256000Y-44896000D01*
G37*
G36*
X69546000Y-44896000D02*
G01*
X68384000Y-44896000D01*
X68384000Y-43734000D01*
X69546000Y-43734000D01*
X69546000Y-44896000D01*
G37*
G36*
X62676000Y-44896000D02*
G01*
X61514000Y-44896000D01*
X61514000Y-43734000D01*
X62676000Y-43734000D01*
X62676000Y-44896000D01*
G37*
G36*
X55471905Y-39483789D02*
G01*
X55770350Y-39543153D01*
X56098122Y-39678921D01*
X56393109Y-39876025D01*
X56643975Y-40126891D01*
X56841079Y-40421878D01*
X56976847Y-40749650D01*
X57046060Y-41097611D01*
X57046060Y-41452389D01*
X56976847Y-41800350D01*
X56841079Y-42128122D01*
X56643975Y-42423109D01*
X56393109Y-42673975D01*
X56098122Y-42871079D01*
X55770350Y-43006847D01*
X55471905Y-43066211D01*
X55422390Y-43076060D01*
X55067610Y-43076060D01*
X55018095Y-43066211D01*
X54719650Y-43006847D01*
X54391878Y-42871079D01*
X54096891Y-42673975D01*
X53846025Y-42423109D01*
X53648921Y-42128122D01*
X53513153Y-41800350D01*
X53443940Y-41452389D01*
X53443940Y-41097611D01*
X53513153Y-40749650D01*
X53648921Y-40421878D01*
X53846025Y-40126891D01*
X54096891Y-39876025D01*
X54391878Y-39678921D01*
X54719650Y-39543153D01*
X55018095Y-39483789D01*
X55067610Y-39473940D01*
X55422390Y-39473940D01*
X55471905Y-39483789D01*
G37*
G36*
X51966060Y-43076060D02*
G01*
X48363940Y-43076060D01*
X48363940Y-39473940D01*
X51966060Y-39473940D01*
X51966060Y-43076060D01*
G37*
G36*
X62346000Y-40782000D02*
G01*
X60844000Y-40782000D01*
X60844000Y-39620000D01*
X62346000Y-39620000D01*
X62346000Y-40782000D01*
G37*
G36*
X91681766Y-38671899D02*
G01*
X91813888Y-38726626D01*
X91813890Y-38726627D01*
X91932798Y-38806079D01*
X92033921Y-38907202D01*
X92033922Y-38907204D01*
X92113374Y-39026112D01*
X92168101Y-39158234D01*
X92196000Y-39298494D01*
X92196000Y-39441506D01*
X92168101Y-39581766D01*
X92113374Y-39713888D01*
X92113373Y-39713890D01*
X92033921Y-39832798D01*
X91932798Y-39933921D01*
X91813890Y-40013373D01*
X91813889Y-40013374D01*
X91813888Y-40013374D01*
X91681766Y-40068101D01*
X91541506Y-40096000D01*
X91398494Y-40096000D01*
X91258234Y-40068101D01*
X91126112Y-40013374D01*
X91126111Y-40013374D01*
X91126110Y-40013373D01*
X91007202Y-39933921D01*
X90906079Y-39832798D01*
X90826627Y-39713890D01*
X90826626Y-39713888D01*
X90771899Y-39581766D01*
X90744000Y-39441506D01*
X90744000Y-39298494D01*
X90771899Y-39158234D01*
X90826626Y-39026112D01*
X90906078Y-38907204D01*
X90906079Y-38907202D01*
X91007202Y-38806079D01*
X91126110Y-38726627D01*
X91126112Y-38726626D01*
X91258234Y-38671899D01*
X91398494Y-38644000D01*
X91541506Y-38644000D01*
X91681766Y-38671899D01*
G37*
G36*
X79681766Y-38671899D02*
G01*
X79813888Y-38726626D01*
X79813890Y-38726627D01*
X79932798Y-38806079D01*
X80033921Y-38907202D01*
X80033922Y-38907204D01*
X80113374Y-39026112D01*
X80168101Y-39158234D01*
X80196000Y-39298494D01*
X80196000Y-39441506D01*
X80168101Y-39581766D01*
X80113374Y-39713888D01*
X80113373Y-39713890D01*
X80033921Y-39832798D01*
X79932798Y-39933921D01*
X79813890Y-40013373D01*
X79813889Y-40013374D01*
X79813888Y-40013374D01*
X79681766Y-40068101D01*
X79541506Y-40096000D01*
X79398494Y-40096000D01*
X79258234Y-40068101D01*
X79126112Y-40013374D01*
X79126111Y-40013374D01*
X79126110Y-40013373D01*
X79007202Y-39933921D01*
X78906079Y-39832798D01*
X78826627Y-39713890D01*
X78826626Y-39713888D01*
X78771899Y-39581766D01*
X78744000Y-39441506D01*
X78744000Y-39298494D01*
X78771899Y-39158234D01*
X78826626Y-39026112D01*
X78906078Y-38907204D01*
X78906079Y-38907202D01*
X79007202Y-38806079D01*
X79126110Y-38726627D01*
X79126112Y-38726626D01*
X79258234Y-38671899D01*
X79398494Y-38644000D01*
X79541506Y-38644000D01*
X79681766Y-38671899D01*
G37*
G36*
X81681766Y-38671899D02*
G01*
X81813888Y-38726626D01*
X81813890Y-38726627D01*
X81932798Y-38806079D01*
X82033921Y-38907202D01*
X82033922Y-38907204D01*
X82113374Y-39026112D01*
X82168101Y-39158234D01*
X82196000Y-39298494D01*
X82196000Y-39441506D01*
X82168101Y-39581766D01*
X82113374Y-39713888D01*
X82113373Y-39713890D01*
X82033921Y-39832798D01*
X81932798Y-39933921D01*
X81813890Y-40013373D01*
X81813889Y-40013374D01*
X81813888Y-40013374D01*
X81681766Y-40068101D01*
X81541506Y-40096000D01*
X81398494Y-40096000D01*
X81258234Y-40068101D01*
X81126112Y-40013374D01*
X81126111Y-40013374D01*
X81126110Y-40013373D01*
X81007202Y-39933921D01*
X80906079Y-39832798D01*
X80826627Y-39713890D01*
X80826626Y-39713888D01*
X80771899Y-39581766D01*
X80744000Y-39441506D01*
X80744000Y-39298494D01*
X80771899Y-39158234D01*
X80826626Y-39026112D01*
X80906078Y-38907204D01*
X80906079Y-38907202D01*
X81007202Y-38806079D01*
X81126110Y-38726627D01*
X81126112Y-38726626D01*
X81258234Y-38671899D01*
X81398494Y-38644000D01*
X81541506Y-38644000D01*
X81681766Y-38671899D01*
G37*
G36*
X83681766Y-38671899D02*
G01*
X83813888Y-38726626D01*
X83813890Y-38726627D01*
X83932798Y-38806079D01*
X84033921Y-38907202D01*
X84033922Y-38907204D01*
X84113374Y-39026112D01*
X84168101Y-39158234D01*
X84196000Y-39298494D01*
X84196000Y-39441506D01*
X84168101Y-39581766D01*
X84113374Y-39713888D01*
X84113373Y-39713890D01*
X84033921Y-39832798D01*
X83932798Y-39933921D01*
X83813890Y-40013373D01*
X83813889Y-40013374D01*
X83813888Y-40013374D01*
X83681766Y-40068101D01*
X83541506Y-40096000D01*
X83398494Y-40096000D01*
X83258234Y-40068101D01*
X83126112Y-40013374D01*
X83126111Y-40013374D01*
X83126110Y-40013373D01*
X83007202Y-39933921D01*
X82906079Y-39832798D01*
X82826627Y-39713890D01*
X82826626Y-39713888D01*
X82771899Y-39581766D01*
X82744000Y-39441506D01*
X82744000Y-39298494D01*
X82771899Y-39158234D01*
X82826626Y-39026112D01*
X82906078Y-38907204D01*
X82906079Y-38907202D01*
X83007202Y-38806079D01*
X83126110Y-38726627D01*
X83126112Y-38726626D01*
X83258234Y-38671899D01*
X83398494Y-38644000D01*
X83541506Y-38644000D01*
X83681766Y-38671899D01*
G37*
G36*
X85681766Y-38671899D02*
G01*
X85813888Y-38726626D01*
X85813890Y-38726627D01*
X85932798Y-38806079D01*
X86033921Y-38907202D01*
X86033922Y-38907204D01*
X86113374Y-39026112D01*
X86168101Y-39158234D01*
X86196000Y-39298494D01*
X86196000Y-39441506D01*
X86168101Y-39581766D01*
X86113374Y-39713888D01*
X86113373Y-39713890D01*
X86033921Y-39832798D01*
X85932798Y-39933921D01*
X85813890Y-40013373D01*
X85813889Y-40013374D01*
X85813888Y-40013374D01*
X85681766Y-40068101D01*
X85541506Y-40096000D01*
X85398494Y-40096000D01*
X85258234Y-40068101D01*
X85126112Y-40013374D01*
X85126111Y-40013374D01*
X85126110Y-40013373D01*
X85007202Y-39933921D01*
X84906079Y-39832798D01*
X84826627Y-39713890D01*
X84826626Y-39713888D01*
X84771899Y-39581766D01*
X84744000Y-39441506D01*
X84744000Y-39298494D01*
X84771899Y-39158234D01*
X84826626Y-39026112D01*
X84906078Y-38907204D01*
X84906079Y-38907202D01*
X85007202Y-38806079D01*
X85126110Y-38726627D01*
X85126112Y-38726626D01*
X85258234Y-38671899D01*
X85398494Y-38644000D01*
X85541506Y-38644000D01*
X85681766Y-38671899D01*
G37*
G36*
X87681766Y-38671899D02*
G01*
X87813888Y-38726626D01*
X87813890Y-38726627D01*
X87932798Y-38806079D01*
X88033921Y-38907202D01*
X88033922Y-38907204D01*
X88113374Y-39026112D01*
X88168101Y-39158234D01*
X88196000Y-39298494D01*
X88196000Y-39441506D01*
X88168101Y-39581766D01*
X88113374Y-39713888D01*
X88113373Y-39713890D01*
X88033921Y-39832798D01*
X87932798Y-39933921D01*
X87813890Y-40013373D01*
X87813889Y-40013374D01*
X87813888Y-40013374D01*
X87681766Y-40068101D01*
X87541506Y-40096000D01*
X87398494Y-40096000D01*
X87258234Y-40068101D01*
X87126112Y-40013374D01*
X87126111Y-40013374D01*
X87126110Y-40013373D01*
X87007202Y-39933921D01*
X86906079Y-39832798D01*
X86826627Y-39713890D01*
X86826626Y-39713888D01*
X86771899Y-39581766D01*
X86744000Y-39441506D01*
X86744000Y-39298494D01*
X86771899Y-39158234D01*
X86826626Y-39026112D01*
X86906078Y-38907204D01*
X86906079Y-38907202D01*
X87007202Y-38806079D01*
X87126110Y-38726627D01*
X87126112Y-38726626D01*
X87258234Y-38671899D01*
X87398494Y-38644000D01*
X87541506Y-38644000D01*
X87681766Y-38671899D01*
G37*
G36*
X78196000Y-40096000D02*
G01*
X76744000Y-40096000D01*
X76744000Y-38644000D01*
X78196000Y-38644000D01*
X78196000Y-40096000D01*
G37*
G36*
X89681766Y-38671899D02*
G01*
X89813888Y-38726626D01*
X89813890Y-38726627D01*
X89932798Y-38806079D01*
X90033921Y-38907202D01*
X90033922Y-38907204D01*
X90113374Y-39026112D01*
X90168101Y-39158234D01*
X90196000Y-39298494D01*
X90196000Y-39441506D01*
X90168101Y-39581766D01*
X90113374Y-39713888D01*
X90113373Y-39713890D01*
X90033921Y-39832798D01*
X89932798Y-39933921D01*
X89813890Y-40013373D01*
X89813889Y-40013374D01*
X89813888Y-40013374D01*
X89681766Y-40068101D01*
X89541506Y-40096000D01*
X89398494Y-40096000D01*
X89258234Y-40068101D01*
X89126112Y-40013374D01*
X89126111Y-40013374D01*
X89126110Y-40013373D01*
X89007202Y-39933921D01*
X88906079Y-39832798D01*
X88826627Y-39713890D01*
X88826626Y-39713888D01*
X88771899Y-39581766D01*
X88744000Y-39441506D01*
X88744000Y-39298494D01*
X88771899Y-39158234D01*
X88826626Y-39026112D01*
X88906078Y-38907204D01*
X88906079Y-38907202D01*
X89007202Y-38806079D01*
X89126110Y-38726627D01*
X89126112Y-38726626D01*
X89258234Y-38671899D01*
X89398494Y-38644000D01*
X89541506Y-38644000D01*
X89681766Y-38671899D01*
G37*
G36*
X93681766Y-38671899D02*
G01*
X93813888Y-38726626D01*
X93813890Y-38726627D01*
X93932798Y-38806079D01*
X94033921Y-38907202D01*
X94033922Y-38907204D01*
X94113374Y-39026112D01*
X94168101Y-39158234D01*
X94196000Y-39298494D01*
X94196000Y-39441506D01*
X94168101Y-39581766D01*
X94113374Y-39713888D01*
X94113373Y-39713890D01*
X94033921Y-39832798D01*
X93932798Y-39933921D01*
X93813890Y-40013373D01*
X93813889Y-40013374D01*
X93813888Y-40013374D01*
X93681766Y-40068101D01*
X93541506Y-40096000D01*
X93398494Y-40096000D01*
X93258234Y-40068101D01*
X93126112Y-40013374D01*
X93126111Y-40013374D01*
X93126110Y-40013373D01*
X93007202Y-39933921D01*
X92906079Y-39832798D01*
X92826627Y-39713890D01*
X92826626Y-39713888D01*
X92771899Y-39581766D01*
X92744000Y-39441506D01*
X92744000Y-39298494D01*
X92771899Y-39158234D01*
X92826626Y-39026112D01*
X92906078Y-38907204D01*
X92906079Y-38907202D01*
X93007202Y-38806079D01*
X93126110Y-38726627D01*
X93126112Y-38726626D01*
X93258234Y-38671899D01*
X93398494Y-38644000D01*
X93541506Y-38644000D01*
X93681766Y-38671899D01*
G37*
G36*
X95681766Y-38671899D02*
G01*
X95813888Y-38726626D01*
X95813890Y-38726627D01*
X95932798Y-38806079D01*
X96033921Y-38907202D01*
X96033922Y-38907204D01*
X96113374Y-39026112D01*
X96168101Y-39158234D01*
X96196000Y-39298494D01*
X96196000Y-39441506D01*
X96168101Y-39581766D01*
X96113374Y-39713888D01*
X96113373Y-39713890D01*
X96033921Y-39832798D01*
X95932798Y-39933921D01*
X95813890Y-40013373D01*
X95813889Y-40013374D01*
X95813888Y-40013374D01*
X95681766Y-40068101D01*
X95541506Y-40096000D01*
X95398494Y-40096000D01*
X95258234Y-40068101D01*
X95126112Y-40013374D01*
X95126111Y-40013374D01*
X95126110Y-40013373D01*
X95007202Y-39933921D01*
X94906079Y-39832798D01*
X94826627Y-39713890D01*
X94826626Y-39713888D01*
X94771899Y-39581766D01*
X94744000Y-39441506D01*
X94744000Y-39298494D01*
X94771899Y-39158234D01*
X94826626Y-39026112D01*
X94906078Y-38907204D01*
X94906079Y-38907202D01*
X95007202Y-38806079D01*
X95126110Y-38726627D01*
X95126112Y-38726626D01*
X95258234Y-38671899D01*
X95398494Y-38644000D01*
X95541506Y-38644000D01*
X95681766Y-38671899D01*
G37*
G36*
X62346000Y-39120000D02*
G01*
X60844000Y-39120000D01*
X60844000Y-37958000D01*
X62346000Y-37958000D01*
X62346000Y-39120000D01*
G37*
G36*
X70018228Y-37281703D02*
G01*
X70173100Y-37345853D01*
X70312481Y-37438985D01*
X70431015Y-37557519D01*
X70524147Y-37696900D01*
X70588297Y-37851772D01*
X70621000Y-38016184D01*
X70621000Y-38183816D01*
X70588297Y-38348228D01*
X70524147Y-38503100D01*
X70431015Y-38642481D01*
X70312481Y-38761015D01*
X70173100Y-38854147D01*
X70018228Y-38918297D01*
X69853816Y-38951000D01*
X69686184Y-38951000D01*
X69521772Y-38918297D01*
X69366900Y-38854147D01*
X69227519Y-38761015D01*
X69108985Y-38642481D01*
X69015853Y-38503100D01*
X68951703Y-38348228D01*
X68919000Y-38183816D01*
X68919000Y-38016184D01*
X68951703Y-37851772D01*
X69015853Y-37696900D01*
X69108985Y-37557519D01*
X69227519Y-37438985D01*
X69366900Y-37345853D01*
X69521772Y-37281703D01*
X69686184Y-37249000D01*
X69853816Y-37249000D01*
X70018228Y-37281703D01*
G37*
G36*
X65018228Y-37281703D02*
G01*
X65173100Y-37345853D01*
X65312481Y-37438985D01*
X65431015Y-37557519D01*
X65524147Y-37696900D01*
X65588297Y-37851772D01*
X65621000Y-38016184D01*
X65621000Y-38183816D01*
X65588297Y-38348228D01*
X65524147Y-38503100D01*
X65431015Y-38642481D01*
X65312481Y-38761015D01*
X65173100Y-38854147D01*
X65018228Y-38918297D01*
X64853816Y-38951000D01*
X64686184Y-38951000D01*
X64521772Y-38918297D01*
X64366900Y-38854147D01*
X64227519Y-38761015D01*
X64108985Y-38642481D01*
X64015853Y-38503100D01*
X63951703Y-38348228D01*
X63919000Y-38183816D01*
X63919000Y-38016184D01*
X63951703Y-37851772D01*
X64015853Y-37696900D01*
X64108985Y-37557519D01*
X64227519Y-37438985D01*
X64366900Y-37345853D01*
X64521772Y-37281703D01*
X64686184Y-37249000D01*
X64853816Y-37249000D01*
X65018228Y-37281703D01*
G37*
G36*
X55471905Y-33133789D02*
G01*
X55770350Y-33193153D01*
X56098122Y-33328921D01*
X56393109Y-33526025D01*
X56643975Y-33776891D01*
X56841079Y-34071878D01*
X56976847Y-34399650D01*
X57046060Y-34747611D01*
X57046060Y-35102389D01*
X56976847Y-35450350D01*
X56841079Y-35778122D01*
X56643975Y-36073109D01*
X56393109Y-36323975D01*
X56098122Y-36521079D01*
X55770350Y-36656847D01*
X55471905Y-36716211D01*
X55422390Y-36726060D01*
X55067610Y-36726060D01*
X55018095Y-36716211D01*
X54719650Y-36656847D01*
X54391878Y-36521079D01*
X54096891Y-36323975D01*
X53846025Y-36073109D01*
X53648921Y-35778122D01*
X53513153Y-35450350D01*
X53443940Y-35102389D01*
X53443940Y-34747611D01*
X53513153Y-34399650D01*
X53648921Y-34071878D01*
X53846025Y-33776891D01*
X54096891Y-33526025D01*
X54391878Y-33328921D01*
X54719650Y-33193153D01*
X55018095Y-33133789D01*
X55067610Y-33123940D01*
X55422390Y-33123940D01*
X55471905Y-33133789D01*
G37*
G36*
X62126060Y-36726060D02*
G01*
X58523940Y-36726060D01*
X58523940Y-33123940D01*
X62126060Y-33123940D01*
X62126060Y-36726060D01*
G37*
G36*
X49778228Y-33471703D02*
G01*
X49933100Y-33535853D01*
X50072481Y-33628985D01*
X50191015Y-33747519D01*
X50284147Y-33886900D01*
X50348297Y-34041772D01*
X50381000Y-34206184D01*
X50381000Y-34373816D01*
X50348297Y-34538228D01*
X50284147Y-34693100D01*
X50191015Y-34832481D01*
X50072481Y-34951015D01*
X49933100Y-35044147D01*
X49778228Y-35108297D01*
X49613816Y-35141000D01*
X49446184Y-35141000D01*
X49281772Y-35108297D01*
X49126900Y-35044147D01*
X48987519Y-34951015D01*
X48868985Y-34832481D01*
X48775853Y-34693100D01*
X48711703Y-34538228D01*
X48679000Y-34373816D01*
X48679000Y-34206184D01*
X48711703Y-34041772D01*
X48775853Y-33886900D01*
X48868985Y-33747519D01*
X48987519Y-33628985D01*
X49126900Y-33535853D01*
X49281772Y-33471703D01*
X49446184Y-33439000D01*
X49613816Y-33439000D01*
X49778228Y-33471703D01*
G37*
G36*
X66923228Y-30931703D02*
G01*
X67078100Y-30995853D01*
X67217481Y-31088985D01*
X67336015Y-31207519D01*
X67429147Y-31346900D01*
X67493297Y-31501772D01*
X67526000Y-31666184D01*
X67526000Y-31833816D01*
X67493297Y-31998228D01*
X67429147Y-32153100D01*
X67336015Y-32292481D01*
X67217481Y-32411015D01*
X67078100Y-32504147D01*
X66923228Y-32568297D01*
X66758816Y-32601000D01*
X66591184Y-32601000D01*
X66426772Y-32568297D01*
X66271900Y-32504147D01*
X66132519Y-32411015D01*
X66013985Y-32292481D01*
X65920853Y-32153100D01*
X65856703Y-31998228D01*
X65824000Y-31833816D01*
X65824000Y-31666184D01*
X65856703Y-31501772D01*
X65920853Y-31346900D01*
X66013985Y-31207519D01*
X66132519Y-31088985D01*
X66271900Y-30995853D01*
X66426772Y-30931703D01*
X66591184Y-30899000D01*
X66758816Y-30899000D01*
X66923228Y-30931703D01*
G37*
G36*
X53746000Y-30846000D02*
G01*
X52144000Y-30846000D01*
X52144000Y-28744000D01*
X53746000Y-28744000D01*
X53746000Y-30846000D01*
G37*
G36*
X56046000Y-30846000D02*
G01*
X54444000Y-30846000D01*
X54444000Y-28744000D01*
X56046000Y-28744000D01*
X56046000Y-30846000D01*
G37*
G36*
X58346000Y-30846000D02*
G01*
X56744000Y-30846000D01*
X56744000Y-28744000D01*
X58346000Y-28744000D01*
X58346000Y-30846000D01*
G37*
G36*
X71966766Y-28606899D02*
G01*
X72098888Y-28661626D01*
X72098890Y-28661627D01*
X72217798Y-28741079D01*
X72318921Y-28842202D01*
X72318922Y-28842204D01*
X72398374Y-28961112D01*
X72453101Y-29093234D01*
X72481000Y-29233494D01*
X72481000Y-29376506D01*
X72453101Y-29516766D01*
X72398374Y-29648888D01*
X72398373Y-29648890D01*
X72318921Y-29767798D01*
X72217798Y-29868921D01*
X72098890Y-29948373D01*
X72098889Y-29948374D01*
X72098888Y-29948374D01*
X71966766Y-30003101D01*
X71826506Y-30031000D01*
X71683494Y-30031000D01*
X71543234Y-30003101D01*
X71411112Y-29948374D01*
X71411111Y-29948374D01*
X71411110Y-29948373D01*
X71292202Y-29868921D01*
X71191079Y-29767798D01*
X71111627Y-29648890D01*
X71111626Y-29648888D01*
X71056899Y-29516766D01*
X71029000Y-29376506D01*
X71029000Y-29233494D01*
X71056899Y-29093234D01*
X71111626Y-28961112D01*
X71191078Y-28842204D01*
X71191079Y-28842202D01*
X71292202Y-28741079D01*
X71411110Y-28661627D01*
X71411112Y-28661626D01*
X71543234Y-28606899D01*
X71683494Y-28579000D01*
X71826506Y-28579000D01*
X71966766Y-28606899D01*
G37*
G36*
X64451000Y-28256000D02*
G01*
X62549000Y-28256000D01*
X62549000Y-26354000D01*
X64451000Y-26354000D01*
X64451000Y-28256000D01*
G37*
G36*
X61237395Y-26390546D02*
G01*
X61410466Y-26462234D01*
X61410467Y-26462235D01*
X61566227Y-26566310D01*
X61698690Y-26698773D01*
X61698691Y-26698775D01*
X61802766Y-26854534D01*
X61874454Y-27027605D01*
X61911000Y-27211333D01*
X61911000Y-27398667D01*
X61874454Y-27582395D01*
X61802766Y-27755466D01*
X61802765Y-27755467D01*
X61698690Y-27911227D01*
X61566227Y-28043690D01*
X61487818Y-28096081D01*
X61410466Y-28147766D01*
X61237395Y-28219454D01*
X61053667Y-28256000D01*
X60866333Y-28256000D01*
X60682605Y-28219454D01*
X60509534Y-28147766D01*
X60432182Y-28096081D01*
X60353773Y-28043690D01*
X60221310Y-27911227D01*
X60117235Y-27755467D01*
X60117234Y-27755466D01*
X60045546Y-27582395D01*
X60009000Y-27398667D01*
X60009000Y-27211333D01*
X60045546Y-27027605D01*
X60117234Y-26854534D01*
X60221309Y-26698775D01*
X60221310Y-26698773D01*
X60353773Y-26566310D01*
X60509533Y-26462235D01*
X60509534Y-26462234D01*
X60682605Y-26390546D01*
X60866333Y-26354000D01*
X61053667Y-26354000D01*
X61237395Y-26390546D01*
G37*
G36*
X72481000Y-28031000D02*
G01*
X71029000Y-28031000D01*
X71029000Y-26579000D01*
X72481000Y-26579000D01*
X72481000Y-28031000D01*
G37*
G36*
X49778228Y-23311703D02*
G01*
X49933100Y-23375853D01*
X50072481Y-23468985D01*
X50191015Y-23587519D01*
X50284147Y-23726900D01*
X50348297Y-23881772D01*
X50381000Y-24046184D01*
X50381000Y-24213816D01*
X50348297Y-24378228D01*
X50284147Y-24533100D01*
X50191015Y-24672481D01*
X50072481Y-24791015D01*
X49933100Y-24884147D01*
X49778228Y-24948297D01*
X49613816Y-24981000D01*
X49446184Y-24981000D01*
X49281772Y-24948297D01*
X49126900Y-24884147D01*
X48987519Y-24791015D01*
X48868985Y-24672481D01*
X48775853Y-24533100D01*
X48711703Y-24378228D01*
X48679000Y-24213816D01*
X48679000Y-24046184D01*
X48711703Y-23881772D01*
X48775853Y-23726900D01*
X48868985Y-23587519D01*
X48987519Y-23468985D01*
X49126900Y-23375853D01*
X49281772Y-23311703D01*
X49446184Y-23279000D01*
X49613816Y-23279000D01*
X49778228Y-23311703D01*
G37*
G36*
X57196000Y-24546000D02*
G01*
X53294000Y-24546000D01*
X53294000Y-22444000D01*
X57196000Y-22444000D01*
X57196000Y-24546000D01*
G37*
G36*
X66923228Y-20771703D02*
G01*
X67078100Y-20835853D01*
X67217481Y-20928985D01*
X67336015Y-21047519D01*
X67429147Y-21186900D01*
X67493297Y-21341772D01*
X67526000Y-21506184D01*
X67526000Y-21673816D01*
X67493297Y-21838228D01*
X67429147Y-21993100D01*
X67336015Y-22132481D01*
X67217481Y-22251015D01*
X67078100Y-22344147D01*
X66923228Y-22408297D01*
X66758816Y-22441000D01*
X66591184Y-22441000D01*
X66426772Y-22408297D01*
X66271900Y-22344147D01*
X66132519Y-22251015D01*
X66013985Y-22132481D01*
X65920853Y-21993100D01*
X65856703Y-21838228D01*
X65824000Y-21673816D01*
X65824000Y-21506184D01*
X65856703Y-21341772D01*
X65920853Y-21186900D01*
X66013985Y-21047519D01*
X66132519Y-20928985D01*
X66271900Y-20835853D01*
X66426772Y-20771703D01*
X66591184Y-20739000D01*
X66758816Y-20739000D01*
X66923228Y-20771703D01*
G37*
G36*
X52982395Y-18770546D02*
G01*
X53155466Y-18842234D01*
X53155467Y-18842235D01*
X53311227Y-18946310D01*
X53443690Y-19078773D01*
X53443691Y-19078775D01*
X53547766Y-19234534D01*
X53619454Y-19407605D01*
X53656000Y-19591333D01*
X53656000Y-19778667D01*
X53619454Y-19962395D01*
X53547766Y-20135466D01*
X53547765Y-20135467D01*
X53443690Y-20291227D01*
X53311227Y-20423690D01*
X53232818Y-20476081D01*
X53155466Y-20527766D01*
X52982395Y-20599454D01*
X52798667Y-20636000D01*
X52611333Y-20636000D01*
X52427605Y-20599454D01*
X52254534Y-20527766D01*
X52177182Y-20476081D01*
X52098773Y-20423690D01*
X51966310Y-20291227D01*
X51862235Y-20135467D01*
X51862234Y-20135466D01*
X51790546Y-19962395D01*
X51754000Y-19778667D01*
X51754000Y-19591333D01*
X51790546Y-19407605D01*
X51862234Y-19234534D01*
X51966309Y-19078775D01*
X51966310Y-19078773D01*
X52098773Y-18946310D01*
X52254533Y-18842235D01*
X52254534Y-18842234D01*
X52427605Y-18770546D01*
X52611333Y-18734000D01*
X52798667Y-18734000D01*
X52982395Y-18770546D01*
G37*
G36*
X51116000Y-20636000D02*
G01*
X49214000Y-20636000D01*
X49214000Y-18734000D01*
X51116000Y-18734000D01*
X51116000Y-20636000D01*
G37*
G36*
X55573228Y-18231703D02*
G01*
X55728100Y-18295853D01*
X55867481Y-18388985D01*
X55986015Y-18507519D01*
X56079147Y-18646900D01*
X56143297Y-18801772D01*
X56176000Y-18966184D01*
X56176000Y-19133816D01*
X56143297Y-19298228D01*
X56079147Y-19453100D01*
X55986015Y-19592481D01*
X55867481Y-19711015D01*
X55728100Y-19804147D01*
X55573228Y-19868297D01*
X55408816Y-19901000D01*
X55241184Y-19901000D01*
X55076772Y-19868297D01*
X54921900Y-19804147D01*
X54782519Y-19711015D01*
X54663985Y-19592481D01*
X54570853Y-19453100D01*
X54506703Y-19298228D01*
X54474000Y-19133816D01*
X54474000Y-18966184D01*
X54506703Y-18801772D01*
X54570853Y-18646900D01*
X54663985Y-18507519D01*
X54782519Y-18388985D01*
X54921900Y-18295853D01*
X55076772Y-18231703D01*
X55241184Y-18199000D01*
X55408816Y-18199000D01*
X55573228Y-18231703D01*
G37*
G36*
X60573228Y-18231703D02*
G01*
X60728100Y-18295853D01*
X60867481Y-18388985D01*
X60986015Y-18507519D01*
X61079147Y-18646900D01*
X61143297Y-18801772D01*
X61176000Y-18966184D01*
X61176000Y-19133816D01*
X61143297Y-19298228D01*
X61079147Y-19453100D01*
X60986015Y-19592481D01*
X60867481Y-19711015D01*
X60728100Y-19804147D01*
X60573228Y-19868297D01*
X60408816Y-19901000D01*
X60241184Y-19901000D01*
X60076772Y-19868297D01*
X59921900Y-19804147D01*
X59782519Y-19711015D01*
X59663985Y-19592481D01*
X59570853Y-19453100D01*
X59506703Y-19298228D01*
X59474000Y-19133816D01*
X59474000Y-18966184D01*
X59506703Y-18801772D01*
X59570853Y-18646900D01*
X59663985Y-18507519D01*
X59782519Y-18388985D01*
X59921900Y-18295853D01*
X60076772Y-18231703D01*
X60241184Y-18199000D01*
X60408816Y-18199000D01*
X60573228Y-18231703D01*
G37*
G36*
X87681766Y-16446899D02*
G01*
X87813888Y-16501626D01*
X87813890Y-16501627D01*
X87932798Y-16581079D01*
X88033921Y-16682202D01*
X88033922Y-16682204D01*
X88113374Y-16801112D01*
X88168101Y-16933234D01*
X88196000Y-17073494D01*
X88196000Y-17216506D01*
X88168101Y-17356766D01*
X88113374Y-17488888D01*
X88113373Y-17488890D01*
X88033921Y-17607798D01*
X87932798Y-17708921D01*
X87813890Y-17788373D01*
X87813889Y-17788374D01*
X87813888Y-17788374D01*
X87681766Y-17843101D01*
X87541506Y-17871000D01*
X87398494Y-17871000D01*
X87258234Y-17843101D01*
X87126112Y-17788374D01*
X87126111Y-17788374D01*
X87126110Y-17788373D01*
X87007202Y-17708921D01*
X86906079Y-17607798D01*
X86826627Y-17488890D01*
X86826626Y-17488888D01*
X86771899Y-17356766D01*
X86744000Y-17216506D01*
X86744000Y-17073494D01*
X86771899Y-16933234D01*
X86826626Y-16801112D01*
X86906078Y-16682204D01*
X86906079Y-16682202D01*
X87007202Y-16581079D01*
X87126110Y-16501627D01*
X87126112Y-16501626D01*
X87258234Y-16446899D01*
X87398494Y-16419000D01*
X87541506Y-16419000D01*
X87681766Y-16446899D01*
G37*
G36*
X78196000Y-17871000D02*
G01*
X76744000Y-17871000D01*
X76744000Y-16419000D01*
X78196000Y-16419000D01*
X78196000Y-17871000D01*
G37*
G36*
X79681766Y-16446899D02*
G01*
X79813888Y-16501626D01*
X79813890Y-16501627D01*
X79932798Y-16581079D01*
X80033921Y-16682202D01*
X80033922Y-16682204D01*
X80113374Y-16801112D01*
X80168101Y-16933234D01*
X80196000Y-17073494D01*
X80196000Y-17216506D01*
X80168101Y-17356766D01*
X80113374Y-17488888D01*
X80113373Y-17488890D01*
X80033921Y-17607798D01*
X79932798Y-17708921D01*
X79813890Y-17788373D01*
X79813889Y-17788374D01*
X79813888Y-17788374D01*
X79681766Y-17843101D01*
X79541506Y-17871000D01*
X79398494Y-17871000D01*
X79258234Y-17843101D01*
X79126112Y-17788374D01*
X79126111Y-17788374D01*
X79126110Y-17788373D01*
X79007202Y-17708921D01*
X78906079Y-17607798D01*
X78826627Y-17488890D01*
X78826626Y-17488888D01*
X78771899Y-17356766D01*
X78744000Y-17216506D01*
X78744000Y-17073494D01*
X78771899Y-16933234D01*
X78826626Y-16801112D01*
X78906078Y-16682204D01*
X78906079Y-16682202D01*
X79007202Y-16581079D01*
X79126110Y-16501627D01*
X79126112Y-16501626D01*
X79258234Y-16446899D01*
X79398494Y-16419000D01*
X79541506Y-16419000D01*
X79681766Y-16446899D01*
G37*
G36*
X81681766Y-16446899D02*
G01*
X81813888Y-16501626D01*
X81813890Y-16501627D01*
X81932798Y-16581079D01*
X82033921Y-16682202D01*
X82033922Y-16682204D01*
X82113374Y-16801112D01*
X82168101Y-16933234D01*
X82196000Y-17073494D01*
X82196000Y-17216506D01*
X82168101Y-17356766D01*
X82113374Y-17488888D01*
X82113373Y-17488890D01*
X82033921Y-17607798D01*
X81932798Y-17708921D01*
X81813890Y-17788373D01*
X81813889Y-17788374D01*
X81813888Y-17788374D01*
X81681766Y-17843101D01*
X81541506Y-17871000D01*
X81398494Y-17871000D01*
X81258234Y-17843101D01*
X81126112Y-17788374D01*
X81126111Y-17788374D01*
X81126110Y-17788373D01*
X81007202Y-17708921D01*
X80906079Y-17607798D01*
X80826627Y-17488890D01*
X80826626Y-17488888D01*
X80771899Y-17356766D01*
X80744000Y-17216506D01*
X80744000Y-17073494D01*
X80771899Y-16933234D01*
X80826626Y-16801112D01*
X80906078Y-16682204D01*
X80906079Y-16682202D01*
X81007202Y-16581079D01*
X81126110Y-16501627D01*
X81126112Y-16501626D01*
X81258234Y-16446899D01*
X81398494Y-16419000D01*
X81541506Y-16419000D01*
X81681766Y-16446899D01*
G37*
G36*
X83681766Y-16446899D02*
G01*
X83813888Y-16501626D01*
X83813890Y-16501627D01*
X83932798Y-16581079D01*
X84033921Y-16682202D01*
X84033922Y-16682204D01*
X84113374Y-16801112D01*
X84168101Y-16933234D01*
X84196000Y-17073494D01*
X84196000Y-17216506D01*
X84168101Y-17356766D01*
X84113374Y-17488888D01*
X84113373Y-17488890D01*
X84033921Y-17607798D01*
X83932798Y-17708921D01*
X83813890Y-17788373D01*
X83813889Y-17788374D01*
X83813888Y-17788374D01*
X83681766Y-17843101D01*
X83541506Y-17871000D01*
X83398494Y-17871000D01*
X83258234Y-17843101D01*
X83126112Y-17788374D01*
X83126111Y-17788374D01*
X83126110Y-17788373D01*
X83007202Y-17708921D01*
X82906079Y-17607798D01*
X82826627Y-17488890D01*
X82826626Y-17488888D01*
X82771899Y-17356766D01*
X82744000Y-17216506D01*
X82744000Y-17073494D01*
X82771899Y-16933234D01*
X82826626Y-16801112D01*
X82906078Y-16682204D01*
X82906079Y-16682202D01*
X83007202Y-16581079D01*
X83126110Y-16501627D01*
X83126112Y-16501626D01*
X83258234Y-16446899D01*
X83398494Y-16419000D01*
X83541506Y-16419000D01*
X83681766Y-16446899D01*
G37*
G36*
X85681766Y-16446899D02*
G01*
X85813888Y-16501626D01*
X85813890Y-16501627D01*
X85932798Y-16581079D01*
X86033921Y-16682202D01*
X86033922Y-16682204D01*
X86113374Y-16801112D01*
X86168101Y-16933234D01*
X86196000Y-17073494D01*
X86196000Y-17216506D01*
X86168101Y-17356766D01*
X86113374Y-17488888D01*
X86113373Y-17488890D01*
X86033921Y-17607798D01*
X85932798Y-17708921D01*
X85813890Y-17788373D01*
X85813889Y-17788374D01*
X85813888Y-17788374D01*
X85681766Y-17843101D01*
X85541506Y-17871000D01*
X85398494Y-17871000D01*
X85258234Y-17843101D01*
X85126112Y-17788374D01*
X85126111Y-17788374D01*
X85126110Y-17788373D01*
X85007202Y-17708921D01*
X84906079Y-17607798D01*
X84826627Y-17488890D01*
X84826626Y-17488888D01*
X84771899Y-17356766D01*
X84744000Y-17216506D01*
X84744000Y-17073494D01*
X84771899Y-16933234D01*
X84826626Y-16801112D01*
X84906078Y-16682204D01*
X84906079Y-16682202D01*
X85007202Y-16581079D01*
X85126110Y-16501627D01*
X85126112Y-16501626D01*
X85258234Y-16446899D01*
X85398494Y-16419000D01*
X85541506Y-16419000D01*
X85681766Y-16446899D01*
G37*
G36*
X93681766Y-16446899D02*
G01*
X93813888Y-16501626D01*
X93813890Y-16501627D01*
X93932798Y-16581079D01*
X94033921Y-16682202D01*
X94033922Y-16682204D01*
X94113374Y-16801112D01*
X94168101Y-16933234D01*
X94196000Y-17073494D01*
X94196000Y-17216506D01*
X94168101Y-17356766D01*
X94113374Y-17488888D01*
X94113373Y-17488890D01*
X94033921Y-17607798D01*
X93932798Y-17708921D01*
X93813890Y-17788373D01*
X93813889Y-17788374D01*
X93813888Y-17788374D01*
X93681766Y-17843101D01*
X93541506Y-17871000D01*
X93398494Y-17871000D01*
X93258234Y-17843101D01*
X93126112Y-17788374D01*
X93126111Y-17788374D01*
X93126110Y-17788373D01*
X93007202Y-17708921D01*
X92906079Y-17607798D01*
X92826627Y-17488890D01*
X92826626Y-17488888D01*
X92771899Y-17356766D01*
X92744000Y-17216506D01*
X92744000Y-17073494D01*
X92771899Y-16933234D01*
X92826626Y-16801112D01*
X92906078Y-16682204D01*
X92906079Y-16682202D01*
X93007202Y-16581079D01*
X93126110Y-16501627D01*
X93126112Y-16501626D01*
X93258234Y-16446899D01*
X93398494Y-16419000D01*
X93541506Y-16419000D01*
X93681766Y-16446899D01*
G37*
G36*
X89681766Y-16446899D02*
G01*
X89813888Y-16501626D01*
X89813890Y-16501627D01*
X89932798Y-16581079D01*
X90033921Y-16682202D01*
X90033922Y-16682204D01*
X90113374Y-16801112D01*
X90168101Y-16933234D01*
X90196000Y-17073494D01*
X90196000Y-17216506D01*
X90168101Y-17356766D01*
X90113374Y-17488888D01*
X90113373Y-17488890D01*
X90033921Y-17607798D01*
X89932798Y-17708921D01*
X89813890Y-17788373D01*
X89813889Y-17788374D01*
X89813888Y-17788374D01*
X89681766Y-17843101D01*
X89541506Y-17871000D01*
X89398494Y-17871000D01*
X89258234Y-17843101D01*
X89126112Y-17788374D01*
X89126111Y-17788374D01*
X89126110Y-17788373D01*
X89007202Y-17708921D01*
X88906079Y-17607798D01*
X88826627Y-17488890D01*
X88826626Y-17488888D01*
X88771899Y-17356766D01*
X88744000Y-17216506D01*
X88744000Y-17073494D01*
X88771899Y-16933234D01*
X88826626Y-16801112D01*
X88906078Y-16682204D01*
X88906079Y-16682202D01*
X89007202Y-16581079D01*
X89126110Y-16501627D01*
X89126112Y-16501626D01*
X89258234Y-16446899D01*
X89398494Y-16419000D01*
X89541506Y-16419000D01*
X89681766Y-16446899D01*
G37*
G36*
X91681766Y-16446899D02*
G01*
X91813888Y-16501626D01*
X91813890Y-16501627D01*
X91932798Y-16581079D01*
X92033921Y-16682202D01*
X92033922Y-16682204D01*
X92113374Y-16801112D01*
X92168101Y-16933234D01*
X92196000Y-17073494D01*
X92196000Y-17216506D01*
X92168101Y-17356766D01*
X92113374Y-17488888D01*
X92113373Y-17488890D01*
X92033921Y-17607798D01*
X91932798Y-17708921D01*
X91813890Y-17788373D01*
X91813889Y-17788374D01*
X91813888Y-17788374D01*
X91681766Y-17843101D01*
X91541506Y-17871000D01*
X91398494Y-17871000D01*
X91258234Y-17843101D01*
X91126112Y-17788374D01*
X91126111Y-17788374D01*
X91126110Y-17788373D01*
X91007202Y-17708921D01*
X90906079Y-17607798D01*
X90826627Y-17488890D01*
X90826626Y-17488888D01*
X90771899Y-17356766D01*
X90744000Y-17216506D01*
X90744000Y-17073494D01*
X90771899Y-16933234D01*
X90826626Y-16801112D01*
X90906078Y-16682204D01*
X90906079Y-16682202D01*
X91007202Y-16581079D01*
X91126110Y-16501627D01*
X91126112Y-16501626D01*
X91258234Y-16446899D01*
X91398494Y-16419000D01*
X91541506Y-16419000D01*
X91681766Y-16446899D01*
G37*
G36*
X95681766Y-16446899D02*
G01*
X95813888Y-16501626D01*
X95813890Y-16501627D01*
X95932798Y-16581079D01*
X96033921Y-16682202D01*
X96033922Y-16682204D01*
X96113374Y-16801112D01*
X96168101Y-16933234D01*
X96196000Y-17073494D01*
X96196000Y-17216506D01*
X96168101Y-17356766D01*
X96113374Y-17488888D01*
X96113373Y-17488890D01*
X96033921Y-17607798D01*
X95932798Y-17708921D01*
X95813890Y-17788373D01*
X95813889Y-17788374D01*
X95813888Y-17788374D01*
X95681766Y-17843101D01*
X95541506Y-17871000D01*
X95398494Y-17871000D01*
X95258234Y-17843101D01*
X95126112Y-17788374D01*
X95126111Y-17788374D01*
X95126110Y-17788373D01*
X95007202Y-17708921D01*
X94906079Y-17607798D01*
X94826627Y-17488890D01*
X94826626Y-17488888D01*
X94771899Y-17356766D01*
X94744000Y-17216506D01*
X94744000Y-17073494D01*
X94771899Y-16933234D01*
X94826626Y-16801112D01*
X94906078Y-16682204D01*
X94906079Y-16682202D01*
X95007202Y-16581079D01*
X95126110Y-16501627D01*
X95126112Y-16501626D01*
X95258234Y-16446899D01*
X95398494Y-16419000D01*
X95541506Y-16419000D01*
X95681766Y-16446899D01*
G37*
M02*
